G04 #@! TF.FileFunction,Copper,L2,Bot,Signal*
%FSLAX46Y46*%
G04 Gerber Fmt 4.6, Leading zero omitted, Abs format (unit mm)*
G04 Created by KiCad (PCBNEW (2016-02-18 BZR 6566)-product) date Monday, 28 March 2016 11:35:06*
%MOMM*%
G01*
G04 APERTURE LIST*
%ADD10C,0.100000*%
%ADD11R,4.572000X1.524000*%
%ADD12C,1.501140*%
%ADD13R,2.032000X1.727200*%
%ADD14O,2.032000X1.727200*%
%ADD15C,0.600000*%
%ADD16C,0.250000*%
%ADD17C,0.300000*%
%ADD18C,0.160000*%
%ADD19C,0.500000*%
%ADD20C,1.000000*%
%ADD21C,0.200000*%
G04 APERTURE END LIST*
D10*
D11*
X177766700Y-76840240D03*
X177766700Y-83164840D03*
X177766700Y-76840240D03*
X177766700Y-83164840D03*
X107519300Y-83164840D03*
X107519300Y-76840240D03*
X107519300Y-83164840D03*
X107519300Y-76840240D03*
D12*
X129460000Y-76360000D03*
X132000000Y-76360000D03*
X130730000Y-73820000D03*
X152320000Y-71280000D03*
X132000000Y-71280000D03*
X134540000Y-75090000D03*
X143430000Y-76360000D03*
X143430000Y-73820000D03*
X112950000Y-71280000D03*
D13*
X126722000Y-83646000D03*
D14*
X126722000Y-81106000D03*
X126722000Y-78566000D03*
X126722000Y-76026000D03*
D12*
X178990000Y-89060000D03*
X106600000Y-71280000D03*
D15*
X127110000Y-70430000D03*
X156425020Y-76997884D03*
X151349244Y-78839998D03*
X126460000Y-72070000D03*
X121743146Y-74302249D03*
X122946880Y-77719383D03*
X142195740Y-85725012D03*
X132000000Y-72870000D03*
X156879654Y-85774980D03*
X133820000Y-76740000D03*
X132650000Y-74580000D03*
X130850000Y-77300000D03*
X130072396Y-87979980D03*
X129058140Y-87112967D03*
X128188799Y-84994629D03*
X128610000Y-75200000D03*
X125170000Y-74430000D03*
X176663540Y-85330000D03*
X176663540Y-85330000D03*
X178340000Y-75040000D03*
X176420000Y-75040000D03*
X107533575Y-81644665D03*
X106123393Y-75097391D03*
X107533575Y-78169574D03*
X109140000Y-75030000D03*
X106200000Y-84510000D03*
X108890000Y-84400000D03*
X115020000Y-81110000D03*
X115050000Y-78900000D03*
X111940000Y-81495002D03*
X158075000Y-83300000D03*
X142200000Y-82525000D03*
X137550002Y-85638944D03*
X121950000Y-71310000D03*
X122160000Y-72950000D03*
X140810000Y-72610000D03*
X124770000Y-84990000D03*
X133890000Y-72750000D03*
X136030000Y-75150000D03*
X133610065Y-79475031D03*
X139250328Y-82927140D03*
X138303905Y-75812184D03*
X137340000Y-75620000D03*
X150330000Y-78960000D03*
X149600000Y-82570000D03*
X150970000Y-85120000D03*
X146100000Y-85109999D03*
X145580000Y-89060000D03*
X116760000Y-89060000D03*
X116760000Y-73820000D03*
X136080000Y-82840000D03*
X132660000Y-78090000D03*
X142460919Y-79994545D03*
X129367227Y-85412934D03*
X115460000Y-85470000D03*
X125125020Y-77233044D03*
X129700000Y-81040000D03*
X121173443Y-80681561D03*
X116200000Y-80710000D03*
X141989254Y-78289254D03*
X128669074Y-79211104D03*
X155174980Y-75421119D03*
X141543791Y-76201188D03*
X155174980Y-77143811D03*
X142410000Y-77574980D03*
X155406955Y-79006955D03*
X141500000Y-77000000D03*
X155400000Y-80900000D03*
X140622166Y-76051746D03*
X142089978Y-81455018D03*
X155308465Y-82964980D03*
X141714137Y-84045412D03*
X171710000Y-76920000D03*
X141983340Y-80662145D03*
X171700000Y-75000000D03*
X171675000Y-72975000D03*
X134625000Y-82050000D03*
X135600020Y-81561613D03*
X122700000Y-74300000D03*
X120160000Y-87480000D03*
X141305671Y-83223417D03*
X121254043Y-86854980D03*
X141400472Y-82272186D03*
X132754378Y-85041961D03*
X140017956Y-83334997D03*
D16*
X129045736Y-71510000D02*
X128390000Y-72165736D01*
X128390000Y-72165736D02*
X127835736Y-72720000D01*
X127110000Y-70430000D02*
X128390000Y-71710000D01*
X128390000Y-71710000D02*
X128390000Y-72165736D01*
D17*
X130620000Y-72081154D02*
X131058846Y-72520000D01*
X131058846Y-72520000D02*
X131650000Y-72520000D01*
D16*
X156117083Y-77305821D02*
X156125021Y-77297883D01*
X156125021Y-77297883D02*
X156425020Y-76997884D01*
X151349244Y-78839998D02*
X154549257Y-78839998D01*
X156083434Y-77318432D02*
X156083434Y-77305821D01*
X156120000Y-77354998D02*
X156083434Y-77318432D01*
X154549257Y-78839998D02*
X156083434Y-77305821D01*
X156083434Y-77305821D02*
X156117083Y-77305821D01*
X151349244Y-78839998D02*
X151349244Y-78906965D01*
X155049674Y-87604960D02*
X144075688Y-87604960D01*
X142495739Y-86025011D02*
X142195740Y-85725012D01*
X144075688Y-87604960D02*
X142495739Y-86025011D01*
X156879654Y-85774980D02*
X155049674Y-87604960D01*
X127835736Y-72720000D02*
X126460000Y-72720000D01*
X126460000Y-72720000D02*
X123300000Y-72720000D01*
D18*
X126460000Y-72070000D02*
X126460000Y-72494264D01*
X126460000Y-72494264D02*
X126460000Y-72720000D01*
D17*
X131650000Y-72520000D02*
X132000000Y-72870000D01*
X130048846Y-71510000D02*
X130620000Y-72081154D01*
X129470000Y-71510000D02*
X130048846Y-71510000D01*
D16*
X123300000Y-72770000D02*
X121729750Y-74340250D01*
X123300000Y-72720000D02*
X123300000Y-72770000D01*
X129470000Y-71510000D02*
X129045736Y-71510000D01*
D17*
X121743146Y-76515649D02*
X121743146Y-74726513D01*
X121743146Y-74726513D02*
X121743146Y-74302249D01*
X122946880Y-77719383D02*
X121743146Y-76515649D01*
D16*
X130850000Y-75918154D02*
X132188154Y-74580000D01*
X132188154Y-74580000D02*
X132225736Y-74580000D01*
X130850000Y-77300000D02*
X130850000Y-75918154D01*
X132225736Y-74580000D02*
X132650000Y-74580000D01*
X132650000Y-74580000D02*
X133075571Y-75005571D01*
X133075571Y-75995571D02*
X133820000Y-76740000D01*
X133075571Y-75005571D02*
X133075571Y-75995571D01*
X157775001Y-83599999D02*
X158075000Y-83300000D01*
X150342800Y-84025024D02*
X157349976Y-84025024D01*
X147357176Y-82525000D02*
X148927199Y-84095023D01*
X150272801Y-84095023D02*
X150342800Y-84025024D01*
X148927199Y-84095023D02*
X150272801Y-84095023D01*
X142200000Y-82525000D02*
X147357176Y-82525000D01*
X157349976Y-84025024D02*
X157775001Y-83599999D01*
D17*
X130072396Y-87979980D02*
X129205383Y-87112967D01*
X129205383Y-87112967D02*
X129058140Y-87112967D01*
X176420000Y-75040000D02*
X178340000Y-75040000D01*
D19*
X111940000Y-81495002D02*
X107683238Y-81495002D01*
X107683238Y-81495002D02*
X107533575Y-81644665D01*
X106547657Y-75097391D02*
X106123393Y-75097391D01*
X111247391Y-75097391D02*
X106547657Y-75097391D01*
X115050000Y-78900000D02*
X111247391Y-75097391D01*
X107833574Y-78469573D02*
X107533575Y-78169574D01*
X108264001Y-78900000D02*
X107833574Y-78469573D01*
X115050000Y-78900000D02*
X108264001Y-78900000D01*
X109140000Y-75030000D02*
X113010000Y-78900000D01*
X113010000Y-78900000D02*
X115050000Y-78900000D01*
X106200000Y-84510000D02*
X108780000Y-84510000D01*
X108780000Y-84510000D02*
X108890000Y-84400000D01*
X108890000Y-84400000D02*
X109035002Y-84400000D01*
X109035002Y-84400000D02*
X111940000Y-81495002D01*
X115050000Y-78900000D02*
X115050000Y-81080000D01*
X115050000Y-81080000D02*
X115020000Y-81110000D01*
D16*
X142050000Y-82375000D02*
X142050000Y-82100000D01*
X142200000Y-82525000D02*
X142050000Y-82375000D01*
D17*
X139250328Y-82927140D02*
X139250328Y-83938618D01*
X139250328Y-83938618D02*
X137550002Y-85638944D01*
X139250328Y-82927140D02*
X139550327Y-82627141D01*
X139550327Y-82627141D02*
X139822859Y-82627141D01*
D18*
X122160000Y-72950000D02*
X122160000Y-71520000D01*
X122160000Y-71520000D02*
X121950000Y-71310000D01*
D19*
X126722000Y-83646000D02*
X126114000Y-83646000D01*
X126114000Y-83646000D02*
X124770000Y-84990000D01*
D16*
X138303905Y-75387920D02*
X138303905Y-75812184D01*
X130522313Y-75609431D02*
X132176745Y-73954999D01*
X130210569Y-75609431D02*
X130522313Y-75609431D01*
X136870984Y-73954999D02*
X138303905Y-75387920D01*
X132176745Y-73954999D02*
X136870984Y-73954999D01*
X129460000Y-76360000D02*
X130210569Y-75609431D01*
X135105001Y-74524999D02*
X136669263Y-74524999D01*
X136669263Y-74524999D02*
X137340000Y-75195736D01*
X137340000Y-75195736D02*
X137340000Y-75620000D01*
X134540000Y-75090000D02*
X135105001Y-74524999D01*
X150330000Y-78960000D02*
X150330000Y-81840000D01*
X150330000Y-81840000D02*
X149600000Y-82570000D01*
D20*
X109140000Y-71280000D02*
X106600000Y-71280000D01*
D16*
X146100000Y-85109999D02*
X150959999Y-85109999D01*
X150959999Y-85109999D02*
X150970000Y-85120000D01*
D20*
X116760000Y-89060000D02*
X145580000Y-89060000D01*
X115670571Y-72730571D02*
X116760000Y-73820000D01*
X109140000Y-71280000D02*
X110590571Y-72730571D01*
X110590571Y-72730571D02*
X115670571Y-72730571D01*
D16*
X132660000Y-81155002D02*
X134344998Y-82840000D01*
X134344998Y-82840000D02*
X135655736Y-82840000D01*
X135655736Y-82840000D02*
X136080000Y-82840000D01*
X132660000Y-78090000D02*
X132660000Y-81155002D01*
X141123281Y-79994545D02*
X142036655Y-79994545D01*
X142036655Y-79994545D02*
X142460919Y-79994545D01*
X130415137Y-84365024D02*
X136752802Y-84365024D01*
X136752802Y-84365024D02*
X141123281Y-79994545D01*
X129367227Y-85412934D02*
X130415137Y-84365024D01*
X128942963Y-85412934D02*
X129367227Y-85412934D01*
X128385338Y-85587943D02*
X128767954Y-85587943D01*
X127973282Y-86000000D02*
X128385338Y-85587943D01*
X128767954Y-85587943D02*
X128942963Y-85412934D01*
X129367227Y-84988670D02*
X129367227Y-85412934D01*
X129059348Y-81610000D02*
X129367227Y-81917879D01*
X129367227Y-81917879D02*
X129367227Y-84988670D01*
X124760000Y-86000000D02*
X127973282Y-86000000D01*
X124760000Y-86000000D02*
X124620000Y-86000000D01*
X115460000Y-85470000D02*
X115990000Y-86000000D01*
X115990000Y-86000000D02*
X124760000Y-86000000D01*
X125125020Y-77657308D02*
X125125020Y-77233044D01*
X125125020Y-79679800D02*
X125125020Y-77657308D01*
X129059348Y-81610000D02*
X127366738Y-79917390D01*
X127366738Y-79917390D02*
X125362610Y-79917390D01*
X125362610Y-79917390D02*
X125125020Y-79679800D01*
X129700000Y-81040000D02*
X129130000Y-81610000D01*
X129130000Y-81610000D02*
X129059348Y-81610000D01*
X116200000Y-80710000D02*
X121145004Y-80710000D01*
X121145004Y-80710000D02*
X121173443Y-80681561D01*
X128023970Y-78566000D02*
X128669074Y-79211104D01*
X126722000Y-78566000D02*
X128023970Y-78566000D01*
X134147189Y-83915013D02*
X129443280Y-79211104D01*
X129443280Y-79211104D02*
X129093338Y-79211104D01*
X141689255Y-78589253D02*
X141689255Y-78792160D01*
X141689255Y-78792160D02*
X136566402Y-83915013D01*
X136566402Y-83915013D02*
X134147189Y-83915013D01*
X141989254Y-78289254D02*
X141689255Y-78589253D01*
X129093338Y-79211104D02*
X128669074Y-79211104D01*
X142354429Y-73303725D02*
X142913725Y-72744429D01*
X145861835Y-74659989D02*
X154413850Y-74659989D01*
X141543791Y-76201188D02*
X141543791Y-75146913D01*
X142354429Y-74336275D02*
X142354429Y-73303725D01*
X143946275Y-72744429D02*
X145861835Y-74659989D01*
X154413850Y-74659989D02*
X154874981Y-75121120D01*
X154874981Y-75121120D02*
X155174980Y-75421119D01*
X141543791Y-75146913D02*
X142354429Y-74336275D01*
X142913725Y-72744429D02*
X143946275Y-72744429D01*
X142410000Y-77574980D02*
X154743811Y-77574980D01*
X154743811Y-77574980D02*
X154874981Y-77443810D01*
X154874981Y-77443810D02*
X155174980Y-77143811D01*
X141924264Y-77000000D02*
X142210000Y-76714264D01*
X157050021Y-76697883D02*
X157050021Y-77363889D01*
X141500000Y-77000000D02*
X141924264Y-77000000D01*
X155706954Y-78706956D02*
X155406955Y-79006955D01*
X153710000Y-75110000D02*
X154972883Y-76372883D01*
X142770000Y-75110000D02*
X153710000Y-75110000D01*
X142210000Y-76714264D02*
X142210000Y-75670000D01*
X157050021Y-77363889D02*
X155706954Y-78706956D01*
X156725021Y-76372883D02*
X157050021Y-76697883D01*
X154972883Y-76372883D02*
X156725021Y-76372883D01*
X142210000Y-75670000D02*
X142770000Y-75110000D01*
X140622166Y-75627482D02*
X140622166Y-76051746D01*
X140622166Y-75074244D02*
X140622166Y-75627482D01*
X141904418Y-73791994D02*
X140622166Y-75074244D01*
X144132675Y-72294418D02*
X142727325Y-72294418D01*
X142727325Y-72294418D02*
X141904418Y-73117325D01*
X141904418Y-73117325D02*
X141904418Y-73791994D01*
X145263268Y-73425011D02*
X144132675Y-72294418D01*
X155425011Y-73425011D02*
X145263268Y-73425011D01*
X157800000Y-75800000D02*
X155425011Y-73425011D01*
X157800000Y-78500000D02*
X157800000Y-75800000D01*
X155400000Y-80900000D02*
X157800000Y-78500000D01*
X150766433Y-82964980D02*
X150086401Y-83645012D01*
X142514242Y-81455018D02*
X142089978Y-81455018D01*
X149113599Y-83645012D02*
X146923605Y-81455018D01*
X146923605Y-81455018D02*
X142514242Y-81455018D01*
X150086401Y-83645012D02*
X149113599Y-83645012D01*
X155308465Y-82964980D02*
X150766433Y-82964980D01*
X142138401Y-84045412D02*
X141714137Y-84045412D01*
X164154965Y-84475035D02*
X150529200Y-84475035D01*
X148241178Y-84045412D02*
X142138401Y-84045412D01*
X148740799Y-84545034D02*
X148241178Y-84045412D01*
X150459201Y-84545034D02*
X148740799Y-84545034D01*
X150529200Y-84475035D02*
X150459201Y-84545034D01*
X171710000Y-76920000D02*
X164154965Y-84475035D01*
X149299999Y-83195001D02*
X146767143Y-80662145D01*
X171700000Y-75000000D02*
X164505359Y-82194641D01*
X164505359Y-82194641D02*
X150900361Y-82194641D01*
X150900361Y-82194641D02*
X149900001Y-83195001D01*
X149900001Y-83195001D02*
X149299999Y-83195001D01*
X146767143Y-80662145D02*
X142407604Y-80662145D01*
X142407604Y-80662145D02*
X141983340Y-80662145D01*
X144309410Y-71819410D02*
X145465000Y-72975000D01*
X145465000Y-72975000D02*
X171675000Y-72975000D01*
X142530569Y-71819410D02*
X144309410Y-71819410D01*
D17*
X140147156Y-75564754D02*
X140147156Y-74877489D01*
X141429408Y-72920570D02*
X142530569Y-71819410D01*
X134625000Y-82050000D02*
X134950019Y-81724981D01*
X140141709Y-76533291D02*
X139972165Y-76363747D01*
X139972165Y-76363747D02*
X139972165Y-75739745D01*
X141429408Y-73595239D02*
X141429408Y-72920570D01*
X134950019Y-81724981D02*
X134950019Y-81249612D01*
X135763388Y-80911612D02*
X140141709Y-76533291D01*
X140147156Y-74877489D02*
X141429408Y-73595239D01*
X134950019Y-81249612D02*
X135288019Y-80911612D01*
X135288019Y-80911612D02*
X135763388Y-80911612D01*
X139972165Y-75739745D02*
X140147156Y-75564754D01*
D16*
X122700000Y-74300000D02*
X123124264Y-74300000D01*
X126201654Y-77377390D02*
X128245977Y-77377390D01*
X123124264Y-74300000D02*
X126201654Y-77377390D01*
X128245977Y-77377390D02*
X134333589Y-83465002D01*
X134333589Y-83465002D02*
X136380002Y-83465002D01*
X136380002Y-83465002D02*
X136705002Y-83140002D01*
X136705002Y-83140002D02*
X136705002Y-82242331D01*
X136705002Y-82242331D02*
X136024284Y-81561613D01*
X136024284Y-81561613D02*
X135600020Y-81561613D01*
X129358142Y-86487965D02*
X128758138Y-86487965D01*
X128758138Y-86487965D02*
X127766103Y-87480000D01*
X140625361Y-84761411D02*
X138222804Y-87163968D01*
X130034145Y-87163968D02*
X129358142Y-86487965D01*
X140625361Y-84326680D02*
X140625361Y-84761411D01*
X141130661Y-83398427D02*
X141130661Y-83821380D01*
X120584264Y-87480000D02*
X120160000Y-87480000D01*
X141130661Y-83821380D02*
X140625361Y-84326680D01*
X141305671Y-83223417D02*
X141130661Y-83398427D01*
X127766103Y-87480000D02*
X120584264Y-87480000D01*
X138222804Y-87163968D02*
X130034145Y-87163968D01*
X127754712Y-86854980D02*
X121678307Y-86854980D01*
X128571738Y-86037954D02*
X127754712Y-86854980D01*
X130220545Y-86713957D02*
X129544542Y-86037954D01*
X138036404Y-86713957D02*
X130220545Y-86713957D01*
X140175350Y-84575011D02*
X138036404Y-86713957D01*
X140175350Y-84140280D02*
X140175350Y-84575011D01*
X140976208Y-82272186D02*
X140680650Y-82567744D01*
X141400472Y-82272186D02*
X140976208Y-82272186D01*
X121678307Y-86854980D02*
X121254043Y-86854980D01*
X129544542Y-86037954D02*
X128571738Y-86037954D01*
X140680650Y-82567744D02*
X140680650Y-83634980D01*
X140680650Y-83634980D02*
X140175350Y-84140280D01*
X139725339Y-83627614D02*
X139725339Y-84388611D01*
X140017956Y-83334997D02*
X139725339Y-83627614D01*
X133178642Y-85041961D02*
X132754378Y-85041961D01*
X136028015Y-85041961D02*
X133178642Y-85041961D01*
X139725339Y-84388611D02*
X137850004Y-86263946D01*
X137850004Y-86263946D02*
X137250000Y-86263946D01*
X137250000Y-86263946D02*
X136028015Y-85041961D01*
D21*
G36*
X106005677Y-70388851D02*
X105709889Y-70684123D01*
X105549613Y-71070112D01*
X105549248Y-71488055D01*
X105708851Y-71874323D01*
X106004123Y-72170111D01*
X106390112Y-72330387D01*
X106808055Y-72330752D01*
X107194323Y-72171149D01*
X107285631Y-72080000D01*
X108808630Y-72080000D01*
X110024885Y-73296256D01*
X110206855Y-73417845D01*
X110284424Y-73469675D01*
X110590571Y-73530571D01*
X115339201Y-73530571D01*
X116194314Y-74385685D01*
X116453853Y-74559104D01*
X116760000Y-74619999D01*
X117066147Y-74559104D01*
X117325685Y-74385685D01*
X117499104Y-74126147D01*
X117559999Y-73820000D01*
X117499104Y-73513853D01*
X117325685Y-73254314D01*
X116236256Y-72164886D01*
X115976718Y-71991467D01*
X115670571Y-71930571D01*
X110921942Y-71930571D01*
X109705685Y-70714315D01*
X109446147Y-70540896D01*
X109140000Y-70480000D01*
X107285831Y-70480000D01*
X107195877Y-70389889D01*
X107160020Y-70375000D01*
X126510047Y-70375000D01*
X126509896Y-70548824D01*
X126601048Y-70769429D01*
X126769683Y-70938359D01*
X126990129Y-71029896D01*
X127108959Y-71030000D01*
X127965000Y-71886041D01*
X127965000Y-71989695D01*
X127659696Y-72295000D01*
X127016243Y-72295000D01*
X127059896Y-72189871D01*
X127060104Y-71951176D01*
X126968952Y-71730571D01*
X126800317Y-71561641D01*
X126579871Y-71470104D01*
X126341176Y-71469896D01*
X126120571Y-71561048D01*
X125951641Y-71729683D01*
X125860104Y-71950129D01*
X125859896Y-72188824D01*
X125903767Y-72295000D01*
X123300000Y-72295000D01*
X123137360Y-72327351D01*
X122999480Y-72419480D01*
X122907351Y-72557360D01*
X122906296Y-72562664D01*
X121766691Y-73702269D01*
X121624322Y-73702145D01*
X121403717Y-73793297D01*
X121234787Y-73961932D01*
X121143250Y-74182378D01*
X121143042Y-74421073D01*
X121234194Y-74641678D01*
X121293146Y-74700733D01*
X121293146Y-76515649D01*
X121327400Y-76687857D01*
X121402418Y-76800129D01*
X121424948Y-76833847D01*
X122346848Y-77755747D01*
X122346776Y-77838207D01*
X122437928Y-78058812D01*
X122606563Y-78227742D01*
X122827009Y-78319279D01*
X123065704Y-78319487D01*
X123286309Y-78228335D01*
X123455239Y-78059700D01*
X123546776Y-77839254D01*
X123546984Y-77600559D01*
X123455832Y-77379954D01*
X123287197Y-77211024D01*
X123066751Y-77119487D01*
X122983307Y-77119414D01*
X122193146Y-76329253D01*
X122193146Y-74700823D01*
X122222792Y-74671229D01*
X122359683Y-74808359D01*
X122580129Y-74899896D01*
X122818824Y-74900104D01*
X123034297Y-74811073D01*
X124900030Y-76676807D01*
X124785591Y-76724092D01*
X124616661Y-76892727D01*
X124525124Y-77113173D01*
X124524916Y-77351868D01*
X124616068Y-77572473D01*
X124700020Y-77656572D01*
X124700020Y-79679800D01*
X124726117Y-79811000D01*
X124732371Y-79842441D01*
X124824500Y-79980320D01*
X125062090Y-80217910D01*
X125199969Y-80310039D01*
X125226953Y-80315406D01*
X125362610Y-80342390D01*
X125681487Y-80342390D01*
X125468792Y-80660710D01*
X125380218Y-81106000D01*
X125468792Y-81551290D01*
X125721029Y-81928789D01*
X126098528Y-82181026D01*
X126543818Y-82269600D01*
X126900182Y-82269600D01*
X127345472Y-82181026D01*
X127722971Y-81928789D01*
X127975208Y-81551290D01*
X128045619Y-81197311D01*
X128758828Y-81910520D01*
X128942227Y-82093920D01*
X128942227Y-84988080D01*
X128807306Y-85014918D01*
X128780322Y-85020285D01*
X128642443Y-85112414D01*
X128591914Y-85162943D01*
X128385338Y-85162943D01*
X128222698Y-85195294D01*
X128208768Y-85204602D01*
X128084817Y-85287423D01*
X127797241Y-85575000D01*
X116166041Y-85575000D01*
X116060001Y-85468961D01*
X116060104Y-85351176D01*
X115968952Y-85130571D01*
X115800317Y-84961641D01*
X115579871Y-84870104D01*
X115341176Y-84869896D01*
X115120571Y-84961048D01*
X114951641Y-85129683D01*
X114860104Y-85350129D01*
X114859896Y-85588824D01*
X114951048Y-85809429D01*
X115119683Y-85978359D01*
X115340129Y-86069896D01*
X115458959Y-86070000D01*
X115689479Y-86300520D01*
X115781608Y-86362078D01*
X115827360Y-86392649D01*
X115990000Y-86425000D01*
X120835504Y-86425000D01*
X120745684Y-86514663D01*
X120654147Y-86735109D01*
X120653939Y-86973804D01*
X120687488Y-87055000D01*
X120583530Y-87055000D01*
X120500317Y-86971641D01*
X120279871Y-86880104D01*
X120041176Y-86879896D01*
X119820571Y-86971048D01*
X119651641Y-87139683D01*
X119560104Y-87360129D01*
X119559896Y-87598824D01*
X119651048Y-87819429D01*
X119819683Y-87988359D01*
X120040129Y-88079896D01*
X120278824Y-88080104D01*
X120499429Y-87988952D01*
X120583528Y-87905000D01*
X127766103Y-87905000D01*
X127901760Y-87878016D01*
X127928744Y-87872649D01*
X128066623Y-87780520D01*
X128934179Y-86912965D01*
X129182102Y-86912965D01*
X129733625Y-87464489D01*
X129871504Y-87556617D01*
X130034145Y-87588968D01*
X138222804Y-87588968D01*
X138358461Y-87561984D01*
X138385445Y-87556617D01*
X138523324Y-87464488D01*
X140143976Y-85843836D01*
X141595636Y-85843836D01*
X141686788Y-86064441D01*
X141855423Y-86233371D01*
X142075869Y-86324908D01*
X142194699Y-86325012D01*
X142195219Y-86325532D01*
X142195222Y-86325534D01*
X143775167Y-87905480D01*
X143867296Y-87967038D01*
X143913048Y-87997609D01*
X144075688Y-88029960D01*
X155049674Y-88029960D01*
X155185331Y-88002976D01*
X155212315Y-87997609D01*
X155350194Y-87905480D01*
X156880693Y-86374981D01*
X156998478Y-86375084D01*
X157219083Y-86283932D01*
X157388013Y-86115297D01*
X157479550Y-85894851D01*
X157479758Y-85656156D01*
X157388606Y-85435551D01*
X157219971Y-85266621D01*
X156999525Y-85175084D01*
X156760830Y-85174876D01*
X156540225Y-85266028D01*
X156371295Y-85434663D01*
X156279758Y-85655109D01*
X156279654Y-85773939D01*
X154873634Y-87179960D01*
X144251729Y-87179960D01*
X142796262Y-85724494D01*
X142796260Y-85724491D01*
X142795741Y-85723972D01*
X142795844Y-85606188D01*
X142704692Y-85385583D01*
X142536057Y-85216653D01*
X142315611Y-85125116D01*
X142076916Y-85124908D01*
X141856311Y-85216060D01*
X141687381Y-85384695D01*
X141595844Y-85605141D01*
X141595636Y-85843836D01*
X140143976Y-85843836D01*
X140925882Y-85061931D01*
X141018010Y-84924052D01*
X141050361Y-84761411D01*
X141050361Y-84502720D01*
X141194383Y-84358698D01*
X141205185Y-84384841D01*
X141373820Y-84553771D01*
X141594266Y-84645308D01*
X141832961Y-84645516D01*
X142053566Y-84554364D01*
X142137665Y-84470412D01*
X148065137Y-84470412D01*
X148279724Y-84684999D01*
X146523530Y-84684999D01*
X146440317Y-84601640D01*
X146219871Y-84510103D01*
X145981176Y-84509895D01*
X145760571Y-84601047D01*
X145591641Y-84769682D01*
X145500104Y-84990128D01*
X145499896Y-85228823D01*
X145591048Y-85449428D01*
X145759683Y-85618358D01*
X145980129Y-85709895D01*
X146218824Y-85710103D01*
X146439429Y-85618951D01*
X146523528Y-85534999D01*
X150536486Y-85534999D01*
X150629683Y-85628359D01*
X150850129Y-85719896D01*
X151088824Y-85720104D01*
X151309429Y-85628952D01*
X151478359Y-85460317D01*
X151569896Y-85239871D01*
X151570104Y-85001176D01*
X151528313Y-84900035D01*
X164154965Y-84900035D01*
X164305439Y-84870104D01*
X164317606Y-84867684D01*
X164455485Y-84775555D01*
X171711039Y-77520001D01*
X171828824Y-77520104D01*
X172049429Y-77428952D01*
X172218359Y-77260317D01*
X172309896Y-77039871D01*
X172310104Y-76801176D01*
X172218952Y-76580571D01*
X172050317Y-76411641D01*
X171829871Y-76320104D01*
X171591176Y-76319896D01*
X171370571Y-76411048D01*
X171201641Y-76579683D01*
X171110104Y-76800129D01*
X171110000Y-76918960D01*
X163978925Y-84050035D01*
X150529200Y-84050035D01*
X150366559Y-84082386D01*
X150310215Y-84120034D01*
X148916840Y-84120034D01*
X148541699Y-83744892D01*
X148436239Y-83674426D01*
X148403818Y-83652763D01*
X148241178Y-83620412D01*
X142137667Y-83620412D01*
X142054454Y-83537053D01*
X141858837Y-83455826D01*
X141905567Y-83343288D01*
X141905775Y-83104593D01*
X141814623Y-82883988D01*
X141720114Y-82789314D01*
X141739901Y-82781138D01*
X141908831Y-82612503D01*
X142000368Y-82392057D01*
X142000576Y-82153362D01*
X141957784Y-82049797D01*
X141970107Y-82054914D01*
X142208802Y-82055122D01*
X142429407Y-81963970D01*
X142513506Y-81880018D01*
X146747565Y-81880018D01*
X148813078Y-83945532D01*
X148888554Y-83995963D01*
X148950959Y-84037661D01*
X149113599Y-84070012D01*
X150086401Y-84070012D01*
X150222058Y-84043028D01*
X150249042Y-84037661D01*
X150386921Y-83945532D01*
X150942474Y-83389980D01*
X154884935Y-83389980D01*
X154968148Y-83473339D01*
X155188594Y-83564876D01*
X155427289Y-83565084D01*
X155647894Y-83473932D01*
X155816824Y-83305297D01*
X155908361Y-83084851D01*
X155908569Y-82846156D01*
X155817417Y-82625551D01*
X155811517Y-82619641D01*
X164505359Y-82619641D01*
X164641016Y-82592657D01*
X164668000Y-82587290D01*
X164805879Y-82495161D01*
X171701039Y-75600001D01*
X171818824Y-75600104D01*
X172039429Y-75508952D01*
X172208359Y-75340317D01*
X172299896Y-75119871D01*
X172300104Y-74881176D01*
X172208952Y-74660571D01*
X172040317Y-74491641D01*
X171819871Y-74400104D01*
X171581176Y-74399896D01*
X171360571Y-74491048D01*
X171191641Y-74659683D01*
X171100104Y-74880129D01*
X171100000Y-74998960D01*
X164329319Y-81769641D01*
X150900361Y-81769641D01*
X150755000Y-81798555D01*
X150755000Y-79383530D01*
X150838359Y-79300317D01*
X150874378Y-79213573D01*
X151008927Y-79348357D01*
X151229373Y-79439894D01*
X151468068Y-79440102D01*
X151688673Y-79348950D01*
X151772772Y-79264998D01*
X154549257Y-79264998D01*
X154684914Y-79238014D01*
X154711898Y-79232647D01*
X154820911Y-79159806D01*
X154898003Y-79346384D01*
X155066638Y-79515314D01*
X155287084Y-79606851D01*
X155525779Y-79607059D01*
X155746384Y-79515907D01*
X155915314Y-79347272D01*
X156006851Y-79126826D01*
X156006955Y-79007996D01*
X156007475Y-79007476D01*
X156007477Y-79007473D01*
X157350542Y-77664409D01*
X157375000Y-77627805D01*
X157375000Y-78323959D01*
X155398961Y-80299999D01*
X155281176Y-80299896D01*
X155060571Y-80391048D01*
X154891641Y-80559683D01*
X154800104Y-80780129D01*
X154799896Y-81018824D01*
X154891048Y-81239429D01*
X155059683Y-81408359D01*
X155280129Y-81499896D01*
X155518824Y-81500104D01*
X155739429Y-81408952D01*
X155908359Y-81240317D01*
X155999896Y-81019871D01*
X156000000Y-80901041D01*
X158100521Y-78800520D01*
X158192649Y-78662641D01*
X158225000Y-78500000D01*
X158225000Y-75800000D01*
X158207382Y-75711429D01*
X158192649Y-75637359D01*
X158100521Y-75499480D01*
X156001040Y-73400000D01*
X171251470Y-73400000D01*
X171334683Y-73483359D01*
X171555129Y-73574896D01*
X171793824Y-73575104D01*
X172014429Y-73483952D01*
X172183359Y-73315317D01*
X172274896Y-73094871D01*
X172275104Y-72856176D01*
X172183952Y-72635571D01*
X172015317Y-72466641D01*
X171794871Y-72375104D01*
X171556176Y-72374896D01*
X171335571Y-72466048D01*
X171251472Y-72550000D01*
X145641040Y-72550000D01*
X144609930Y-71518890D01*
X144472051Y-71426761D01*
X144445067Y-71421394D01*
X144309410Y-71394410D01*
X142656253Y-71394410D01*
X142530569Y-71369410D01*
X142358362Y-71403664D01*
X142212371Y-71501212D01*
X141111210Y-72602372D01*
X141013662Y-72748362D01*
X140979408Y-72920570D01*
X140979408Y-73408843D01*
X139828958Y-74559291D01*
X139731410Y-74705281D01*
X139697156Y-74877489D01*
X139697156Y-75378358D01*
X139653967Y-75421547D01*
X139556419Y-75567537D01*
X139522165Y-75739745D01*
X139522165Y-76363747D01*
X139547498Y-76491106D01*
X135576992Y-80461612D01*
X135288019Y-80461612D01*
X135115811Y-80495866D01*
X134969821Y-80593414D01*
X134631821Y-80931414D01*
X134534273Y-81077404D01*
X134500019Y-81249612D01*
X134500019Y-81452440D01*
X134285571Y-81541048D01*
X134116641Y-81709683D01*
X134028350Y-81922312D01*
X133085000Y-80978962D01*
X133085000Y-78513530D01*
X133168359Y-78430317D01*
X133259896Y-78209871D01*
X133260104Y-77971176D01*
X133168952Y-77750571D01*
X133000317Y-77581641D01*
X132779871Y-77490104D01*
X132541176Y-77489896D01*
X132320571Y-77581048D01*
X132151641Y-77749683D01*
X132060104Y-77970129D01*
X132059896Y-78208824D01*
X132151048Y-78429429D01*
X132235000Y-78513528D01*
X132235000Y-80765372D01*
X128546497Y-77076870D01*
X128408618Y-76984741D01*
X128381634Y-76979374D01*
X128245977Y-76952390D01*
X127567921Y-76952390D01*
X127722971Y-76848789D01*
X127975208Y-76471290D01*
X128063782Y-76026000D01*
X127975208Y-75580710D01*
X127722971Y-75203211D01*
X127345472Y-74950974D01*
X126900182Y-74862400D01*
X126543818Y-74862400D01*
X126098528Y-74950974D01*
X125721029Y-75203211D01*
X125468792Y-75580710D01*
X125392012Y-75966707D01*
X123424784Y-73999480D01*
X123286905Y-73907351D01*
X123259921Y-73901984D01*
X123124264Y-73875000D01*
X123123530Y-73875000D01*
X123040317Y-73791641D01*
X122926613Y-73744427D01*
X123526040Y-73145000D01*
X127835736Y-73145000D01*
X127974868Y-73117325D01*
X127998377Y-73112649D01*
X128136256Y-73020520D01*
X128690521Y-72466256D01*
X128690523Y-72466253D01*
X129221777Y-71935000D01*
X129344315Y-71935000D01*
X129470000Y-71960000D01*
X129862450Y-71960000D01*
X130671829Y-72769379D01*
X130521945Y-72769248D01*
X130135677Y-72928851D01*
X129839889Y-73224123D01*
X129679613Y-73610112D01*
X129679248Y-74028055D01*
X129838851Y-74414323D01*
X130134123Y-74710111D01*
X130520112Y-74870387D01*
X130660194Y-74870509D01*
X130346273Y-75184431D01*
X130210569Y-75184431D01*
X130047928Y-75216782D01*
X129910049Y-75308911D01*
X129839089Y-75379871D01*
X129669888Y-75309613D01*
X129251945Y-75309248D01*
X128865677Y-75468851D01*
X128569889Y-75764123D01*
X128409613Y-76150112D01*
X128409248Y-76568055D01*
X128568851Y-76954323D01*
X128864123Y-77250111D01*
X129250112Y-77410387D01*
X129668055Y-77410752D01*
X130054323Y-77251149D01*
X130338344Y-76967624D01*
X130250104Y-77180129D01*
X130249896Y-77418824D01*
X130341048Y-77639429D01*
X130509683Y-77808359D01*
X130730129Y-77899896D01*
X130968824Y-77900104D01*
X131189429Y-77808952D01*
X131358359Y-77640317D01*
X131449896Y-77419871D01*
X131450027Y-77269172D01*
X131790112Y-77410387D01*
X132208055Y-77410752D01*
X132594323Y-77251149D01*
X132890111Y-76955877D01*
X133049935Y-76570976D01*
X133219999Y-76741039D01*
X133219896Y-76858824D01*
X133311048Y-77079429D01*
X133479683Y-77248359D01*
X133700129Y-77339896D01*
X133938824Y-77340104D01*
X134159429Y-77248952D01*
X134328359Y-77080317D01*
X134419896Y-76859871D01*
X134420104Y-76621176D01*
X134328952Y-76400571D01*
X134160317Y-76231641D01*
X133939871Y-76140104D01*
X133821041Y-76140000D01*
X133500571Y-75819531D01*
X133500571Y-75325459D01*
X133648851Y-75684323D01*
X133944123Y-75980111D01*
X134330112Y-76140387D01*
X134748055Y-76140752D01*
X135134323Y-75981149D01*
X135430111Y-75685877D01*
X135590387Y-75299888D01*
X135590693Y-74949999D01*
X136493223Y-74949999D01*
X136829078Y-75285855D01*
X136740104Y-75500129D01*
X136739896Y-75738824D01*
X136831048Y-75959429D01*
X136999683Y-76128359D01*
X137220129Y-76219896D01*
X137458824Y-76220104D01*
X137679429Y-76128952D01*
X137754589Y-76053924D01*
X137794953Y-76151613D01*
X137963588Y-76320543D01*
X138184034Y-76412080D01*
X138422729Y-76412288D01*
X138643334Y-76321136D01*
X138812264Y-76152501D01*
X138903801Y-75932055D01*
X138904009Y-75693360D01*
X138812857Y-75472755D01*
X138728905Y-75388656D01*
X138728905Y-75387920D01*
X138696554Y-75225280D01*
X138641081Y-75142259D01*
X138604425Y-75087399D01*
X137171504Y-73654479D01*
X137033625Y-73562350D01*
X137006641Y-73556983D01*
X136870984Y-73529999D01*
X132176745Y-73529999D01*
X132014105Y-73562350D01*
X131976240Y-73587651D01*
X131876224Y-73654479D01*
X131780631Y-73750072D01*
X131780752Y-73611945D01*
X131689321Y-73390666D01*
X131880129Y-73469896D01*
X132118824Y-73470104D01*
X132339429Y-73378952D01*
X132508359Y-73210317D01*
X132599896Y-72989871D01*
X132600104Y-72751176D01*
X132508952Y-72530571D01*
X132340317Y-72361641D01*
X132119871Y-72270104D01*
X132036427Y-72270031D01*
X131968198Y-72201802D01*
X131920769Y-72170111D01*
X131822208Y-72104254D01*
X131650000Y-72070000D01*
X131245242Y-72070000D01*
X130367044Y-71191802D01*
X130221054Y-71094254D01*
X130048846Y-71060000D01*
X129470000Y-71060000D01*
X129344315Y-71085000D01*
X129045736Y-71085000D01*
X128883095Y-71117351D01*
X128745216Y-71209479D01*
X128617868Y-71336827D01*
X127710001Y-70428961D01*
X127710048Y-70375000D01*
X151759199Y-70375000D01*
X151725677Y-70388851D01*
X151429889Y-70684123D01*
X151269613Y-71070112D01*
X151269248Y-71488055D01*
X151428851Y-71874323D01*
X151724123Y-72170111D01*
X152110112Y-72330387D01*
X152528055Y-72330752D01*
X152914323Y-72171149D01*
X153210111Y-71875877D01*
X153370387Y-71489888D01*
X153370752Y-71071945D01*
X153211149Y-70685677D01*
X152915877Y-70389889D01*
X152880020Y-70375000D01*
X179625000Y-70375000D01*
X179625000Y-89625000D01*
X146146143Y-89625000D01*
X146319104Y-89366147D01*
X146380000Y-89060000D01*
X146319104Y-88753853D01*
X146145685Y-88494315D01*
X145886147Y-88320896D01*
X145580000Y-88260000D01*
X116760000Y-88260000D01*
X116453853Y-88320896D01*
X116194315Y-88494315D01*
X116020896Y-88753853D01*
X115960000Y-89060000D01*
X116020896Y-89366147D01*
X116193857Y-89625000D01*
X105375000Y-89625000D01*
X105375000Y-80828824D01*
X115599896Y-80828824D01*
X115691048Y-81049429D01*
X115859683Y-81218359D01*
X116080129Y-81309896D01*
X116318824Y-81310104D01*
X116539429Y-81218952D01*
X116623528Y-81135000D01*
X120778302Y-81135000D01*
X120833126Y-81189920D01*
X121053572Y-81281457D01*
X121292267Y-81281665D01*
X121512872Y-81190513D01*
X121681802Y-81021878D01*
X121773339Y-80801432D01*
X121773547Y-80562737D01*
X121682395Y-80342132D01*
X121513760Y-80173202D01*
X121293314Y-80081665D01*
X121054619Y-80081457D01*
X120834014Y-80172609D01*
X120721426Y-80285000D01*
X116623530Y-80285000D01*
X116540317Y-80201641D01*
X116319871Y-80110104D01*
X116081176Y-80109896D01*
X115860571Y-80201048D01*
X115691641Y-80369683D01*
X115600104Y-80590129D01*
X115599896Y-80828824D01*
X105375000Y-80828824D01*
X105375000Y-70375000D01*
X106039199Y-70375000D01*
X106005677Y-70388851D01*
X106005677Y-70388851D01*
G37*
X106005677Y-70388851D02*
X105709889Y-70684123D01*
X105549613Y-71070112D01*
X105549248Y-71488055D01*
X105708851Y-71874323D01*
X106004123Y-72170111D01*
X106390112Y-72330387D01*
X106808055Y-72330752D01*
X107194323Y-72171149D01*
X107285631Y-72080000D01*
X108808630Y-72080000D01*
X110024885Y-73296256D01*
X110206855Y-73417845D01*
X110284424Y-73469675D01*
X110590571Y-73530571D01*
X115339201Y-73530571D01*
X116194314Y-74385685D01*
X116453853Y-74559104D01*
X116760000Y-74619999D01*
X117066147Y-74559104D01*
X117325685Y-74385685D01*
X117499104Y-74126147D01*
X117559999Y-73820000D01*
X117499104Y-73513853D01*
X117325685Y-73254314D01*
X116236256Y-72164886D01*
X115976718Y-71991467D01*
X115670571Y-71930571D01*
X110921942Y-71930571D01*
X109705685Y-70714315D01*
X109446147Y-70540896D01*
X109140000Y-70480000D01*
X107285831Y-70480000D01*
X107195877Y-70389889D01*
X107160020Y-70375000D01*
X126510047Y-70375000D01*
X126509896Y-70548824D01*
X126601048Y-70769429D01*
X126769683Y-70938359D01*
X126990129Y-71029896D01*
X127108959Y-71030000D01*
X127965000Y-71886041D01*
X127965000Y-71989695D01*
X127659696Y-72295000D01*
X127016243Y-72295000D01*
X127059896Y-72189871D01*
X127060104Y-71951176D01*
X126968952Y-71730571D01*
X126800317Y-71561641D01*
X126579871Y-71470104D01*
X126341176Y-71469896D01*
X126120571Y-71561048D01*
X125951641Y-71729683D01*
X125860104Y-71950129D01*
X125859896Y-72188824D01*
X125903767Y-72295000D01*
X123300000Y-72295000D01*
X123137360Y-72327351D01*
X122999480Y-72419480D01*
X122907351Y-72557360D01*
X122906296Y-72562664D01*
X121766691Y-73702269D01*
X121624322Y-73702145D01*
X121403717Y-73793297D01*
X121234787Y-73961932D01*
X121143250Y-74182378D01*
X121143042Y-74421073D01*
X121234194Y-74641678D01*
X121293146Y-74700733D01*
X121293146Y-76515649D01*
X121327400Y-76687857D01*
X121402418Y-76800129D01*
X121424948Y-76833847D01*
X122346848Y-77755747D01*
X122346776Y-77838207D01*
X122437928Y-78058812D01*
X122606563Y-78227742D01*
X122827009Y-78319279D01*
X123065704Y-78319487D01*
X123286309Y-78228335D01*
X123455239Y-78059700D01*
X123546776Y-77839254D01*
X123546984Y-77600559D01*
X123455832Y-77379954D01*
X123287197Y-77211024D01*
X123066751Y-77119487D01*
X122983307Y-77119414D01*
X122193146Y-76329253D01*
X122193146Y-74700823D01*
X122222792Y-74671229D01*
X122359683Y-74808359D01*
X122580129Y-74899896D01*
X122818824Y-74900104D01*
X123034297Y-74811073D01*
X124900030Y-76676807D01*
X124785591Y-76724092D01*
X124616661Y-76892727D01*
X124525124Y-77113173D01*
X124524916Y-77351868D01*
X124616068Y-77572473D01*
X124700020Y-77656572D01*
X124700020Y-79679800D01*
X124726117Y-79811000D01*
X124732371Y-79842441D01*
X124824500Y-79980320D01*
X125062090Y-80217910D01*
X125199969Y-80310039D01*
X125226953Y-80315406D01*
X125362610Y-80342390D01*
X125681487Y-80342390D01*
X125468792Y-80660710D01*
X125380218Y-81106000D01*
X125468792Y-81551290D01*
X125721029Y-81928789D01*
X126098528Y-82181026D01*
X126543818Y-82269600D01*
X126900182Y-82269600D01*
X127345472Y-82181026D01*
X127722971Y-81928789D01*
X127975208Y-81551290D01*
X128045619Y-81197311D01*
X128758828Y-81910520D01*
X128942227Y-82093920D01*
X128942227Y-84988080D01*
X128807306Y-85014918D01*
X128780322Y-85020285D01*
X128642443Y-85112414D01*
X128591914Y-85162943D01*
X128385338Y-85162943D01*
X128222698Y-85195294D01*
X128208768Y-85204602D01*
X128084817Y-85287423D01*
X127797241Y-85575000D01*
X116166041Y-85575000D01*
X116060001Y-85468961D01*
X116060104Y-85351176D01*
X115968952Y-85130571D01*
X115800317Y-84961641D01*
X115579871Y-84870104D01*
X115341176Y-84869896D01*
X115120571Y-84961048D01*
X114951641Y-85129683D01*
X114860104Y-85350129D01*
X114859896Y-85588824D01*
X114951048Y-85809429D01*
X115119683Y-85978359D01*
X115340129Y-86069896D01*
X115458959Y-86070000D01*
X115689479Y-86300520D01*
X115781608Y-86362078D01*
X115827360Y-86392649D01*
X115990000Y-86425000D01*
X120835504Y-86425000D01*
X120745684Y-86514663D01*
X120654147Y-86735109D01*
X120653939Y-86973804D01*
X120687488Y-87055000D01*
X120583530Y-87055000D01*
X120500317Y-86971641D01*
X120279871Y-86880104D01*
X120041176Y-86879896D01*
X119820571Y-86971048D01*
X119651641Y-87139683D01*
X119560104Y-87360129D01*
X119559896Y-87598824D01*
X119651048Y-87819429D01*
X119819683Y-87988359D01*
X120040129Y-88079896D01*
X120278824Y-88080104D01*
X120499429Y-87988952D01*
X120583528Y-87905000D01*
X127766103Y-87905000D01*
X127901760Y-87878016D01*
X127928744Y-87872649D01*
X128066623Y-87780520D01*
X128934179Y-86912965D01*
X129182102Y-86912965D01*
X129733625Y-87464489D01*
X129871504Y-87556617D01*
X130034145Y-87588968D01*
X138222804Y-87588968D01*
X138358461Y-87561984D01*
X138385445Y-87556617D01*
X138523324Y-87464488D01*
X140143976Y-85843836D01*
X141595636Y-85843836D01*
X141686788Y-86064441D01*
X141855423Y-86233371D01*
X142075869Y-86324908D01*
X142194699Y-86325012D01*
X142195219Y-86325532D01*
X142195222Y-86325534D01*
X143775167Y-87905480D01*
X143867296Y-87967038D01*
X143913048Y-87997609D01*
X144075688Y-88029960D01*
X155049674Y-88029960D01*
X155185331Y-88002976D01*
X155212315Y-87997609D01*
X155350194Y-87905480D01*
X156880693Y-86374981D01*
X156998478Y-86375084D01*
X157219083Y-86283932D01*
X157388013Y-86115297D01*
X157479550Y-85894851D01*
X157479758Y-85656156D01*
X157388606Y-85435551D01*
X157219971Y-85266621D01*
X156999525Y-85175084D01*
X156760830Y-85174876D01*
X156540225Y-85266028D01*
X156371295Y-85434663D01*
X156279758Y-85655109D01*
X156279654Y-85773939D01*
X154873634Y-87179960D01*
X144251729Y-87179960D01*
X142796262Y-85724494D01*
X142796260Y-85724491D01*
X142795741Y-85723972D01*
X142795844Y-85606188D01*
X142704692Y-85385583D01*
X142536057Y-85216653D01*
X142315611Y-85125116D01*
X142076916Y-85124908D01*
X141856311Y-85216060D01*
X141687381Y-85384695D01*
X141595844Y-85605141D01*
X141595636Y-85843836D01*
X140143976Y-85843836D01*
X140925882Y-85061931D01*
X141018010Y-84924052D01*
X141050361Y-84761411D01*
X141050361Y-84502720D01*
X141194383Y-84358698D01*
X141205185Y-84384841D01*
X141373820Y-84553771D01*
X141594266Y-84645308D01*
X141832961Y-84645516D01*
X142053566Y-84554364D01*
X142137665Y-84470412D01*
X148065137Y-84470412D01*
X148279724Y-84684999D01*
X146523530Y-84684999D01*
X146440317Y-84601640D01*
X146219871Y-84510103D01*
X145981176Y-84509895D01*
X145760571Y-84601047D01*
X145591641Y-84769682D01*
X145500104Y-84990128D01*
X145499896Y-85228823D01*
X145591048Y-85449428D01*
X145759683Y-85618358D01*
X145980129Y-85709895D01*
X146218824Y-85710103D01*
X146439429Y-85618951D01*
X146523528Y-85534999D01*
X150536486Y-85534999D01*
X150629683Y-85628359D01*
X150850129Y-85719896D01*
X151088824Y-85720104D01*
X151309429Y-85628952D01*
X151478359Y-85460317D01*
X151569896Y-85239871D01*
X151570104Y-85001176D01*
X151528313Y-84900035D01*
X164154965Y-84900035D01*
X164305439Y-84870104D01*
X164317606Y-84867684D01*
X164455485Y-84775555D01*
X171711039Y-77520001D01*
X171828824Y-77520104D01*
X172049429Y-77428952D01*
X172218359Y-77260317D01*
X172309896Y-77039871D01*
X172310104Y-76801176D01*
X172218952Y-76580571D01*
X172050317Y-76411641D01*
X171829871Y-76320104D01*
X171591176Y-76319896D01*
X171370571Y-76411048D01*
X171201641Y-76579683D01*
X171110104Y-76800129D01*
X171110000Y-76918960D01*
X163978925Y-84050035D01*
X150529200Y-84050035D01*
X150366559Y-84082386D01*
X150310215Y-84120034D01*
X148916840Y-84120034D01*
X148541699Y-83744892D01*
X148436239Y-83674426D01*
X148403818Y-83652763D01*
X148241178Y-83620412D01*
X142137667Y-83620412D01*
X142054454Y-83537053D01*
X141858837Y-83455826D01*
X141905567Y-83343288D01*
X141905775Y-83104593D01*
X141814623Y-82883988D01*
X141720114Y-82789314D01*
X141739901Y-82781138D01*
X141908831Y-82612503D01*
X142000368Y-82392057D01*
X142000576Y-82153362D01*
X141957784Y-82049797D01*
X141970107Y-82054914D01*
X142208802Y-82055122D01*
X142429407Y-81963970D01*
X142513506Y-81880018D01*
X146747565Y-81880018D01*
X148813078Y-83945532D01*
X148888554Y-83995963D01*
X148950959Y-84037661D01*
X149113599Y-84070012D01*
X150086401Y-84070012D01*
X150222058Y-84043028D01*
X150249042Y-84037661D01*
X150386921Y-83945532D01*
X150942474Y-83389980D01*
X154884935Y-83389980D01*
X154968148Y-83473339D01*
X155188594Y-83564876D01*
X155427289Y-83565084D01*
X155647894Y-83473932D01*
X155816824Y-83305297D01*
X155908361Y-83084851D01*
X155908569Y-82846156D01*
X155817417Y-82625551D01*
X155811517Y-82619641D01*
X164505359Y-82619641D01*
X164641016Y-82592657D01*
X164668000Y-82587290D01*
X164805879Y-82495161D01*
X171701039Y-75600001D01*
X171818824Y-75600104D01*
X172039429Y-75508952D01*
X172208359Y-75340317D01*
X172299896Y-75119871D01*
X172300104Y-74881176D01*
X172208952Y-74660571D01*
X172040317Y-74491641D01*
X171819871Y-74400104D01*
X171581176Y-74399896D01*
X171360571Y-74491048D01*
X171191641Y-74659683D01*
X171100104Y-74880129D01*
X171100000Y-74998960D01*
X164329319Y-81769641D01*
X150900361Y-81769641D01*
X150755000Y-81798555D01*
X150755000Y-79383530D01*
X150838359Y-79300317D01*
X150874378Y-79213573D01*
X151008927Y-79348357D01*
X151229373Y-79439894D01*
X151468068Y-79440102D01*
X151688673Y-79348950D01*
X151772772Y-79264998D01*
X154549257Y-79264998D01*
X154684914Y-79238014D01*
X154711898Y-79232647D01*
X154820911Y-79159806D01*
X154898003Y-79346384D01*
X155066638Y-79515314D01*
X155287084Y-79606851D01*
X155525779Y-79607059D01*
X155746384Y-79515907D01*
X155915314Y-79347272D01*
X156006851Y-79126826D01*
X156006955Y-79007996D01*
X156007475Y-79007476D01*
X156007477Y-79007473D01*
X157350542Y-77664409D01*
X157375000Y-77627805D01*
X157375000Y-78323959D01*
X155398961Y-80299999D01*
X155281176Y-80299896D01*
X155060571Y-80391048D01*
X154891641Y-80559683D01*
X154800104Y-80780129D01*
X154799896Y-81018824D01*
X154891048Y-81239429D01*
X155059683Y-81408359D01*
X155280129Y-81499896D01*
X155518824Y-81500104D01*
X155739429Y-81408952D01*
X155908359Y-81240317D01*
X155999896Y-81019871D01*
X156000000Y-80901041D01*
X158100521Y-78800520D01*
X158192649Y-78662641D01*
X158225000Y-78500000D01*
X158225000Y-75800000D01*
X158207382Y-75711429D01*
X158192649Y-75637359D01*
X158100521Y-75499480D01*
X156001040Y-73400000D01*
X171251470Y-73400000D01*
X171334683Y-73483359D01*
X171555129Y-73574896D01*
X171793824Y-73575104D01*
X172014429Y-73483952D01*
X172183359Y-73315317D01*
X172274896Y-73094871D01*
X172275104Y-72856176D01*
X172183952Y-72635571D01*
X172015317Y-72466641D01*
X171794871Y-72375104D01*
X171556176Y-72374896D01*
X171335571Y-72466048D01*
X171251472Y-72550000D01*
X145641040Y-72550000D01*
X144609930Y-71518890D01*
X144472051Y-71426761D01*
X144445067Y-71421394D01*
X144309410Y-71394410D01*
X142656253Y-71394410D01*
X142530569Y-71369410D01*
X142358362Y-71403664D01*
X142212371Y-71501212D01*
X141111210Y-72602372D01*
X141013662Y-72748362D01*
X140979408Y-72920570D01*
X140979408Y-73408843D01*
X139828958Y-74559291D01*
X139731410Y-74705281D01*
X139697156Y-74877489D01*
X139697156Y-75378358D01*
X139653967Y-75421547D01*
X139556419Y-75567537D01*
X139522165Y-75739745D01*
X139522165Y-76363747D01*
X139547498Y-76491106D01*
X135576992Y-80461612D01*
X135288019Y-80461612D01*
X135115811Y-80495866D01*
X134969821Y-80593414D01*
X134631821Y-80931414D01*
X134534273Y-81077404D01*
X134500019Y-81249612D01*
X134500019Y-81452440D01*
X134285571Y-81541048D01*
X134116641Y-81709683D01*
X134028350Y-81922312D01*
X133085000Y-80978962D01*
X133085000Y-78513530D01*
X133168359Y-78430317D01*
X133259896Y-78209871D01*
X133260104Y-77971176D01*
X133168952Y-77750571D01*
X133000317Y-77581641D01*
X132779871Y-77490104D01*
X132541176Y-77489896D01*
X132320571Y-77581048D01*
X132151641Y-77749683D01*
X132060104Y-77970129D01*
X132059896Y-78208824D01*
X132151048Y-78429429D01*
X132235000Y-78513528D01*
X132235000Y-80765372D01*
X128546497Y-77076870D01*
X128408618Y-76984741D01*
X128381634Y-76979374D01*
X128245977Y-76952390D01*
X127567921Y-76952390D01*
X127722971Y-76848789D01*
X127975208Y-76471290D01*
X128063782Y-76026000D01*
X127975208Y-75580710D01*
X127722971Y-75203211D01*
X127345472Y-74950974D01*
X126900182Y-74862400D01*
X126543818Y-74862400D01*
X126098528Y-74950974D01*
X125721029Y-75203211D01*
X125468792Y-75580710D01*
X125392012Y-75966707D01*
X123424784Y-73999480D01*
X123286905Y-73907351D01*
X123259921Y-73901984D01*
X123124264Y-73875000D01*
X123123530Y-73875000D01*
X123040317Y-73791641D01*
X122926613Y-73744427D01*
X123526040Y-73145000D01*
X127835736Y-73145000D01*
X127974868Y-73117325D01*
X127998377Y-73112649D01*
X128136256Y-73020520D01*
X128690521Y-72466256D01*
X128690523Y-72466253D01*
X129221777Y-71935000D01*
X129344315Y-71935000D01*
X129470000Y-71960000D01*
X129862450Y-71960000D01*
X130671829Y-72769379D01*
X130521945Y-72769248D01*
X130135677Y-72928851D01*
X129839889Y-73224123D01*
X129679613Y-73610112D01*
X129679248Y-74028055D01*
X129838851Y-74414323D01*
X130134123Y-74710111D01*
X130520112Y-74870387D01*
X130660194Y-74870509D01*
X130346273Y-75184431D01*
X130210569Y-75184431D01*
X130047928Y-75216782D01*
X129910049Y-75308911D01*
X129839089Y-75379871D01*
X129669888Y-75309613D01*
X129251945Y-75309248D01*
X128865677Y-75468851D01*
X128569889Y-75764123D01*
X128409613Y-76150112D01*
X128409248Y-76568055D01*
X128568851Y-76954323D01*
X128864123Y-77250111D01*
X129250112Y-77410387D01*
X129668055Y-77410752D01*
X130054323Y-77251149D01*
X130338344Y-76967624D01*
X130250104Y-77180129D01*
X130249896Y-77418824D01*
X130341048Y-77639429D01*
X130509683Y-77808359D01*
X130730129Y-77899896D01*
X130968824Y-77900104D01*
X131189429Y-77808952D01*
X131358359Y-77640317D01*
X131449896Y-77419871D01*
X131450027Y-77269172D01*
X131790112Y-77410387D01*
X132208055Y-77410752D01*
X132594323Y-77251149D01*
X132890111Y-76955877D01*
X133049935Y-76570976D01*
X133219999Y-76741039D01*
X133219896Y-76858824D01*
X133311048Y-77079429D01*
X133479683Y-77248359D01*
X133700129Y-77339896D01*
X133938824Y-77340104D01*
X134159429Y-77248952D01*
X134328359Y-77080317D01*
X134419896Y-76859871D01*
X134420104Y-76621176D01*
X134328952Y-76400571D01*
X134160317Y-76231641D01*
X133939871Y-76140104D01*
X133821041Y-76140000D01*
X133500571Y-75819531D01*
X133500571Y-75325459D01*
X133648851Y-75684323D01*
X133944123Y-75980111D01*
X134330112Y-76140387D01*
X134748055Y-76140752D01*
X135134323Y-75981149D01*
X135430111Y-75685877D01*
X135590387Y-75299888D01*
X135590693Y-74949999D01*
X136493223Y-74949999D01*
X136829078Y-75285855D01*
X136740104Y-75500129D01*
X136739896Y-75738824D01*
X136831048Y-75959429D01*
X136999683Y-76128359D01*
X137220129Y-76219896D01*
X137458824Y-76220104D01*
X137679429Y-76128952D01*
X137754589Y-76053924D01*
X137794953Y-76151613D01*
X137963588Y-76320543D01*
X138184034Y-76412080D01*
X138422729Y-76412288D01*
X138643334Y-76321136D01*
X138812264Y-76152501D01*
X138903801Y-75932055D01*
X138904009Y-75693360D01*
X138812857Y-75472755D01*
X138728905Y-75388656D01*
X138728905Y-75387920D01*
X138696554Y-75225280D01*
X138641081Y-75142259D01*
X138604425Y-75087399D01*
X137171504Y-73654479D01*
X137033625Y-73562350D01*
X137006641Y-73556983D01*
X136870984Y-73529999D01*
X132176745Y-73529999D01*
X132014105Y-73562350D01*
X131976240Y-73587651D01*
X131876224Y-73654479D01*
X131780631Y-73750072D01*
X131780752Y-73611945D01*
X131689321Y-73390666D01*
X131880129Y-73469896D01*
X132118824Y-73470104D01*
X132339429Y-73378952D01*
X132508359Y-73210317D01*
X132599896Y-72989871D01*
X132600104Y-72751176D01*
X132508952Y-72530571D01*
X132340317Y-72361641D01*
X132119871Y-72270104D01*
X132036427Y-72270031D01*
X131968198Y-72201802D01*
X131920769Y-72170111D01*
X131822208Y-72104254D01*
X131650000Y-72070000D01*
X131245242Y-72070000D01*
X130367044Y-71191802D01*
X130221054Y-71094254D01*
X130048846Y-71060000D01*
X129470000Y-71060000D01*
X129344315Y-71085000D01*
X129045736Y-71085000D01*
X128883095Y-71117351D01*
X128745216Y-71209479D01*
X128617868Y-71336827D01*
X127710001Y-70428961D01*
X127710048Y-70375000D01*
X151759199Y-70375000D01*
X151725677Y-70388851D01*
X151429889Y-70684123D01*
X151269613Y-71070112D01*
X151269248Y-71488055D01*
X151428851Y-71874323D01*
X151724123Y-72170111D01*
X152110112Y-72330387D01*
X152528055Y-72330752D01*
X152914323Y-72171149D01*
X153210111Y-71875877D01*
X153370387Y-71489888D01*
X153370752Y-71071945D01*
X153211149Y-70685677D01*
X152915877Y-70389889D01*
X152880020Y-70375000D01*
X179625000Y-70375000D01*
X179625000Y-89625000D01*
X146146143Y-89625000D01*
X146319104Y-89366147D01*
X146380000Y-89060000D01*
X146319104Y-88753853D01*
X146145685Y-88494315D01*
X145886147Y-88320896D01*
X145580000Y-88260000D01*
X116760000Y-88260000D01*
X116453853Y-88320896D01*
X116194315Y-88494315D01*
X116020896Y-88753853D01*
X115960000Y-89060000D01*
X116020896Y-89366147D01*
X116193857Y-89625000D01*
X105375000Y-89625000D01*
X105375000Y-80828824D01*
X115599896Y-80828824D01*
X115691048Y-81049429D01*
X115859683Y-81218359D01*
X116080129Y-81309896D01*
X116318824Y-81310104D01*
X116539429Y-81218952D01*
X116623528Y-81135000D01*
X120778302Y-81135000D01*
X120833126Y-81189920D01*
X121053572Y-81281457D01*
X121292267Y-81281665D01*
X121512872Y-81190513D01*
X121681802Y-81021878D01*
X121773339Y-80801432D01*
X121773547Y-80562737D01*
X121682395Y-80342132D01*
X121513760Y-80173202D01*
X121293314Y-80081665D01*
X121054619Y-80081457D01*
X120834014Y-80172609D01*
X120721426Y-80285000D01*
X116623530Y-80285000D01*
X116540317Y-80201641D01*
X116319871Y-80110104D01*
X116081176Y-80109896D01*
X115860571Y-80201048D01*
X115691641Y-80369683D01*
X115600104Y-80590129D01*
X115599896Y-80828824D01*
X105375000Y-80828824D01*
X105375000Y-70375000D01*
X106039199Y-70375000D01*
X106005677Y-70388851D01*
G36*
X141383444Y-80542274D02*
X141383236Y-80780969D01*
X141474388Y-81001574D01*
X141584473Y-81111852D01*
X141581619Y-81114701D01*
X141490082Y-81335147D01*
X141489874Y-81573842D01*
X141532666Y-81677407D01*
X141520343Y-81672290D01*
X141281648Y-81672082D01*
X141061043Y-81763234D01*
X140976944Y-81847186D01*
X140976208Y-81847186D01*
X140840551Y-81874170D01*
X140813567Y-81879537D01*
X140675688Y-81971666D01*
X140380130Y-82267224D01*
X140288001Y-82405103D01*
X140282634Y-82432087D01*
X140255650Y-82567744D01*
X140255650Y-82784025D01*
X140137827Y-82735101D01*
X139899132Y-82734893D01*
X139678527Y-82826045D01*
X139509597Y-82994680D01*
X139418060Y-83215126D01*
X139417953Y-83337369D01*
X139332690Y-83464973D01*
X139329229Y-83482372D01*
X139300339Y-83627614D01*
X139300339Y-84212570D01*
X137673964Y-85838946D01*
X137426041Y-85838946D01*
X136377118Y-84790024D01*
X136752802Y-84790024D01*
X136896650Y-84761411D01*
X136915443Y-84757673D01*
X137053322Y-84665544D01*
X141299322Y-80419545D01*
X141434405Y-80419545D01*
X141383444Y-80542274D01*
X141383444Y-80542274D01*
G37*
X141383444Y-80542274D02*
X141383236Y-80780969D01*
X141474388Y-81001574D01*
X141584473Y-81111852D01*
X141581619Y-81114701D01*
X141490082Y-81335147D01*
X141489874Y-81573842D01*
X141532666Y-81677407D01*
X141520343Y-81672290D01*
X141281648Y-81672082D01*
X141061043Y-81763234D01*
X140976944Y-81847186D01*
X140976208Y-81847186D01*
X140840551Y-81874170D01*
X140813567Y-81879537D01*
X140675688Y-81971666D01*
X140380130Y-82267224D01*
X140288001Y-82405103D01*
X140282634Y-82432087D01*
X140255650Y-82567744D01*
X140255650Y-82784025D01*
X140137827Y-82735101D01*
X139899132Y-82734893D01*
X139678527Y-82826045D01*
X139509597Y-82994680D01*
X139418060Y-83215126D01*
X139417953Y-83337369D01*
X139332690Y-83464973D01*
X139329229Y-83482372D01*
X139300339Y-83627614D01*
X139300339Y-84212570D01*
X137673964Y-85838946D01*
X137426041Y-85838946D01*
X136377118Y-84790024D01*
X136752802Y-84790024D01*
X136896650Y-84761411D01*
X136915443Y-84757673D01*
X137053322Y-84665544D01*
X141299322Y-80419545D01*
X141434405Y-80419545D01*
X141383444Y-80542274D01*
M02*
