G04 #@! TF.FileFunction,Soldermask,Top*
%FSLAX46Y46*%
G04 Gerber Fmt 4.6, Leading zero omitted, Abs format (unit mm)*
G04 Created by KiCad (PCBNEW (2016-02-18 BZR 6566)-product) date Monday, 28 March 2016 10:54:37*
%MOMM*%
G01*
G04 APERTURE LIST*
%ADD10C,0.100000*%
%ADD11R,0.210000X0.350000*%
%ADD12R,0.350000X0.210000*%
%ADD13R,0.200000X0.350000*%
%ADD14R,1.540000X1.700000*%
%ADD15R,0.750000X0.800000*%
%ADD16C,1.501140*%
%ADD17R,0.800000X0.750000*%
%ADD18R,1.100000X1.900000*%
%ADD19R,2.400000X1.500000*%
%ADD20R,0.400000X0.600000*%
%ADD21R,2.000000X1.300000*%
%ADD22R,1.800000X0.700000*%
%ADD23R,1.800000X0.800000*%
%ADD24R,1.000000X1.250000*%
%ADD25R,2.032000X1.727200*%
%ADD26O,2.032000X1.727200*%
%ADD27R,1.450000X0.700000*%
%ADD28R,0.650000X0.300000*%
%ADD29R,0.825000X1.200000*%
%ADD30R,0.280000X0.700000*%
%ADD31R,2.700020X1.000760*%
G04 APERTURE END LIST*
D10*
D11*
X120380000Y-80739000D03*
X119980000Y-80739000D03*
X119580000Y-80739000D03*
X119180000Y-80739000D03*
X118780000Y-80739000D03*
X118380000Y-80739000D03*
D12*
X118030000Y-81089000D03*
X118030000Y-81489000D03*
X118030000Y-81889000D03*
X118030000Y-82289000D03*
X118030000Y-82689000D03*
X118030000Y-83089000D03*
D13*
X118380000Y-83439000D03*
D11*
X118780000Y-83439000D03*
X119180000Y-83439000D03*
X119580000Y-83439000D03*
X119980000Y-83439000D03*
X120380000Y-83439000D03*
D12*
X120730000Y-83089000D03*
X120730000Y-82689000D03*
X120730000Y-82289000D03*
X120730000Y-81889000D03*
X120730000Y-81489000D03*
X120730000Y-81089000D03*
D14*
X119380000Y-82089000D03*
D10*
G36*
X129976408Y-90205254D02*
X129799631Y-90028477D01*
X130294606Y-89533502D01*
X130471383Y-89710279D01*
X129976408Y-90205254D01*
X129976408Y-90205254D01*
G37*
G36*
X130329961Y-90558808D02*
X130153184Y-90382031D01*
X130648159Y-89887056D01*
X130824936Y-90063833D01*
X130329961Y-90558808D01*
X130329961Y-90558808D01*
G37*
G36*
X130683515Y-90912361D02*
X130506738Y-90735584D01*
X131001713Y-90240609D01*
X131178490Y-90417386D01*
X130683515Y-90912361D01*
X130683515Y-90912361D01*
G37*
G36*
X131037068Y-91265915D02*
X130860291Y-91089138D01*
X131355266Y-90594163D01*
X131532043Y-90770940D01*
X131037068Y-91265915D01*
X131037068Y-91265915D01*
G37*
G36*
X131390621Y-91619468D02*
X131213844Y-91442691D01*
X131708819Y-90947716D01*
X131885596Y-91124493D01*
X131390621Y-91619468D01*
X131390621Y-91619468D01*
G37*
G36*
X131744175Y-91973021D02*
X131567398Y-91796244D01*
X132062373Y-91301269D01*
X132239150Y-91478046D01*
X131744175Y-91973021D01*
X131744175Y-91973021D01*
G37*
G36*
X132097728Y-92326575D02*
X131920951Y-92149798D01*
X132415926Y-91654823D01*
X132592703Y-91831600D01*
X132097728Y-92326575D01*
X132097728Y-92326575D01*
G37*
G36*
X132451282Y-92680128D02*
X132274505Y-92503351D01*
X132769480Y-92008376D01*
X132946257Y-92185153D01*
X132451282Y-92680128D01*
X132451282Y-92680128D01*
G37*
G36*
X133865495Y-92503351D02*
X133688718Y-92680128D01*
X133193743Y-92185153D01*
X133370520Y-92008376D01*
X133865495Y-92503351D01*
X133865495Y-92503351D01*
G37*
G36*
X134219049Y-92149798D02*
X134042272Y-92326575D01*
X133547297Y-91831600D01*
X133724074Y-91654823D01*
X134219049Y-92149798D01*
X134219049Y-92149798D01*
G37*
G36*
X134572602Y-91796244D02*
X134395825Y-91973021D01*
X133900850Y-91478046D01*
X134077627Y-91301269D01*
X134572602Y-91796244D01*
X134572602Y-91796244D01*
G37*
G36*
X134926156Y-91442691D02*
X134749379Y-91619468D01*
X134254404Y-91124493D01*
X134431181Y-90947716D01*
X134926156Y-91442691D01*
X134926156Y-91442691D01*
G37*
G36*
X135279709Y-91089138D02*
X135102932Y-91265915D01*
X134607957Y-90770940D01*
X134784734Y-90594163D01*
X135279709Y-91089138D01*
X135279709Y-91089138D01*
G37*
G36*
X135633262Y-90735584D02*
X135456485Y-90912361D01*
X134961510Y-90417386D01*
X135138287Y-90240609D01*
X135633262Y-90735584D01*
X135633262Y-90735584D01*
G37*
G36*
X135986816Y-90382031D02*
X135810039Y-90558808D01*
X135315064Y-90063833D01*
X135491841Y-89887056D01*
X135986816Y-90382031D01*
X135986816Y-90382031D01*
G37*
G36*
X136340369Y-90028477D02*
X136163592Y-90205254D01*
X135668617Y-89710279D01*
X135845394Y-89533502D01*
X136340369Y-90028477D01*
X136340369Y-90028477D01*
G37*
G36*
X135845394Y-89286016D02*
X135668617Y-89109239D01*
X136163592Y-88614264D01*
X136340369Y-88791041D01*
X135845394Y-89286016D01*
X135845394Y-89286016D01*
G37*
G36*
X135491841Y-88932462D02*
X135315064Y-88755685D01*
X135810039Y-88260710D01*
X135986816Y-88437487D01*
X135491841Y-88932462D01*
X135491841Y-88932462D01*
G37*
G36*
X135138287Y-88578909D02*
X134961510Y-88402132D01*
X135456485Y-87907157D01*
X135633262Y-88083934D01*
X135138287Y-88578909D01*
X135138287Y-88578909D01*
G37*
G36*
X134784734Y-88225355D02*
X134607957Y-88048578D01*
X135102932Y-87553603D01*
X135279709Y-87730380D01*
X134784734Y-88225355D01*
X134784734Y-88225355D01*
G37*
G36*
X134431181Y-87871802D02*
X134254404Y-87695025D01*
X134749379Y-87200050D01*
X134926156Y-87376827D01*
X134431181Y-87871802D01*
X134431181Y-87871802D01*
G37*
G36*
X134077627Y-87518249D02*
X133900850Y-87341472D01*
X134395825Y-86846497D01*
X134572602Y-87023274D01*
X134077627Y-87518249D01*
X134077627Y-87518249D01*
G37*
G36*
X133724074Y-87164695D02*
X133547297Y-86987918D01*
X134042272Y-86492943D01*
X134219049Y-86669720D01*
X133724074Y-87164695D01*
X133724074Y-87164695D01*
G37*
G36*
X133370520Y-86811142D02*
X133193743Y-86634365D01*
X133688718Y-86139390D01*
X133865495Y-86316167D01*
X133370520Y-86811142D01*
X133370520Y-86811142D01*
G37*
G36*
X132946257Y-86634365D02*
X132769480Y-86811142D01*
X132274505Y-86316167D01*
X132451282Y-86139390D01*
X132946257Y-86634365D01*
X132946257Y-86634365D01*
G37*
G36*
X132592703Y-86987918D02*
X132415926Y-87164695D01*
X131920951Y-86669720D01*
X132097728Y-86492943D01*
X132592703Y-86987918D01*
X132592703Y-86987918D01*
G37*
G36*
X132239150Y-87341472D02*
X132062373Y-87518249D01*
X131567398Y-87023274D01*
X131744175Y-86846497D01*
X132239150Y-87341472D01*
X132239150Y-87341472D01*
G37*
G36*
X131885596Y-87695025D02*
X131708819Y-87871802D01*
X131213844Y-87376827D01*
X131390621Y-87200050D01*
X131885596Y-87695025D01*
X131885596Y-87695025D01*
G37*
G36*
X131532043Y-88048578D02*
X131355266Y-88225355D01*
X130860291Y-87730380D01*
X131037068Y-87553603D01*
X131532043Y-88048578D01*
X131532043Y-88048578D01*
G37*
G36*
X131178490Y-88402132D02*
X131001713Y-88578909D01*
X130506738Y-88083934D01*
X130683515Y-87907157D01*
X131178490Y-88402132D01*
X131178490Y-88402132D01*
G37*
G36*
X130824936Y-88755685D02*
X130648159Y-88932462D01*
X130153184Y-88437487D01*
X130329961Y-88260710D01*
X130824936Y-88755685D01*
X130824936Y-88755685D01*
G37*
G36*
X130471383Y-89109239D02*
X130294606Y-89286016D01*
X129799631Y-88791041D01*
X129976408Y-88614264D01*
X130471383Y-89109239D01*
X130471383Y-89109239D01*
G37*
G36*
X134289759Y-90629518D02*
X133070000Y-89409759D01*
X134289759Y-88190000D01*
X135509518Y-89409759D01*
X134289759Y-90629518D01*
X134289759Y-90629518D01*
G37*
G36*
X133070000Y-89409759D02*
X131850241Y-88190000D01*
X133070000Y-86970241D01*
X134289759Y-88190000D01*
X133070000Y-89409759D01*
X133070000Y-89409759D01*
G37*
G36*
X133070000Y-91849277D02*
X131850241Y-90629518D01*
X133070000Y-89409759D01*
X134289759Y-90629518D01*
X133070000Y-91849277D01*
X133070000Y-91849277D01*
G37*
G36*
X131850241Y-90629518D02*
X130630482Y-89409759D01*
X131850241Y-88190000D01*
X133070000Y-89409759D01*
X131850241Y-90629518D01*
X131850241Y-90629518D01*
G37*
D15*
X127280000Y-92560000D03*
X127280000Y-94060000D03*
X124160000Y-82660000D03*
X124160000Y-84160000D03*
X123070000Y-82650000D03*
X123070000Y-84150000D03*
X116060000Y-82860000D03*
X116060000Y-81360000D03*
X133250000Y-84250000D03*
X133250000Y-82750000D03*
D16*
X124460000Y-86360000D03*
X127000000Y-86360000D03*
X125730000Y-83820000D03*
X147320000Y-81280000D03*
X127000000Y-81280000D03*
X129540000Y-85090000D03*
X138430000Y-86360000D03*
X138430000Y-83820000D03*
X107950000Y-81280000D03*
D17*
X135000000Y-81100000D03*
X136500000Y-81100000D03*
X134700000Y-94660000D03*
X133200000Y-94660000D03*
D15*
X127660000Y-88090000D03*
X127660000Y-89590000D03*
D17*
X131750000Y-81250000D03*
X133250000Y-81250000D03*
X126010000Y-90100000D03*
X124510000Y-90100000D03*
X126000000Y-88500000D03*
X124500000Y-88500000D03*
D15*
X146000000Y-94250000D03*
X146000000Y-92750000D03*
D17*
X146170000Y-84810000D03*
X144670000Y-84810000D03*
D15*
X106770000Y-95190000D03*
X106770000Y-93690000D03*
X136620000Y-84600000D03*
X136620000Y-83100000D03*
X134990000Y-84600000D03*
X134990000Y-83100000D03*
D18*
X129000000Y-95250000D03*
X131500000Y-95250000D03*
D17*
X138870000Y-93230000D03*
X137370000Y-93230000D03*
D15*
X130250000Y-81250000D03*
X130250000Y-82750000D03*
D10*
G36*
X129482322Y-87998008D02*
X128951992Y-87467678D01*
X129517678Y-86901992D01*
X130048008Y-87432322D01*
X129482322Y-87998008D01*
X129482322Y-87998008D01*
G37*
G36*
X130542982Y-86937348D02*
X130012652Y-86407018D01*
X130578338Y-85841332D01*
X131108668Y-86371662D01*
X130542982Y-86937348D01*
X130542982Y-86937348D01*
G37*
D15*
X131750000Y-84250000D03*
X131750000Y-82750000D03*
X129000000Y-97290000D03*
X129000000Y-98790000D03*
X131500000Y-98800000D03*
X131500000Y-97300000D03*
D19*
X125170000Y-93310000D03*
D20*
X124170000Y-94660000D03*
X125170000Y-94660000D03*
X126170000Y-94660000D03*
X126170000Y-91960000D03*
X125170000Y-91960000D03*
X124170000Y-91960000D03*
D21*
X148000000Y-83000000D03*
X148000000Y-85000000D03*
X148000000Y-87000000D03*
X148000000Y-89000000D03*
X148000000Y-91000000D03*
X148000000Y-93000000D03*
X148000000Y-95000000D03*
X148000000Y-97000000D03*
X164000000Y-97000000D03*
X164000000Y-95000000D03*
X164000000Y-93000000D03*
X164000000Y-91000000D03*
X164000000Y-89000000D03*
X164000000Y-87000000D03*
X164000000Y-85000000D03*
X164000000Y-83000000D03*
D22*
X117920000Y-97700000D03*
D23*
X117920000Y-96600000D03*
X117920000Y-95500000D03*
X117920000Y-94400000D03*
X117920000Y-93300000D03*
X117920000Y-92200000D03*
X117920000Y-91100000D03*
X117920000Y-90000000D03*
X117920000Y-88900000D03*
X108320000Y-88900000D03*
X108320000Y-90000000D03*
X108320000Y-91100000D03*
X108320000Y-92200000D03*
X108320000Y-93300000D03*
X108320000Y-94400000D03*
X108320000Y-95500000D03*
X108320000Y-96600000D03*
D22*
X108320000Y-97700000D03*
D24*
X141100000Y-81900000D03*
X143100000Y-81900000D03*
D15*
X166275000Y-91250000D03*
X166275000Y-92750000D03*
D24*
X141100000Y-93600000D03*
X143100000Y-93600000D03*
D15*
X146000000Y-89740000D03*
X146000000Y-91240000D03*
D17*
X141710000Y-87920000D03*
X143210000Y-87920000D03*
D24*
X141100000Y-86100000D03*
X143100000Y-86100000D03*
X141100000Y-84000000D03*
X143100000Y-84000000D03*
D15*
X119670000Y-92340000D03*
X119670000Y-93840000D03*
X105620000Y-95210000D03*
X105620000Y-96710000D03*
D17*
X137370000Y-94850000D03*
X138870000Y-94850000D03*
D25*
X121722000Y-93646000D03*
D26*
X121722000Y-91106000D03*
X121722000Y-88566000D03*
X121722000Y-86026000D03*
D27*
X138825000Y-96750000D03*
X133675000Y-96750000D03*
X133675000Y-98750000D03*
X138825000Y-98750000D03*
X127075000Y-96750000D03*
X121925000Y-96750000D03*
X121925000Y-98750000D03*
X127075000Y-98750000D03*
D28*
X141500000Y-89640000D03*
X141500000Y-90140000D03*
X141500000Y-90640000D03*
X141500000Y-91140000D03*
X141500000Y-91640000D03*
X144600000Y-91640000D03*
X144600000Y-91140000D03*
X144600000Y-90640000D03*
X144600000Y-90140000D03*
X144600000Y-89640000D03*
D29*
X143462500Y-91240000D03*
X143462500Y-90040000D03*
X142637500Y-91240000D03*
X142637500Y-90040000D03*
D30*
X143300000Y-89140000D03*
X142800000Y-89140000D03*
X142796000Y-92140000D03*
X143300000Y-92140000D03*
D17*
X146170000Y-87900000D03*
X144670000Y-87900000D03*
X146170000Y-86340000D03*
X144670000Y-86340000D03*
D16*
X173990000Y-99060000D03*
X101600000Y-81280000D03*
D31*
X138940000Y-91199820D03*
X138940000Y-89000180D03*
D15*
X105770000Y-91428000D03*
X105770000Y-89928000D03*
D17*
X124840000Y-81030000D03*
X123340000Y-81030000D03*
M02*
