M48
INCH,TZ
T1C0.012
T2C0.032
T3C0.040
%
G90
G05
T1
X41781Y-29566
X41811Y-33272
X42336Y-30775
X42336Y-32144
X42870Y-33228
X42969Y-29539
X44071Y-32085
X45283Y-31933
X45295Y-31063
X45457Y-33650
X45748Y-31776
X45969Y-29063
X45969Y-35063
X47307Y-34441
X47706Y-31764
X47738Y-34195
X47930Y-29253
X48012Y-28075
X48094Y-28720
X48307Y-29252
X48404Y-30598
X49122Y-33461
X49262Y-30407
X49280Y-29303
X49787Y-28374
X50043Y-27728
X50468Y-33462
X50634Y-29606
X50657Y-31185
X50810Y-34296
X50932Y-33627
X51063Y-31906
X51210Y-34638
X51516Y-30433
X51969Y-28689
X52224Y-29362
X52228Y-30744
X52266Y-33481
X52602Y-31289
X52685Y-30213
X52713Y-28642
X53002Y-32303
X53386Y-32111
X53555Y-29587
X53575Y-32614
X54071Y-29772
X54154Y-33716
X54450Y-29847
X54823Y-32648
X55125Y-32809
X55363Y-29942
X55437Y-28587
X55632Y-32765
X55669Y-32391
X55709Y-30315
X55726Y-30000
X55793Y-33089
X55899Y-31757
X55901Y-30823
X55941Y-32069
X55983Y-33750
X55984Y-32490
X56067Y-30541
X56087Y-31494
X57315Y-35063
X57520Y-33508
X58898Y-32508
X59185Y-31087
X59437Y-33512
X59586Y-31039
X61093Y-29693
X61093Y-30372
X61145Y-32663
X61181Y-31850
X61184Y-31105
X61585Y-30314
X61764Y-33770
X62234Y-32795
X67589Y-28730
X67598Y-29528
X67602Y-30283
X69457Y-29543
X69553Y-33594
X69553Y-33594
X70213Y-29543
T2
X41969Y-28063
X44469Y-28063
X50969Y-30063
X51469Y-29063
X51969Y-28063
X51969Y-30063
X52969Y-29563
X56469Y-29063
X56469Y-30063
X59969Y-28063
X70469Y-35063
T3
X49891Y-29931
X49891Y-30931
X49891Y-31931
X49891Y-32931
T0
M30
