M48
INCH,TZ
T1C0.012
T2C0.028
T3C0.032
T4C0.040
%
G90
G05
T1
X41781Y-29566
X41811Y-33272
X42336Y-30775
X42336Y-32144
X42441Y-33937
X42870Y-33228
X42998Y-29606
X43346Y-35094
X44134Y-35094
X44921Y-35094
X45283Y-31933
X45283Y-31933
X45295Y-31063
X45394Y-34094
X45614Y-31299
X45614Y-32087
X45614Y-32874
X45634Y-33650
X46209Y-29898
X46311Y-31028
X46311Y-31343
X46315Y-34706
X47304Y-34446
X47402Y-31496
X47545Y-34186
X48006Y-30287
X48201Y-28358
X48449Y-30382
X48476Y-29862
X48735Y-30494
X48811Y-29177
X49272Y-34622
X49280Y-29869
X49303Y-29287
X49318Y-30407
X49318Y-33458
X50496Y-29165
X50657Y-31185
X50719Y-28046
X50795Y-29149
X50827Y-30474
X50892Y-28305
X50932Y-33516
X51063Y-31906
X51123Y-28870
X51289Y-30638
X52042Y-30165
X52266Y-33481
X52463Y-30956
X52469Y-29139
X52602Y-31289
X52717Y-31811
X52791Y-30210
X53134Y-29740
X53307Y-32035
X53409Y-32950
X53646Y-32768
X53681Y-32471
X54154Y-33720
X54314Y-29743
X54540Y-29516
X54823Y-32648
X54854Y-29516
X55125Y-32809
X55383Y-29945
X55632Y-32765
X55669Y-32391
X55717Y-30323
X55726Y-30000
X55793Y-33089
X55854Y-34252
X55899Y-31757
X55901Y-30823
X55941Y-32069
X55983Y-33750
X56067Y-30541
X56087Y-31494
X56150Y-34165
X56224Y-32409
X57520Y-33555
X58950Y-32374
X59035Y-34984
X59185Y-31087
X59446Y-33520
X59586Y-31039
X59823Y-34984
X60610Y-34984
X60862Y-29539
X61093Y-30372
X61145Y-32663
X61181Y-31850
X61184Y-31105
X61350Y-32980
X61585Y-30314
X61764Y-33770
X62234Y-32795
X62575Y-33791
X62575Y-34579
X62732Y-29520
X62732Y-30307
X62906Y-28106
X63362Y-33791
X63362Y-34579
X63520Y-29520
X63520Y-30307
X63693Y-28106
X64150Y-33791
X64150Y-34579
X64307Y-29520
X64307Y-30307
X64480Y-28106
X64937Y-33791
X64937Y-34579
X65268Y-28106
X65724Y-33791
X65724Y-34579
X67161Y-28091
X67287Y-33602
X67386Y-34776
X67589Y-28730
X67598Y-29528
X67602Y-30283
X67650Y-33252
X67803Y-32327
X67909Y-31673
X67961Y-34701
X68201Y-31268
X68331Y-34972
X68350Y-34378
X68413Y-28228
X68413Y-29016
X68512Y-30039
X68618Y-31012
X68618Y-34091
X68748Y-33701
X68760Y-33256
X68795Y-32854
X68854Y-32378
X69118Y-34185
X69118Y-34972
X69201Y-28228
X69201Y-29016
X69457Y-29543
X69553Y-33594
X69906Y-34185
X69906Y-34972
X69988Y-28228
X69988Y-29016
X70213Y-29543
T2
X44537Y-29537
X46447Y-29537
T3
X41969Y-28063
X51339Y-29933
X51839Y-29433
X52339Y-27933
X53793Y-29386
X56339Y-29433
X59969Y-28063
X70469Y-35063
T4
X49891Y-29931
X49891Y-30931
X49891Y-31931
X49891Y-32931
T2
X44065Y-28573G85X44065Y-28415
G05
X46919Y-28573G85X46919Y-28415
G05
T0
M30
