G04 #@! TF.FileFunction,Legend,Top*
%FSLAX46Y46*%
G04 Gerber Fmt 4.6, Leading zero omitted, Abs format (unit mm)*
G04 Created by KiCad (PCBNEW (2016-02-18 BZR 6566)-product) date Monday, 09 May 2016 23:43:43*
%MOMM*%
G01*
G04 APERTURE LIST*
%ADD10C,0.100000*%
%ADD11C,0.150000*%
%ADD12C,0.381000*%
%ADD13C,0.050000*%
%ADD14C,0.300000*%
G04 APERTURE END LIST*
D10*
D11*
X122300000Y-88050000D02*
X122300000Y-88300000D01*
X122300000Y-88300000D02*
X112500000Y-88300000D01*
X112500000Y-88300000D02*
X112500000Y-78250000D01*
X112500000Y-78250000D02*
X122300000Y-78250000D01*
X122300000Y-78250000D02*
X122300000Y-88050000D01*
D12*
X180294000Y-76169680D02*
X180294000Y-83789680D01*
X180294000Y-83789680D02*
X192994000Y-83789680D01*
X192994000Y-83789680D02*
X192994000Y-76169680D01*
X192994000Y-76169680D02*
X180294000Y-76169680D01*
D11*
X138070000Y-75697448D02*
X138441231Y-76068679D01*
X138070000Y-83122070D02*
X137698769Y-82750839D01*
X141782311Y-79409759D02*
X141411080Y-79038528D01*
X134357689Y-79409759D02*
X134728920Y-79038528D01*
X138070000Y-83122070D02*
X138441231Y-82750839D01*
X141782311Y-79409759D02*
X141411080Y-79780990D01*
X138070000Y-75697448D02*
X137698769Y-76068679D01*
X132880000Y-82960000D02*
X132880000Y-83660000D01*
X131680000Y-83660000D02*
X131680000Y-82960000D01*
X122110000Y-71700000D02*
X122110000Y-72400000D01*
X120910000Y-72400000D02*
X120910000Y-71700000D01*
X122700000Y-74980000D02*
X122000000Y-74980000D01*
X122000000Y-73780000D02*
X122700000Y-73780000D01*
X122730000Y-72430000D02*
X122730000Y-71730000D01*
X123930000Y-71730000D02*
X123930000Y-72430000D01*
X137650000Y-72600000D02*
X137650000Y-71900000D01*
X138850000Y-71900000D02*
X138850000Y-72600000D01*
X142350000Y-71900000D02*
X142350000Y-72600000D01*
X141150000Y-72600000D02*
X141150000Y-71900000D01*
X139300000Y-85260000D02*
X138600000Y-85260000D01*
X138600000Y-84060000D02*
X139300000Y-84060000D01*
X133260000Y-78490000D02*
X133260000Y-79190000D01*
X132060000Y-79190000D02*
X132060000Y-78490000D01*
X139400000Y-72600000D02*
X139400000Y-71900000D01*
X140600000Y-71900000D02*
X140600000Y-72600000D01*
X130610000Y-80700000D02*
X129910000Y-80700000D01*
X129910000Y-79500000D02*
X130610000Y-79500000D01*
X130600000Y-79100000D02*
X129900000Y-79100000D01*
X129900000Y-77900000D02*
X130600000Y-77900000D01*
X150400000Y-83850000D02*
X150400000Y-83150000D01*
X151600000Y-83150000D02*
X151600000Y-83850000D01*
X150770000Y-75410000D02*
X150070000Y-75410000D01*
X150070000Y-74210000D02*
X150770000Y-74210000D01*
X111400000Y-83550000D02*
X111400000Y-84250000D01*
X110200000Y-84250000D02*
X110200000Y-83550000D01*
X117100000Y-76510000D02*
X117800000Y-76510000D01*
X117800000Y-77710000D02*
X117100000Y-77710000D01*
X114760000Y-77710000D02*
X114060000Y-77710000D01*
X114060000Y-76510000D02*
X114760000Y-76510000D01*
X137350000Y-86550000D02*
X133150000Y-86550000D01*
X137350000Y-83950000D02*
X133150000Y-83950000D01*
X143470000Y-83830000D02*
X142770000Y-83830000D01*
X142770000Y-82630000D02*
X143470000Y-82630000D01*
X134150000Y-72250000D02*
X134150000Y-71550000D01*
X135350000Y-71550000D02*
X135350000Y-72250000D01*
X134358579Y-76742893D02*
X134853553Y-76247919D01*
X135702081Y-77096447D02*
X135207107Y-77591421D01*
X133478249Y-74663223D02*
X133973223Y-74168249D01*
X134821751Y-75016777D02*
X134326777Y-75511751D01*
X134600000Y-87690000D02*
X134600000Y-88390000D01*
X133400000Y-88390000D02*
X133400000Y-87690000D01*
X135900000Y-88400000D02*
X135900000Y-87700000D01*
X137100000Y-87700000D02*
X137100000Y-88400000D01*
D13*
X128690711Y-84860000D02*
G75*
G03X128690711Y-84860000I-70711J0D01*
G01*
X128720000Y-81860000D02*
X131620000Y-81860000D01*
X131620000Y-81860000D02*
X131620000Y-84760000D01*
X131620000Y-84760000D02*
X128720000Y-84760000D01*
X128720000Y-84760000D02*
X128720000Y-81860000D01*
D14*
X152470711Y-71900000D02*
G75*
G03X152470711Y-71900000I-70711J0D01*
G01*
D11*
X153000000Y-72000000D02*
X169000000Y-72000000D01*
X153000000Y-88000000D02*
X169000000Y-88000000D01*
X147600000Y-71050000D02*
X146600000Y-71050000D01*
X146600000Y-72750000D02*
X147600000Y-72750000D01*
X171875000Y-81650000D02*
X171875000Y-82350000D01*
X170675000Y-82350000D02*
X170675000Y-81650000D01*
X147600000Y-82750000D02*
X146600000Y-82750000D01*
X146600000Y-84450000D02*
X147600000Y-84450000D01*
X151600000Y-80140000D02*
X151600000Y-80840000D01*
X150400000Y-80840000D02*
X150400000Y-80140000D01*
X147110000Y-77320000D02*
X147810000Y-77320000D01*
X147810000Y-78520000D02*
X147110000Y-78520000D01*
X147600000Y-75250000D02*
X146600000Y-75250000D01*
X146600000Y-76950000D02*
X147600000Y-76950000D01*
X147600000Y-73150000D02*
X146600000Y-73150000D01*
X146600000Y-74850000D02*
X147600000Y-74850000D01*
X124700000Y-82750000D02*
X124700000Y-83450000D01*
X123500000Y-83450000D02*
X123500000Y-82750000D01*
X110350000Y-86800000D02*
X109650000Y-86800000D01*
X109650000Y-85600000D02*
X110350000Y-85600000D01*
X142770000Y-84250000D02*
X143470000Y-84250000D01*
X143470000Y-85450000D02*
X142770000Y-85450000D01*
X127992000Y-82376000D02*
X127992000Y-74756000D01*
X125452000Y-82376000D02*
X125452000Y-74756000D01*
X125172000Y-85196000D02*
X125172000Y-83646000D01*
X127992000Y-74756000D02*
X125452000Y-74756000D01*
X125452000Y-82376000D02*
X127992000Y-82376000D01*
X128272000Y-83646000D02*
X128272000Y-85196000D01*
X128272000Y-85196000D02*
X125172000Y-85196000D01*
X146825000Y-82290000D02*
X149275000Y-82290000D01*
X146100000Y-78990000D02*
X149275000Y-78990000D01*
X150770000Y-78500000D02*
X150070000Y-78500000D01*
X150070000Y-77300000D02*
X150770000Y-77300000D01*
X150770000Y-76940000D02*
X150070000Y-76940000D01*
X150070000Y-75740000D02*
X150770000Y-75740000D01*
X145740860Y-78598860D02*
X145740860Y-81601140D01*
X142139140Y-78598860D02*
X142139140Y-81601140D01*
X110170000Y-81028000D02*
X110170000Y-80328000D01*
X111370000Y-80328000D02*
X111370000Y-81028000D01*
X129830000Y-71970000D02*
X129830000Y-71270000D01*
X131030000Y-71270000D02*
X131030000Y-71970000D01*
D12*
X104992000Y-83835400D02*
X104992000Y-76215400D01*
X104992000Y-76215400D02*
X92292000Y-76215400D01*
X92292000Y-76215400D02*
X92292000Y-83835400D01*
X92292000Y-83835400D02*
X104992000Y-83835400D01*
D11*
X124520000Y-70480000D02*
X124920000Y-70480000D01*
X124520000Y-70480000D02*
X124520000Y-70880000D01*
X124520000Y-73680000D02*
X124920000Y-73680000D01*
X124520000Y-73680000D02*
X124520000Y-73280000D01*
X127720000Y-73680000D02*
X127320000Y-73680000D01*
X127720000Y-73680000D02*
X127720000Y-73280000D01*
X127720000Y-70480000D02*
X127720000Y-70880000D01*
D14*
X117366711Y-76108000D02*
G75*
G03X117366711Y-76108000I-70711J0D01*
G01*
D11*
X111750000Y-73500000D02*
X111750000Y-75050000D01*
X111750000Y-75050000D02*
X112300000Y-75050000D01*
X119350000Y-73500000D02*
X119350000Y-75050000D01*
X119350000Y-75050000D02*
X118800000Y-75050000D01*
X111750000Y-71300000D02*
X111750000Y-70200000D01*
X119350000Y-70200000D02*
X119350000Y-71300000D01*
X119350000Y-70200000D02*
X111750000Y-70200000D01*
X121250000Y-77000000D02*
X121500000Y-77000000D01*
X120750000Y-77000000D02*
X120500000Y-77000000D01*
X120750000Y-77000000D02*
X121250000Y-76650000D01*
X121250000Y-76650000D02*
X121250000Y-77350000D01*
X121250000Y-77350000D02*
X120750000Y-77000000D01*
X120750000Y-76650000D02*
X120750000Y-77350000D01*
X119700000Y-77800000D02*
X122100000Y-77800000D01*
X119700000Y-76200000D02*
X122100000Y-76200000D01*
X110549160Y-71849760D02*
X110500900Y-71849760D01*
X107750180Y-72550800D02*
X107750180Y-71849760D01*
X107750180Y-71849760D02*
X107999100Y-71849760D01*
X110549160Y-71849760D02*
X110749820Y-71849760D01*
X110749820Y-71849760D02*
X110749820Y-72550800D01*
X180500000Y-77500000D02*
X180500000Y-78500000D01*
X180000000Y-78000000D02*
X181000000Y-78000000D01*
X187500000Y-78500000D02*
X182500000Y-78500000D01*
X182500000Y-81500000D02*
X187500000Y-81500000D01*
X105000000Y-82500000D02*
X105000000Y-81500000D01*
X105500000Y-82000000D02*
X104500000Y-82000000D01*
X98000000Y-81500000D02*
X103000000Y-81500000D01*
X103000000Y-78500000D02*
X98000000Y-78500000D01*
X124700000Y-79350000D02*
X124700000Y-80050000D01*
X123500000Y-80050000D02*
X123500000Y-79350000D01*
X134500000Y-82350000D02*
X134500000Y-83050000D01*
X133300000Y-83050000D02*
X133300000Y-82350000D01*
X131850000Y-86000000D02*
X131850000Y-86100000D01*
X131850000Y-89500000D02*
X131850000Y-89400000D01*
X127150000Y-89400000D02*
X127150000Y-89500000D01*
X127150000Y-86000000D02*
X127150000Y-86100000D01*
X127150000Y-87400000D02*
X127150000Y-88100000D01*
X131850000Y-87400000D02*
X131850000Y-88100000D01*
X131850000Y-86000000D02*
X127150000Y-86000000D01*
X127150000Y-89500000D02*
X131850000Y-89500000D01*
X130400000Y-87750000D02*
G75*
G03X130400000Y-87750000I-900000J0D01*
G01*
X143600000Y-86000000D02*
X143600000Y-86100000D01*
X143600000Y-89500000D02*
X143600000Y-89400000D01*
X138900000Y-89400000D02*
X138900000Y-89500000D01*
X138900000Y-86000000D02*
X138900000Y-86100000D01*
X138900000Y-87400000D02*
X138900000Y-88100000D01*
X143600000Y-87400000D02*
X143600000Y-88100000D01*
X143600000Y-86000000D02*
X138900000Y-86000000D01*
X138900000Y-89500000D02*
X143600000Y-89500000D01*
X142150000Y-87750000D02*
G75*
G03X142150000Y-87750000I-900000J0D01*
G01*
X118092857Y-88621429D02*
X118092857Y-89107143D01*
X118121429Y-89164286D01*
X118150000Y-89192857D01*
X118207143Y-89221429D01*
X118321429Y-89221429D01*
X118378571Y-89192857D01*
X118407143Y-89164286D01*
X118435714Y-89107143D01*
X118435714Y-88621429D01*
X119007142Y-88621429D02*
X118721428Y-88621429D01*
X118692857Y-88907143D01*
X118721428Y-88878571D01*
X118778571Y-88850000D01*
X118921428Y-88850000D01*
X118978571Y-88878571D01*
X119007142Y-88907143D01*
X119035714Y-88964286D01*
X119035714Y-89107143D01*
X119007142Y-89164286D01*
X118978571Y-89192857D01*
X118921428Y-89221429D01*
X118778571Y-89221429D01*
X118721428Y-89192857D01*
X118692857Y-89164286D01*
X176092857Y-75322857D02*
X176178571Y-75351429D01*
X176321428Y-75351429D01*
X176378571Y-75322857D01*
X176407142Y-75294286D01*
X176435714Y-75237143D01*
X176435714Y-75180000D01*
X176407142Y-75122857D01*
X176378571Y-75094286D01*
X176321428Y-75065714D01*
X176207142Y-75037143D01*
X176150000Y-75008571D01*
X176121428Y-74980000D01*
X176092857Y-74922857D01*
X176092857Y-74865714D01*
X176121428Y-74808571D01*
X176150000Y-74780000D01*
X176207142Y-74751429D01*
X176350000Y-74751429D01*
X176435714Y-74780000D01*
X176692857Y-75351429D02*
X176692857Y-74751429D01*
X176892857Y-75180000D01*
X177092857Y-74751429D01*
X177092857Y-75351429D01*
X177350000Y-75180000D02*
X177635714Y-75180000D01*
X177292857Y-75351429D02*
X177492857Y-74751429D01*
X177692857Y-75351429D01*
X177750000Y-75408571D02*
X178207143Y-75408571D01*
X178350000Y-75037143D02*
X178550000Y-75037143D01*
X178635714Y-75351429D02*
X178350000Y-75351429D01*
X178350000Y-74751429D01*
X178635714Y-74751429D01*
X178864286Y-74808571D02*
X178892857Y-74780000D01*
X178950000Y-74751429D01*
X179092857Y-74751429D01*
X179150000Y-74780000D01*
X179178571Y-74808571D01*
X179207143Y-74865714D01*
X179207143Y-74922857D01*
X179178571Y-75008571D01*
X178835714Y-75351429D01*
X179207143Y-75351429D01*
X133574416Y-80380914D02*
X133917868Y-80724366D01*
X133978478Y-80744569D01*
X134018883Y-80744569D01*
X134079493Y-80724366D01*
X134160305Y-80643553D01*
X134180507Y-80582944D01*
X134180508Y-80542538D01*
X134160304Y-80481929D01*
X133816853Y-80138478D01*
X134342132Y-79896041D02*
X134624975Y-80178884D01*
X134079492Y-79835431D02*
X134281523Y-80239493D01*
X134544162Y-79976854D01*
X132484286Y-85240000D02*
X132512857Y-85268571D01*
X132541429Y-85354285D01*
X132541429Y-85411428D01*
X132512857Y-85497143D01*
X132455714Y-85554285D01*
X132398571Y-85582857D01*
X132284286Y-85611428D01*
X132198571Y-85611428D01*
X132084286Y-85582857D01*
X132027143Y-85554285D01*
X131970000Y-85497143D01*
X131941429Y-85411428D01*
X131941429Y-85354285D01*
X131970000Y-85268571D01*
X131998571Y-85240000D01*
X132541429Y-84668571D02*
X132541429Y-85011428D01*
X132541429Y-84840000D02*
X131941429Y-84840000D01*
X132027143Y-84897143D01*
X132084286Y-84954285D01*
X132112857Y-85011428D01*
X120450000Y-70794286D02*
X120421429Y-70822857D01*
X120335715Y-70851429D01*
X120278572Y-70851429D01*
X120192857Y-70822857D01*
X120135715Y-70765714D01*
X120107143Y-70708571D01*
X120078572Y-70594286D01*
X120078572Y-70508571D01*
X120107143Y-70394286D01*
X120135715Y-70337143D01*
X120192857Y-70280000D01*
X120278572Y-70251429D01*
X120335715Y-70251429D01*
X120421429Y-70280000D01*
X120450000Y-70308571D01*
X120678572Y-70308571D02*
X120707143Y-70280000D01*
X120764286Y-70251429D01*
X120907143Y-70251429D01*
X120964286Y-70280000D01*
X120992857Y-70308571D01*
X121021429Y-70365714D01*
X121021429Y-70422857D01*
X120992857Y-70508571D01*
X120650000Y-70851429D01*
X121021429Y-70851429D01*
X124614286Y-74850000D02*
X124642857Y-74878571D01*
X124671429Y-74964285D01*
X124671429Y-75021428D01*
X124642857Y-75107143D01*
X124585714Y-75164285D01*
X124528571Y-75192857D01*
X124414286Y-75221428D01*
X124328571Y-75221428D01*
X124214286Y-75192857D01*
X124157143Y-75164285D01*
X124100000Y-75107143D01*
X124071429Y-75021428D01*
X124071429Y-74964285D01*
X124100000Y-74878571D01*
X124128571Y-74850000D01*
X124071429Y-74650000D02*
X124071429Y-74278571D01*
X124300000Y-74478571D01*
X124300000Y-74392857D01*
X124328571Y-74335714D01*
X124357143Y-74307143D01*
X124414286Y-74278571D01*
X124557143Y-74278571D01*
X124614286Y-74307143D01*
X124642857Y-74335714D01*
X124671429Y-74392857D01*
X124671429Y-74564285D01*
X124642857Y-74621428D01*
X124614286Y-74650000D01*
X123660000Y-70684286D02*
X123631429Y-70712857D01*
X123545715Y-70741429D01*
X123488572Y-70741429D01*
X123402857Y-70712857D01*
X123345715Y-70655714D01*
X123317143Y-70598571D01*
X123288572Y-70484286D01*
X123288572Y-70398571D01*
X123317143Y-70284286D01*
X123345715Y-70227143D01*
X123402857Y-70170000D01*
X123488572Y-70141429D01*
X123545715Y-70141429D01*
X123631429Y-70170000D01*
X123660000Y-70198571D01*
X124174286Y-70341429D02*
X124174286Y-70741429D01*
X124031429Y-70112857D02*
X123888572Y-70541429D01*
X124260000Y-70541429D01*
X137807143Y-74271429D02*
X137807143Y-73671429D01*
X137950000Y-73671429D01*
X138035715Y-73700000D01*
X138092857Y-73757143D01*
X138121429Y-73814286D01*
X138150000Y-73928571D01*
X138150000Y-74014286D01*
X138121429Y-74128571D01*
X138092857Y-74185714D01*
X138035715Y-74242857D01*
X137950000Y-74271429D01*
X137807143Y-74271429D01*
X138721429Y-74271429D02*
X138378572Y-74271429D01*
X138550000Y-74271429D02*
X138550000Y-73671429D01*
X138492857Y-73757143D01*
X138435715Y-73814286D01*
X138378572Y-73842857D01*
X136137143Y-73551429D02*
X136137143Y-72951429D01*
X136365715Y-72951429D01*
X136422857Y-72980000D01*
X136451429Y-73008571D01*
X136480000Y-73065714D01*
X136480000Y-73151429D01*
X136451429Y-73208571D01*
X136422857Y-73237143D01*
X136365715Y-73265714D01*
X136137143Y-73265714D01*
X137051429Y-73551429D02*
X136708572Y-73551429D01*
X136880000Y-73551429D02*
X136880000Y-72951429D01*
X136822857Y-73037143D01*
X136765715Y-73094286D01*
X136708572Y-73122857D01*
X129077143Y-75151429D02*
X129077143Y-74551429D01*
X129305715Y-74551429D01*
X129362857Y-74580000D01*
X129391429Y-74608571D01*
X129420000Y-74665714D01*
X129420000Y-74751429D01*
X129391429Y-74808571D01*
X129362857Y-74837143D01*
X129305715Y-74865714D01*
X129077143Y-74865714D01*
X129648572Y-74608571D02*
X129677143Y-74580000D01*
X129734286Y-74551429D01*
X129877143Y-74551429D01*
X129934286Y-74580000D01*
X129962857Y-74608571D01*
X129991429Y-74665714D01*
X129991429Y-74722857D01*
X129962857Y-74808571D01*
X129620000Y-75151429D01*
X129991429Y-75151429D01*
X131297143Y-73641429D02*
X131297143Y-73041429D01*
X131525715Y-73041429D01*
X131582857Y-73070000D01*
X131611429Y-73098571D01*
X131640000Y-73155714D01*
X131640000Y-73241429D01*
X131611429Y-73298571D01*
X131582857Y-73327143D01*
X131525715Y-73355714D01*
X131297143Y-73355714D01*
X131840000Y-73041429D02*
X132211429Y-73041429D01*
X132011429Y-73270000D01*
X132097143Y-73270000D01*
X132154286Y-73298571D01*
X132182857Y-73327143D01*
X132211429Y-73384286D01*
X132211429Y-73527143D01*
X132182857Y-73584286D01*
X132154286Y-73612857D01*
X132097143Y-73641429D01*
X131925715Y-73641429D01*
X131868572Y-73612857D01*
X131840000Y-73584286D01*
X150387143Y-71781429D02*
X150387143Y-71181429D01*
X150615715Y-71181429D01*
X150672857Y-71210000D01*
X150701429Y-71238571D01*
X150730000Y-71295714D01*
X150730000Y-71381429D01*
X150701429Y-71438571D01*
X150672857Y-71467143D01*
X150615715Y-71495714D01*
X150387143Y-71495714D01*
X151244286Y-71381429D02*
X151244286Y-71781429D01*
X151101429Y-71152857D02*
X150958572Y-71581429D01*
X151330000Y-71581429D01*
X132577143Y-72551429D02*
X132577143Y-71951429D01*
X132805715Y-71951429D01*
X132862857Y-71980000D01*
X132891429Y-72008571D01*
X132920000Y-72065714D01*
X132920000Y-72151429D01*
X132891429Y-72208571D01*
X132862857Y-72237143D01*
X132805715Y-72265714D01*
X132577143Y-72265714D01*
X133462857Y-71951429D02*
X133177143Y-71951429D01*
X133148572Y-72237143D01*
X133177143Y-72208571D01*
X133234286Y-72180000D01*
X133377143Y-72180000D01*
X133434286Y-72208571D01*
X133462857Y-72237143D01*
X133491429Y-72294286D01*
X133491429Y-72437143D01*
X133462857Y-72494286D01*
X133434286Y-72522857D01*
X133377143Y-72551429D01*
X133234286Y-72551429D01*
X133177143Y-72522857D01*
X133148572Y-72494286D01*
X141977143Y-73991429D02*
X141977143Y-73391429D01*
X142205715Y-73391429D01*
X142262857Y-73420000D01*
X142291429Y-73448571D01*
X142320000Y-73505714D01*
X142320000Y-73591429D01*
X142291429Y-73648571D01*
X142262857Y-73677143D01*
X142205715Y-73705714D01*
X141977143Y-73705714D01*
X142834286Y-73391429D02*
X142720000Y-73391429D01*
X142662857Y-73420000D01*
X142634286Y-73448571D01*
X142577143Y-73534286D01*
X142548572Y-73648571D01*
X142548572Y-73877143D01*
X142577143Y-73934286D01*
X142605715Y-73962857D01*
X142662857Y-73991429D01*
X142777143Y-73991429D01*
X142834286Y-73962857D01*
X142862857Y-73934286D01*
X142891429Y-73877143D01*
X142891429Y-73734286D01*
X142862857Y-73677143D01*
X142834286Y-73648571D01*
X142777143Y-73620000D01*
X142662857Y-73620000D01*
X142605715Y-73648571D01*
X142577143Y-73677143D01*
X142548572Y-73734286D01*
X143001429Y-71320000D02*
X142715714Y-71520000D01*
X143001429Y-71662857D02*
X142401429Y-71662857D01*
X142401429Y-71434285D01*
X142430000Y-71377143D01*
X142458571Y-71348571D01*
X142515714Y-71320000D01*
X142601429Y-71320000D01*
X142658571Y-71348571D01*
X142687143Y-71377143D01*
X142715714Y-71434285D01*
X142715714Y-71662857D01*
X143001429Y-70748571D02*
X143001429Y-71091428D01*
X143001429Y-70920000D02*
X142401429Y-70920000D01*
X142487143Y-70977143D01*
X142544286Y-71034285D01*
X142572857Y-71091428D01*
X139350000Y-83781429D02*
X139150000Y-83495714D01*
X139007143Y-83781429D02*
X139007143Y-83181429D01*
X139235715Y-83181429D01*
X139292857Y-83210000D01*
X139321429Y-83238571D01*
X139350000Y-83295714D01*
X139350000Y-83381429D01*
X139321429Y-83438571D01*
X139292857Y-83467143D01*
X139235715Y-83495714D01*
X139007143Y-83495714D01*
X139578572Y-83238571D02*
X139607143Y-83210000D01*
X139664286Y-83181429D01*
X139807143Y-83181429D01*
X139864286Y-83210000D01*
X139892857Y-83238571D01*
X139921429Y-83295714D01*
X139921429Y-83352857D01*
X139892857Y-83438571D01*
X139550000Y-83781429D01*
X139921429Y-83781429D01*
X132961429Y-80930000D02*
X132675714Y-81130000D01*
X132961429Y-81272857D02*
X132361429Y-81272857D01*
X132361429Y-81044285D01*
X132390000Y-80987143D01*
X132418571Y-80958571D01*
X132475714Y-80930000D01*
X132561429Y-80930000D01*
X132618571Y-80958571D01*
X132647143Y-80987143D01*
X132675714Y-81044285D01*
X132675714Y-81272857D01*
X132361429Y-80730000D02*
X132361429Y-80358571D01*
X132590000Y-80558571D01*
X132590000Y-80472857D01*
X132618571Y-80415714D01*
X132647143Y-80387143D01*
X132704286Y-80358571D01*
X132847143Y-80358571D01*
X132904286Y-80387143D01*
X132932857Y-80415714D01*
X132961429Y-80472857D01*
X132961429Y-80644285D01*
X132932857Y-80701428D01*
X132904286Y-80730000D01*
X141161429Y-71160000D02*
X140875714Y-71360000D01*
X141161429Y-71502857D02*
X140561429Y-71502857D01*
X140561429Y-71274285D01*
X140590000Y-71217143D01*
X140618571Y-71188571D01*
X140675714Y-71160000D01*
X140761429Y-71160000D01*
X140818571Y-71188571D01*
X140847143Y-71217143D01*
X140875714Y-71274285D01*
X140875714Y-71502857D01*
X140761429Y-70645714D02*
X141161429Y-70645714D01*
X140532857Y-70788571D02*
X140961429Y-70931428D01*
X140961429Y-70560000D01*
X130150000Y-81461429D02*
X129950000Y-81175714D01*
X129807143Y-81461429D02*
X129807143Y-80861429D01*
X130035715Y-80861429D01*
X130092857Y-80890000D01*
X130121429Y-80918571D01*
X130150000Y-80975714D01*
X130150000Y-81061429D01*
X130121429Y-81118571D01*
X130092857Y-81147143D01*
X130035715Y-81175714D01*
X129807143Y-81175714D01*
X130692857Y-80861429D02*
X130407143Y-80861429D01*
X130378572Y-81147143D01*
X130407143Y-81118571D01*
X130464286Y-81090000D01*
X130607143Y-81090000D01*
X130664286Y-81118571D01*
X130692857Y-81147143D01*
X130721429Y-81204286D01*
X130721429Y-81347143D01*
X130692857Y-81404286D01*
X130664286Y-81432857D01*
X130607143Y-81461429D01*
X130464286Y-81461429D01*
X130407143Y-81432857D01*
X130378572Y-81404286D01*
X130160000Y-77631429D02*
X129960000Y-77345714D01*
X129817143Y-77631429D02*
X129817143Y-77031429D01*
X130045715Y-77031429D01*
X130102857Y-77060000D01*
X130131429Y-77088571D01*
X130160000Y-77145714D01*
X130160000Y-77231429D01*
X130131429Y-77288571D01*
X130102857Y-77317143D01*
X130045715Y-77345714D01*
X129817143Y-77345714D01*
X130674286Y-77031429D02*
X130560000Y-77031429D01*
X130502857Y-77060000D01*
X130474286Y-77088571D01*
X130417143Y-77174286D01*
X130388572Y-77288571D01*
X130388572Y-77517143D01*
X130417143Y-77574286D01*
X130445715Y-77602857D01*
X130502857Y-77631429D01*
X130617143Y-77631429D01*
X130674286Y-77602857D01*
X130702857Y-77574286D01*
X130731429Y-77517143D01*
X130731429Y-77374286D01*
X130702857Y-77317143D01*
X130674286Y-77288571D01*
X130617143Y-77260000D01*
X130502857Y-77260000D01*
X130445715Y-77288571D01*
X130417143Y-77317143D01*
X130388572Y-77374286D01*
X152471429Y-83580000D02*
X152185714Y-83780000D01*
X152471429Y-83922857D02*
X151871429Y-83922857D01*
X151871429Y-83694285D01*
X151900000Y-83637143D01*
X151928571Y-83608571D01*
X151985714Y-83580000D01*
X152071429Y-83580000D01*
X152128571Y-83608571D01*
X152157143Y-83637143D01*
X152185714Y-83694285D01*
X152185714Y-83922857D01*
X151871429Y-83380000D02*
X151871429Y-82980000D01*
X152471429Y-83237143D01*
X149310000Y-74181429D02*
X149110000Y-73895714D01*
X148967143Y-74181429D02*
X148967143Y-73581429D01*
X149195715Y-73581429D01*
X149252857Y-73610000D01*
X149281429Y-73638571D01*
X149310000Y-73695714D01*
X149310000Y-73781429D01*
X149281429Y-73838571D01*
X149252857Y-73867143D01*
X149195715Y-73895714D01*
X148967143Y-73895714D01*
X149652857Y-73838571D02*
X149595715Y-73810000D01*
X149567143Y-73781429D01*
X149538572Y-73724286D01*
X149538572Y-73695714D01*
X149567143Y-73638571D01*
X149595715Y-73610000D01*
X149652857Y-73581429D01*
X149767143Y-73581429D01*
X149824286Y-73610000D01*
X149852857Y-73638571D01*
X149881429Y-73695714D01*
X149881429Y-73724286D01*
X149852857Y-73781429D01*
X149824286Y-73810000D01*
X149767143Y-73838571D01*
X149652857Y-73838571D01*
X149595715Y-73867143D01*
X149567143Y-73895714D01*
X149538572Y-73952857D01*
X149538572Y-74067143D01*
X149567143Y-74124286D01*
X149595715Y-74152857D01*
X149652857Y-74181429D01*
X149767143Y-74181429D01*
X149824286Y-74152857D01*
X149852857Y-74124286D01*
X149881429Y-74067143D01*
X149881429Y-73952857D01*
X149852857Y-73895714D01*
X149824286Y-73867143D01*
X149767143Y-73838571D01*
X109871429Y-84860000D02*
X109585714Y-85060000D01*
X109871429Y-85202857D02*
X109271429Y-85202857D01*
X109271429Y-84974285D01*
X109300000Y-84917143D01*
X109328571Y-84888571D01*
X109385714Y-84860000D01*
X109471429Y-84860000D01*
X109528571Y-84888571D01*
X109557143Y-84917143D01*
X109585714Y-84974285D01*
X109585714Y-85202857D01*
X109871429Y-84574285D02*
X109871429Y-84460000D01*
X109842857Y-84402857D01*
X109814286Y-84374285D01*
X109728571Y-84317143D01*
X109614286Y-84288571D01*
X109385714Y-84288571D01*
X109328571Y-84317143D01*
X109300000Y-84345714D01*
X109271429Y-84402857D01*
X109271429Y-84517143D01*
X109300000Y-84574285D01*
X109328571Y-84602857D01*
X109385714Y-84631428D01*
X109528571Y-84631428D01*
X109585714Y-84602857D01*
X109614286Y-84574285D01*
X109642857Y-84517143D01*
X109642857Y-84402857D01*
X109614286Y-84345714D01*
X109585714Y-84317143D01*
X109528571Y-84288571D01*
X117964286Y-75841429D02*
X118164286Y-76441429D01*
X118364286Y-75841429D01*
X118907143Y-76441429D02*
X118707143Y-76155714D01*
X118564286Y-76441429D02*
X118564286Y-75841429D01*
X118792858Y-75841429D01*
X118850000Y-75870000D01*
X118878572Y-75898571D01*
X118907143Y-75955714D01*
X118907143Y-76041429D01*
X118878572Y-76098571D01*
X118850000Y-76127143D01*
X118792858Y-76155714D01*
X118564286Y-76155714D01*
X119478572Y-76441429D02*
X119135715Y-76441429D01*
X119307143Y-76441429D02*
X119307143Y-75841429D01*
X119250000Y-75927143D01*
X119192858Y-75984286D01*
X119135715Y-76012857D01*
X112194286Y-75841429D02*
X112394286Y-76441429D01*
X112594286Y-75841429D01*
X113137143Y-76441429D02*
X112937143Y-76155714D01*
X112794286Y-76441429D02*
X112794286Y-75841429D01*
X113022858Y-75841429D01*
X113080000Y-75870000D01*
X113108572Y-75898571D01*
X113137143Y-75955714D01*
X113137143Y-76041429D01*
X113108572Y-76098571D01*
X113080000Y-76127143D01*
X113022858Y-76155714D01*
X112794286Y-76155714D01*
X113365715Y-75898571D02*
X113394286Y-75870000D01*
X113451429Y-75841429D01*
X113594286Y-75841429D01*
X113651429Y-75870000D01*
X113680000Y-75898571D01*
X113708572Y-75955714D01*
X113708572Y-76012857D01*
X113680000Y-76098571D01*
X113337143Y-76441429D01*
X113708572Y-76441429D01*
X134874286Y-83365714D02*
X134874286Y-83651429D01*
X134674286Y-83051429D02*
X134874286Y-83365714D01*
X135074286Y-83051429D01*
X135588572Y-83651429D02*
X135245715Y-83651429D01*
X135417143Y-83651429D02*
X135417143Y-83051429D01*
X135360000Y-83137143D01*
X135302858Y-83194286D01*
X135245715Y-83222857D01*
X141820000Y-82404286D02*
X141791429Y-82432857D01*
X141705715Y-82461429D01*
X141648572Y-82461429D01*
X141562857Y-82432857D01*
X141505715Y-82375714D01*
X141477143Y-82318571D01*
X141448572Y-82204286D01*
X141448572Y-82118571D01*
X141477143Y-82004286D01*
X141505715Y-81947143D01*
X141562857Y-81890000D01*
X141648572Y-81861429D01*
X141705715Y-81861429D01*
X141791429Y-81890000D01*
X141820000Y-81918571D01*
X142162857Y-82118571D02*
X142105715Y-82090000D01*
X142077143Y-82061429D01*
X142048572Y-82004286D01*
X142048572Y-81975714D01*
X142077143Y-81918571D01*
X142105715Y-81890000D01*
X142162857Y-81861429D01*
X142277143Y-81861429D01*
X142334286Y-81890000D01*
X142362857Y-81918571D01*
X142391429Y-81975714D01*
X142391429Y-82004286D01*
X142362857Y-82061429D01*
X142334286Y-82090000D01*
X142277143Y-82118571D01*
X142162857Y-82118571D01*
X142105715Y-82147143D01*
X142077143Y-82175714D01*
X142048572Y-82232857D01*
X142048572Y-82347143D01*
X142077143Y-82404286D01*
X142105715Y-82432857D01*
X142162857Y-82461429D01*
X142277143Y-82461429D01*
X142334286Y-82432857D01*
X142362857Y-82404286D01*
X142391429Y-82347143D01*
X142391429Y-82232857D01*
X142362857Y-82175714D01*
X142334286Y-82147143D01*
X142277143Y-82118571D01*
X135820000Y-71244286D02*
X135791429Y-71272857D01*
X135705715Y-71301429D01*
X135648572Y-71301429D01*
X135562857Y-71272857D01*
X135505715Y-71215714D01*
X135477143Y-71158571D01*
X135448572Y-71044286D01*
X135448572Y-70958571D01*
X135477143Y-70844286D01*
X135505715Y-70787143D01*
X135562857Y-70730000D01*
X135648572Y-70701429D01*
X135705715Y-70701429D01*
X135791429Y-70730000D01*
X135820000Y-70758571D01*
X136105715Y-71301429D02*
X136220000Y-71301429D01*
X136277143Y-71272857D01*
X136305715Y-71244286D01*
X136362857Y-71158571D01*
X136391429Y-71044286D01*
X136391429Y-70815714D01*
X136362857Y-70758571D01*
X136334286Y-70730000D01*
X136277143Y-70701429D01*
X136162857Y-70701429D01*
X136105715Y-70730000D01*
X136077143Y-70758571D01*
X136048572Y-70815714D01*
X136048572Y-70958571D01*
X136077143Y-71015714D01*
X136105715Y-71044286D01*
X136162857Y-71072857D01*
X136277143Y-71072857D01*
X136334286Y-71044286D01*
X136362857Y-71015714D01*
X136391429Y-70958571D01*
X133478781Y-77134265D02*
X133478781Y-77174670D01*
X133438376Y-77255483D01*
X133397970Y-77295889D01*
X133317157Y-77336295D01*
X133236345Y-77336294D01*
X133175735Y-77316092D01*
X133074721Y-77255483D01*
X133014111Y-77194873D01*
X132953502Y-77093859D01*
X132933299Y-77033249D01*
X132933299Y-76952437D01*
X132973706Y-76871625D01*
X133014112Y-76831219D01*
X133094924Y-76790812D01*
X133135329Y-76790812D01*
X133923249Y-76770610D02*
X133680812Y-77013046D01*
X133802030Y-76891828D02*
X133377766Y-76467564D01*
X133397969Y-76568579D01*
X133397970Y-76649391D01*
X133377766Y-76710000D01*
X133761625Y-76083706D02*
X133802031Y-76043299D01*
X133862640Y-76023096D01*
X133903045Y-76023096D01*
X133963654Y-76043299D01*
X134064670Y-76103908D01*
X134165685Y-76204924D01*
X134226294Y-76305939D01*
X134246498Y-76366548D01*
X134246498Y-76406954D01*
X134226295Y-76467563D01*
X134185889Y-76507970D01*
X134125279Y-76528172D01*
X134084874Y-76528172D01*
X134024264Y-76507970D01*
X133923249Y-76447360D01*
X133822234Y-76346345D01*
X133761624Y-76245330D01*
X133741421Y-76184720D01*
X133741421Y-76144315D01*
X133761625Y-76083706D01*
X132458781Y-76604265D02*
X132458781Y-76644670D01*
X132418376Y-76725483D01*
X132377970Y-76765889D01*
X132297157Y-76806295D01*
X132216345Y-76806294D01*
X132155735Y-76786092D01*
X132054721Y-76725483D01*
X131994111Y-76664873D01*
X131933502Y-76563859D01*
X131913299Y-76503249D01*
X131913299Y-76422437D01*
X131953706Y-76341625D01*
X131994112Y-76301219D01*
X132074924Y-76260812D01*
X132115329Y-76260812D01*
X132903249Y-76240610D02*
X132660812Y-76483046D01*
X132782030Y-76361828D02*
X132357766Y-75937564D01*
X132377969Y-76038579D01*
X132377970Y-76119391D01*
X132357766Y-76180000D01*
X133307310Y-75836548D02*
X133064874Y-76078985D01*
X133186092Y-75957767D02*
X132761828Y-75533503D01*
X132782030Y-75634518D01*
X132782031Y-75715330D01*
X132761828Y-75775939D01*
X135484286Y-88475715D02*
X135512857Y-88504286D01*
X135541429Y-88590000D01*
X135541429Y-88647143D01*
X135512857Y-88732858D01*
X135455714Y-88790000D01*
X135398571Y-88818572D01*
X135284286Y-88847143D01*
X135198571Y-88847143D01*
X135084286Y-88818572D01*
X135027143Y-88790000D01*
X134970000Y-88732858D01*
X134941429Y-88647143D01*
X134941429Y-88590000D01*
X134970000Y-88504286D01*
X134998571Y-88475715D01*
X135541429Y-87904286D02*
X135541429Y-88247143D01*
X135541429Y-88075715D02*
X134941429Y-88075715D01*
X135027143Y-88132858D01*
X135084286Y-88190000D01*
X135112857Y-88247143D01*
X134998571Y-87675714D02*
X134970000Y-87647143D01*
X134941429Y-87590000D01*
X134941429Y-87447143D01*
X134970000Y-87390000D01*
X134998571Y-87361429D01*
X135055714Y-87332857D01*
X135112857Y-87332857D01*
X135198571Y-87361429D01*
X135541429Y-87704286D01*
X135541429Y-87332857D01*
X137794286Y-88475715D02*
X137822857Y-88504286D01*
X137851429Y-88590000D01*
X137851429Y-88647143D01*
X137822857Y-88732858D01*
X137765714Y-88790000D01*
X137708571Y-88818572D01*
X137594286Y-88847143D01*
X137508571Y-88847143D01*
X137394286Y-88818572D01*
X137337143Y-88790000D01*
X137280000Y-88732858D01*
X137251429Y-88647143D01*
X137251429Y-88590000D01*
X137280000Y-88504286D01*
X137308571Y-88475715D01*
X137851429Y-87904286D02*
X137851429Y-88247143D01*
X137851429Y-88075715D02*
X137251429Y-88075715D01*
X137337143Y-88132858D01*
X137394286Y-88190000D01*
X137422857Y-88247143D01*
X137251429Y-87704286D02*
X137251429Y-87332857D01*
X137480000Y-87532857D01*
X137480000Y-87447143D01*
X137508571Y-87390000D01*
X137537143Y-87361429D01*
X137594286Y-87332857D01*
X137737143Y-87332857D01*
X137794286Y-87361429D01*
X137822857Y-87390000D01*
X137851429Y-87447143D01*
X137851429Y-87618571D01*
X137822857Y-87675714D01*
X137794286Y-87704286D01*
X128342857Y-80851429D02*
X128342857Y-81337143D01*
X128371429Y-81394286D01*
X128400000Y-81422857D01*
X128457143Y-81451429D01*
X128571429Y-81451429D01*
X128628571Y-81422857D01*
X128657143Y-81394286D01*
X128685714Y-81337143D01*
X128685714Y-80851429D01*
X129285714Y-81451429D02*
X128942857Y-81451429D01*
X129114285Y-81451429D02*
X129114285Y-80851429D01*
X129057142Y-80937143D01*
X129000000Y-80994286D01*
X128942857Y-81022857D01*
X144470000Y-71844286D02*
X144441429Y-71872857D01*
X144355715Y-71901429D01*
X144298572Y-71901429D01*
X144212857Y-71872857D01*
X144155715Y-71815714D01*
X144127143Y-71758571D01*
X144098572Y-71644286D01*
X144098572Y-71558571D01*
X144127143Y-71444286D01*
X144155715Y-71387143D01*
X144212857Y-71330000D01*
X144298572Y-71301429D01*
X144355715Y-71301429D01*
X144441429Y-71330000D01*
X144470000Y-71358571D01*
X144984286Y-71301429D02*
X144870000Y-71301429D01*
X144812857Y-71330000D01*
X144784286Y-71358571D01*
X144727143Y-71444286D01*
X144698572Y-71558571D01*
X144698572Y-71787143D01*
X144727143Y-71844286D01*
X144755715Y-71872857D01*
X144812857Y-71901429D01*
X144927143Y-71901429D01*
X144984286Y-71872857D01*
X145012857Y-71844286D01*
X145041429Y-71787143D01*
X145041429Y-71644286D01*
X145012857Y-71587143D01*
X144984286Y-71558571D01*
X144927143Y-71530000D01*
X144812857Y-71530000D01*
X144755715Y-71558571D01*
X144727143Y-71587143D01*
X144698572Y-71644286D01*
X173389286Y-82100000D02*
X173417857Y-82128571D01*
X173446429Y-82214285D01*
X173446429Y-82271428D01*
X173417857Y-82357143D01*
X173360714Y-82414285D01*
X173303571Y-82442857D01*
X173189286Y-82471428D01*
X173103571Y-82471428D01*
X172989286Y-82442857D01*
X172932143Y-82414285D01*
X172875000Y-82357143D01*
X172846429Y-82271428D01*
X172846429Y-82214285D01*
X172875000Y-82128571D01*
X172903571Y-82100000D01*
X172846429Y-81900000D02*
X172846429Y-81500000D01*
X173446429Y-81757143D01*
X146680285Y-85351286D02*
X146651714Y-85379857D01*
X146566000Y-85408429D01*
X146508857Y-85408429D01*
X146423142Y-85379857D01*
X146366000Y-85322714D01*
X146337428Y-85265571D01*
X146308857Y-85151286D01*
X146308857Y-85065571D01*
X146337428Y-84951286D01*
X146366000Y-84894143D01*
X146423142Y-84837000D01*
X146508857Y-84808429D01*
X146566000Y-84808429D01*
X146651714Y-84837000D01*
X146680285Y-84865571D01*
X147251714Y-85408429D02*
X146908857Y-85408429D01*
X147080285Y-85408429D02*
X147080285Y-84808429D01*
X147023142Y-84894143D01*
X146966000Y-84951286D01*
X146908857Y-84979857D01*
X147766000Y-85008429D02*
X147766000Y-85408429D01*
X147623143Y-84779857D02*
X147480286Y-85208429D01*
X147851714Y-85208429D01*
X152535286Y-80870715D02*
X152563857Y-80899286D01*
X152592429Y-80985000D01*
X152592429Y-81042143D01*
X152563857Y-81127858D01*
X152506714Y-81185000D01*
X152449571Y-81213572D01*
X152335286Y-81242143D01*
X152249571Y-81242143D01*
X152135286Y-81213572D01*
X152078143Y-81185000D01*
X152021000Y-81127858D01*
X151992429Y-81042143D01*
X151992429Y-80985000D01*
X152021000Y-80899286D01*
X152049571Y-80870715D01*
X152592429Y-80299286D02*
X152592429Y-80642143D01*
X152592429Y-80470715D02*
X151992429Y-80470715D01*
X152078143Y-80527858D01*
X152135286Y-80585000D01*
X152163857Y-80642143D01*
X151992429Y-79756429D02*
X151992429Y-80042143D01*
X152278143Y-80070714D01*
X152249571Y-80042143D01*
X152221000Y-79985000D01*
X152221000Y-79842143D01*
X152249571Y-79785000D01*
X152278143Y-79756429D01*
X152335286Y-79727857D01*
X152478143Y-79727857D01*
X152535286Y-79756429D01*
X152563857Y-79785000D01*
X152592429Y-79842143D01*
X152592429Y-79985000D01*
X152563857Y-80042143D01*
X152535286Y-80070714D01*
X144744285Y-78154286D02*
X144715714Y-78182857D01*
X144630000Y-78211429D01*
X144572857Y-78211429D01*
X144487142Y-78182857D01*
X144430000Y-78125714D01*
X144401428Y-78068571D01*
X144372857Y-77954286D01*
X144372857Y-77868571D01*
X144401428Y-77754286D01*
X144430000Y-77697143D01*
X144487142Y-77640000D01*
X144572857Y-77611429D01*
X144630000Y-77611429D01*
X144715714Y-77640000D01*
X144744285Y-77668571D01*
X145315714Y-78211429D02*
X144972857Y-78211429D01*
X145144285Y-78211429D02*
X145144285Y-77611429D01*
X145087142Y-77697143D01*
X145030000Y-77754286D01*
X144972857Y-77782857D01*
X145830000Y-77611429D02*
X145715714Y-77611429D01*
X145658571Y-77640000D01*
X145630000Y-77668571D01*
X145572857Y-77754286D01*
X145544286Y-77868571D01*
X145544286Y-78097143D01*
X145572857Y-78154286D01*
X145601429Y-78182857D01*
X145658571Y-78211429D01*
X145772857Y-78211429D01*
X145830000Y-78182857D01*
X145858571Y-78154286D01*
X145887143Y-78097143D01*
X145887143Y-77954286D01*
X145858571Y-77897143D01*
X145830000Y-77868571D01*
X145772857Y-77840000D01*
X145658571Y-77840000D01*
X145601429Y-77868571D01*
X145572857Y-77897143D01*
X145544286Y-77954286D01*
X144144285Y-76354286D02*
X144115714Y-76382857D01*
X144030000Y-76411429D01*
X143972857Y-76411429D01*
X143887142Y-76382857D01*
X143830000Y-76325714D01*
X143801428Y-76268571D01*
X143772857Y-76154286D01*
X143772857Y-76068571D01*
X143801428Y-75954286D01*
X143830000Y-75897143D01*
X143887142Y-75840000D01*
X143972857Y-75811429D01*
X144030000Y-75811429D01*
X144115714Y-75840000D01*
X144144285Y-75868571D01*
X144715714Y-76411429D02*
X144372857Y-76411429D01*
X144544285Y-76411429D02*
X144544285Y-75811429D01*
X144487142Y-75897143D01*
X144430000Y-75954286D01*
X144372857Y-75982857D01*
X144915714Y-75811429D02*
X145315714Y-75811429D01*
X145058571Y-76411429D01*
X143944285Y-73624286D02*
X143915714Y-73652857D01*
X143830000Y-73681429D01*
X143772857Y-73681429D01*
X143687142Y-73652857D01*
X143630000Y-73595714D01*
X143601428Y-73538571D01*
X143572857Y-73424286D01*
X143572857Y-73338571D01*
X143601428Y-73224286D01*
X143630000Y-73167143D01*
X143687142Y-73110000D01*
X143772857Y-73081429D01*
X143830000Y-73081429D01*
X143915714Y-73110000D01*
X143944285Y-73138571D01*
X144515714Y-73681429D02*
X144172857Y-73681429D01*
X144344285Y-73681429D02*
X144344285Y-73081429D01*
X144287142Y-73167143D01*
X144230000Y-73224286D01*
X144172857Y-73252857D01*
X144858571Y-73338571D02*
X144801429Y-73310000D01*
X144772857Y-73281429D01*
X144744286Y-73224286D01*
X144744286Y-73195714D01*
X144772857Y-73138571D01*
X144801429Y-73110000D01*
X144858571Y-73081429D01*
X144972857Y-73081429D01*
X145030000Y-73110000D01*
X145058571Y-73138571D01*
X145087143Y-73195714D01*
X145087143Y-73224286D01*
X145058571Y-73281429D01*
X145030000Y-73310000D01*
X144972857Y-73338571D01*
X144858571Y-73338571D01*
X144801429Y-73367143D01*
X144772857Y-73395714D01*
X144744286Y-73452857D01*
X144744286Y-73567143D01*
X144772857Y-73624286D01*
X144801429Y-73652857D01*
X144858571Y-73681429D01*
X144972857Y-73681429D01*
X145030000Y-73652857D01*
X145058571Y-73624286D01*
X145087143Y-73567143D01*
X145087143Y-73452857D01*
X145058571Y-73395714D01*
X145030000Y-73367143D01*
X144972857Y-73338571D01*
X124324286Y-85755715D02*
X124352857Y-85784286D01*
X124381429Y-85870000D01*
X124381429Y-85927143D01*
X124352857Y-86012858D01*
X124295714Y-86070000D01*
X124238571Y-86098572D01*
X124124286Y-86127143D01*
X124038571Y-86127143D01*
X123924286Y-86098572D01*
X123867143Y-86070000D01*
X123810000Y-86012858D01*
X123781429Y-85927143D01*
X123781429Y-85870000D01*
X123810000Y-85784286D01*
X123838571Y-85755715D01*
X124381429Y-85184286D02*
X124381429Y-85527143D01*
X124381429Y-85355715D02*
X123781429Y-85355715D01*
X123867143Y-85412858D01*
X123924286Y-85470000D01*
X123952857Y-85527143D01*
X124381429Y-84898571D02*
X124381429Y-84784286D01*
X124352857Y-84727143D01*
X124324286Y-84698571D01*
X124238571Y-84641429D01*
X124124286Y-84612857D01*
X123895714Y-84612857D01*
X123838571Y-84641429D01*
X123810000Y-84670000D01*
X123781429Y-84727143D01*
X123781429Y-84841429D01*
X123810000Y-84898571D01*
X123838571Y-84927143D01*
X123895714Y-84955714D01*
X124038571Y-84955714D01*
X124095714Y-84927143D01*
X124124286Y-84898571D01*
X124152857Y-84841429D01*
X124152857Y-84727143D01*
X124124286Y-84670000D01*
X124095714Y-84641429D01*
X124038571Y-84612857D01*
X107194285Y-86344286D02*
X107165714Y-86372857D01*
X107080000Y-86401429D01*
X107022857Y-86401429D01*
X106937142Y-86372857D01*
X106880000Y-86315714D01*
X106851428Y-86258571D01*
X106822857Y-86144286D01*
X106822857Y-86058571D01*
X106851428Y-85944286D01*
X106880000Y-85887143D01*
X106937142Y-85830000D01*
X107022857Y-85801429D01*
X107080000Y-85801429D01*
X107165714Y-85830000D01*
X107194285Y-85858571D01*
X107422857Y-85858571D02*
X107451428Y-85830000D01*
X107508571Y-85801429D01*
X107651428Y-85801429D01*
X107708571Y-85830000D01*
X107737142Y-85858571D01*
X107765714Y-85915714D01*
X107765714Y-85972857D01*
X107737142Y-86058571D01*
X107394285Y-86401429D01*
X107765714Y-86401429D01*
X108137143Y-85801429D02*
X108194286Y-85801429D01*
X108251429Y-85830000D01*
X108280000Y-85858571D01*
X108308571Y-85915714D01*
X108337143Y-86030000D01*
X108337143Y-86172857D01*
X108308571Y-86287143D01*
X108280000Y-86344286D01*
X108251429Y-86372857D01*
X108194286Y-86401429D01*
X108137143Y-86401429D01*
X108080000Y-86372857D01*
X108051429Y-86344286D01*
X108022857Y-86287143D01*
X107994286Y-86172857D01*
X107994286Y-86030000D01*
X108022857Y-85915714D01*
X108051429Y-85858571D01*
X108080000Y-85830000D01*
X108137143Y-85801429D01*
X141230000Y-85111429D02*
X140944286Y-85111429D01*
X140944286Y-84511429D01*
X141744286Y-85111429D02*
X141401429Y-85111429D01*
X141572857Y-85111429D02*
X141572857Y-84511429D01*
X141515714Y-84597143D01*
X141458572Y-84654286D01*
X141401429Y-84682857D01*
X124741428Y-85931429D02*
X124741428Y-85331429D01*
X124970000Y-85331429D01*
X125027142Y-85360000D01*
X125055714Y-85388571D01*
X125084285Y-85445714D01*
X125084285Y-85531429D01*
X125055714Y-85588571D01*
X125027142Y-85617143D01*
X124970000Y-85645714D01*
X124741428Y-85645714D01*
X125655714Y-85931429D02*
X125312857Y-85931429D01*
X125484285Y-85931429D02*
X125484285Y-85331429D01*
X125427142Y-85417143D01*
X125370000Y-85474286D01*
X125312857Y-85502857D01*
X126227143Y-85931429D02*
X125884286Y-85931429D01*
X126055714Y-85931429D02*
X126055714Y-85331429D01*
X125998571Y-85417143D01*
X125941429Y-85474286D01*
X125884286Y-85502857D01*
X149004286Y-83561429D02*
X149004286Y-82961429D01*
X149632857Y-83504286D02*
X149604286Y-83532857D01*
X149518572Y-83561429D01*
X149461429Y-83561429D01*
X149375714Y-83532857D01*
X149318572Y-83475714D01*
X149290000Y-83418571D01*
X149261429Y-83304286D01*
X149261429Y-83218571D01*
X149290000Y-83104286D01*
X149318572Y-83047143D01*
X149375714Y-82990000D01*
X149461429Y-82961429D01*
X149518572Y-82961429D01*
X149604286Y-82990000D01*
X149632857Y-83018571D01*
X150204286Y-83561429D02*
X149861429Y-83561429D01*
X150032857Y-83561429D02*
X150032857Y-82961429D01*
X149975714Y-83047143D01*
X149918572Y-83104286D01*
X149861429Y-83132857D01*
X150694285Y-79211429D02*
X150494285Y-78925714D01*
X150351428Y-79211429D02*
X150351428Y-78611429D01*
X150580000Y-78611429D01*
X150637142Y-78640000D01*
X150665714Y-78668571D01*
X150694285Y-78725714D01*
X150694285Y-78811429D01*
X150665714Y-78868571D01*
X150637142Y-78897143D01*
X150580000Y-78925714D01*
X150351428Y-78925714D01*
X151265714Y-79211429D02*
X150922857Y-79211429D01*
X151094285Y-79211429D02*
X151094285Y-78611429D01*
X151037142Y-78697143D01*
X150980000Y-78754286D01*
X150922857Y-78782857D01*
X151637143Y-78611429D02*
X151694286Y-78611429D01*
X151751429Y-78640000D01*
X151780000Y-78668571D01*
X151808571Y-78725714D01*
X151837143Y-78840000D01*
X151837143Y-78982857D01*
X151808571Y-79097143D01*
X151780000Y-79154286D01*
X151751429Y-79182857D01*
X151694286Y-79211429D01*
X151637143Y-79211429D01*
X151580000Y-79182857D01*
X151551429Y-79154286D01*
X151522857Y-79097143D01*
X151494286Y-78982857D01*
X151494286Y-78840000D01*
X151522857Y-78725714D01*
X151551429Y-78668571D01*
X151580000Y-78640000D01*
X151637143Y-78611429D01*
X148494285Y-77401429D02*
X148294285Y-77115714D01*
X148151428Y-77401429D02*
X148151428Y-76801429D01*
X148380000Y-76801429D01*
X148437142Y-76830000D01*
X148465714Y-76858571D01*
X148494285Y-76915714D01*
X148494285Y-77001429D01*
X148465714Y-77058571D01*
X148437142Y-77087143D01*
X148380000Y-77115714D01*
X148151428Y-77115714D01*
X149065714Y-77401429D02*
X148722857Y-77401429D01*
X148894285Y-77401429D02*
X148894285Y-76801429D01*
X148837142Y-76887143D01*
X148780000Y-76944286D01*
X148722857Y-76972857D01*
X149637143Y-77401429D02*
X149294286Y-77401429D01*
X149465714Y-77401429D02*
X149465714Y-76801429D01*
X149408571Y-76887143D01*
X149351429Y-76944286D01*
X149294286Y-76972857D01*
X180287143Y-89137143D02*
X180372857Y-89165714D01*
X180401429Y-89194286D01*
X180430000Y-89251429D01*
X180430000Y-89337143D01*
X180401429Y-89394286D01*
X180372857Y-89422857D01*
X180315715Y-89451429D01*
X180087143Y-89451429D01*
X180087143Y-88851429D01*
X180287143Y-88851429D01*
X180344286Y-88880000D01*
X180372857Y-88908571D01*
X180401429Y-88965714D01*
X180401429Y-89022857D01*
X180372857Y-89080000D01*
X180344286Y-89108571D01*
X180287143Y-89137143D01*
X180087143Y-89137143D01*
X180658572Y-89280000D02*
X180944286Y-89280000D01*
X180601429Y-89451429D02*
X180801429Y-88851429D01*
X181001429Y-89451429D01*
X181115715Y-88851429D02*
X181458572Y-88851429D01*
X181287143Y-89451429D02*
X181287143Y-88851429D01*
X181515715Y-89508571D02*
X181972858Y-89508571D01*
X182115715Y-89451429D02*
X182115715Y-88851429D01*
X182458572Y-89451429D01*
X182458572Y-88851429D01*
X182744286Y-89137143D02*
X182944286Y-89137143D01*
X183030000Y-89451429D02*
X182744286Y-89451429D01*
X182744286Y-88851429D01*
X183030000Y-88851429D01*
X183601429Y-88880000D02*
X183544286Y-88851429D01*
X183458572Y-88851429D01*
X183372857Y-88880000D01*
X183315715Y-88937143D01*
X183287143Y-88994286D01*
X183258572Y-89108571D01*
X183258572Y-89194286D01*
X183287143Y-89308571D01*
X183315715Y-89365714D01*
X183372857Y-89422857D01*
X183458572Y-89451429D01*
X183515715Y-89451429D01*
X183601429Y-89422857D01*
X183630000Y-89394286D01*
X183630000Y-89194286D01*
X183515715Y-89194286D01*
X184201429Y-89451429D02*
X183858572Y-89451429D01*
X184030000Y-89451429D02*
X184030000Y-88851429D01*
X183972857Y-88937143D01*
X183915715Y-88994286D01*
X183858572Y-89022857D01*
X103412857Y-73047143D02*
X103498571Y-73075714D01*
X103527143Y-73104286D01*
X103555714Y-73161429D01*
X103555714Y-73247143D01*
X103527143Y-73304286D01*
X103498571Y-73332857D01*
X103441429Y-73361429D01*
X103212857Y-73361429D01*
X103212857Y-72761429D01*
X103412857Y-72761429D01*
X103470000Y-72790000D01*
X103498571Y-72818571D01*
X103527143Y-72875714D01*
X103527143Y-72932857D01*
X103498571Y-72990000D01*
X103470000Y-73018571D01*
X103412857Y-73047143D01*
X103212857Y-73047143D01*
X103784286Y-73190000D02*
X104070000Y-73190000D01*
X103727143Y-73361429D02*
X103927143Y-72761429D01*
X104127143Y-73361429D01*
X104241429Y-72761429D02*
X104584286Y-72761429D01*
X104412857Y-73361429D02*
X104412857Y-72761429D01*
X104641429Y-73418571D02*
X105098572Y-73418571D01*
X105241429Y-73361429D02*
X105241429Y-72761429D01*
X105470001Y-72761429D01*
X105527143Y-72790000D01*
X105555715Y-72818571D01*
X105584286Y-72875714D01*
X105584286Y-72961429D01*
X105555715Y-73018571D01*
X105527143Y-73047143D01*
X105470001Y-73075714D01*
X105241429Y-73075714D01*
X105955715Y-72761429D02*
X106070001Y-72761429D01*
X106127143Y-72790000D01*
X106184286Y-72847143D01*
X106212858Y-72961429D01*
X106212858Y-73161429D01*
X106184286Y-73275714D01*
X106127143Y-73332857D01*
X106070001Y-73361429D01*
X105955715Y-73361429D01*
X105898572Y-73332857D01*
X105841429Y-73275714D01*
X105812858Y-73161429D01*
X105812858Y-72961429D01*
X105841429Y-72847143D01*
X105898572Y-72790000D01*
X105955715Y-72761429D01*
X106441429Y-73332857D02*
X106527143Y-73361429D01*
X106670000Y-73361429D01*
X106727143Y-73332857D01*
X106755714Y-73304286D01*
X106784286Y-73247143D01*
X106784286Y-73190000D01*
X106755714Y-73132857D01*
X106727143Y-73104286D01*
X106670000Y-73075714D01*
X106555714Y-73047143D01*
X106498572Y-73018571D01*
X106470000Y-72990000D01*
X106441429Y-72932857D01*
X106441429Y-72875714D01*
X106470000Y-72818571D01*
X106498572Y-72790000D01*
X106555714Y-72761429D01*
X106698572Y-72761429D01*
X106784286Y-72790000D01*
X107355715Y-73361429D02*
X107012858Y-73361429D01*
X107184286Y-73361429D02*
X107184286Y-72761429D01*
X107127143Y-72847143D01*
X107070001Y-72904286D01*
X107012858Y-72932857D01*
X142902381Y-77506666D02*
X142902381Y-77982857D01*
X141902381Y-77982857D01*
X141997619Y-77220952D02*
X141950000Y-77173333D01*
X141902381Y-77078095D01*
X141902381Y-76839999D01*
X141950000Y-76744761D01*
X141997619Y-76697142D01*
X142092857Y-76649523D01*
X142188095Y-76649523D01*
X142330952Y-76697142D01*
X142902381Y-77268571D01*
X142902381Y-76649523D01*
X111202381Y-78456666D02*
X111202381Y-78932857D01*
X110202381Y-78932857D01*
X110202381Y-78218571D02*
X110202381Y-77599523D01*
X110583333Y-77932857D01*
X110583333Y-77789999D01*
X110630952Y-77694761D01*
X110678571Y-77647142D01*
X110773810Y-77599523D01*
X111011905Y-77599523D01*
X111107143Y-77647142D01*
X111154762Y-77694761D01*
X111202381Y-77789999D01*
X111202381Y-78075714D01*
X111154762Y-78170952D01*
X111107143Y-78218571D01*
X131981429Y-72005715D02*
X131695714Y-72205715D01*
X131981429Y-72348572D02*
X131381429Y-72348572D01*
X131381429Y-72120000D01*
X131410000Y-72062858D01*
X131438571Y-72034286D01*
X131495714Y-72005715D01*
X131581429Y-72005715D01*
X131638571Y-72034286D01*
X131667143Y-72062858D01*
X131695714Y-72120000D01*
X131695714Y-72348572D01*
X131981429Y-71434286D02*
X131981429Y-71777143D01*
X131981429Y-71605715D02*
X131381429Y-71605715D01*
X131467143Y-71662858D01*
X131524286Y-71720000D01*
X131552857Y-71777143D01*
X131438571Y-71205714D02*
X131410000Y-71177143D01*
X131381429Y-71120000D01*
X131381429Y-70977143D01*
X131410000Y-70920000D01*
X131438571Y-70891429D01*
X131495714Y-70862857D01*
X131552857Y-70862857D01*
X131638571Y-70891429D01*
X131981429Y-71234286D01*
X131981429Y-70862857D01*
X106332857Y-75462857D02*
X106418571Y-75491429D01*
X106561428Y-75491429D01*
X106618571Y-75462857D01*
X106647142Y-75434286D01*
X106675714Y-75377143D01*
X106675714Y-75320000D01*
X106647142Y-75262857D01*
X106618571Y-75234286D01*
X106561428Y-75205714D01*
X106447142Y-75177143D01*
X106390000Y-75148571D01*
X106361428Y-75120000D01*
X106332857Y-75062857D01*
X106332857Y-75005714D01*
X106361428Y-74948571D01*
X106390000Y-74920000D01*
X106447142Y-74891429D01*
X106590000Y-74891429D01*
X106675714Y-74920000D01*
X106932857Y-75491429D02*
X106932857Y-74891429D01*
X107132857Y-75320000D01*
X107332857Y-74891429D01*
X107332857Y-75491429D01*
X107590000Y-75320000D02*
X107875714Y-75320000D01*
X107532857Y-75491429D02*
X107732857Y-74891429D01*
X107932857Y-75491429D01*
X107990000Y-75548571D02*
X108447143Y-75548571D01*
X108590000Y-75177143D02*
X108790000Y-75177143D01*
X108875714Y-75491429D02*
X108590000Y-75491429D01*
X108590000Y-74891429D01*
X108875714Y-74891429D01*
X109447143Y-75491429D02*
X109104286Y-75491429D01*
X109275714Y-75491429D02*
X109275714Y-74891429D01*
X109218571Y-74977143D01*
X109161429Y-75034286D01*
X109104286Y-75062857D01*
X128512857Y-73191429D02*
X128512857Y-73677143D01*
X128541429Y-73734286D01*
X128570000Y-73762857D01*
X128627143Y-73791429D01*
X128741429Y-73791429D01*
X128798571Y-73762857D01*
X128827143Y-73734286D01*
X128855714Y-73677143D01*
X128855714Y-73191429D01*
X129112857Y-73248571D02*
X129141428Y-73220000D01*
X129198571Y-73191429D01*
X129341428Y-73191429D01*
X129398571Y-73220000D01*
X129427142Y-73248571D01*
X129455714Y-73305714D01*
X129455714Y-73362857D01*
X129427142Y-73448571D01*
X129084285Y-73791429D01*
X129455714Y-73791429D01*
X110636667Y-74262381D02*
X110636667Y-74976667D01*
X110589047Y-75119524D01*
X110493809Y-75214762D01*
X110350952Y-75262381D01*
X110255714Y-75262381D01*
X111636667Y-75262381D02*
X111065238Y-75262381D01*
X111350952Y-75262381D02*
X111350952Y-74262381D01*
X111255714Y-74405238D01*
X111160476Y-74500476D01*
X111065238Y-74548095D01*
X120407143Y-75971429D02*
X120407143Y-75371429D01*
X120550000Y-75371429D01*
X120635715Y-75400000D01*
X120692857Y-75457143D01*
X120721429Y-75514286D01*
X120750000Y-75628571D01*
X120750000Y-75714286D01*
X120721429Y-75828571D01*
X120692857Y-75885714D01*
X120635715Y-75942857D01*
X120550000Y-75971429D01*
X120407143Y-75971429D01*
X120978572Y-75428571D02*
X121007143Y-75400000D01*
X121064286Y-75371429D01*
X121207143Y-75371429D01*
X121264286Y-75400000D01*
X121292857Y-75428571D01*
X121321429Y-75485714D01*
X121321429Y-75542857D01*
X121292857Y-75628571D01*
X120950000Y-75971429D01*
X121321429Y-75971429D01*
X110532857Y-71288571D02*
X110475714Y-71260000D01*
X110418571Y-71202857D01*
X110332857Y-71117143D01*
X110275714Y-71088571D01*
X110218571Y-71088571D01*
X110247143Y-71231429D02*
X110190000Y-71202857D01*
X110132857Y-71145714D01*
X110104286Y-71031429D01*
X110104286Y-70831429D01*
X110132857Y-70717143D01*
X110190000Y-70660000D01*
X110247143Y-70631429D01*
X110361429Y-70631429D01*
X110418571Y-70660000D01*
X110475714Y-70717143D01*
X110504286Y-70831429D01*
X110504286Y-71031429D01*
X110475714Y-71145714D01*
X110418571Y-71202857D01*
X110361429Y-71231429D01*
X110247143Y-71231429D01*
X111075714Y-71231429D02*
X110732857Y-71231429D01*
X110904285Y-71231429D02*
X110904285Y-70631429D01*
X110847142Y-70717143D01*
X110790000Y-70774286D01*
X110732857Y-70802857D01*
X184773334Y-85377143D02*
X184725715Y-85424762D01*
X184582858Y-85472381D01*
X184487620Y-85472381D01*
X184344762Y-85424762D01*
X184249524Y-85329524D01*
X184201905Y-85234286D01*
X184154286Y-85043810D01*
X184154286Y-84900952D01*
X184201905Y-84710476D01*
X184249524Y-84615238D01*
X184344762Y-84520000D01*
X184487620Y-84472381D01*
X184582858Y-84472381D01*
X184725715Y-84520000D01*
X184773334Y-84567619D01*
X185678096Y-84472381D02*
X185201905Y-84472381D01*
X185154286Y-84948571D01*
X185201905Y-84900952D01*
X185297143Y-84853333D01*
X185535239Y-84853333D01*
X185630477Y-84900952D01*
X185678096Y-84948571D01*
X185725715Y-85043810D01*
X185725715Y-85281905D01*
X185678096Y-85377143D01*
X185630477Y-85424762D01*
X185535239Y-85472381D01*
X185297143Y-85472381D01*
X185201905Y-85424762D01*
X185154286Y-85377143D01*
X99867143Y-85477143D02*
X99819524Y-85524762D01*
X99676667Y-85572381D01*
X99581429Y-85572381D01*
X99438571Y-85524762D01*
X99343333Y-85429524D01*
X99295714Y-85334286D01*
X99248095Y-85143810D01*
X99248095Y-85000952D01*
X99295714Y-84810476D01*
X99343333Y-84715238D01*
X99438571Y-84620000D01*
X99581429Y-84572381D01*
X99676667Y-84572381D01*
X99819524Y-84620000D01*
X99867143Y-84667619D01*
X100248095Y-84667619D02*
X100295714Y-84620000D01*
X100390952Y-84572381D01*
X100629048Y-84572381D01*
X100724286Y-84620000D01*
X100771905Y-84667619D01*
X100819524Y-84762857D01*
X100819524Y-84858095D01*
X100771905Y-85000952D01*
X100200476Y-85572381D01*
X100819524Y-85572381D01*
X101771905Y-85572381D02*
X101200476Y-85572381D01*
X101486190Y-85572381D02*
X101486190Y-84572381D01*
X101390952Y-84715238D01*
X101295714Y-84810476D01*
X101200476Y-84858095D01*
X124381429Y-77905715D02*
X124095714Y-78105715D01*
X124381429Y-78248572D02*
X123781429Y-78248572D01*
X123781429Y-78020000D01*
X123810000Y-77962858D01*
X123838571Y-77934286D01*
X123895714Y-77905715D01*
X123981429Y-77905715D01*
X124038571Y-77934286D01*
X124067143Y-77962858D01*
X124095714Y-78020000D01*
X124095714Y-78248572D01*
X124381429Y-77334286D02*
X124381429Y-77677143D01*
X124381429Y-77505715D02*
X123781429Y-77505715D01*
X123867143Y-77562858D01*
X123924286Y-77620000D01*
X123952857Y-77677143D01*
X123781429Y-77134286D02*
X123781429Y-76762857D01*
X124010000Y-76962857D01*
X124010000Y-76877143D01*
X124038571Y-76820000D01*
X124067143Y-76791429D01*
X124124286Y-76762857D01*
X124267143Y-76762857D01*
X124324286Y-76791429D01*
X124352857Y-76820000D01*
X124381429Y-76877143D01*
X124381429Y-77048571D01*
X124352857Y-77105714D01*
X124324286Y-77134286D01*
X135064285Y-82171429D02*
X134864285Y-81885714D01*
X134721428Y-82171429D02*
X134721428Y-81571429D01*
X134950000Y-81571429D01*
X135007142Y-81600000D01*
X135035714Y-81628571D01*
X135064285Y-81685714D01*
X135064285Y-81771429D01*
X135035714Y-81828571D01*
X135007142Y-81857143D01*
X134950000Y-81885714D01*
X134721428Y-81885714D01*
X135635714Y-82171429D02*
X135292857Y-82171429D01*
X135464285Y-82171429D02*
X135464285Y-81571429D01*
X135407142Y-81657143D01*
X135350000Y-81714286D01*
X135292857Y-81742857D01*
X136150000Y-81771429D02*
X136150000Y-82171429D01*
X136007143Y-81542857D02*
X135864286Y-81971429D01*
X136235714Y-81971429D01*
X124350000Y-89602857D02*
X124435714Y-89631429D01*
X124578571Y-89631429D01*
X124635714Y-89602857D01*
X124664285Y-89574286D01*
X124692857Y-89517143D01*
X124692857Y-89460000D01*
X124664285Y-89402857D01*
X124635714Y-89374286D01*
X124578571Y-89345714D01*
X124464285Y-89317143D01*
X124407143Y-89288571D01*
X124378571Y-89260000D01*
X124350000Y-89202857D01*
X124350000Y-89145714D01*
X124378571Y-89088571D01*
X124407143Y-89060000D01*
X124464285Y-89031429D01*
X124607143Y-89031429D01*
X124692857Y-89060000D01*
X124892857Y-89031429D02*
X125035714Y-89631429D01*
X125150000Y-89202857D01*
X125264286Y-89631429D01*
X125407143Y-89031429D01*
X125607143Y-89088571D02*
X125635714Y-89060000D01*
X125692857Y-89031429D01*
X125835714Y-89031429D01*
X125892857Y-89060000D01*
X125921428Y-89088571D01*
X125950000Y-89145714D01*
X125950000Y-89202857D01*
X125921428Y-89288571D01*
X125578571Y-89631429D01*
X125950000Y-89631429D01*
X144840000Y-89482857D02*
X144925714Y-89511429D01*
X145068571Y-89511429D01*
X145125714Y-89482857D01*
X145154285Y-89454286D01*
X145182857Y-89397143D01*
X145182857Y-89340000D01*
X145154285Y-89282857D01*
X145125714Y-89254286D01*
X145068571Y-89225714D01*
X144954285Y-89197143D01*
X144897143Y-89168571D01*
X144868571Y-89140000D01*
X144840000Y-89082857D01*
X144840000Y-89025714D01*
X144868571Y-88968571D01*
X144897143Y-88940000D01*
X144954285Y-88911429D01*
X145097143Y-88911429D01*
X145182857Y-88940000D01*
X145382857Y-88911429D02*
X145525714Y-89511429D01*
X145640000Y-89082857D01*
X145754286Y-89511429D01*
X145897143Y-88911429D01*
X146440000Y-89511429D02*
X146097143Y-89511429D01*
X146268571Y-89511429D02*
X146268571Y-88911429D01*
X146211428Y-88997143D01*
X146154286Y-89054286D01*
X146097143Y-89082857D01*
M02*
