G04 #@! TF.FileFunction,Legend,Bot*
%FSLAX46Y46*%
G04 Gerber Fmt 4.6, Leading zero omitted, Abs format (unit mm)*
G04 Created by KiCad (PCBNEW (2016-02-18 BZR 6566)-product) date Monday, 28 March 2016 10:54:37*
%MOMM*%
G01*
G04 APERTURE LIST*
%ADD10C,0.100000*%
%ADD11C,0.381000*%
%ADD12C,0.150000*%
G04 APERTURE END LIST*
D10*
D11*
X99992000Y-86164600D02*
X99992000Y-93784600D01*
X99992000Y-93784600D02*
X87292000Y-93784600D01*
X87292000Y-93784600D02*
X87292000Y-86164600D01*
X87292000Y-86164600D02*
X99992000Y-86164600D01*
X175294000Y-93835400D02*
X175294000Y-86215400D01*
X175294000Y-86215400D02*
X187994000Y-86215400D01*
X187994000Y-86215400D02*
X187994000Y-93835400D01*
X187994000Y-93835400D02*
X175294000Y-93835400D01*
D12*
X95199143Y-88972857D02*
X95113429Y-89001429D01*
X94970572Y-89001429D01*
X94913429Y-88972857D01*
X94884858Y-88944286D01*
X94856286Y-88887143D01*
X94856286Y-88830000D01*
X94884858Y-88772857D01*
X94913429Y-88744286D01*
X94970572Y-88715714D01*
X95084858Y-88687143D01*
X95142000Y-88658571D01*
X95170572Y-88630000D01*
X95199143Y-88572857D01*
X95199143Y-88515714D01*
X95170572Y-88458571D01*
X95142000Y-88430000D01*
X95084858Y-88401429D01*
X94942000Y-88401429D01*
X94856286Y-88430000D01*
X94599143Y-89001429D02*
X94599143Y-88401429D01*
X94399143Y-88830000D01*
X94199143Y-88401429D01*
X94199143Y-89001429D01*
X93942000Y-88830000D02*
X93656286Y-88830000D01*
X93999143Y-89001429D02*
X93799143Y-88401429D01*
X93599143Y-89001429D01*
X93542000Y-89058571D02*
X93084857Y-89058571D01*
X92942000Y-88687143D02*
X92742000Y-88687143D01*
X92656286Y-89001429D02*
X92942000Y-89001429D01*
X92942000Y-88401429D01*
X92656286Y-88401429D01*
X92084857Y-89001429D02*
X92427714Y-89001429D01*
X92256286Y-89001429D02*
X92256286Y-88401429D01*
X92313429Y-88487143D01*
X92370571Y-88544286D01*
X92427714Y-88572857D01*
X183201143Y-91512857D02*
X183115429Y-91541429D01*
X182972572Y-91541429D01*
X182915429Y-91512857D01*
X182886858Y-91484286D01*
X182858286Y-91427143D01*
X182858286Y-91370000D01*
X182886858Y-91312857D01*
X182915429Y-91284286D01*
X182972572Y-91255714D01*
X183086858Y-91227143D01*
X183144000Y-91198571D01*
X183172572Y-91170000D01*
X183201143Y-91112857D01*
X183201143Y-91055714D01*
X183172572Y-90998571D01*
X183144000Y-90970000D01*
X183086858Y-90941429D01*
X182944000Y-90941429D01*
X182858286Y-90970000D01*
X182601143Y-91541429D02*
X182601143Y-90941429D01*
X182401143Y-91370000D01*
X182201143Y-90941429D01*
X182201143Y-91541429D01*
X181944000Y-91370000D02*
X181658286Y-91370000D01*
X182001143Y-91541429D02*
X181801143Y-90941429D01*
X181601143Y-91541429D01*
X181544000Y-91598571D02*
X181086857Y-91598571D01*
X180944000Y-91227143D02*
X180744000Y-91227143D01*
X180658286Y-91541429D02*
X180944000Y-91541429D01*
X180944000Y-90941429D01*
X180658286Y-90941429D01*
X180429714Y-90998571D02*
X180401143Y-90970000D01*
X180344000Y-90941429D01*
X180201143Y-90941429D01*
X180144000Y-90970000D01*
X180115429Y-90998571D01*
X180086857Y-91055714D01*
X180086857Y-91112857D01*
X180115429Y-91198571D01*
X180458286Y-91541429D01*
X180086857Y-91541429D01*
M02*
