M48
INCH,TZ
T1C0.012
T2C0.032
T3C0.040
%
G90
G05
T1
X39812Y-33503
X39843Y-37209
X40368Y-34712
X40368Y-36081
X40902Y-37165
X41000Y-33476
X42102Y-36022
X43315Y-35870
X43327Y-35000
X43488Y-37587
X43780Y-35713
X44000Y-33000
X44000Y-39000
X45339Y-38378
X45738Y-35701
X45769Y-38132
X45962Y-33190
X46043Y-32012
X46126Y-32657
X46339Y-33189
X46436Y-34535
X47154Y-37398
X47293Y-34344
X47311Y-33240
X47819Y-32311
X48075Y-31665
X48500Y-37399
X48665Y-33543
X48689Y-35122
X48842Y-38233
X48963Y-37564
X49094Y-35843
X49241Y-38575
X49547Y-34370
X50000Y-32626
X50256Y-33299
X50260Y-34681
X50297Y-37418
X50634Y-35226
X50717Y-34150
X50744Y-32579
X51033Y-36240
X51417Y-36048
X51587Y-33524
X51606Y-36551
X52102Y-33709
X52185Y-37653
X52482Y-33784
X52854Y-36585
X53157Y-36746
X53395Y-33879
X53469Y-32524
X53664Y-36702
X53701Y-36328
X53740Y-34252
X53757Y-33937
X53824Y-37026
X53930Y-35694
X53933Y-34760
X53972Y-36006
X54014Y-37687
X54016Y-36427
X54098Y-34478
X54118Y-35431
X55346Y-39000
X55551Y-37445
X56929Y-36445
X57217Y-35024
X57469Y-37449
X57618Y-34976
X59124Y-33630
X59124Y-34309
X59177Y-36600
X59213Y-35787
X59215Y-35042
X59616Y-34251
X59795Y-37707
X60266Y-36732
X65620Y-32667
X65630Y-33465
X65634Y-34220
X67488Y-33480
X67584Y-37531
X67584Y-37531
X68244Y-33480
T2
X40000Y-32000
X42500Y-32000
X49000Y-34000
X49500Y-33000
X50000Y-32000
X50000Y-34000
X51000Y-33500
X54500Y-33000
X54500Y-34000
X58000Y-32000
X68500Y-39000
T3
X47922Y-33869
X47922Y-34869
X47922Y-35869
X47922Y-36869
T0
M30
