G04 #@! TF.FileFunction,Copper,L2,Bot,Signal*
%FSLAX46Y46*%
G04 Gerber Fmt 4.6, Leading zero omitted, Abs format (unit mm)*
G04 Created by KiCad (PCBNEW (2016-02-18 BZR 6566)-product) date Monday, 28 March 2016 10:54:37*
%MOMM*%
G01*
G04 APERTURE LIST*
%ADD10C,0.100000*%
%ADD11C,1.501140*%
%ADD12R,2.032000X1.727200*%
%ADD13O,2.032000X1.727200*%
%ADD14R,4.572000X1.524000*%
%ADD15C,0.600000*%
%ADD16C,0.250000*%
%ADD17C,0.300000*%
%ADD18C,0.160000*%
%ADD19C,0.500000*%
%ADD20C,1.000000*%
%ADD21C,0.200000*%
G04 APERTURE END LIST*
D10*
D11*
X124460000Y-86360000D03*
X127000000Y-86360000D03*
X125730000Y-83820000D03*
X147320000Y-81280000D03*
X127000000Y-81280000D03*
X129540000Y-85090000D03*
X138430000Y-86360000D03*
X138430000Y-83820000D03*
X107950000Y-81280000D03*
D12*
X121722000Y-93646000D03*
D13*
X121722000Y-91106000D03*
X121722000Y-88566000D03*
X121722000Y-86026000D03*
D14*
X102519300Y-86835160D03*
X102519300Y-93159760D03*
X172766700Y-93164840D03*
X172766700Y-86840240D03*
D11*
X173990000Y-99060000D03*
X101600000Y-81280000D03*
D15*
X122110000Y-80430000D03*
X151425020Y-86997884D03*
X146349244Y-88839998D03*
X121460000Y-82070000D03*
X116743146Y-84302249D03*
X117946880Y-87719383D03*
X137195740Y-95725012D03*
X127000000Y-82870000D03*
X151879654Y-95774980D03*
X128820000Y-86740000D03*
X127650000Y-84580000D03*
X125850000Y-87300000D03*
X125072396Y-97979980D03*
X124058140Y-97112967D03*
X123188799Y-94994629D03*
X123610000Y-85200000D03*
X120170000Y-84430000D03*
X171663540Y-95330000D03*
X171663540Y-95330000D03*
X173340000Y-85040000D03*
X171420000Y-85040000D03*
X102533575Y-91644665D03*
X101123393Y-85097391D03*
X102533575Y-88169574D03*
X104140000Y-85030000D03*
X101200000Y-94510000D03*
X103890000Y-94400000D03*
X110020000Y-91110000D03*
X110050000Y-88900000D03*
X106940000Y-91495002D03*
X153075000Y-93300000D03*
X137200000Y-92525000D03*
X132550002Y-95638944D03*
X116950000Y-81310000D03*
X117160000Y-82950000D03*
X135810000Y-82610000D03*
X119770000Y-94990000D03*
X128890000Y-82750000D03*
X131030000Y-85150000D03*
X128610065Y-89475031D03*
X134250328Y-92927140D03*
X133303905Y-85812184D03*
X132340000Y-85620000D03*
X145330000Y-88960000D03*
X144600000Y-92570000D03*
X145970000Y-95120000D03*
X141100000Y-95109999D03*
X140580000Y-99060000D03*
X111760000Y-99060000D03*
X111760000Y-83820000D03*
X131080000Y-92840000D03*
X127660000Y-88090000D03*
X137460919Y-89994545D03*
X124367227Y-95412934D03*
X110460000Y-95470000D03*
X120125020Y-87233044D03*
X124700000Y-91040000D03*
X116173443Y-90681561D03*
X111200000Y-90710000D03*
X136989254Y-88289254D03*
X123669074Y-89211104D03*
X150174980Y-85421119D03*
X136543791Y-86201188D03*
X150174980Y-87143811D03*
X137410000Y-87574980D03*
X150406955Y-89006955D03*
X136500000Y-87000000D03*
X150400000Y-90900000D03*
X135622166Y-86051746D03*
X137089978Y-91455018D03*
X150308465Y-92964980D03*
X136714137Y-94045412D03*
X166710000Y-86920000D03*
X136983340Y-90662145D03*
X166700000Y-85000000D03*
X166675000Y-82975000D03*
X129625000Y-92050000D03*
X130600020Y-91561613D03*
X117700000Y-84300000D03*
X115160000Y-97480000D03*
X136305671Y-93223417D03*
X116254043Y-96854980D03*
X136400472Y-92272186D03*
X127754378Y-95041961D03*
X135017956Y-93334997D03*
D16*
X124045736Y-81510000D02*
X123390000Y-82165736D01*
X123390000Y-82165736D02*
X122835736Y-82720000D01*
X122110000Y-80430000D02*
X123390000Y-81710000D01*
X123390000Y-81710000D02*
X123390000Y-82165736D01*
D17*
X125620000Y-82081154D02*
X126058846Y-82520000D01*
X126058846Y-82520000D02*
X126650000Y-82520000D01*
D16*
X151117083Y-87305821D02*
X151125021Y-87297883D01*
X151125021Y-87297883D02*
X151425020Y-86997884D01*
X146349244Y-88839998D02*
X149549257Y-88839998D01*
X151083434Y-87318432D02*
X151083434Y-87305821D01*
X151120000Y-87354998D02*
X151083434Y-87318432D01*
X149549257Y-88839998D02*
X151083434Y-87305821D01*
X151083434Y-87305821D02*
X151117083Y-87305821D01*
X146349244Y-88839998D02*
X146349244Y-88906965D01*
X150049674Y-97604960D02*
X139075688Y-97604960D01*
X137495739Y-96025011D02*
X137195740Y-95725012D01*
X139075688Y-97604960D02*
X137495739Y-96025011D01*
X151879654Y-95774980D02*
X150049674Y-97604960D01*
X122835736Y-82720000D02*
X121460000Y-82720000D01*
X121460000Y-82720000D02*
X118300000Y-82720000D01*
D18*
X121460000Y-82070000D02*
X121460000Y-82494264D01*
X121460000Y-82494264D02*
X121460000Y-82720000D01*
D17*
X126650000Y-82520000D02*
X127000000Y-82870000D01*
X125048846Y-81510000D02*
X125620000Y-82081154D01*
X124470000Y-81510000D02*
X125048846Y-81510000D01*
D16*
X118300000Y-82770000D02*
X116729750Y-84340250D01*
X118300000Y-82720000D02*
X118300000Y-82770000D01*
X124470000Y-81510000D02*
X124045736Y-81510000D01*
D17*
X116743146Y-86515649D02*
X116743146Y-84726513D01*
X116743146Y-84726513D02*
X116743146Y-84302249D01*
X117946880Y-87719383D02*
X116743146Y-86515649D01*
D16*
X125850000Y-85918154D02*
X127188154Y-84580000D01*
X127188154Y-84580000D02*
X127225736Y-84580000D01*
X125850000Y-87300000D02*
X125850000Y-85918154D01*
X127225736Y-84580000D02*
X127650000Y-84580000D01*
X127650000Y-84580000D02*
X128075571Y-85005571D01*
X128075571Y-85995571D02*
X128820000Y-86740000D01*
X128075571Y-85005571D02*
X128075571Y-85995571D01*
X152775001Y-93599999D02*
X153075000Y-93300000D01*
X145342800Y-94025024D02*
X152349976Y-94025024D01*
X142357176Y-92525000D02*
X143927199Y-94095023D01*
X145272801Y-94095023D02*
X145342800Y-94025024D01*
X143927199Y-94095023D02*
X145272801Y-94095023D01*
X137200000Y-92525000D02*
X142357176Y-92525000D01*
X152349976Y-94025024D02*
X152775001Y-93599999D01*
D17*
X125072396Y-97979980D02*
X124205383Y-97112967D01*
X124205383Y-97112967D02*
X124058140Y-97112967D01*
X171420000Y-85040000D02*
X173340000Y-85040000D01*
D19*
X106940000Y-91495002D02*
X102683238Y-91495002D01*
X102683238Y-91495002D02*
X102533575Y-91644665D01*
X101547657Y-85097391D02*
X101123393Y-85097391D01*
X106247391Y-85097391D02*
X101547657Y-85097391D01*
X110050000Y-88900000D02*
X106247391Y-85097391D01*
X102833574Y-88469573D02*
X102533575Y-88169574D01*
X103264001Y-88900000D02*
X102833574Y-88469573D01*
X110050000Y-88900000D02*
X103264001Y-88900000D01*
X104140000Y-85030000D02*
X108010000Y-88900000D01*
X108010000Y-88900000D02*
X110050000Y-88900000D01*
X101200000Y-94510000D02*
X103780000Y-94510000D01*
X103780000Y-94510000D02*
X103890000Y-94400000D01*
X103890000Y-94400000D02*
X104035002Y-94400000D01*
X104035002Y-94400000D02*
X106940000Y-91495002D01*
X110050000Y-88900000D02*
X110050000Y-91080000D01*
X110050000Y-91080000D02*
X110020000Y-91110000D01*
D16*
X137050000Y-92375000D02*
X137050000Y-92100000D01*
X137200000Y-92525000D02*
X137050000Y-92375000D01*
D17*
X134250328Y-92927140D02*
X134250328Y-93938618D01*
X134250328Y-93938618D02*
X132550002Y-95638944D01*
X134250328Y-92927140D02*
X134550327Y-92627141D01*
X134550327Y-92627141D02*
X134822859Y-92627141D01*
D18*
X117160000Y-82950000D02*
X117160000Y-81520000D01*
X117160000Y-81520000D02*
X116950000Y-81310000D01*
D19*
X121722000Y-93646000D02*
X121114000Y-93646000D01*
X121114000Y-93646000D02*
X119770000Y-94990000D01*
D16*
X133303905Y-85387920D02*
X133303905Y-85812184D01*
X125522313Y-85609431D02*
X127176745Y-83954999D01*
X125210569Y-85609431D02*
X125522313Y-85609431D01*
X131870984Y-83954999D02*
X133303905Y-85387920D01*
X127176745Y-83954999D02*
X131870984Y-83954999D01*
X124460000Y-86360000D02*
X125210569Y-85609431D01*
X130105001Y-84524999D02*
X131669263Y-84524999D01*
X131669263Y-84524999D02*
X132340000Y-85195736D01*
X132340000Y-85195736D02*
X132340000Y-85620000D01*
X129540000Y-85090000D02*
X130105001Y-84524999D01*
X145330000Y-88960000D02*
X145330000Y-91840000D01*
X145330000Y-91840000D02*
X144600000Y-92570000D01*
D20*
X104140000Y-81280000D02*
X101600000Y-81280000D01*
D16*
X141100000Y-95109999D02*
X145959999Y-95109999D01*
X145959999Y-95109999D02*
X145970000Y-95120000D01*
D20*
X111760000Y-99060000D02*
X140580000Y-99060000D01*
X110670571Y-82730571D02*
X111760000Y-83820000D01*
X104140000Y-81280000D02*
X105590571Y-82730571D01*
X105590571Y-82730571D02*
X110670571Y-82730571D01*
D16*
X127660000Y-91155002D02*
X129344998Y-92840000D01*
X129344998Y-92840000D02*
X130655736Y-92840000D01*
X130655736Y-92840000D02*
X131080000Y-92840000D01*
X127660000Y-88090000D02*
X127660000Y-91155002D01*
X136123281Y-89994545D02*
X137036655Y-89994545D01*
X137036655Y-89994545D02*
X137460919Y-89994545D01*
X125415137Y-94365024D02*
X131752802Y-94365024D01*
X131752802Y-94365024D02*
X136123281Y-89994545D01*
X124367227Y-95412934D02*
X125415137Y-94365024D01*
X123942963Y-95412934D02*
X124367227Y-95412934D01*
X123385338Y-95587943D02*
X123767954Y-95587943D01*
X122973282Y-96000000D02*
X123385338Y-95587943D01*
X123767954Y-95587943D02*
X123942963Y-95412934D01*
X124367227Y-94988670D02*
X124367227Y-95412934D01*
X124059348Y-91610000D02*
X124367227Y-91917879D01*
X124367227Y-91917879D02*
X124367227Y-94988670D01*
X119760000Y-96000000D02*
X122973282Y-96000000D01*
X119760000Y-96000000D02*
X119620000Y-96000000D01*
X110460000Y-95470000D02*
X110990000Y-96000000D01*
X110990000Y-96000000D02*
X119760000Y-96000000D01*
X120125020Y-87657308D02*
X120125020Y-87233044D01*
X120125020Y-89679800D02*
X120125020Y-87657308D01*
X124059348Y-91610000D02*
X122366738Y-89917390D01*
X122366738Y-89917390D02*
X120362610Y-89917390D01*
X120362610Y-89917390D02*
X120125020Y-89679800D01*
X124700000Y-91040000D02*
X124130000Y-91610000D01*
X124130000Y-91610000D02*
X124059348Y-91610000D01*
X111200000Y-90710000D02*
X116145004Y-90710000D01*
X116145004Y-90710000D02*
X116173443Y-90681561D01*
X123023970Y-88566000D02*
X123669074Y-89211104D01*
X121722000Y-88566000D02*
X123023970Y-88566000D01*
X129147189Y-93915013D02*
X124443280Y-89211104D01*
X124443280Y-89211104D02*
X124093338Y-89211104D01*
X136689255Y-88589253D02*
X136689255Y-88792160D01*
X136689255Y-88792160D02*
X131566402Y-93915013D01*
X131566402Y-93915013D02*
X129147189Y-93915013D01*
X136989254Y-88289254D02*
X136689255Y-88589253D01*
X124093338Y-89211104D02*
X123669074Y-89211104D01*
X137354429Y-83303725D02*
X137913725Y-82744429D01*
X140861835Y-84659989D02*
X149413850Y-84659989D01*
X136543791Y-86201188D02*
X136543791Y-85146913D01*
X137354429Y-84336275D02*
X137354429Y-83303725D01*
X138946275Y-82744429D02*
X140861835Y-84659989D01*
X149413850Y-84659989D02*
X149874981Y-85121120D01*
X149874981Y-85121120D02*
X150174980Y-85421119D01*
X136543791Y-85146913D02*
X137354429Y-84336275D01*
X137913725Y-82744429D02*
X138946275Y-82744429D01*
X137410000Y-87574980D02*
X149743811Y-87574980D01*
X149743811Y-87574980D02*
X149874981Y-87443810D01*
X149874981Y-87443810D02*
X150174980Y-87143811D01*
X136924264Y-87000000D02*
X137210000Y-86714264D01*
X152050021Y-86697883D02*
X152050021Y-87363889D01*
X136500000Y-87000000D02*
X136924264Y-87000000D01*
X150706954Y-88706956D02*
X150406955Y-89006955D01*
X148710000Y-85110000D02*
X149972883Y-86372883D01*
X137770000Y-85110000D02*
X148710000Y-85110000D01*
X137210000Y-86714264D02*
X137210000Y-85670000D01*
X152050021Y-87363889D02*
X150706954Y-88706956D01*
X151725021Y-86372883D02*
X152050021Y-86697883D01*
X149972883Y-86372883D02*
X151725021Y-86372883D01*
X137210000Y-85670000D02*
X137770000Y-85110000D01*
X135622166Y-85627482D02*
X135622166Y-86051746D01*
X135622166Y-85074244D02*
X135622166Y-85627482D01*
X136904418Y-83791994D02*
X135622166Y-85074244D01*
X139132675Y-82294418D02*
X137727325Y-82294418D01*
X137727325Y-82294418D02*
X136904418Y-83117325D01*
X136904418Y-83117325D02*
X136904418Y-83791994D01*
X140263268Y-83425011D02*
X139132675Y-82294418D01*
X150425011Y-83425011D02*
X140263268Y-83425011D01*
X152800000Y-85800000D02*
X150425011Y-83425011D01*
X152800000Y-88500000D02*
X152800000Y-85800000D01*
X150400000Y-90900000D02*
X152800000Y-88500000D01*
X145766433Y-92964980D02*
X145086401Y-93645012D01*
X137514242Y-91455018D02*
X137089978Y-91455018D01*
X144113599Y-93645012D02*
X141923605Y-91455018D01*
X141923605Y-91455018D02*
X137514242Y-91455018D01*
X145086401Y-93645012D02*
X144113599Y-93645012D01*
X150308465Y-92964980D02*
X145766433Y-92964980D01*
X137138401Y-94045412D02*
X136714137Y-94045412D01*
X159154965Y-94475035D02*
X145529200Y-94475035D01*
X143241178Y-94045412D02*
X137138401Y-94045412D01*
X143740799Y-94545034D02*
X143241178Y-94045412D01*
X145459201Y-94545034D02*
X143740799Y-94545034D01*
X145529200Y-94475035D02*
X145459201Y-94545034D01*
X166710000Y-86920000D02*
X159154965Y-94475035D01*
X144299999Y-93195001D02*
X141767143Y-90662145D01*
X166700000Y-85000000D02*
X159505359Y-92194641D01*
X159505359Y-92194641D02*
X145900361Y-92194641D01*
X145900361Y-92194641D02*
X144900001Y-93195001D01*
X144900001Y-93195001D02*
X144299999Y-93195001D01*
X141767143Y-90662145D02*
X137407604Y-90662145D01*
X137407604Y-90662145D02*
X136983340Y-90662145D01*
X139309410Y-81819410D02*
X140465000Y-82975000D01*
X140465000Y-82975000D02*
X166675000Y-82975000D01*
X137530569Y-81819410D02*
X139309410Y-81819410D01*
D17*
X135147156Y-85564754D02*
X135147156Y-84877489D01*
X136429408Y-82920570D02*
X137530569Y-81819410D01*
X129625000Y-92050000D02*
X129950019Y-91724981D01*
X135141709Y-86533291D02*
X134972165Y-86363747D01*
X134972165Y-86363747D02*
X134972165Y-85739745D01*
X136429408Y-83595239D02*
X136429408Y-82920570D01*
X129950019Y-91724981D02*
X129950019Y-91249612D01*
X130763388Y-90911612D02*
X135141709Y-86533291D01*
X135147156Y-84877489D02*
X136429408Y-83595239D01*
X129950019Y-91249612D02*
X130288019Y-90911612D01*
X130288019Y-90911612D02*
X130763388Y-90911612D01*
X134972165Y-85739745D02*
X135147156Y-85564754D01*
D16*
X117700000Y-84300000D02*
X118124264Y-84300000D01*
X121201654Y-87377390D02*
X123245977Y-87377390D01*
X118124264Y-84300000D02*
X121201654Y-87377390D01*
X123245977Y-87377390D02*
X129333589Y-93465002D01*
X129333589Y-93465002D02*
X131380002Y-93465002D01*
X131380002Y-93465002D02*
X131705002Y-93140002D01*
X131705002Y-93140002D02*
X131705002Y-92242331D01*
X131705002Y-92242331D02*
X131024284Y-91561613D01*
X131024284Y-91561613D02*
X130600020Y-91561613D01*
X124358142Y-96487965D02*
X123758138Y-96487965D01*
X123758138Y-96487965D02*
X122766103Y-97480000D01*
X135625361Y-94761411D02*
X133222804Y-97163968D01*
X125034145Y-97163968D02*
X124358142Y-96487965D01*
X135625361Y-94326680D02*
X135625361Y-94761411D01*
X136130661Y-93398427D02*
X136130661Y-93821380D01*
X115584264Y-97480000D02*
X115160000Y-97480000D01*
X136130661Y-93821380D02*
X135625361Y-94326680D01*
X136305671Y-93223417D02*
X136130661Y-93398427D01*
X122766103Y-97480000D02*
X115584264Y-97480000D01*
X133222804Y-97163968D02*
X125034145Y-97163968D01*
X122754712Y-96854980D02*
X116678307Y-96854980D01*
X123571738Y-96037954D02*
X122754712Y-96854980D01*
X125220545Y-96713957D02*
X124544542Y-96037954D01*
X133036404Y-96713957D02*
X125220545Y-96713957D01*
X135175350Y-94575011D02*
X133036404Y-96713957D01*
X135175350Y-94140280D02*
X135175350Y-94575011D01*
X135976208Y-92272186D02*
X135680650Y-92567744D01*
X136400472Y-92272186D02*
X135976208Y-92272186D01*
X116678307Y-96854980D02*
X116254043Y-96854980D01*
X124544542Y-96037954D02*
X123571738Y-96037954D01*
X135680650Y-92567744D02*
X135680650Y-93634980D01*
X135680650Y-93634980D02*
X135175350Y-94140280D01*
X134725339Y-93627614D02*
X134725339Y-94388611D01*
X135017956Y-93334997D02*
X134725339Y-93627614D01*
X128178642Y-95041961D02*
X127754378Y-95041961D01*
X131028015Y-95041961D02*
X128178642Y-95041961D01*
X134725339Y-94388611D02*
X132850004Y-96263946D01*
X132850004Y-96263946D02*
X132250000Y-96263946D01*
X132250000Y-96263946D02*
X131028015Y-95041961D01*
D21*
G36*
X101005677Y-80388851D02*
X100709889Y-80684123D01*
X100549613Y-81070112D01*
X100549248Y-81488055D01*
X100708851Y-81874323D01*
X101004123Y-82170111D01*
X101390112Y-82330387D01*
X101808055Y-82330752D01*
X102194323Y-82171149D01*
X102285631Y-82080000D01*
X103808630Y-82080000D01*
X105024885Y-83296256D01*
X105206855Y-83417845D01*
X105284424Y-83469675D01*
X105590571Y-83530571D01*
X110339201Y-83530571D01*
X111194314Y-84385685D01*
X111453853Y-84559104D01*
X111760000Y-84619999D01*
X112066147Y-84559104D01*
X112325685Y-84385685D01*
X112499104Y-84126147D01*
X112559999Y-83820000D01*
X112499104Y-83513853D01*
X112325685Y-83254314D01*
X111236256Y-82164886D01*
X110976718Y-81991467D01*
X110670571Y-81930571D01*
X105921942Y-81930571D01*
X104705685Y-80714315D01*
X104446147Y-80540896D01*
X104140000Y-80480000D01*
X102285831Y-80480000D01*
X102195877Y-80389889D01*
X102160020Y-80375000D01*
X121510047Y-80375000D01*
X121509896Y-80548824D01*
X121601048Y-80769429D01*
X121769683Y-80938359D01*
X121990129Y-81029896D01*
X122108959Y-81030000D01*
X122965000Y-81886041D01*
X122965000Y-81989695D01*
X122659696Y-82295000D01*
X122016243Y-82295000D01*
X122059896Y-82189871D01*
X122060104Y-81951176D01*
X121968952Y-81730571D01*
X121800317Y-81561641D01*
X121579871Y-81470104D01*
X121341176Y-81469896D01*
X121120571Y-81561048D01*
X120951641Y-81729683D01*
X120860104Y-81950129D01*
X120859896Y-82188824D01*
X120903767Y-82295000D01*
X118300000Y-82295000D01*
X118137360Y-82327351D01*
X117999480Y-82419480D01*
X117907351Y-82557360D01*
X117906296Y-82562664D01*
X116766691Y-83702269D01*
X116624322Y-83702145D01*
X116403717Y-83793297D01*
X116234787Y-83961932D01*
X116143250Y-84182378D01*
X116143042Y-84421073D01*
X116234194Y-84641678D01*
X116293146Y-84700733D01*
X116293146Y-86515649D01*
X116327400Y-86687857D01*
X116402418Y-86800129D01*
X116424948Y-86833847D01*
X117346848Y-87755747D01*
X117346776Y-87838207D01*
X117437928Y-88058812D01*
X117606563Y-88227742D01*
X117827009Y-88319279D01*
X118065704Y-88319487D01*
X118286309Y-88228335D01*
X118455239Y-88059700D01*
X118546776Y-87839254D01*
X118546984Y-87600559D01*
X118455832Y-87379954D01*
X118287197Y-87211024D01*
X118066751Y-87119487D01*
X117983307Y-87119414D01*
X117193146Y-86329253D01*
X117193146Y-84700823D01*
X117222792Y-84671229D01*
X117359683Y-84808359D01*
X117580129Y-84899896D01*
X117818824Y-84900104D01*
X118034297Y-84811073D01*
X119900030Y-86676807D01*
X119785591Y-86724092D01*
X119616661Y-86892727D01*
X119525124Y-87113173D01*
X119524916Y-87351868D01*
X119616068Y-87572473D01*
X119700020Y-87656572D01*
X119700020Y-89679800D01*
X119726117Y-89811000D01*
X119732371Y-89842441D01*
X119824500Y-89980320D01*
X120062090Y-90217910D01*
X120199969Y-90310039D01*
X120226953Y-90315406D01*
X120362610Y-90342390D01*
X120681487Y-90342390D01*
X120468792Y-90660710D01*
X120380218Y-91106000D01*
X120468792Y-91551290D01*
X120721029Y-91928789D01*
X121098528Y-92181026D01*
X121543818Y-92269600D01*
X121900182Y-92269600D01*
X122345472Y-92181026D01*
X122722971Y-91928789D01*
X122975208Y-91551290D01*
X123045619Y-91197311D01*
X123758828Y-91910520D01*
X123942227Y-92093920D01*
X123942227Y-94988080D01*
X123807306Y-95014918D01*
X123780322Y-95020285D01*
X123642443Y-95112414D01*
X123591914Y-95162943D01*
X123385338Y-95162943D01*
X123222698Y-95195294D01*
X123208768Y-95204602D01*
X123084817Y-95287423D01*
X122797241Y-95575000D01*
X111166041Y-95575000D01*
X111060001Y-95468961D01*
X111060104Y-95351176D01*
X110968952Y-95130571D01*
X110800317Y-94961641D01*
X110579871Y-94870104D01*
X110341176Y-94869896D01*
X110120571Y-94961048D01*
X109951641Y-95129683D01*
X109860104Y-95350129D01*
X109859896Y-95588824D01*
X109951048Y-95809429D01*
X110119683Y-95978359D01*
X110340129Y-96069896D01*
X110458959Y-96070000D01*
X110689479Y-96300520D01*
X110781608Y-96362078D01*
X110827360Y-96392649D01*
X110990000Y-96425000D01*
X115835504Y-96425000D01*
X115745684Y-96514663D01*
X115654147Y-96735109D01*
X115653939Y-96973804D01*
X115687488Y-97055000D01*
X115583530Y-97055000D01*
X115500317Y-96971641D01*
X115279871Y-96880104D01*
X115041176Y-96879896D01*
X114820571Y-96971048D01*
X114651641Y-97139683D01*
X114560104Y-97360129D01*
X114559896Y-97598824D01*
X114651048Y-97819429D01*
X114819683Y-97988359D01*
X115040129Y-98079896D01*
X115278824Y-98080104D01*
X115499429Y-97988952D01*
X115583528Y-97905000D01*
X122766103Y-97905000D01*
X122901760Y-97878016D01*
X122928744Y-97872649D01*
X123066623Y-97780520D01*
X123934179Y-96912965D01*
X124182102Y-96912965D01*
X124733625Y-97464489D01*
X124871504Y-97556617D01*
X125034145Y-97588968D01*
X133222804Y-97588968D01*
X133358461Y-97561984D01*
X133385445Y-97556617D01*
X133523324Y-97464488D01*
X135143976Y-95843836D01*
X136595636Y-95843836D01*
X136686788Y-96064441D01*
X136855423Y-96233371D01*
X137075869Y-96324908D01*
X137194699Y-96325012D01*
X137195219Y-96325532D01*
X137195222Y-96325534D01*
X138775167Y-97905480D01*
X138867296Y-97967038D01*
X138913048Y-97997609D01*
X139075688Y-98029960D01*
X150049674Y-98029960D01*
X150185331Y-98002976D01*
X150212315Y-97997609D01*
X150350194Y-97905480D01*
X151880693Y-96374981D01*
X151998478Y-96375084D01*
X152219083Y-96283932D01*
X152388013Y-96115297D01*
X152479550Y-95894851D01*
X152479758Y-95656156D01*
X152388606Y-95435551D01*
X152219971Y-95266621D01*
X151999525Y-95175084D01*
X151760830Y-95174876D01*
X151540225Y-95266028D01*
X151371295Y-95434663D01*
X151279758Y-95655109D01*
X151279654Y-95773939D01*
X149873634Y-97179960D01*
X139251729Y-97179960D01*
X137796262Y-95724494D01*
X137796260Y-95724491D01*
X137795741Y-95723972D01*
X137795844Y-95606188D01*
X137704692Y-95385583D01*
X137536057Y-95216653D01*
X137315611Y-95125116D01*
X137076916Y-95124908D01*
X136856311Y-95216060D01*
X136687381Y-95384695D01*
X136595844Y-95605141D01*
X136595636Y-95843836D01*
X135143976Y-95843836D01*
X135925882Y-95061931D01*
X136018010Y-94924052D01*
X136050361Y-94761411D01*
X136050361Y-94502720D01*
X136194383Y-94358698D01*
X136205185Y-94384841D01*
X136373820Y-94553771D01*
X136594266Y-94645308D01*
X136832961Y-94645516D01*
X137053566Y-94554364D01*
X137137665Y-94470412D01*
X143065137Y-94470412D01*
X143279724Y-94684999D01*
X141523530Y-94684999D01*
X141440317Y-94601640D01*
X141219871Y-94510103D01*
X140981176Y-94509895D01*
X140760571Y-94601047D01*
X140591641Y-94769682D01*
X140500104Y-94990128D01*
X140499896Y-95228823D01*
X140591048Y-95449428D01*
X140759683Y-95618358D01*
X140980129Y-95709895D01*
X141218824Y-95710103D01*
X141439429Y-95618951D01*
X141523528Y-95534999D01*
X145536486Y-95534999D01*
X145629683Y-95628359D01*
X145850129Y-95719896D01*
X146088824Y-95720104D01*
X146309429Y-95628952D01*
X146478359Y-95460317D01*
X146569896Y-95239871D01*
X146570104Y-95001176D01*
X146528313Y-94900035D01*
X159154965Y-94900035D01*
X159305439Y-94870104D01*
X159317606Y-94867684D01*
X159455485Y-94775555D01*
X166711039Y-87520001D01*
X166828824Y-87520104D01*
X167049429Y-87428952D01*
X167218359Y-87260317D01*
X167309896Y-87039871D01*
X167310104Y-86801176D01*
X167218952Y-86580571D01*
X167050317Y-86411641D01*
X166829871Y-86320104D01*
X166591176Y-86319896D01*
X166370571Y-86411048D01*
X166201641Y-86579683D01*
X166110104Y-86800129D01*
X166110000Y-86918960D01*
X158978925Y-94050035D01*
X145529200Y-94050035D01*
X145366559Y-94082386D01*
X145310215Y-94120034D01*
X143916840Y-94120034D01*
X143541699Y-93744892D01*
X143436239Y-93674426D01*
X143403818Y-93652763D01*
X143241178Y-93620412D01*
X137137667Y-93620412D01*
X137054454Y-93537053D01*
X136858837Y-93455826D01*
X136905567Y-93343288D01*
X136905775Y-93104593D01*
X136814623Y-92883988D01*
X136720114Y-92789314D01*
X136739901Y-92781138D01*
X136908831Y-92612503D01*
X137000368Y-92392057D01*
X137000576Y-92153362D01*
X136957784Y-92049797D01*
X136970107Y-92054914D01*
X137208802Y-92055122D01*
X137429407Y-91963970D01*
X137513506Y-91880018D01*
X141747565Y-91880018D01*
X143813078Y-93945532D01*
X143888554Y-93995963D01*
X143950959Y-94037661D01*
X144113599Y-94070012D01*
X145086401Y-94070012D01*
X145222058Y-94043028D01*
X145249042Y-94037661D01*
X145386921Y-93945532D01*
X145942474Y-93389980D01*
X149884935Y-93389980D01*
X149968148Y-93473339D01*
X150188594Y-93564876D01*
X150427289Y-93565084D01*
X150647894Y-93473932D01*
X150816824Y-93305297D01*
X150908361Y-93084851D01*
X150908569Y-92846156D01*
X150817417Y-92625551D01*
X150811517Y-92619641D01*
X159505359Y-92619641D01*
X159641016Y-92592657D01*
X159668000Y-92587290D01*
X159805879Y-92495161D01*
X166701039Y-85600001D01*
X166818824Y-85600104D01*
X167039429Y-85508952D01*
X167208359Y-85340317D01*
X167299896Y-85119871D01*
X167300104Y-84881176D01*
X167208952Y-84660571D01*
X167040317Y-84491641D01*
X166819871Y-84400104D01*
X166581176Y-84399896D01*
X166360571Y-84491048D01*
X166191641Y-84659683D01*
X166100104Y-84880129D01*
X166100000Y-84998960D01*
X159329319Y-91769641D01*
X145900361Y-91769641D01*
X145755000Y-91798555D01*
X145755000Y-89383530D01*
X145838359Y-89300317D01*
X145874378Y-89213573D01*
X146008927Y-89348357D01*
X146229373Y-89439894D01*
X146468068Y-89440102D01*
X146688673Y-89348950D01*
X146772772Y-89264998D01*
X149549257Y-89264998D01*
X149684914Y-89238014D01*
X149711898Y-89232647D01*
X149820911Y-89159806D01*
X149898003Y-89346384D01*
X150066638Y-89515314D01*
X150287084Y-89606851D01*
X150525779Y-89607059D01*
X150746384Y-89515907D01*
X150915314Y-89347272D01*
X151006851Y-89126826D01*
X151006955Y-89007996D01*
X151007475Y-89007476D01*
X151007477Y-89007473D01*
X152350542Y-87664409D01*
X152375000Y-87627805D01*
X152375000Y-88323959D01*
X150398961Y-90299999D01*
X150281176Y-90299896D01*
X150060571Y-90391048D01*
X149891641Y-90559683D01*
X149800104Y-90780129D01*
X149799896Y-91018824D01*
X149891048Y-91239429D01*
X150059683Y-91408359D01*
X150280129Y-91499896D01*
X150518824Y-91500104D01*
X150739429Y-91408952D01*
X150908359Y-91240317D01*
X150999896Y-91019871D01*
X151000000Y-90901041D01*
X153100521Y-88800520D01*
X153192649Y-88662641D01*
X153225000Y-88500000D01*
X153225000Y-85800000D01*
X153207382Y-85711429D01*
X153192649Y-85637359D01*
X153100521Y-85499480D01*
X151001040Y-83400000D01*
X166251470Y-83400000D01*
X166334683Y-83483359D01*
X166555129Y-83574896D01*
X166793824Y-83575104D01*
X167014429Y-83483952D01*
X167183359Y-83315317D01*
X167274896Y-83094871D01*
X167275104Y-82856176D01*
X167183952Y-82635571D01*
X167015317Y-82466641D01*
X166794871Y-82375104D01*
X166556176Y-82374896D01*
X166335571Y-82466048D01*
X166251472Y-82550000D01*
X140641040Y-82550000D01*
X139609930Y-81518890D01*
X139472051Y-81426761D01*
X139445067Y-81421394D01*
X139309410Y-81394410D01*
X137656253Y-81394410D01*
X137530569Y-81369410D01*
X137358362Y-81403664D01*
X137212371Y-81501212D01*
X136111210Y-82602372D01*
X136013662Y-82748362D01*
X135979408Y-82920570D01*
X135979408Y-83408843D01*
X134828958Y-84559291D01*
X134731410Y-84705281D01*
X134697156Y-84877489D01*
X134697156Y-85378358D01*
X134653967Y-85421547D01*
X134556419Y-85567537D01*
X134522165Y-85739745D01*
X134522165Y-86363747D01*
X134547498Y-86491106D01*
X130576992Y-90461612D01*
X130288019Y-90461612D01*
X130115811Y-90495866D01*
X129969821Y-90593414D01*
X129631821Y-90931414D01*
X129534273Y-91077404D01*
X129500019Y-91249612D01*
X129500019Y-91452440D01*
X129285571Y-91541048D01*
X129116641Y-91709683D01*
X129028350Y-91922312D01*
X128085000Y-90978962D01*
X128085000Y-88513530D01*
X128168359Y-88430317D01*
X128259896Y-88209871D01*
X128260104Y-87971176D01*
X128168952Y-87750571D01*
X128000317Y-87581641D01*
X127779871Y-87490104D01*
X127541176Y-87489896D01*
X127320571Y-87581048D01*
X127151641Y-87749683D01*
X127060104Y-87970129D01*
X127059896Y-88208824D01*
X127151048Y-88429429D01*
X127235000Y-88513528D01*
X127235000Y-90765372D01*
X123546497Y-87076870D01*
X123408618Y-86984741D01*
X123381634Y-86979374D01*
X123245977Y-86952390D01*
X122567921Y-86952390D01*
X122722971Y-86848789D01*
X122975208Y-86471290D01*
X123063782Y-86026000D01*
X122975208Y-85580710D01*
X122722971Y-85203211D01*
X122345472Y-84950974D01*
X121900182Y-84862400D01*
X121543818Y-84862400D01*
X121098528Y-84950974D01*
X120721029Y-85203211D01*
X120468792Y-85580710D01*
X120392012Y-85966707D01*
X118424784Y-83999480D01*
X118286905Y-83907351D01*
X118259921Y-83901984D01*
X118124264Y-83875000D01*
X118123530Y-83875000D01*
X118040317Y-83791641D01*
X117926613Y-83744427D01*
X118526040Y-83145000D01*
X122835736Y-83145000D01*
X122974868Y-83117325D01*
X122998377Y-83112649D01*
X123136256Y-83020520D01*
X123690521Y-82466256D01*
X123690523Y-82466253D01*
X124221777Y-81935000D01*
X124344315Y-81935000D01*
X124470000Y-81960000D01*
X124862450Y-81960000D01*
X125671829Y-82769379D01*
X125521945Y-82769248D01*
X125135677Y-82928851D01*
X124839889Y-83224123D01*
X124679613Y-83610112D01*
X124679248Y-84028055D01*
X124838851Y-84414323D01*
X125134123Y-84710111D01*
X125520112Y-84870387D01*
X125660194Y-84870509D01*
X125346273Y-85184431D01*
X125210569Y-85184431D01*
X125047928Y-85216782D01*
X124910049Y-85308911D01*
X124839089Y-85379871D01*
X124669888Y-85309613D01*
X124251945Y-85309248D01*
X123865677Y-85468851D01*
X123569889Y-85764123D01*
X123409613Y-86150112D01*
X123409248Y-86568055D01*
X123568851Y-86954323D01*
X123864123Y-87250111D01*
X124250112Y-87410387D01*
X124668055Y-87410752D01*
X125054323Y-87251149D01*
X125338344Y-86967624D01*
X125250104Y-87180129D01*
X125249896Y-87418824D01*
X125341048Y-87639429D01*
X125509683Y-87808359D01*
X125730129Y-87899896D01*
X125968824Y-87900104D01*
X126189429Y-87808952D01*
X126358359Y-87640317D01*
X126449896Y-87419871D01*
X126450027Y-87269172D01*
X126790112Y-87410387D01*
X127208055Y-87410752D01*
X127594323Y-87251149D01*
X127890111Y-86955877D01*
X128049935Y-86570976D01*
X128219999Y-86741039D01*
X128219896Y-86858824D01*
X128311048Y-87079429D01*
X128479683Y-87248359D01*
X128700129Y-87339896D01*
X128938824Y-87340104D01*
X129159429Y-87248952D01*
X129328359Y-87080317D01*
X129419896Y-86859871D01*
X129420104Y-86621176D01*
X129328952Y-86400571D01*
X129160317Y-86231641D01*
X128939871Y-86140104D01*
X128821041Y-86140000D01*
X128500571Y-85819531D01*
X128500571Y-85325459D01*
X128648851Y-85684323D01*
X128944123Y-85980111D01*
X129330112Y-86140387D01*
X129748055Y-86140752D01*
X130134323Y-85981149D01*
X130430111Y-85685877D01*
X130590387Y-85299888D01*
X130590693Y-84949999D01*
X131493223Y-84949999D01*
X131829078Y-85285855D01*
X131740104Y-85500129D01*
X131739896Y-85738824D01*
X131831048Y-85959429D01*
X131999683Y-86128359D01*
X132220129Y-86219896D01*
X132458824Y-86220104D01*
X132679429Y-86128952D01*
X132754589Y-86053924D01*
X132794953Y-86151613D01*
X132963588Y-86320543D01*
X133184034Y-86412080D01*
X133422729Y-86412288D01*
X133643334Y-86321136D01*
X133812264Y-86152501D01*
X133903801Y-85932055D01*
X133904009Y-85693360D01*
X133812857Y-85472755D01*
X133728905Y-85388656D01*
X133728905Y-85387920D01*
X133696554Y-85225280D01*
X133641081Y-85142259D01*
X133604425Y-85087399D01*
X132171504Y-83654479D01*
X132033625Y-83562350D01*
X132006641Y-83556983D01*
X131870984Y-83529999D01*
X127176745Y-83529999D01*
X127014105Y-83562350D01*
X126976240Y-83587651D01*
X126876224Y-83654479D01*
X126780631Y-83750072D01*
X126780752Y-83611945D01*
X126689321Y-83390666D01*
X126880129Y-83469896D01*
X127118824Y-83470104D01*
X127339429Y-83378952D01*
X127508359Y-83210317D01*
X127599896Y-82989871D01*
X127600104Y-82751176D01*
X127508952Y-82530571D01*
X127340317Y-82361641D01*
X127119871Y-82270104D01*
X127036427Y-82270031D01*
X126968198Y-82201802D01*
X126920769Y-82170111D01*
X126822208Y-82104254D01*
X126650000Y-82070000D01*
X126245242Y-82070000D01*
X125367044Y-81191802D01*
X125221054Y-81094254D01*
X125048846Y-81060000D01*
X124470000Y-81060000D01*
X124344315Y-81085000D01*
X124045736Y-81085000D01*
X123883095Y-81117351D01*
X123745216Y-81209479D01*
X123617868Y-81336827D01*
X122710001Y-80428961D01*
X122710048Y-80375000D01*
X146759199Y-80375000D01*
X146725677Y-80388851D01*
X146429889Y-80684123D01*
X146269613Y-81070112D01*
X146269248Y-81488055D01*
X146428851Y-81874323D01*
X146724123Y-82170111D01*
X147110112Y-82330387D01*
X147528055Y-82330752D01*
X147914323Y-82171149D01*
X148210111Y-81875877D01*
X148370387Y-81489888D01*
X148370752Y-81071945D01*
X148211149Y-80685677D01*
X147915877Y-80389889D01*
X147880020Y-80375000D01*
X174625000Y-80375000D01*
X174625000Y-99625000D01*
X141146143Y-99625000D01*
X141319104Y-99366147D01*
X141380000Y-99060000D01*
X141319104Y-98753853D01*
X141145685Y-98494315D01*
X140886147Y-98320896D01*
X140580000Y-98260000D01*
X111760000Y-98260000D01*
X111453853Y-98320896D01*
X111194315Y-98494315D01*
X111020896Y-98753853D01*
X110960000Y-99060000D01*
X111020896Y-99366147D01*
X111193857Y-99625000D01*
X100375000Y-99625000D01*
X100375000Y-90828824D01*
X110599896Y-90828824D01*
X110691048Y-91049429D01*
X110859683Y-91218359D01*
X111080129Y-91309896D01*
X111318824Y-91310104D01*
X111539429Y-91218952D01*
X111623528Y-91135000D01*
X115778302Y-91135000D01*
X115833126Y-91189920D01*
X116053572Y-91281457D01*
X116292267Y-91281665D01*
X116512872Y-91190513D01*
X116681802Y-91021878D01*
X116773339Y-90801432D01*
X116773547Y-90562737D01*
X116682395Y-90342132D01*
X116513760Y-90173202D01*
X116293314Y-90081665D01*
X116054619Y-90081457D01*
X115834014Y-90172609D01*
X115721426Y-90285000D01*
X111623530Y-90285000D01*
X111540317Y-90201641D01*
X111319871Y-90110104D01*
X111081176Y-90109896D01*
X110860571Y-90201048D01*
X110691641Y-90369683D01*
X110600104Y-90590129D01*
X110599896Y-90828824D01*
X100375000Y-90828824D01*
X100375000Y-80375000D01*
X101039199Y-80375000D01*
X101005677Y-80388851D01*
X101005677Y-80388851D01*
G37*
X101005677Y-80388851D02*
X100709889Y-80684123D01*
X100549613Y-81070112D01*
X100549248Y-81488055D01*
X100708851Y-81874323D01*
X101004123Y-82170111D01*
X101390112Y-82330387D01*
X101808055Y-82330752D01*
X102194323Y-82171149D01*
X102285631Y-82080000D01*
X103808630Y-82080000D01*
X105024885Y-83296256D01*
X105206855Y-83417845D01*
X105284424Y-83469675D01*
X105590571Y-83530571D01*
X110339201Y-83530571D01*
X111194314Y-84385685D01*
X111453853Y-84559104D01*
X111760000Y-84619999D01*
X112066147Y-84559104D01*
X112325685Y-84385685D01*
X112499104Y-84126147D01*
X112559999Y-83820000D01*
X112499104Y-83513853D01*
X112325685Y-83254314D01*
X111236256Y-82164886D01*
X110976718Y-81991467D01*
X110670571Y-81930571D01*
X105921942Y-81930571D01*
X104705685Y-80714315D01*
X104446147Y-80540896D01*
X104140000Y-80480000D01*
X102285831Y-80480000D01*
X102195877Y-80389889D01*
X102160020Y-80375000D01*
X121510047Y-80375000D01*
X121509896Y-80548824D01*
X121601048Y-80769429D01*
X121769683Y-80938359D01*
X121990129Y-81029896D01*
X122108959Y-81030000D01*
X122965000Y-81886041D01*
X122965000Y-81989695D01*
X122659696Y-82295000D01*
X122016243Y-82295000D01*
X122059896Y-82189871D01*
X122060104Y-81951176D01*
X121968952Y-81730571D01*
X121800317Y-81561641D01*
X121579871Y-81470104D01*
X121341176Y-81469896D01*
X121120571Y-81561048D01*
X120951641Y-81729683D01*
X120860104Y-81950129D01*
X120859896Y-82188824D01*
X120903767Y-82295000D01*
X118300000Y-82295000D01*
X118137360Y-82327351D01*
X117999480Y-82419480D01*
X117907351Y-82557360D01*
X117906296Y-82562664D01*
X116766691Y-83702269D01*
X116624322Y-83702145D01*
X116403717Y-83793297D01*
X116234787Y-83961932D01*
X116143250Y-84182378D01*
X116143042Y-84421073D01*
X116234194Y-84641678D01*
X116293146Y-84700733D01*
X116293146Y-86515649D01*
X116327400Y-86687857D01*
X116402418Y-86800129D01*
X116424948Y-86833847D01*
X117346848Y-87755747D01*
X117346776Y-87838207D01*
X117437928Y-88058812D01*
X117606563Y-88227742D01*
X117827009Y-88319279D01*
X118065704Y-88319487D01*
X118286309Y-88228335D01*
X118455239Y-88059700D01*
X118546776Y-87839254D01*
X118546984Y-87600559D01*
X118455832Y-87379954D01*
X118287197Y-87211024D01*
X118066751Y-87119487D01*
X117983307Y-87119414D01*
X117193146Y-86329253D01*
X117193146Y-84700823D01*
X117222792Y-84671229D01*
X117359683Y-84808359D01*
X117580129Y-84899896D01*
X117818824Y-84900104D01*
X118034297Y-84811073D01*
X119900030Y-86676807D01*
X119785591Y-86724092D01*
X119616661Y-86892727D01*
X119525124Y-87113173D01*
X119524916Y-87351868D01*
X119616068Y-87572473D01*
X119700020Y-87656572D01*
X119700020Y-89679800D01*
X119726117Y-89811000D01*
X119732371Y-89842441D01*
X119824500Y-89980320D01*
X120062090Y-90217910D01*
X120199969Y-90310039D01*
X120226953Y-90315406D01*
X120362610Y-90342390D01*
X120681487Y-90342390D01*
X120468792Y-90660710D01*
X120380218Y-91106000D01*
X120468792Y-91551290D01*
X120721029Y-91928789D01*
X121098528Y-92181026D01*
X121543818Y-92269600D01*
X121900182Y-92269600D01*
X122345472Y-92181026D01*
X122722971Y-91928789D01*
X122975208Y-91551290D01*
X123045619Y-91197311D01*
X123758828Y-91910520D01*
X123942227Y-92093920D01*
X123942227Y-94988080D01*
X123807306Y-95014918D01*
X123780322Y-95020285D01*
X123642443Y-95112414D01*
X123591914Y-95162943D01*
X123385338Y-95162943D01*
X123222698Y-95195294D01*
X123208768Y-95204602D01*
X123084817Y-95287423D01*
X122797241Y-95575000D01*
X111166041Y-95575000D01*
X111060001Y-95468961D01*
X111060104Y-95351176D01*
X110968952Y-95130571D01*
X110800317Y-94961641D01*
X110579871Y-94870104D01*
X110341176Y-94869896D01*
X110120571Y-94961048D01*
X109951641Y-95129683D01*
X109860104Y-95350129D01*
X109859896Y-95588824D01*
X109951048Y-95809429D01*
X110119683Y-95978359D01*
X110340129Y-96069896D01*
X110458959Y-96070000D01*
X110689479Y-96300520D01*
X110781608Y-96362078D01*
X110827360Y-96392649D01*
X110990000Y-96425000D01*
X115835504Y-96425000D01*
X115745684Y-96514663D01*
X115654147Y-96735109D01*
X115653939Y-96973804D01*
X115687488Y-97055000D01*
X115583530Y-97055000D01*
X115500317Y-96971641D01*
X115279871Y-96880104D01*
X115041176Y-96879896D01*
X114820571Y-96971048D01*
X114651641Y-97139683D01*
X114560104Y-97360129D01*
X114559896Y-97598824D01*
X114651048Y-97819429D01*
X114819683Y-97988359D01*
X115040129Y-98079896D01*
X115278824Y-98080104D01*
X115499429Y-97988952D01*
X115583528Y-97905000D01*
X122766103Y-97905000D01*
X122901760Y-97878016D01*
X122928744Y-97872649D01*
X123066623Y-97780520D01*
X123934179Y-96912965D01*
X124182102Y-96912965D01*
X124733625Y-97464489D01*
X124871504Y-97556617D01*
X125034145Y-97588968D01*
X133222804Y-97588968D01*
X133358461Y-97561984D01*
X133385445Y-97556617D01*
X133523324Y-97464488D01*
X135143976Y-95843836D01*
X136595636Y-95843836D01*
X136686788Y-96064441D01*
X136855423Y-96233371D01*
X137075869Y-96324908D01*
X137194699Y-96325012D01*
X137195219Y-96325532D01*
X137195222Y-96325534D01*
X138775167Y-97905480D01*
X138867296Y-97967038D01*
X138913048Y-97997609D01*
X139075688Y-98029960D01*
X150049674Y-98029960D01*
X150185331Y-98002976D01*
X150212315Y-97997609D01*
X150350194Y-97905480D01*
X151880693Y-96374981D01*
X151998478Y-96375084D01*
X152219083Y-96283932D01*
X152388013Y-96115297D01*
X152479550Y-95894851D01*
X152479758Y-95656156D01*
X152388606Y-95435551D01*
X152219971Y-95266621D01*
X151999525Y-95175084D01*
X151760830Y-95174876D01*
X151540225Y-95266028D01*
X151371295Y-95434663D01*
X151279758Y-95655109D01*
X151279654Y-95773939D01*
X149873634Y-97179960D01*
X139251729Y-97179960D01*
X137796262Y-95724494D01*
X137796260Y-95724491D01*
X137795741Y-95723972D01*
X137795844Y-95606188D01*
X137704692Y-95385583D01*
X137536057Y-95216653D01*
X137315611Y-95125116D01*
X137076916Y-95124908D01*
X136856311Y-95216060D01*
X136687381Y-95384695D01*
X136595844Y-95605141D01*
X136595636Y-95843836D01*
X135143976Y-95843836D01*
X135925882Y-95061931D01*
X136018010Y-94924052D01*
X136050361Y-94761411D01*
X136050361Y-94502720D01*
X136194383Y-94358698D01*
X136205185Y-94384841D01*
X136373820Y-94553771D01*
X136594266Y-94645308D01*
X136832961Y-94645516D01*
X137053566Y-94554364D01*
X137137665Y-94470412D01*
X143065137Y-94470412D01*
X143279724Y-94684999D01*
X141523530Y-94684999D01*
X141440317Y-94601640D01*
X141219871Y-94510103D01*
X140981176Y-94509895D01*
X140760571Y-94601047D01*
X140591641Y-94769682D01*
X140500104Y-94990128D01*
X140499896Y-95228823D01*
X140591048Y-95449428D01*
X140759683Y-95618358D01*
X140980129Y-95709895D01*
X141218824Y-95710103D01*
X141439429Y-95618951D01*
X141523528Y-95534999D01*
X145536486Y-95534999D01*
X145629683Y-95628359D01*
X145850129Y-95719896D01*
X146088824Y-95720104D01*
X146309429Y-95628952D01*
X146478359Y-95460317D01*
X146569896Y-95239871D01*
X146570104Y-95001176D01*
X146528313Y-94900035D01*
X159154965Y-94900035D01*
X159305439Y-94870104D01*
X159317606Y-94867684D01*
X159455485Y-94775555D01*
X166711039Y-87520001D01*
X166828824Y-87520104D01*
X167049429Y-87428952D01*
X167218359Y-87260317D01*
X167309896Y-87039871D01*
X167310104Y-86801176D01*
X167218952Y-86580571D01*
X167050317Y-86411641D01*
X166829871Y-86320104D01*
X166591176Y-86319896D01*
X166370571Y-86411048D01*
X166201641Y-86579683D01*
X166110104Y-86800129D01*
X166110000Y-86918960D01*
X158978925Y-94050035D01*
X145529200Y-94050035D01*
X145366559Y-94082386D01*
X145310215Y-94120034D01*
X143916840Y-94120034D01*
X143541699Y-93744892D01*
X143436239Y-93674426D01*
X143403818Y-93652763D01*
X143241178Y-93620412D01*
X137137667Y-93620412D01*
X137054454Y-93537053D01*
X136858837Y-93455826D01*
X136905567Y-93343288D01*
X136905775Y-93104593D01*
X136814623Y-92883988D01*
X136720114Y-92789314D01*
X136739901Y-92781138D01*
X136908831Y-92612503D01*
X137000368Y-92392057D01*
X137000576Y-92153362D01*
X136957784Y-92049797D01*
X136970107Y-92054914D01*
X137208802Y-92055122D01*
X137429407Y-91963970D01*
X137513506Y-91880018D01*
X141747565Y-91880018D01*
X143813078Y-93945532D01*
X143888554Y-93995963D01*
X143950959Y-94037661D01*
X144113599Y-94070012D01*
X145086401Y-94070012D01*
X145222058Y-94043028D01*
X145249042Y-94037661D01*
X145386921Y-93945532D01*
X145942474Y-93389980D01*
X149884935Y-93389980D01*
X149968148Y-93473339D01*
X150188594Y-93564876D01*
X150427289Y-93565084D01*
X150647894Y-93473932D01*
X150816824Y-93305297D01*
X150908361Y-93084851D01*
X150908569Y-92846156D01*
X150817417Y-92625551D01*
X150811517Y-92619641D01*
X159505359Y-92619641D01*
X159641016Y-92592657D01*
X159668000Y-92587290D01*
X159805879Y-92495161D01*
X166701039Y-85600001D01*
X166818824Y-85600104D01*
X167039429Y-85508952D01*
X167208359Y-85340317D01*
X167299896Y-85119871D01*
X167300104Y-84881176D01*
X167208952Y-84660571D01*
X167040317Y-84491641D01*
X166819871Y-84400104D01*
X166581176Y-84399896D01*
X166360571Y-84491048D01*
X166191641Y-84659683D01*
X166100104Y-84880129D01*
X166100000Y-84998960D01*
X159329319Y-91769641D01*
X145900361Y-91769641D01*
X145755000Y-91798555D01*
X145755000Y-89383530D01*
X145838359Y-89300317D01*
X145874378Y-89213573D01*
X146008927Y-89348357D01*
X146229373Y-89439894D01*
X146468068Y-89440102D01*
X146688673Y-89348950D01*
X146772772Y-89264998D01*
X149549257Y-89264998D01*
X149684914Y-89238014D01*
X149711898Y-89232647D01*
X149820911Y-89159806D01*
X149898003Y-89346384D01*
X150066638Y-89515314D01*
X150287084Y-89606851D01*
X150525779Y-89607059D01*
X150746384Y-89515907D01*
X150915314Y-89347272D01*
X151006851Y-89126826D01*
X151006955Y-89007996D01*
X151007475Y-89007476D01*
X151007477Y-89007473D01*
X152350542Y-87664409D01*
X152375000Y-87627805D01*
X152375000Y-88323959D01*
X150398961Y-90299999D01*
X150281176Y-90299896D01*
X150060571Y-90391048D01*
X149891641Y-90559683D01*
X149800104Y-90780129D01*
X149799896Y-91018824D01*
X149891048Y-91239429D01*
X150059683Y-91408359D01*
X150280129Y-91499896D01*
X150518824Y-91500104D01*
X150739429Y-91408952D01*
X150908359Y-91240317D01*
X150999896Y-91019871D01*
X151000000Y-90901041D01*
X153100521Y-88800520D01*
X153192649Y-88662641D01*
X153225000Y-88500000D01*
X153225000Y-85800000D01*
X153207382Y-85711429D01*
X153192649Y-85637359D01*
X153100521Y-85499480D01*
X151001040Y-83400000D01*
X166251470Y-83400000D01*
X166334683Y-83483359D01*
X166555129Y-83574896D01*
X166793824Y-83575104D01*
X167014429Y-83483952D01*
X167183359Y-83315317D01*
X167274896Y-83094871D01*
X167275104Y-82856176D01*
X167183952Y-82635571D01*
X167015317Y-82466641D01*
X166794871Y-82375104D01*
X166556176Y-82374896D01*
X166335571Y-82466048D01*
X166251472Y-82550000D01*
X140641040Y-82550000D01*
X139609930Y-81518890D01*
X139472051Y-81426761D01*
X139445067Y-81421394D01*
X139309410Y-81394410D01*
X137656253Y-81394410D01*
X137530569Y-81369410D01*
X137358362Y-81403664D01*
X137212371Y-81501212D01*
X136111210Y-82602372D01*
X136013662Y-82748362D01*
X135979408Y-82920570D01*
X135979408Y-83408843D01*
X134828958Y-84559291D01*
X134731410Y-84705281D01*
X134697156Y-84877489D01*
X134697156Y-85378358D01*
X134653967Y-85421547D01*
X134556419Y-85567537D01*
X134522165Y-85739745D01*
X134522165Y-86363747D01*
X134547498Y-86491106D01*
X130576992Y-90461612D01*
X130288019Y-90461612D01*
X130115811Y-90495866D01*
X129969821Y-90593414D01*
X129631821Y-90931414D01*
X129534273Y-91077404D01*
X129500019Y-91249612D01*
X129500019Y-91452440D01*
X129285571Y-91541048D01*
X129116641Y-91709683D01*
X129028350Y-91922312D01*
X128085000Y-90978962D01*
X128085000Y-88513530D01*
X128168359Y-88430317D01*
X128259896Y-88209871D01*
X128260104Y-87971176D01*
X128168952Y-87750571D01*
X128000317Y-87581641D01*
X127779871Y-87490104D01*
X127541176Y-87489896D01*
X127320571Y-87581048D01*
X127151641Y-87749683D01*
X127060104Y-87970129D01*
X127059896Y-88208824D01*
X127151048Y-88429429D01*
X127235000Y-88513528D01*
X127235000Y-90765372D01*
X123546497Y-87076870D01*
X123408618Y-86984741D01*
X123381634Y-86979374D01*
X123245977Y-86952390D01*
X122567921Y-86952390D01*
X122722971Y-86848789D01*
X122975208Y-86471290D01*
X123063782Y-86026000D01*
X122975208Y-85580710D01*
X122722971Y-85203211D01*
X122345472Y-84950974D01*
X121900182Y-84862400D01*
X121543818Y-84862400D01*
X121098528Y-84950974D01*
X120721029Y-85203211D01*
X120468792Y-85580710D01*
X120392012Y-85966707D01*
X118424784Y-83999480D01*
X118286905Y-83907351D01*
X118259921Y-83901984D01*
X118124264Y-83875000D01*
X118123530Y-83875000D01*
X118040317Y-83791641D01*
X117926613Y-83744427D01*
X118526040Y-83145000D01*
X122835736Y-83145000D01*
X122974868Y-83117325D01*
X122998377Y-83112649D01*
X123136256Y-83020520D01*
X123690521Y-82466256D01*
X123690523Y-82466253D01*
X124221777Y-81935000D01*
X124344315Y-81935000D01*
X124470000Y-81960000D01*
X124862450Y-81960000D01*
X125671829Y-82769379D01*
X125521945Y-82769248D01*
X125135677Y-82928851D01*
X124839889Y-83224123D01*
X124679613Y-83610112D01*
X124679248Y-84028055D01*
X124838851Y-84414323D01*
X125134123Y-84710111D01*
X125520112Y-84870387D01*
X125660194Y-84870509D01*
X125346273Y-85184431D01*
X125210569Y-85184431D01*
X125047928Y-85216782D01*
X124910049Y-85308911D01*
X124839089Y-85379871D01*
X124669888Y-85309613D01*
X124251945Y-85309248D01*
X123865677Y-85468851D01*
X123569889Y-85764123D01*
X123409613Y-86150112D01*
X123409248Y-86568055D01*
X123568851Y-86954323D01*
X123864123Y-87250111D01*
X124250112Y-87410387D01*
X124668055Y-87410752D01*
X125054323Y-87251149D01*
X125338344Y-86967624D01*
X125250104Y-87180129D01*
X125249896Y-87418824D01*
X125341048Y-87639429D01*
X125509683Y-87808359D01*
X125730129Y-87899896D01*
X125968824Y-87900104D01*
X126189429Y-87808952D01*
X126358359Y-87640317D01*
X126449896Y-87419871D01*
X126450027Y-87269172D01*
X126790112Y-87410387D01*
X127208055Y-87410752D01*
X127594323Y-87251149D01*
X127890111Y-86955877D01*
X128049935Y-86570976D01*
X128219999Y-86741039D01*
X128219896Y-86858824D01*
X128311048Y-87079429D01*
X128479683Y-87248359D01*
X128700129Y-87339896D01*
X128938824Y-87340104D01*
X129159429Y-87248952D01*
X129328359Y-87080317D01*
X129419896Y-86859871D01*
X129420104Y-86621176D01*
X129328952Y-86400571D01*
X129160317Y-86231641D01*
X128939871Y-86140104D01*
X128821041Y-86140000D01*
X128500571Y-85819531D01*
X128500571Y-85325459D01*
X128648851Y-85684323D01*
X128944123Y-85980111D01*
X129330112Y-86140387D01*
X129748055Y-86140752D01*
X130134323Y-85981149D01*
X130430111Y-85685877D01*
X130590387Y-85299888D01*
X130590693Y-84949999D01*
X131493223Y-84949999D01*
X131829078Y-85285855D01*
X131740104Y-85500129D01*
X131739896Y-85738824D01*
X131831048Y-85959429D01*
X131999683Y-86128359D01*
X132220129Y-86219896D01*
X132458824Y-86220104D01*
X132679429Y-86128952D01*
X132754589Y-86053924D01*
X132794953Y-86151613D01*
X132963588Y-86320543D01*
X133184034Y-86412080D01*
X133422729Y-86412288D01*
X133643334Y-86321136D01*
X133812264Y-86152501D01*
X133903801Y-85932055D01*
X133904009Y-85693360D01*
X133812857Y-85472755D01*
X133728905Y-85388656D01*
X133728905Y-85387920D01*
X133696554Y-85225280D01*
X133641081Y-85142259D01*
X133604425Y-85087399D01*
X132171504Y-83654479D01*
X132033625Y-83562350D01*
X132006641Y-83556983D01*
X131870984Y-83529999D01*
X127176745Y-83529999D01*
X127014105Y-83562350D01*
X126976240Y-83587651D01*
X126876224Y-83654479D01*
X126780631Y-83750072D01*
X126780752Y-83611945D01*
X126689321Y-83390666D01*
X126880129Y-83469896D01*
X127118824Y-83470104D01*
X127339429Y-83378952D01*
X127508359Y-83210317D01*
X127599896Y-82989871D01*
X127600104Y-82751176D01*
X127508952Y-82530571D01*
X127340317Y-82361641D01*
X127119871Y-82270104D01*
X127036427Y-82270031D01*
X126968198Y-82201802D01*
X126920769Y-82170111D01*
X126822208Y-82104254D01*
X126650000Y-82070000D01*
X126245242Y-82070000D01*
X125367044Y-81191802D01*
X125221054Y-81094254D01*
X125048846Y-81060000D01*
X124470000Y-81060000D01*
X124344315Y-81085000D01*
X124045736Y-81085000D01*
X123883095Y-81117351D01*
X123745216Y-81209479D01*
X123617868Y-81336827D01*
X122710001Y-80428961D01*
X122710048Y-80375000D01*
X146759199Y-80375000D01*
X146725677Y-80388851D01*
X146429889Y-80684123D01*
X146269613Y-81070112D01*
X146269248Y-81488055D01*
X146428851Y-81874323D01*
X146724123Y-82170111D01*
X147110112Y-82330387D01*
X147528055Y-82330752D01*
X147914323Y-82171149D01*
X148210111Y-81875877D01*
X148370387Y-81489888D01*
X148370752Y-81071945D01*
X148211149Y-80685677D01*
X147915877Y-80389889D01*
X147880020Y-80375000D01*
X174625000Y-80375000D01*
X174625000Y-99625000D01*
X141146143Y-99625000D01*
X141319104Y-99366147D01*
X141380000Y-99060000D01*
X141319104Y-98753853D01*
X141145685Y-98494315D01*
X140886147Y-98320896D01*
X140580000Y-98260000D01*
X111760000Y-98260000D01*
X111453853Y-98320896D01*
X111194315Y-98494315D01*
X111020896Y-98753853D01*
X110960000Y-99060000D01*
X111020896Y-99366147D01*
X111193857Y-99625000D01*
X100375000Y-99625000D01*
X100375000Y-90828824D01*
X110599896Y-90828824D01*
X110691048Y-91049429D01*
X110859683Y-91218359D01*
X111080129Y-91309896D01*
X111318824Y-91310104D01*
X111539429Y-91218952D01*
X111623528Y-91135000D01*
X115778302Y-91135000D01*
X115833126Y-91189920D01*
X116053572Y-91281457D01*
X116292267Y-91281665D01*
X116512872Y-91190513D01*
X116681802Y-91021878D01*
X116773339Y-90801432D01*
X116773547Y-90562737D01*
X116682395Y-90342132D01*
X116513760Y-90173202D01*
X116293314Y-90081665D01*
X116054619Y-90081457D01*
X115834014Y-90172609D01*
X115721426Y-90285000D01*
X111623530Y-90285000D01*
X111540317Y-90201641D01*
X111319871Y-90110104D01*
X111081176Y-90109896D01*
X110860571Y-90201048D01*
X110691641Y-90369683D01*
X110600104Y-90590129D01*
X110599896Y-90828824D01*
X100375000Y-90828824D01*
X100375000Y-80375000D01*
X101039199Y-80375000D01*
X101005677Y-80388851D01*
G36*
X136383444Y-90542274D02*
X136383236Y-90780969D01*
X136474388Y-91001574D01*
X136584473Y-91111852D01*
X136581619Y-91114701D01*
X136490082Y-91335147D01*
X136489874Y-91573842D01*
X136532666Y-91677407D01*
X136520343Y-91672290D01*
X136281648Y-91672082D01*
X136061043Y-91763234D01*
X135976944Y-91847186D01*
X135976208Y-91847186D01*
X135840551Y-91874170D01*
X135813567Y-91879537D01*
X135675688Y-91971666D01*
X135380130Y-92267224D01*
X135288001Y-92405103D01*
X135282634Y-92432087D01*
X135255650Y-92567744D01*
X135255650Y-92784025D01*
X135137827Y-92735101D01*
X134899132Y-92734893D01*
X134678527Y-92826045D01*
X134509597Y-92994680D01*
X134418060Y-93215126D01*
X134417953Y-93337369D01*
X134332690Y-93464973D01*
X134329229Y-93482372D01*
X134300339Y-93627614D01*
X134300339Y-94212570D01*
X132673964Y-95838946D01*
X132426041Y-95838946D01*
X131377118Y-94790024D01*
X131752802Y-94790024D01*
X131896650Y-94761411D01*
X131915443Y-94757673D01*
X132053322Y-94665544D01*
X136299322Y-90419545D01*
X136434405Y-90419545D01*
X136383444Y-90542274D01*
X136383444Y-90542274D01*
G37*
X136383444Y-90542274D02*
X136383236Y-90780969D01*
X136474388Y-91001574D01*
X136584473Y-91111852D01*
X136581619Y-91114701D01*
X136490082Y-91335147D01*
X136489874Y-91573842D01*
X136532666Y-91677407D01*
X136520343Y-91672290D01*
X136281648Y-91672082D01*
X136061043Y-91763234D01*
X135976944Y-91847186D01*
X135976208Y-91847186D01*
X135840551Y-91874170D01*
X135813567Y-91879537D01*
X135675688Y-91971666D01*
X135380130Y-92267224D01*
X135288001Y-92405103D01*
X135282634Y-92432087D01*
X135255650Y-92567744D01*
X135255650Y-92784025D01*
X135137827Y-92735101D01*
X134899132Y-92734893D01*
X134678527Y-92826045D01*
X134509597Y-92994680D01*
X134418060Y-93215126D01*
X134417953Y-93337369D01*
X134332690Y-93464973D01*
X134329229Y-93482372D01*
X134300339Y-93627614D01*
X134300339Y-94212570D01*
X132673964Y-95838946D01*
X132426041Y-95838946D01*
X131377118Y-94790024D01*
X131752802Y-94790024D01*
X131896650Y-94761411D01*
X131915443Y-94757673D01*
X132053322Y-94665544D01*
X136299322Y-90419545D01*
X136434405Y-90419545D01*
X136383444Y-90542274D01*
M02*
