G04 #@! TF.FileFunction,Copper,L1,Top,Signal*
%FSLAX46Y46*%
G04 Gerber Fmt 4.6, Leading zero omitted, Abs format (unit mm)*
G04 Created by KiCad (PCBNEW (2016-02-18 BZR 6566)-product) date Monday, 28 March 2016 11:35:06*
%MOMM*%
G01*
G04 APERTURE LIST*
%ADD10C,0.100000*%
%ADD11R,4.572000X1.524000*%
%ADD12R,4.071620X1.998980*%
%ADD13R,0.210000X0.350000*%
%ADD14R,0.350000X0.210000*%
%ADD15R,0.200000X0.350000*%
%ADD16R,1.540000X1.700000*%
%ADD17R,0.750000X0.800000*%
%ADD18C,1.501140*%
%ADD19R,0.800000X0.750000*%
%ADD20R,1.100000X1.900000*%
%ADD21R,2.400000X1.500000*%
%ADD22R,0.400000X0.600000*%
%ADD23R,2.000000X1.300000*%
%ADD24R,1.800000X0.700000*%
%ADD25R,1.800000X0.800000*%
%ADD26R,1.000000X1.250000*%
%ADD27R,2.032000X1.727200*%
%ADD28O,2.032000X1.727200*%
%ADD29R,1.450000X0.700000*%
%ADD30R,0.650000X0.300000*%
%ADD31R,0.825000X1.200000*%
%ADD32R,0.280000X0.700000*%
%ADD33R,2.700020X1.000760*%
%ADD34C,0.600000*%
%ADD35C,0.250000*%
%ADD36C,0.340000*%
%ADD37C,0.500000*%
%ADD38C,1.000000*%
%ADD39C,0.300000*%
%ADD40C,0.160000*%
%ADD41C,0.800000*%
%ADD42C,0.254000*%
G04 APERTURE END LIST*
D10*
D11*
X177766700Y-76840240D03*
D10*
G36*
X179535810Y-81004570D02*
X179535810Y-79005590D01*
X180036190Y-79605030D01*
X180036190Y-80405130D01*
X179535810Y-81004570D01*
X179535810Y-81004570D01*
G37*
D11*
X177766700Y-83164840D03*
D12*
X177500000Y-80005080D03*
D11*
X107519300Y-83164840D03*
D10*
G36*
X105750190Y-79000510D02*
X105750190Y-80999490D01*
X105249810Y-80400050D01*
X105249810Y-79599950D01*
X105750190Y-79000510D01*
X105750190Y-79000510D01*
G37*
D11*
X107519300Y-76840240D03*
D12*
X107786000Y-80000000D03*
D13*
X125380000Y-70739000D03*
X124980000Y-70739000D03*
X124580000Y-70739000D03*
X124180000Y-70739000D03*
X123780000Y-70739000D03*
X123380000Y-70739000D03*
D14*
X123030000Y-71089000D03*
X123030000Y-71489000D03*
X123030000Y-71889000D03*
X123030000Y-72289000D03*
X123030000Y-72689000D03*
X123030000Y-73089000D03*
D15*
X123380000Y-73439000D03*
D13*
X123780000Y-73439000D03*
X124180000Y-73439000D03*
X124580000Y-73439000D03*
X124980000Y-73439000D03*
X125380000Y-73439000D03*
D14*
X125730000Y-73089000D03*
X125730000Y-72689000D03*
X125730000Y-72289000D03*
X125730000Y-71889000D03*
X125730000Y-71489000D03*
X125730000Y-71089000D03*
D16*
X124380000Y-72089000D03*
D10*
G36*
X134976408Y-80205254D02*
X134799631Y-80028477D01*
X135294606Y-79533502D01*
X135471383Y-79710279D01*
X134976408Y-80205254D01*
X134976408Y-80205254D01*
G37*
G36*
X135329961Y-80558808D02*
X135153184Y-80382031D01*
X135648159Y-79887056D01*
X135824936Y-80063833D01*
X135329961Y-80558808D01*
X135329961Y-80558808D01*
G37*
G36*
X135683515Y-80912361D02*
X135506738Y-80735584D01*
X136001713Y-80240609D01*
X136178490Y-80417386D01*
X135683515Y-80912361D01*
X135683515Y-80912361D01*
G37*
G36*
X136037068Y-81265915D02*
X135860291Y-81089138D01*
X136355266Y-80594163D01*
X136532043Y-80770940D01*
X136037068Y-81265915D01*
X136037068Y-81265915D01*
G37*
G36*
X136390621Y-81619468D02*
X136213844Y-81442691D01*
X136708819Y-80947716D01*
X136885596Y-81124493D01*
X136390621Y-81619468D01*
X136390621Y-81619468D01*
G37*
G36*
X136744175Y-81973021D02*
X136567398Y-81796244D01*
X137062373Y-81301269D01*
X137239150Y-81478046D01*
X136744175Y-81973021D01*
X136744175Y-81973021D01*
G37*
G36*
X137097728Y-82326575D02*
X136920951Y-82149798D01*
X137415926Y-81654823D01*
X137592703Y-81831600D01*
X137097728Y-82326575D01*
X137097728Y-82326575D01*
G37*
G36*
X137451282Y-82680128D02*
X137274505Y-82503351D01*
X137769480Y-82008376D01*
X137946257Y-82185153D01*
X137451282Y-82680128D01*
X137451282Y-82680128D01*
G37*
G36*
X138865495Y-82503351D02*
X138688718Y-82680128D01*
X138193743Y-82185153D01*
X138370520Y-82008376D01*
X138865495Y-82503351D01*
X138865495Y-82503351D01*
G37*
G36*
X139219049Y-82149798D02*
X139042272Y-82326575D01*
X138547297Y-81831600D01*
X138724074Y-81654823D01*
X139219049Y-82149798D01*
X139219049Y-82149798D01*
G37*
G36*
X139572602Y-81796244D02*
X139395825Y-81973021D01*
X138900850Y-81478046D01*
X139077627Y-81301269D01*
X139572602Y-81796244D01*
X139572602Y-81796244D01*
G37*
G36*
X139926156Y-81442691D02*
X139749379Y-81619468D01*
X139254404Y-81124493D01*
X139431181Y-80947716D01*
X139926156Y-81442691D01*
X139926156Y-81442691D01*
G37*
G36*
X140279709Y-81089138D02*
X140102932Y-81265915D01*
X139607957Y-80770940D01*
X139784734Y-80594163D01*
X140279709Y-81089138D01*
X140279709Y-81089138D01*
G37*
G36*
X140633262Y-80735584D02*
X140456485Y-80912361D01*
X139961510Y-80417386D01*
X140138287Y-80240609D01*
X140633262Y-80735584D01*
X140633262Y-80735584D01*
G37*
G36*
X140986816Y-80382031D02*
X140810039Y-80558808D01*
X140315064Y-80063833D01*
X140491841Y-79887056D01*
X140986816Y-80382031D01*
X140986816Y-80382031D01*
G37*
G36*
X141340369Y-80028477D02*
X141163592Y-80205254D01*
X140668617Y-79710279D01*
X140845394Y-79533502D01*
X141340369Y-80028477D01*
X141340369Y-80028477D01*
G37*
G36*
X140845394Y-79286016D02*
X140668617Y-79109239D01*
X141163592Y-78614264D01*
X141340369Y-78791041D01*
X140845394Y-79286016D01*
X140845394Y-79286016D01*
G37*
G36*
X140491841Y-78932462D02*
X140315064Y-78755685D01*
X140810039Y-78260710D01*
X140986816Y-78437487D01*
X140491841Y-78932462D01*
X140491841Y-78932462D01*
G37*
G36*
X140138287Y-78578909D02*
X139961510Y-78402132D01*
X140456485Y-77907157D01*
X140633262Y-78083934D01*
X140138287Y-78578909D01*
X140138287Y-78578909D01*
G37*
G36*
X139784734Y-78225355D02*
X139607957Y-78048578D01*
X140102932Y-77553603D01*
X140279709Y-77730380D01*
X139784734Y-78225355D01*
X139784734Y-78225355D01*
G37*
G36*
X139431181Y-77871802D02*
X139254404Y-77695025D01*
X139749379Y-77200050D01*
X139926156Y-77376827D01*
X139431181Y-77871802D01*
X139431181Y-77871802D01*
G37*
G36*
X139077627Y-77518249D02*
X138900850Y-77341472D01*
X139395825Y-76846497D01*
X139572602Y-77023274D01*
X139077627Y-77518249D01*
X139077627Y-77518249D01*
G37*
G36*
X138724074Y-77164695D02*
X138547297Y-76987918D01*
X139042272Y-76492943D01*
X139219049Y-76669720D01*
X138724074Y-77164695D01*
X138724074Y-77164695D01*
G37*
G36*
X138370520Y-76811142D02*
X138193743Y-76634365D01*
X138688718Y-76139390D01*
X138865495Y-76316167D01*
X138370520Y-76811142D01*
X138370520Y-76811142D01*
G37*
G36*
X137946257Y-76634365D02*
X137769480Y-76811142D01*
X137274505Y-76316167D01*
X137451282Y-76139390D01*
X137946257Y-76634365D01*
X137946257Y-76634365D01*
G37*
G36*
X137592703Y-76987918D02*
X137415926Y-77164695D01*
X136920951Y-76669720D01*
X137097728Y-76492943D01*
X137592703Y-76987918D01*
X137592703Y-76987918D01*
G37*
G36*
X137239150Y-77341472D02*
X137062373Y-77518249D01*
X136567398Y-77023274D01*
X136744175Y-76846497D01*
X137239150Y-77341472D01*
X137239150Y-77341472D01*
G37*
G36*
X136885596Y-77695025D02*
X136708819Y-77871802D01*
X136213844Y-77376827D01*
X136390621Y-77200050D01*
X136885596Y-77695025D01*
X136885596Y-77695025D01*
G37*
G36*
X136532043Y-78048578D02*
X136355266Y-78225355D01*
X135860291Y-77730380D01*
X136037068Y-77553603D01*
X136532043Y-78048578D01*
X136532043Y-78048578D01*
G37*
G36*
X136178490Y-78402132D02*
X136001713Y-78578909D01*
X135506738Y-78083934D01*
X135683515Y-77907157D01*
X136178490Y-78402132D01*
X136178490Y-78402132D01*
G37*
G36*
X135824936Y-78755685D02*
X135648159Y-78932462D01*
X135153184Y-78437487D01*
X135329961Y-78260710D01*
X135824936Y-78755685D01*
X135824936Y-78755685D01*
G37*
G36*
X135471383Y-79109239D02*
X135294606Y-79286016D01*
X134799631Y-78791041D01*
X134976408Y-78614264D01*
X135471383Y-79109239D01*
X135471383Y-79109239D01*
G37*
G36*
X139289759Y-80629518D02*
X138070000Y-79409759D01*
X139289759Y-78190000D01*
X140509518Y-79409759D01*
X139289759Y-80629518D01*
X139289759Y-80629518D01*
G37*
G36*
X138070000Y-79409759D02*
X136850241Y-78190000D01*
X138070000Y-76970241D01*
X139289759Y-78190000D01*
X138070000Y-79409759D01*
X138070000Y-79409759D01*
G37*
G36*
X138070000Y-81849277D02*
X136850241Y-80629518D01*
X138070000Y-79409759D01*
X139289759Y-80629518D01*
X138070000Y-81849277D01*
X138070000Y-81849277D01*
G37*
G36*
X136850241Y-80629518D02*
X135630482Y-79409759D01*
X136850241Y-78190000D01*
X138070000Y-79409759D01*
X136850241Y-80629518D01*
X136850241Y-80629518D01*
G37*
D17*
X132280000Y-82560000D03*
X132280000Y-84060000D03*
X129160000Y-72660000D03*
X129160000Y-74160000D03*
X128070000Y-72650000D03*
X128070000Y-74150000D03*
X121060000Y-72860000D03*
X121060000Y-71360000D03*
X138250000Y-74250000D03*
X138250000Y-72750000D03*
D18*
X129460000Y-76360000D03*
X132000000Y-76360000D03*
X130730000Y-73820000D03*
X152320000Y-71280000D03*
X132000000Y-71280000D03*
X134540000Y-75090000D03*
X143430000Y-76360000D03*
X143430000Y-73820000D03*
X112950000Y-71280000D03*
D19*
X140000000Y-71100000D03*
X141500000Y-71100000D03*
X139700000Y-84660000D03*
X138200000Y-84660000D03*
D17*
X132660000Y-78090000D03*
X132660000Y-79590000D03*
D19*
X136750000Y-71250000D03*
X138250000Y-71250000D03*
X131010000Y-80100000D03*
X129510000Y-80100000D03*
X131000000Y-78500000D03*
X129500000Y-78500000D03*
D17*
X151000000Y-84250000D03*
X151000000Y-82750000D03*
D19*
X151170000Y-74810000D03*
X149670000Y-74810000D03*
D17*
X111770000Y-85190000D03*
X111770000Y-83690000D03*
X141620000Y-74600000D03*
X141620000Y-73100000D03*
X139990000Y-74600000D03*
X139990000Y-73100000D03*
D20*
X134000000Y-85250000D03*
X136500000Y-85250000D03*
D19*
X143870000Y-83230000D03*
X142370000Y-83230000D03*
D17*
X135250000Y-71250000D03*
X135250000Y-72750000D03*
D10*
G36*
X134482322Y-77998008D02*
X133951992Y-77467678D01*
X134517678Y-76901992D01*
X135048008Y-77432322D01*
X134482322Y-77998008D01*
X134482322Y-77998008D01*
G37*
G36*
X135542982Y-76937348D02*
X135012652Y-76407018D01*
X135578338Y-75841332D01*
X136108668Y-76371662D01*
X135542982Y-76937348D01*
X135542982Y-76937348D01*
G37*
D17*
X136750000Y-74250000D03*
X136750000Y-72750000D03*
X134000000Y-87290000D03*
X134000000Y-88790000D03*
X136500000Y-88800000D03*
X136500000Y-87300000D03*
D21*
X130170000Y-83310000D03*
D22*
X129170000Y-84660000D03*
X130170000Y-84660000D03*
X131170000Y-84660000D03*
X131170000Y-81960000D03*
X130170000Y-81960000D03*
X129170000Y-81960000D03*
D23*
X153000000Y-73000000D03*
X153000000Y-75000000D03*
X153000000Y-77000000D03*
X153000000Y-79000000D03*
X153000000Y-81000000D03*
X153000000Y-83000000D03*
X153000000Y-85000000D03*
X153000000Y-87000000D03*
X169000000Y-87000000D03*
X169000000Y-85000000D03*
X169000000Y-83000000D03*
X169000000Y-81000000D03*
X169000000Y-79000000D03*
X169000000Y-77000000D03*
X169000000Y-75000000D03*
X169000000Y-73000000D03*
D24*
X122920000Y-87700000D03*
D25*
X122920000Y-86600000D03*
X122920000Y-85500000D03*
X122920000Y-84400000D03*
X122920000Y-83300000D03*
X122920000Y-82200000D03*
X122920000Y-81100000D03*
X122920000Y-80000000D03*
X122920000Y-78900000D03*
X113320000Y-78900000D03*
X113320000Y-80000000D03*
X113320000Y-81100000D03*
X113320000Y-82200000D03*
X113320000Y-83300000D03*
X113320000Y-84400000D03*
X113320000Y-85500000D03*
X113320000Y-86600000D03*
D24*
X113320000Y-87700000D03*
D26*
X146100000Y-71900000D03*
X148100000Y-71900000D03*
D17*
X171275000Y-81250000D03*
X171275000Y-82750000D03*
D26*
X146100000Y-83600000D03*
X148100000Y-83600000D03*
D17*
X151000000Y-79740000D03*
X151000000Y-81240000D03*
D19*
X146710000Y-77920000D03*
X148210000Y-77920000D03*
D26*
X146100000Y-76100000D03*
X148100000Y-76100000D03*
X146100000Y-74000000D03*
X148100000Y-74000000D03*
D17*
X124670000Y-82340000D03*
X124670000Y-83840000D03*
X110620000Y-85210000D03*
X110620000Y-86710000D03*
D19*
X142370000Y-84850000D03*
X143870000Y-84850000D03*
D27*
X126722000Y-83646000D03*
D28*
X126722000Y-81106000D03*
X126722000Y-78566000D03*
X126722000Y-76026000D03*
D29*
X143825000Y-86750000D03*
X138675000Y-86750000D03*
X138675000Y-88750000D03*
X143825000Y-88750000D03*
X132075000Y-86750000D03*
X126925000Y-86750000D03*
X126925000Y-88750000D03*
X132075000Y-88750000D03*
D30*
X146500000Y-79640000D03*
X146500000Y-80140000D03*
X146500000Y-80640000D03*
X146500000Y-81140000D03*
X146500000Y-81640000D03*
X149600000Y-81640000D03*
X149600000Y-81140000D03*
X149600000Y-80640000D03*
X149600000Y-80140000D03*
X149600000Y-79640000D03*
D31*
X148462500Y-81240000D03*
X148462500Y-80040000D03*
X147637500Y-81240000D03*
X147637500Y-80040000D03*
D32*
X148300000Y-79140000D03*
X147800000Y-79140000D03*
X147796000Y-82140000D03*
X148300000Y-82140000D03*
D19*
X151170000Y-77900000D03*
X149670000Y-77900000D03*
X151170000Y-76340000D03*
X149670000Y-76340000D03*
D18*
X178990000Y-89060000D03*
X106600000Y-71280000D03*
D33*
X143940000Y-81199820D03*
X143940000Y-79000180D03*
D17*
X110770000Y-81428000D03*
X110770000Y-79928000D03*
D19*
X129840000Y-71030000D03*
X128340000Y-71030000D03*
D34*
X127110000Y-70430000D03*
X156425020Y-76997884D03*
X151349244Y-78839998D03*
X126460000Y-72070000D03*
X121743146Y-74302249D03*
X122946880Y-77719383D03*
X142195740Y-85725012D03*
X132000000Y-72870000D03*
X156879654Y-85774980D03*
X133820000Y-76740000D03*
X132650000Y-74580000D03*
X130850000Y-77300000D03*
X130072396Y-87979980D03*
X129058140Y-87112967D03*
X128188799Y-84994629D03*
X128610000Y-75200000D03*
X125170000Y-74430000D03*
X176663540Y-85330000D03*
X176663540Y-85330000D03*
X178340000Y-75040000D03*
X176420000Y-75040000D03*
X107533575Y-81644665D03*
X106123393Y-75097391D03*
X107533575Y-78169574D03*
X109140000Y-75030000D03*
X106200000Y-84510000D03*
X108890000Y-84400000D03*
X115020000Y-81110000D03*
X115050000Y-78900000D03*
X111940000Y-81495002D03*
X158075000Y-83300000D03*
X142200000Y-82525000D03*
X137550002Y-85638944D03*
X121950000Y-71310000D03*
X122160000Y-72950000D03*
X140810000Y-72610000D03*
X124770000Y-84990000D03*
X133890000Y-72750000D03*
X136030000Y-75150000D03*
X133610065Y-79475031D03*
X139250328Y-82927140D03*
X138303905Y-75812184D03*
X137340000Y-75620000D03*
X150330000Y-78960000D03*
X149600000Y-82570000D03*
X150970000Y-85120000D03*
X146100000Y-85109999D03*
X145580000Y-89060000D03*
X116760000Y-89060000D03*
X116760000Y-73820000D03*
X136080000Y-82840000D03*
X132660000Y-78090000D03*
X142460919Y-79994545D03*
X129367227Y-85412934D03*
X115460000Y-85470000D03*
X125125020Y-77233044D03*
X129700000Y-81040000D03*
X121173443Y-80681561D03*
X116200000Y-80710000D03*
X141989254Y-78289254D03*
X128669074Y-79211104D03*
X155174980Y-75421119D03*
X141543791Y-76201188D03*
X155174980Y-77143811D03*
X142410000Y-77574980D03*
X155406955Y-79006955D03*
X141500000Y-77000000D03*
X155400000Y-80900000D03*
X140622166Y-76051746D03*
X142089978Y-81455018D03*
X155308465Y-82964980D03*
X141714137Y-84045412D03*
X171710000Y-76920000D03*
X141983340Y-80662145D03*
X171700000Y-75000000D03*
X171675000Y-72975000D03*
X134625000Y-82050000D03*
X135600020Y-81561613D03*
X122700000Y-74300000D03*
X120160000Y-87480000D03*
X141305671Y-83223417D03*
X121254043Y-86854980D03*
X141400472Y-82272186D03*
X132754378Y-85041961D03*
X140017956Y-83334997D03*
D35*
X107786000Y-80000000D02*
X105500000Y-80000000D01*
D36*
X110770000Y-79928000D02*
X113248000Y-79928000D01*
X113248000Y-79928000D02*
X113320000Y-80000000D01*
X107786000Y-80000000D02*
X110698000Y-80000000D01*
X110698000Y-80000000D02*
X110770000Y-79928000D01*
D35*
X128340000Y-71030000D02*
X127710000Y-71030000D01*
X127710000Y-71030000D02*
X127110000Y-70430000D01*
D37*
X156725019Y-74265017D02*
X156725019Y-76697885D01*
X156725019Y-76697885D02*
X156425020Y-76997884D01*
X152320000Y-71280000D02*
X153740002Y-71280000D01*
X153740002Y-71280000D02*
X156725019Y-74265017D01*
D35*
X156432191Y-77530567D02*
X156425020Y-77523396D01*
X156879654Y-85774980D02*
X156879654Y-77978030D01*
X156425020Y-77523396D02*
X156425020Y-77422148D01*
X156879654Y-77978030D02*
X156432191Y-77530567D01*
X157901624Y-79000000D02*
X156432191Y-77530567D01*
X169000000Y-79000000D02*
X157901624Y-79000000D01*
X156425020Y-77422148D02*
X156425020Y-76997884D01*
X151170000Y-78660754D02*
X151349244Y-78839998D01*
X151170000Y-77900000D02*
X151170000Y-78660754D01*
X140000000Y-71100000D02*
X140025000Y-71100000D01*
X140025000Y-71100000D02*
X140725001Y-70399999D01*
X143489999Y-70399999D02*
X144990000Y-71900000D01*
X140725001Y-70399999D02*
X143489999Y-70399999D01*
X144990000Y-71900000D02*
X146100000Y-71900000D01*
D37*
X146100000Y-71900000D02*
X146100000Y-71775000D01*
X146100000Y-71775000D02*
X147345569Y-70529431D01*
X147345569Y-70529431D02*
X151569431Y-70529431D01*
X151569431Y-70529431D02*
X152320000Y-71280000D01*
D38*
X146100000Y-74000000D02*
X146100000Y-76100000D01*
X146100000Y-71900000D02*
X146100000Y-74000000D01*
D35*
X146100000Y-76975000D02*
X146100000Y-76100000D01*
X145849999Y-77225001D02*
X146100000Y-76975000D01*
X145951983Y-80140000D02*
X145849999Y-80038016D01*
X146500000Y-80140000D02*
X145951983Y-80140000D01*
X145849999Y-80038016D02*
X145849999Y-77225001D01*
X136750000Y-71250000D02*
X136775000Y-71250000D01*
X136775000Y-71250000D02*
X137475001Y-70549999D01*
X137475001Y-70549999D02*
X138799999Y-70549999D01*
X139350000Y-71100000D02*
X140000000Y-71100000D01*
X138799999Y-70549999D02*
X139350000Y-71100000D01*
D39*
X128070000Y-72650000D02*
X129150000Y-72650000D01*
X129150000Y-72650000D02*
X129160000Y-72660000D01*
D40*
X125730000Y-71889000D02*
X126279000Y-71889000D01*
X126279000Y-71889000D02*
X126460000Y-72070000D01*
X121743146Y-74302249D02*
X121743146Y-74726513D01*
X121743146Y-74726513D02*
X122084622Y-75067989D01*
X122084622Y-75067989D02*
X123242011Y-75067989D01*
X120290000Y-74260000D02*
X120332249Y-74302249D01*
X120332249Y-74302249D02*
X121743146Y-74302249D01*
D35*
X122946880Y-77719383D02*
X122946880Y-78873120D01*
X122946880Y-78873120D02*
X122920000Y-78900000D01*
X124670000Y-82340000D02*
X124670000Y-81690000D01*
X124670000Y-81690000D02*
X125254000Y-81106000D01*
X125254000Y-81106000D02*
X125456000Y-81106000D01*
X124670000Y-82340000D02*
X123060000Y-82340000D01*
X123060000Y-82340000D02*
X122920000Y-82200000D01*
D38*
X122920000Y-80000000D02*
X122920000Y-81100000D01*
X122920000Y-78900000D02*
X122920000Y-80000000D01*
D39*
X171275000Y-81250000D02*
X171275000Y-80925000D01*
X171275000Y-80925000D02*
X169350000Y-79000000D01*
X169350000Y-79000000D02*
X169000000Y-79000000D01*
D35*
X142345764Y-85574988D02*
X142195740Y-85725012D01*
X143870000Y-84601506D02*
X142896518Y-85574988D01*
X143870000Y-83230000D02*
X143870000Y-84601506D01*
X142896518Y-85574988D02*
X142345764Y-85574988D01*
D39*
X132000000Y-72870000D02*
X132299999Y-73169999D01*
X132299999Y-73169999D02*
X132544997Y-73169999D01*
X132544997Y-73169999D02*
X132650000Y-73064996D01*
D40*
X120700998Y-70440000D02*
X122399998Y-70440000D01*
X122399998Y-70440000D02*
X122574999Y-70615001D01*
X120290000Y-74260000D02*
X120290000Y-70850998D01*
X120290000Y-70850998D02*
X120700998Y-70440000D01*
X123390000Y-74920000D02*
X123242011Y-75067989D01*
X123390000Y-73784000D02*
X123390000Y-74920000D01*
X123380000Y-73439000D02*
X123380000Y-73774000D01*
X123380000Y-73774000D02*
X123390000Y-73784000D01*
X125380000Y-70739000D02*
X125380000Y-70404000D01*
X125380000Y-70404000D02*
X125259999Y-70283999D01*
X125259999Y-70283999D02*
X122906001Y-70283999D01*
X122906001Y-70283999D02*
X122574999Y-70615001D01*
X122574999Y-70615001D02*
X122574999Y-71368999D01*
X122574999Y-71368999D02*
X122695000Y-71489000D01*
X122695000Y-71489000D02*
X123030000Y-71489000D01*
X125380000Y-70739000D02*
X125380000Y-70669000D01*
D35*
X126722000Y-81106000D02*
X125456000Y-81106000D01*
X131704999Y-81334999D02*
X131010000Y-81334999D01*
X131010000Y-81334999D02*
X130695001Y-81334999D01*
X131010000Y-80100000D02*
X131010000Y-80725000D01*
X131010000Y-80725000D02*
X131010000Y-81334999D01*
X131000000Y-78500000D02*
X131000000Y-80090000D01*
X131000000Y-80090000D02*
X131010000Y-80100000D01*
X132280000Y-82560000D02*
X132280000Y-81910000D01*
X132280000Y-81910000D02*
X131704999Y-81334999D01*
X130695001Y-81334999D02*
X130170000Y-81860000D01*
X130170000Y-81860000D02*
X130170000Y-81960000D01*
X139975000Y-71100000D02*
X140000000Y-71100000D01*
X129204427Y-77435571D02*
X130290165Y-77435571D01*
X130290165Y-77435571D02*
X130425736Y-77300000D01*
X126722000Y-81106000D02*
X126874400Y-81106000D01*
X126874400Y-81106000D02*
X128000000Y-79980400D01*
X128000000Y-79980400D02*
X128000000Y-79121348D01*
X128000000Y-79121348D02*
X128063010Y-79058338D01*
X128063010Y-79058338D02*
X128063010Y-78576988D01*
X128063010Y-78576988D02*
X129204427Y-77435571D01*
X130425736Y-77300000D02*
X130850000Y-77300000D01*
X131000000Y-78500000D02*
X131000000Y-78620000D01*
X132650000Y-74155736D02*
X132650000Y-74580000D01*
X134464996Y-71250000D02*
X132650000Y-73064996D01*
X135250000Y-71250000D02*
X134464996Y-71250000D01*
X132650000Y-73064996D02*
X132650000Y-74155736D01*
X133820000Y-76740000D02*
X133820000Y-76770000D01*
X133820000Y-76770000D02*
X134500000Y-77450000D01*
X135250000Y-71250000D02*
X136750000Y-71250000D01*
X135349592Y-77750011D02*
X134800011Y-77750011D01*
X135842614Y-78243033D02*
X135349592Y-77750011D01*
X134800011Y-77750011D02*
X134500000Y-77450000D01*
X143870000Y-84850000D02*
X143870000Y-83230000D01*
X130850000Y-77300000D02*
X130850000Y-78350000D01*
X130850000Y-78350000D02*
X131000000Y-78500000D01*
X149670000Y-76340000D02*
X148340000Y-76340000D01*
X148340000Y-76340000D02*
X148100000Y-76100000D01*
X149670000Y-76340000D02*
X149670000Y-74810000D01*
D38*
X148100000Y-77310000D02*
X148100000Y-76780000D01*
X148100000Y-76780000D02*
X148100000Y-76100000D01*
D35*
X148360001Y-77040001D02*
X148100000Y-76780000D01*
X148462500Y-80040000D02*
X148462500Y-81240000D01*
X148462500Y-80040000D02*
X147637500Y-80040000D01*
X147637500Y-81240000D02*
X147637500Y-80040000D01*
X148462500Y-81240000D02*
X147637500Y-81240000D01*
X147796000Y-82140000D02*
X147796000Y-81398500D01*
X147796000Y-81398500D02*
X147637500Y-81240000D01*
X148300000Y-82140000D02*
X148300000Y-81402500D01*
X148300000Y-81402500D02*
X148462500Y-81240000D01*
X148300000Y-79140000D02*
X148300000Y-79877500D01*
X148300000Y-79877500D02*
X148462500Y-80040000D01*
X147800000Y-79140000D02*
X147800000Y-79877500D01*
X147800000Y-79877500D02*
X147637500Y-80040000D01*
X146500000Y-81140000D02*
X147537500Y-81140000D01*
X147537500Y-81140000D02*
X147637500Y-81240000D01*
D38*
X148210000Y-77420000D02*
X148100000Y-77310000D01*
X148210000Y-77920000D02*
X148210000Y-77420000D01*
X148100000Y-71900000D02*
X148100000Y-74000000D01*
X148100000Y-71900000D02*
X148100000Y-76100000D01*
X150190000Y-73000000D02*
X149100000Y-73000000D01*
X149100000Y-73000000D02*
X148100000Y-74000000D01*
D35*
X149600000Y-80140000D02*
X148562500Y-80140000D01*
X148562500Y-80140000D02*
X148462500Y-80040000D01*
X148100000Y-83600000D02*
X148100000Y-81602500D01*
X148100000Y-81602500D02*
X148462500Y-81240000D01*
X148210000Y-77920000D02*
X148210000Y-79787500D01*
X148210000Y-79787500D02*
X148462500Y-80040000D01*
X148020000Y-78110000D02*
X148210000Y-77920000D01*
D41*
X113320000Y-78900000D02*
X113320000Y-71650000D01*
D38*
X113320000Y-71650000D02*
X112950000Y-71280000D01*
D35*
X128488798Y-85294628D02*
X128188799Y-84994629D01*
X129590000Y-86650000D02*
X128488798Y-85548798D01*
X129302376Y-88750000D02*
X129772397Y-88279979D01*
X130842416Y-88750000D02*
X130372395Y-88279979D01*
X128488798Y-85548798D02*
X128488798Y-85294628D01*
X130372395Y-88279979D02*
X130072396Y-87979980D01*
D39*
X129590000Y-86650000D02*
X129521107Y-86650000D01*
D35*
X129772397Y-88279979D02*
X130072396Y-87979980D01*
X126925000Y-88750000D02*
X129302376Y-88750000D01*
D39*
X129521107Y-86650000D02*
X129358139Y-86812968D01*
D35*
X132075000Y-88750000D02*
X130842416Y-88750000D01*
D39*
X129358139Y-86812968D02*
X129058140Y-87112967D01*
D38*
X153000000Y-73000000D02*
X151000000Y-73000000D01*
X151000000Y-73000000D02*
X150190000Y-73000000D01*
X153000000Y-87000000D02*
X158010000Y-87000000D01*
X158010000Y-87000000D02*
X166089998Y-87000000D01*
X158075000Y-83300000D02*
X158075000Y-86935000D01*
X158075000Y-86935000D02*
X158010000Y-87000000D01*
X166089998Y-87000000D02*
X168089998Y-85000000D01*
X168089998Y-85000000D02*
X169000000Y-85000000D01*
D39*
X128620000Y-74150000D02*
X129150000Y-74150000D01*
X128070000Y-74150000D02*
X128620000Y-74150000D01*
X128620000Y-74150000D02*
X128620000Y-75190000D01*
X128620000Y-75190000D02*
X128610000Y-75200000D01*
X129150000Y-74150000D02*
X129160000Y-74160000D01*
D40*
X125829002Y-73774000D02*
X125826000Y-73774000D01*
X125826000Y-73774000D02*
X125170000Y-74430000D01*
X126065000Y-72689000D02*
X125730000Y-72689000D01*
X126289989Y-72913989D02*
X126065000Y-72689000D01*
X126289989Y-73313013D02*
X126289989Y-72913989D01*
X125829002Y-73774000D02*
X126289989Y-73313013D01*
X125645000Y-73774000D02*
X125829002Y-73774000D01*
X125380000Y-73509000D02*
X125645000Y-73774000D01*
X125380000Y-73439000D02*
X125380000Y-73509000D01*
D39*
X177766700Y-83164840D02*
X177766700Y-84226840D01*
X177766700Y-84226840D02*
X176663540Y-85330000D01*
X177766700Y-76840240D02*
X177766700Y-76386700D01*
X177766700Y-76386700D02*
X176420000Y-75040000D01*
D37*
X107519300Y-81658940D02*
X107533575Y-81644665D01*
X107519300Y-83159760D02*
X107519300Y-81658940D01*
X107519300Y-76835160D02*
X107519300Y-76442935D01*
X107519300Y-76442935D02*
X106173756Y-75097391D01*
X106173756Y-75097391D02*
X106123393Y-75097391D01*
X107519300Y-78155299D02*
X107533575Y-78169574D01*
X107519300Y-76835160D02*
X107519300Y-78155299D01*
X107519300Y-76835160D02*
X107519300Y-76650700D01*
X107519300Y-76650700D02*
X109140000Y-75030000D01*
X107519300Y-83159760D02*
X107519300Y-83190700D01*
X107519300Y-83190700D02*
X106200000Y-84510000D01*
X107519300Y-83159760D02*
X107649760Y-83159760D01*
X107649760Y-83159760D02*
X108890000Y-84400000D01*
X115020000Y-81110000D02*
X113330000Y-81110000D01*
X113330000Y-81110000D02*
X113320000Y-81100000D01*
X113320000Y-78900000D02*
X115050000Y-78900000D01*
X113320000Y-81100000D02*
X112335002Y-81100000D01*
X112335002Y-81100000D02*
X111940000Y-81495002D01*
D38*
X112770130Y-78799990D02*
X110805300Y-76835160D01*
X113420010Y-78799990D02*
X112770130Y-78799990D01*
X110805300Y-76835160D02*
X107519300Y-76835160D01*
D35*
X124770000Y-84990000D02*
X124770000Y-87000000D01*
X124770000Y-87000000D02*
X124070000Y-87700000D01*
X124070000Y-87700000D02*
X122920000Y-87700000D01*
X124670000Y-83840000D02*
X124670000Y-84890000D01*
X124670000Y-84890000D02*
X124770000Y-84990000D01*
D37*
X110620000Y-86710000D02*
X109745000Y-86710000D01*
X109745000Y-86710000D02*
X108277540Y-85242540D01*
X108277540Y-85242540D02*
X108277540Y-85180000D01*
X107519300Y-83159760D02*
X107519300Y-84421760D01*
X107519300Y-84421760D02*
X108277540Y-85180000D01*
D39*
X171275000Y-82750000D02*
X171275000Y-83450000D01*
X171275000Y-83450000D02*
X169725000Y-85000000D01*
X169725000Y-85000000D02*
X169000000Y-85000000D01*
D35*
X168650000Y-85000000D02*
X167250000Y-86400000D01*
X142370000Y-83230000D02*
X142370000Y-82695000D01*
X142370000Y-82695000D02*
X142200000Y-82525000D01*
X136500000Y-88800000D02*
X137475000Y-88800000D01*
X137475000Y-88800000D02*
X138625000Y-88800000D01*
D39*
X137550002Y-85638944D02*
X137550002Y-86063208D01*
X137550002Y-86063208D02*
X137475000Y-86138210D01*
X137475000Y-86138210D02*
X137475000Y-88800000D01*
D40*
X121950000Y-71310000D02*
X121110000Y-71310000D01*
X121110000Y-71310000D02*
X121060000Y-71360000D01*
X123030000Y-72689000D02*
X122421000Y-72689000D01*
X122421000Y-72689000D02*
X122160000Y-72950000D01*
X123030000Y-71889000D02*
X121589000Y-71889000D01*
X121589000Y-71889000D02*
X121060000Y-71360000D01*
D35*
X130170000Y-86070000D02*
X129590000Y-86650000D01*
X169000000Y-85000000D02*
X168650000Y-85000000D01*
X130845002Y-86070000D02*
X132280000Y-84635002D01*
X132280000Y-84635002D02*
X132280000Y-84060000D01*
X130170000Y-86070000D02*
X130845002Y-86070000D01*
X130170000Y-85210000D02*
X130170000Y-86070000D01*
X130170000Y-84660000D02*
X130170000Y-85210000D01*
X130170000Y-84760000D02*
X130170000Y-84660000D01*
X141620000Y-73100000D02*
X141300000Y-73100000D01*
X141300000Y-73100000D02*
X140810000Y-72610000D01*
X139990000Y-73100000D02*
X140320000Y-73100000D01*
X140320000Y-73100000D02*
X140810000Y-72610000D01*
X132655000Y-79585000D02*
X132660000Y-79590000D01*
D37*
X124762000Y-84998000D02*
X124770000Y-84990000D01*
D35*
X135250000Y-72750000D02*
X133890000Y-72750000D01*
X135560660Y-75619340D02*
X136030000Y-75150000D01*
X135560660Y-76389340D02*
X135560660Y-75619340D01*
X135250000Y-72750000D02*
X136750000Y-72750000D01*
X136549720Y-77535926D02*
X135560660Y-76546866D01*
X135560660Y-76546866D02*
X135560660Y-76389340D01*
X133495096Y-79590000D02*
X133610065Y-79475031D01*
X132660000Y-79590000D02*
X133495096Y-79590000D01*
X131700000Y-88750000D02*
X132075000Y-88750000D01*
X132075000Y-88750000D02*
X133960000Y-88750000D01*
X133960000Y-88750000D02*
X134000000Y-88790000D01*
X134000000Y-88790000D02*
X136490000Y-88790000D01*
X136490000Y-88790000D02*
X136500000Y-88800000D01*
X138625000Y-88800000D02*
X138675000Y-88750000D01*
X143825000Y-88750000D02*
X138675000Y-88750000D01*
X138883173Y-81990699D02*
X139250328Y-82357854D01*
X139250328Y-82357854D02*
X139250328Y-82502876D01*
X139250328Y-82502876D02*
X139250328Y-82927140D01*
D40*
X121060000Y-72860000D02*
X121060000Y-72835000D01*
X121060000Y-72835000D02*
X121606000Y-72289000D01*
X121606000Y-72289000D02*
X122695000Y-72289000D01*
X122695000Y-72289000D02*
X123030000Y-72289000D01*
D35*
X138073590Y-74250000D02*
X138250000Y-74250000D01*
X137328591Y-74994999D02*
X138073590Y-74250000D01*
X137039999Y-74994999D02*
X137328591Y-74994999D01*
X136635002Y-75399996D02*
X137039999Y-74994999D01*
X136635002Y-75688587D02*
X136635002Y-75399996D01*
X136488619Y-75834970D02*
X136635002Y-75688587D01*
X136488619Y-76767718D02*
X136488619Y-75834970D01*
X136903274Y-77182373D02*
X136488619Y-76767718D01*
X138250000Y-72750000D02*
X138240000Y-72750000D01*
X138250000Y-71250000D02*
X138250000Y-72750000D01*
X140360001Y-83959999D02*
X141250002Y-84850000D01*
X141250002Y-84850000D02*
X141720000Y-84850000D01*
X141720000Y-84850000D02*
X142370000Y-84850000D01*
X138529619Y-83091799D02*
X139397819Y-83959999D01*
X139397819Y-83959999D02*
X140360001Y-83959999D01*
X138529619Y-82344252D02*
X138529619Y-83091799D01*
X138273463Y-75812184D02*
X138303905Y-75812184D01*
X137610381Y-76475266D02*
X138273463Y-75812184D01*
X134758601Y-78850011D02*
X132060009Y-78850011D01*
X132000000Y-77421466D02*
X132000000Y-76360000D01*
X132060009Y-78850011D02*
X131959999Y-78750001D01*
X135135507Y-78950140D02*
X134858730Y-78950140D01*
X131959999Y-77461467D02*
X132000000Y-77421466D01*
X131959999Y-78750001D02*
X131959999Y-77461467D01*
X134858730Y-78950140D02*
X134758601Y-78850011D01*
X130730000Y-73820000D02*
X130730000Y-71895000D01*
X130730000Y-71895000D02*
X129865000Y-71030000D01*
X129865000Y-71030000D02*
X129840000Y-71030000D01*
X132426745Y-75205002D02*
X132115002Y-75205002D01*
X133650000Y-78400000D02*
X133499999Y-78249999D01*
X134539966Y-78400000D02*
X133650000Y-78400000D01*
X133499999Y-77405001D02*
X133174999Y-77080001D01*
X135489060Y-78596586D02*
X135170863Y-78278389D01*
X133174999Y-77080001D02*
X133174999Y-75953256D01*
X135170863Y-78278389D02*
X134661577Y-78278389D01*
X133499999Y-78249999D02*
X133499999Y-77405001D01*
X133174999Y-75953256D02*
X132426745Y-75205002D01*
X134661577Y-78278389D02*
X134539966Y-78400000D01*
X131480569Y-74570569D02*
X130730000Y-73820000D01*
X132115002Y-75205002D02*
X131480569Y-74570569D01*
X136938630Y-76510622D02*
X136938630Y-76021370D01*
X136938630Y-76021370D02*
X137340000Y-75620000D01*
X137256827Y-76828819D02*
X136938630Y-76510622D01*
X141475000Y-71100000D02*
X140774999Y-71800001D01*
X139929997Y-71800001D02*
X139289999Y-72439999D01*
X139289999Y-74570003D02*
X138885001Y-74975001D01*
X141500000Y-71100000D02*
X141475000Y-71100000D01*
X137984999Y-74975001D02*
X137340000Y-75620000D01*
X140774999Y-71800001D02*
X139929997Y-71800001D01*
X139289999Y-72439999D02*
X139289999Y-74570003D01*
X138885001Y-74975001D02*
X137984999Y-74975001D01*
X141620000Y-74600000D02*
X141620000Y-74625000D01*
X141620000Y-74625000D02*
X143355000Y-76360000D01*
X143355000Y-76360000D02*
X143430000Y-76360000D01*
X139930000Y-75790000D02*
X140000000Y-75790000D01*
X140000000Y-75790000D02*
X140464999Y-75325001D01*
X140464999Y-75325001D02*
X140919999Y-75325001D01*
X138883173Y-76828819D02*
X139201370Y-76510622D01*
X139201370Y-76510622D02*
X139209378Y-76510622D01*
X139209378Y-76510622D02*
X139930000Y-75790000D01*
X140919999Y-75325001D02*
X141620000Y-74625000D01*
X141670000Y-74600000D02*
X141620000Y-74600000D01*
X138603906Y-76437185D02*
X138928906Y-76112185D01*
X138529619Y-76475266D02*
X138529619Y-76437185D01*
X138529619Y-76437185D02*
X138603906Y-76437185D01*
X138928906Y-75661094D02*
X139990000Y-74600000D01*
X138928906Y-76112185D02*
X138928906Y-75661094D01*
X139990000Y-74600000D02*
X139990000Y-74575000D01*
X140739999Y-73825001D02*
X142363533Y-73825001D01*
X142363533Y-73825001D02*
X142368534Y-73820000D01*
X142368534Y-73820000D02*
X143430000Y-73820000D01*
X139990000Y-74575000D02*
X140739999Y-73825001D01*
X133930000Y-73600000D02*
X135475000Y-73600000D01*
X134280001Y-76154999D02*
X134160001Y-76154999D01*
X133275002Y-74254998D02*
X133930000Y-73600000D01*
X133275002Y-75416848D02*
X133275002Y-74254998D01*
X133973153Y-76114999D02*
X133275002Y-75416848D01*
X135606688Y-77300000D02*
X135425002Y-77300000D01*
X135425002Y-77300000D02*
X134280001Y-76154999D01*
X135475000Y-73600000D02*
X136125000Y-74250000D01*
X136125000Y-74250000D02*
X136750000Y-74250000D01*
X134120001Y-76114999D02*
X133973153Y-76114999D01*
X136196167Y-77889479D02*
X135606688Y-77300000D01*
X134160001Y-76154999D02*
X134120001Y-76114999D01*
X134000000Y-84050000D02*
X134000000Y-85250000D01*
X133389989Y-82776400D02*
X134000000Y-83386411D01*
X133389989Y-81338119D02*
X133389989Y-82776400D01*
X134000000Y-83386411D02*
X134000000Y-84050000D01*
X134858730Y-79869378D02*
X133389989Y-81338119D01*
X135135507Y-79869378D02*
X134858730Y-79869378D01*
X134000000Y-87290000D02*
X134000000Y-85250000D01*
D39*
X136500000Y-85250000D02*
X136500000Y-87300000D01*
D35*
X135300000Y-84050000D02*
X135700000Y-84050000D01*
X135700000Y-84050000D02*
X136500000Y-84850000D01*
X136500000Y-84850000D02*
X136500000Y-85250000D01*
X133840000Y-81570000D02*
X133840000Y-82590000D01*
X133840000Y-82590000D02*
X135300000Y-84050000D01*
X134340000Y-81070000D02*
X133840000Y-81570000D01*
X134641992Y-81070000D02*
X134340000Y-81070000D01*
X135489060Y-80222932D02*
X134641992Y-81070000D01*
X150330000Y-80410000D02*
X150330000Y-78960000D01*
X149600000Y-82570000D02*
X149600000Y-81640000D01*
X149600000Y-83475000D02*
X149600000Y-82570000D01*
X146500000Y-81640000D02*
X146500000Y-83200000D01*
X146500000Y-83200000D02*
X146100000Y-83600000D01*
X150330000Y-80410000D02*
X151000000Y-79740000D01*
X150100000Y-80640000D02*
X150330000Y-80410000D01*
X150970000Y-85120000D02*
X150970000Y-84280000D01*
X150970000Y-84280000D02*
X151000000Y-84250000D01*
X149600000Y-80640000D02*
X150100000Y-80640000D01*
X149600000Y-83475000D02*
X150375000Y-84250000D01*
X150375000Y-84250000D02*
X151000000Y-84250000D01*
D37*
X146100000Y-85109999D02*
X146100000Y-88540000D01*
X146100000Y-88540000D02*
X145580000Y-89060000D01*
D35*
X146100000Y-83600000D02*
X146100000Y-85109999D01*
X146100000Y-85109999D02*
X145160000Y-86049999D01*
X143940000Y-81199820D02*
X145540010Y-81199820D01*
X145540010Y-81199820D02*
X145980190Y-81640000D01*
X145980190Y-81640000D02*
X146500000Y-81640000D01*
D39*
X142819999Y-86049999D02*
X145160000Y-86049999D01*
D38*
X117059999Y-88760001D02*
X116760000Y-89060000D01*
X117295009Y-88524991D02*
X117059999Y-88760001D01*
X117295009Y-74355009D02*
X117295009Y-88524991D01*
X116760000Y-73820000D02*
X117295009Y-74355009D01*
D39*
X139700000Y-84660000D02*
X139700000Y-85335000D01*
X139700000Y-85335000D02*
X141365000Y-87000000D01*
X141365000Y-87000000D02*
X141869998Y-87000000D01*
X141869998Y-87000000D02*
X142819999Y-86049999D01*
D35*
X136080000Y-82840000D02*
X136504264Y-82840000D01*
X136504264Y-82840000D02*
X136570634Y-82773630D01*
X136570634Y-82773630D02*
X136938630Y-82773630D01*
X137256827Y-81990699D02*
X136938630Y-82308896D01*
X136938630Y-82308896D02*
X136938630Y-82773630D01*
X136938630Y-82773630D02*
X138200000Y-84035000D01*
X138200000Y-84035000D02*
X138200000Y-84660000D01*
X141004493Y-78950140D02*
X142048898Y-79994545D01*
X142048898Y-79994545D02*
X142460919Y-79994545D01*
X129170000Y-84660000D02*
X129170000Y-85215707D01*
X129170000Y-85215707D02*
X129367227Y-85412934D01*
D40*
X126722000Y-75002400D02*
X126722000Y-76026000D01*
X127400013Y-74324387D02*
X126722000Y-75002400D01*
X127400013Y-71642477D02*
X127400013Y-74324387D01*
X126846536Y-71089000D02*
X127400013Y-71642477D01*
X125730000Y-71089000D02*
X126846536Y-71089000D01*
X126722000Y-76026000D02*
X126874400Y-76026000D01*
D35*
X113320000Y-85500000D02*
X115430000Y-85500000D01*
X115430000Y-85500000D02*
X115460000Y-85470000D01*
X125362556Y-77233044D02*
X125125020Y-77233044D01*
X126569600Y-76026000D02*
X125362556Y-77233044D01*
X126722000Y-76026000D02*
X126569600Y-76026000D01*
X129510000Y-80100000D02*
X129510000Y-80850000D01*
X129510000Y-80850000D02*
X129700000Y-81040000D01*
X116040000Y-86600000D02*
X116200000Y-86440000D01*
X116200000Y-86440000D02*
X116200000Y-80710000D01*
X114470000Y-86600000D02*
X116040000Y-86600000D01*
D40*
X126737404Y-71489000D02*
X127040002Y-71791598D01*
X125730000Y-71489000D02*
X126737404Y-71489000D01*
X124886002Y-75773998D02*
X124500000Y-75773998D01*
X127040002Y-73619998D02*
X124886002Y-75773998D01*
X127040002Y-71791598D02*
X127040002Y-73619998D01*
D35*
X114470000Y-86600000D02*
X113320000Y-86600000D01*
X121173443Y-77050537D02*
X121173443Y-80681561D01*
X122449982Y-75773998D02*
X121173443Y-77050537D01*
X124500000Y-75773998D02*
X122449982Y-75773998D01*
X124500000Y-77650000D02*
X124500000Y-75773998D01*
X125430000Y-78580000D02*
X124500000Y-77650000D01*
X126555600Y-78580000D02*
X125430000Y-78580000D01*
X128720000Y-81960000D02*
X129170000Y-81960000D01*
X140650940Y-78596586D02*
X140958272Y-78289254D01*
X129500000Y-78500000D02*
X129475000Y-78500000D01*
X126569600Y-78566000D02*
X126555600Y-78580000D01*
X140958272Y-78289254D02*
X141989254Y-78289254D01*
X129475000Y-78500000D02*
X128763896Y-79211104D01*
X126722000Y-78566000D02*
X126569600Y-78566000D01*
X128669074Y-81909074D02*
X128720000Y-81960000D01*
X128763896Y-79211104D02*
X128669074Y-79211104D01*
X128669074Y-79211104D02*
X128669074Y-81909074D01*
X151170000Y-74810000D02*
X151170000Y-74185000D01*
X151170000Y-74185000D02*
X151365000Y-73990000D01*
X151365000Y-73990000D02*
X155220000Y-73990000D01*
X151000000Y-81240000D02*
X151000000Y-81265000D01*
X151725000Y-81990000D02*
X155540000Y-81990000D01*
X155800000Y-78240000D02*
X155800000Y-74570000D01*
X151000000Y-81265000D02*
X151725000Y-81990000D01*
X156090000Y-78530000D02*
X155800000Y-78240000D01*
X155540000Y-81990000D02*
X156090000Y-81440000D01*
X156090000Y-81440000D02*
X156090000Y-78530000D01*
X155800000Y-74570000D02*
X155220000Y-73990000D01*
X149600000Y-81140000D02*
X150900000Y-81140000D01*
X150900000Y-81140000D02*
X151000000Y-81240000D01*
X151000000Y-81240000D02*
X151000000Y-82750000D01*
D37*
X110770000Y-82010000D02*
X110770000Y-81428000D01*
D36*
X110620000Y-83860000D02*
X110620000Y-85210000D01*
X110620000Y-83860000D02*
X110770000Y-83710000D01*
X110770000Y-83710000D02*
X110770000Y-82010000D01*
D37*
X111770000Y-85190000D02*
X110640000Y-85190000D01*
X110640000Y-85190000D02*
X110620000Y-85210000D01*
X111770000Y-83690000D02*
X112160000Y-83300000D01*
X112160000Y-83300000D02*
X113320000Y-83300000D01*
D35*
X153000000Y-75000000D02*
X154753861Y-75000000D01*
X154753861Y-75000000D02*
X154874981Y-75121120D01*
X154874981Y-75121120D02*
X155174980Y-75421119D01*
X140922167Y-76676747D02*
X141397726Y-76201188D01*
X140449459Y-76676747D02*
X140922167Y-76676747D01*
X141397726Y-76201188D02*
X141543791Y-76201188D01*
X139590280Y-77535926D02*
X140449459Y-76676747D01*
X153000000Y-77000000D02*
X155031169Y-77000000D01*
X155031169Y-77000000D02*
X155174980Y-77143811D01*
X141985736Y-77574980D02*
X142410000Y-77574980D01*
X140915417Y-77625002D02*
X141935714Y-77625002D01*
X141935714Y-77625002D02*
X141985736Y-77574980D01*
X140297386Y-78243033D02*
X140915417Y-77625002D01*
X153000000Y-79000000D02*
X155400000Y-79000000D01*
X155400000Y-79000000D02*
X155406955Y-79006955D01*
X139943833Y-77889479D02*
X140706554Y-77126758D01*
X141373242Y-77126758D02*
X141500000Y-77000000D01*
X140706554Y-77126758D02*
X141373242Y-77126758D01*
X155400000Y-80900000D02*
X153100000Y-80900000D01*
X153100000Y-80900000D02*
X153000000Y-81000000D01*
X140374665Y-76051746D02*
X140622166Y-76051746D01*
X139562235Y-76864176D02*
X140374665Y-76051746D01*
X139554923Y-76864176D02*
X139562235Y-76864176D01*
X139236726Y-77182373D02*
X139554923Y-76864176D01*
X140650940Y-80222932D02*
X141883026Y-81455018D01*
X141883026Y-81455018D02*
X142089978Y-81455018D01*
X153000000Y-83000000D02*
X155273445Y-83000000D01*
X155273445Y-83000000D02*
X155308465Y-82964980D01*
X141289873Y-84045412D02*
X141714137Y-84045412D01*
X141081825Y-84045412D02*
X141289873Y-84045412D01*
X139590280Y-81283592D02*
X140325461Y-82018773D01*
X140325461Y-82018773D02*
X140325461Y-82758589D01*
X140325461Y-82758589D02*
X140680650Y-83113779D01*
X140680650Y-83113779D02*
X140680650Y-83644237D01*
X140680650Y-83644237D02*
X141081825Y-84045412D01*
X171710000Y-76920000D02*
X169080000Y-76920000D01*
X169080000Y-76920000D02*
X169000000Y-77000000D01*
X141797260Y-80662145D02*
X141983340Y-80662145D01*
X141004493Y-79869378D02*
X141797260Y-80662145D01*
X171700000Y-75000000D02*
X169000000Y-75000000D01*
D39*
X171675000Y-72975000D02*
X169025000Y-72975000D01*
X169025000Y-72975000D02*
X169000000Y-73000000D01*
X136903274Y-81637145D02*
X136463619Y-82076800D01*
X136463619Y-82076800D02*
X136004402Y-82076800D01*
X136004402Y-82076800D02*
X135862022Y-82219180D01*
X135049264Y-82050000D02*
X134625000Y-82050000D01*
X135218444Y-82219180D02*
X135049264Y-82050000D01*
X135862022Y-82219180D02*
X135218444Y-82219180D01*
D35*
X136549720Y-81283592D02*
X136231523Y-81601789D01*
X136231523Y-81601789D02*
X135640196Y-81601789D01*
X135640196Y-81601789D02*
X135600020Y-81561613D01*
X122700000Y-74300000D02*
X122700000Y-73419000D01*
X122700000Y-73419000D02*
X122954999Y-73164001D01*
X120160000Y-87055736D02*
X120160000Y-87480000D01*
X121715736Y-85500000D02*
X120160000Y-87055736D01*
X122920000Y-85500000D02*
X121715736Y-85500000D01*
X141305671Y-83102389D02*
X141305671Y-83223417D01*
X139943833Y-80930039D02*
X140775469Y-81761675D01*
X140775469Y-81761675D02*
X140775470Y-82572188D01*
X140775470Y-82572188D02*
X141305671Y-83102389D01*
X122920000Y-86600000D02*
X121509023Y-86600000D01*
X121509023Y-86600000D02*
X121254043Y-86854980D01*
X141400472Y-81679571D02*
X141400472Y-81847922D01*
X140297386Y-80576485D02*
X141400472Y-81679571D01*
X141400472Y-81847922D02*
X141400472Y-82272186D01*
D39*
X143825000Y-86750000D02*
X143450000Y-86750000D01*
X143450000Y-86750000D02*
X142590000Y-87610000D01*
X142590000Y-87610000D02*
X139910000Y-87610000D01*
X139910000Y-87610000D02*
X139050000Y-86750000D01*
X139050000Y-86750000D02*
X138675000Y-86750000D01*
D35*
X138675000Y-86150000D02*
X138675000Y-86750000D01*
X138974999Y-85850001D02*
X138675000Y-86150000D01*
X138974999Y-84173590D02*
X138974999Y-85850001D01*
X137610381Y-82808972D02*
X138974999Y-84173590D01*
X137610381Y-82344252D02*
X137610381Y-82808972D01*
D39*
X130340374Y-86750000D02*
X131050000Y-86750000D01*
X129172395Y-87917979D02*
X130340374Y-86750000D01*
X127300000Y-86750000D02*
X128467979Y-87917979D01*
X126925000Y-86750000D02*
X127300000Y-86750000D01*
X131050000Y-86750000D02*
X132075000Y-86750000D01*
X128467979Y-87917979D02*
X129172395Y-87917979D01*
D35*
X132454379Y-85341960D02*
X132754378Y-85041961D01*
X132075000Y-86750000D02*
X132075000Y-85721339D01*
X132075000Y-85721339D02*
X132454379Y-85341960D01*
X139236726Y-81637145D02*
X139875348Y-82275767D01*
X139875348Y-82275767D02*
X139875348Y-83192389D01*
X139875348Y-83192389D02*
X140017956Y-83334997D01*
X146500000Y-79640000D02*
X146500000Y-78130000D01*
X146500000Y-78130000D02*
X146710000Y-77920000D01*
X143940000Y-79000180D02*
X143940000Y-79750560D01*
X143940000Y-79750560D02*
X144563879Y-80374439D01*
X144563879Y-80374439D02*
X145550011Y-80374439D01*
X145550011Y-80374439D02*
X145815572Y-80640000D01*
X145815572Y-80640000D02*
X146500000Y-80640000D01*
X143910000Y-78840180D02*
X144125180Y-78840180D01*
X149670000Y-77900000D02*
X149670000Y-77840000D01*
X149670000Y-77840000D02*
X151170000Y-76340000D01*
X149600000Y-79640000D02*
X149600000Y-77970000D01*
X149600000Y-77970000D02*
X149670000Y-77900000D01*
D36*
X173290000Y-85620000D02*
X171910000Y-87000000D01*
X171910000Y-87000000D02*
X169000000Y-87000000D01*
X173290000Y-81874190D02*
X173290000Y-85620000D01*
X177500000Y-80000000D02*
X175164190Y-80000000D01*
X175164190Y-80000000D02*
X173290000Y-81874190D01*
D39*
X179786000Y-80000000D02*
X177500000Y-80000000D01*
D42*
G36*
X151242243Y-71493402D02*
X151405948Y-71889597D01*
X151708809Y-72192987D01*
X152104718Y-72357383D01*
X152533402Y-72357757D01*
X152929597Y-72194052D01*
X153232987Y-71891191D01*
X153247184Y-71857000D01*
X153501000Y-71857000D01*
X155182001Y-73538000D01*
X151365000Y-73538000D01*
X151192027Y-73572406D01*
X151045388Y-73670387D01*
X150850388Y-73865388D01*
X150752406Y-74012027D01*
X150733132Y-74108928D01*
X150642411Y-74126973D01*
X150534246Y-74199246D01*
X150461973Y-74307411D01*
X150436594Y-74435000D01*
X150436594Y-75185000D01*
X150461973Y-75312589D01*
X150534246Y-75420754D01*
X150642411Y-75493027D01*
X150770000Y-75518406D01*
X151570000Y-75518406D01*
X151666594Y-75499192D01*
X151666594Y-75650000D01*
X151666761Y-75650841D01*
X151570000Y-75631594D01*
X150770000Y-75631594D01*
X150642411Y-75656973D01*
X150534246Y-75729246D01*
X150461973Y-75837411D01*
X150436594Y-75965000D01*
X150436594Y-76434181D01*
X149679182Y-77191594D01*
X149270000Y-77191594D01*
X149142411Y-77216973D01*
X149034246Y-77289246D01*
X148961973Y-77397411D01*
X148936594Y-77525000D01*
X148936594Y-78275000D01*
X148961973Y-78402589D01*
X149034246Y-78510754D01*
X149142411Y-78583027D01*
X149148000Y-78584139D01*
X149148000Y-79181856D01*
X149147411Y-79181973D01*
X149039246Y-79254246D01*
X148966973Y-79362411D01*
X148941594Y-79490000D01*
X148941594Y-79790000D01*
X148966973Y-79917589D01*
X149039246Y-80025754D01*
X149147411Y-80098027D01*
X149275000Y-80123406D01*
X149878000Y-80123406D01*
X149878000Y-80156594D01*
X149275000Y-80156594D01*
X149147411Y-80181973D01*
X149039246Y-80254246D01*
X148966973Y-80362411D01*
X148941594Y-80490000D01*
X148941594Y-80790000D01*
X148961485Y-80890000D01*
X148941594Y-80990000D01*
X148941594Y-81290000D01*
X148961485Y-81390000D01*
X148941594Y-81490000D01*
X148941594Y-81790000D01*
X148966973Y-81917589D01*
X149039246Y-82025754D01*
X149147411Y-82098027D01*
X149148000Y-82098144D01*
X149148000Y-82135272D01*
X149068765Y-82214369D01*
X148973109Y-82444735D01*
X148972891Y-82694171D01*
X149068145Y-82924703D01*
X149148000Y-83004698D01*
X149148000Y-83475000D01*
X149182406Y-83647973D01*
X149280388Y-83794612D01*
X150055388Y-84569613D01*
X150202027Y-84667594D01*
X150298928Y-84686868D01*
X150316973Y-84777589D01*
X150388701Y-84884938D01*
X150343109Y-84994735D01*
X150342891Y-85244171D01*
X150438145Y-85474703D01*
X150614369Y-85651235D01*
X150844735Y-85746891D01*
X151094171Y-85747109D01*
X151324703Y-85651855D01*
X151501235Y-85475631D01*
X151596891Y-85245265D01*
X151597109Y-84995829D01*
X151564419Y-84916714D01*
X151610754Y-84885754D01*
X151666594Y-84802183D01*
X151666594Y-85650000D01*
X151691973Y-85777589D01*
X151764246Y-85885754D01*
X151872411Y-85958027D01*
X152000000Y-85983406D01*
X154000000Y-85983406D01*
X154127589Y-85958027D01*
X154235754Y-85885754D01*
X154308027Y-85777589D01*
X154333406Y-85650000D01*
X154333406Y-84350000D01*
X154308027Y-84222411D01*
X154235754Y-84114246D01*
X154127589Y-84041973D01*
X154000000Y-84016594D01*
X152000000Y-84016594D01*
X151872411Y-84041973D01*
X151764246Y-84114246D01*
X151708406Y-84197817D01*
X151708406Y-83850000D01*
X151694863Y-83781914D01*
X151764246Y-83885754D01*
X151872411Y-83958027D01*
X152000000Y-83983406D01*
X154000000Y-83983406D01*
X154127589Y-83958027D01*
X154235754Y-83885754D01*
X154308027Y-83777589D01*
X154333406Y-83650000D01*
X154333406Y-83452000D01*
X154908696Y-83452000D01*
X154952834Y-83496215D01*
X155183200Y-83591871D01*
X155432636Y-83592089D01*
X155663168Y-83496835D01*
X155839700Y-83320611D01*
X155935356Y-83090245D01*
X155935574Y-82840809D01*
X155840320Y-82610277D01*
X155664096Y-82433745D01*
X155637345Y-82422637D01*
X155712973Y-82407594D01*
X155859612Y-82309612D01*
X156409612Y-81759613D01*
X156427654Y-81732611D01*
X156427654Y-85340252D01*
X156348419Y-85419349D01*
X156252763Y-85649715D01*
X156252545Y-85899151D01*
X156347799Y-86129683D01*
X156524023Y-86306215D01*
X156754389Y-86401871D01*
X157003825Y-86402089D01*
X157234357Y-86306835D01*
X157410889Y-86130611D01*
X157506545Y-85900245D01*
X157506763Y-85650809D01*
X157411509Y-85420277D01*
X157331654Y-85340282D01*
X157331654Y-79069254D01*
X157582012Y-79319612D01*
X157728651Y-79417594D01*
X157901624Y-79452000D01*
X166873000Y-79452000D01*
X166873000Y-89598000D01*
X147127000Y-89598000D01*
X147127000Y-81926609D01*
X147133027Y-81917589D01*
X147158406Y-81790000D01*
X147158406Y-81490000D01*
X147133027Y-81362411D01*
X147127000Y-81353391D01*
X147127000Y-80926609D01*
X147133027Y-80917589D01*
X147158406Y-80790000D01*
X147158406Y-80490000D01*
X147138515Y-80390000D01*
X147158406Y-80290000D01*
X147158406Y-79990000D01*
X147138515Y-79890000D01*
X147158406Y-79790000D01*
X147158406Y-79490000D01*
X147133027Y-79362411D01*
X147127000Y-79353391D01*
X147127000Y-78625024D01*
X147237589Y-78603027D01*
X147345754Y-78530754D01*
X147418027Y-78422589D01*
X147443406Y-78295000D01*
X147443406Y-77545000D01*
X147418027Y-77417411D01*
X147345754Y-77309246D01*
X147237589Y-77236973D01*
X147127000Y-77214976D01*
X147127000Y-71564002D01*
X147584570Y-71106431D01*
X151242581Y-71106431D01*
X151242243Y-71493402D01*
X151242243Y-71493402D01*
G37*
X151242243Y-71493402D02*
X151405948Y-71889597D01*
X151708809Y-72192987D01*
X152104718Y-72357383D01*
X152533402Y-72357757D01*
X152929597Y-72194052D01*
X153232987Y-71891191D01*
X153247184Y-71857000D01*
X153501000Y-71857000D01*
X155182001Y-73538000D01*
X151365000Y-73538000D01*
X151192027Y-73572406D01*
X151045388Y-73670387D01*
X150850388Y-73865388D01*
X150752406Y-74012027D01*
X150733132Y-74108928D01*
X150642411Y-74126973D01*
X150534246Y-74199246D01*
X150461973Y-74307411D01*
X150436594Y-74435000D01*
X150436594Y-75185000D01*
X150461973Y-75312589D01*
X150534246Y-75420754D01*
X150642411Y-75493027D01*
X150770000Y-75518406D01*
X151570000Y-75518406D01*
X151666594Y-75499192D01*
X151666594Y-75650000D01*
X151666761Y-75650841D01*
X151570000Y-75631594D01*
X150770000Y-75631594D01*
X150642411Y-75656973D01*
X150534246Y-75729246D01*
X150461973Y-75837411D01*
X150436594Y-75965000D01*
X150436594Y-76434181D01*
X149679182Y-77191594D01*
X149270000Y-77191594D01*
X149142411Y-77216973D01*
X149034246Y-77289246D01*
X148961973Y-77397411D01*
X148936594Y-77525000D01*
X148936594Y-78275000D01*
X148961973Y-78402589D01*
X149034246Y-78510754D01*
X149142411Y-78583027D01*
X149148000Y-78584139D01*
X149148000Y-79181856D01*
X149147411Y-79181973D01*
X149039246Y-79254246D01*
X148966973Y-79362411D01*
X148941594Y-79490000D01*
X148941594Y-79790000D01*
X148966973Y-79917589D01*
X149039246Y-80025754D01*
X149147411Y-80098027D01*
X149275000Y-80123406D01*
X149878000Y-80123406D01*
X149878000Y-80156594D01*
X149275000Y-80156594D01*
X149147411Y-80181973D01*
X149039246Y-80254246D01*
X148966973Y-80362411D01*
X148941594Y-80490000D01*
X148941594Y-80790000D01*
X148961485Y-80890000D01*
X148941594Y-80990000D01*
X148941594Y-81290000D01*
X148961485Y-81390000D01*
X148941594Y-81490000D01*
X148941594Y-81790000D01*
X148966973Y-81917589D01*
X149039246Y-82025754D01*
X149147411Y-82098027D01*
X149148000Y-82098144D01*
X149148000Y-82135272D01*
X149068765Y-82214369D01*
X148973109Y-82444735D01*
X148972891Y-82694171D01*
X149068145Y-82924703D01*
X149148000Y-83004698D01*
X149148000Y-83475000D01*
X149182406Y-83647973D01*
X149280388Y-83794612D01*
X150055388Y-84569613D01*
X150202027Y-84667594D01*
X150298928Y-84686868D01*
X150316973Y-84777589D01*
X150388701Y-84884938D01*
X150343109Y-84994735D01*
X150342891Y-85244171D01*
X150438145Y-85474703D01*
X150614369Y-85651235D01*
X150844735Y-85746891D01*
X151094171Y-85747109D01*
X151324703Y-85651855D01*
X151501235Y-85475631D01*
X151596891Y-85245265D01*
X151597109Y-84995829D01*
X151564419Y-84916714D01*
X151610754Y-84885754D01*
X151666594Y-84802183D01*
X151666594Y-85650000D01*
X151691973Y-85777589D01*
X151764246Y-85885754D01*
X151872411Y-85958027D01*
X152000000Y-85983406D01*
X154000000Y-85983406D01*
X154127589Y-85958027D01*
X154235754Y-85885754D01*
X154308027Y-85777589D01*
X154333406Y-85650000D01*
X154333406Y-84350000D01*
X154308027Y-84222411D01*
X154235754Y-84114246D01*
X154127589Y-84041973D01*
X154000000Y-84016594D01*
X152000000Y-84016594D01*
X151872411Y-84041973D01*
X151764246Y-84114246D01*
X151708406Y-84197817D01*
X151708406Y-83850000D01*
X151694863Y-83781914D01*
X151764246Y-83885754D01*
X151872411Y-83958027D01*
X152000000Y-83983406D01*
X154000000Y-83983406D01*
X154127589Y-83958027D01*
X154235754Y-83885754D01*
X154308027Y-83777589D01*
X154333406Y-83650000D01*
X154333406Y-83452000D01*
X154908696Y-83452000D01*
X154952834Y-83496215D01*
X155183200Y-83591871D01*
X155432636Y-83592089D01*
X155663168Y-83496835D01*
X155839700Y-83320611D01*
X155935356Y-83090245D01*
X155935574Y-82840809D01*
X155840320Y-82610277D01*
X155664096Y-82433745D01*
X155637345Y-82422637D01*
X155712973Y-82407594D01*
X155859612Y-82309612D01*
X156409612Y-81759613D01*
X156427654Y-81732611D01*
X156427654Y-85340252D01*
X156348419Y-85419349D01*
X156252763Y-85649715D01*
X156252545Y-85899151D01*
X156347799Y-86129683D01*
X156524023Y-86306215D01*
X156754389Y-86401871D01*
X157003825Y-86402089D01*
X157234357Y-86306835D01*
X157410889Y-86130611D01*
X157506545Y-85900245D01*
X157506763Y-85650809D01*
X157411509Y-85420277D01*
X157331654Y-85340282D01*
X157331654Y-79069254D01*
X157582012Y-79319612D01*
X157728651Y-79417594D01*
X157901624Y-79452000D01*
X166873000Y-79452000D01*
X166873000Y-89598000D01*
X147127000Y-89598000D01*
X147127000Y-81926609D01*
X147133027Y-81917589D01*
X147158406Y-81790000D01*
X147158406Y-81490000D01*
X147133027Y-81362411D01*
X147127000Y-81353391D01*
X147127000Y-80926609D01*
X147133027Y-80917589D01*
X147158406Y-80790000D01*
X147158406Y-80490000D01*
X147138515Y-80390000D01*
X147158406Y-80290000D01*
X147158406Y-79990000D01*
X147138515Y-79890000D01*
X147158406Y-79790000D01*
X147158406Y-79490000D01*
X147133027Y-79362411D01*
X147127000Y-79353391D01*
X147127000Y-78625024D01*
X147237589Y-78603027D01*
X147345754Y-78530754D01*
X147418027Y-78422589D01*
X147443406Y-78295000D01*
X147443406Y-77545000D01*
X147418027Y-77417411D01*
X147345754Y-77309246D01*
X147237589Y-77236973D01*
X147127000Y-77214976D01*
X147127000Y-71564002D01*
X147584570Y-71106431D01*
X151242581Y-71106431D01*
X151242243Y-71493402D01*
G36*
X144244267Y-80694051D02*
X144390906Y-80792033D01*
X144563879Y-80826439D01*
X145362787Y-80826439D01*
X145495960Y-80959612D01*
X145642599Y-81057594D01*
X145815572Y-81092000D01*
X145841594Y-81092000D01*
X145841594Y-81290000D01*
X145866973Y-81417589D01*
X145939246Y-81525754D01*
X146047411Y-81598027D01*
X146175000Y-81623406D01*
X146373000Y-81623406D01*
X146373000Y-89598000D01*
X139127000Y-89598000D01*
X139127000Y-89433406D01*
X139400000Y-89433406D01*
X139527589Y-89408027D01*
X139635754Y-89335754D01*
X139708027Y-89227589D01*
X139713117Y-89202000D01*
X142786883Y-89202000D01*
X142791973Y-89227589D01*
X142864246Y-89335754D01*
X142972411Y-89408027D01*
X143100000Y-89433406D01*
X144550000Y-89433406D01*
X144677589Y-89408027D01*
X144785754Y-89335754D01*
X144858027Y-89227589D01*
X144883406Y-89100000D01*
X144883406Y-88400000D01*
X144858027Y-88272411D01*
X144785754Y-88164246D01*
X144677589Y-88091973D01*
X144550000Y-88066594D01*
X143100000Y-88066594D01*
X142972411Y-88091973D01*
X142864246Y-88164246D01*
X142791973Y-88272411D01*
X142786883Y-88298000D01*
X139713117Y-88298000D01*
X139708027Y-88272411D01*
X139635754Y-88164246D01*
X139527589Y-88091973D01*
X139400000Y-88066594D01*
X139127000Y-88066594D01*
X139127000Y-87501580D01*
X139572710Y-87947290D01*
X139727460Y-88050691D01*
X139910000Y-88087000D01*
X142590000Y-88087000D01*
X142772540Y-88050691D01*
X142927290Y-87947290D01*
X143441174Y-87433406D01*
X144550000Y-87433406D01*
X144677589Y-87408027D01*
X144785754Y-87335754D01*
X144858027Y-87227589D01*
X144883406Y-87100000D01*
X144883406Y-86400000D01*
X144858027Y-86272411D01*
X144785754Y-86164246D01*
X144677589Y-86091973D01*
X144550000Y-86066594D01*
X143100000Y-86066594D01*
X142972411Y-86091973D01*
X142864246Y-86164246D01*
X142791973Y-86272411D01*
X142766594Y-86400000D01*
X142766594Y-86758826D01*
X142392420Y-87133000D01*
X140107580Y-87133000D01*
X139733406Y-86758826D01*
X139733406Y-86400000D01*
X139708027Y-86272411D01*
X139635754Y-86164246D01*
X139527589Y-86091973D01*
X139400000Y-86066594D01*
X139363447Y-86066594D01*
X139392593Y-86022974D01*
X139426999Y-85850001D01*
X139426999Y-84411999D01*
X140172777Y-84411999D01*
X140930389Y-85169612D01*
X141077028Y-85267594D01*
X141105726Y-85273302D01*
X141250002Y-85302000D01*
X141651910Y-85302000D01*
X141661973Y-85352589D01*
X141669717Y-85364178D01*
X141664505Y-85369381D01*
X141568849Y-85599747D01*
X141568631Y-85849183D01*
X141663885Y-86079715D01*
X141840109Y-86256247D01*
X142070475Y-86351903D01*
X142319911Y-86352121D01*
X142550443Y-86256867D01*
X142726975Y-86080643D01*
X142749254Y-86026988D01*
X142896518Y-86026988D01*
X143069491Y-85992582D01*
X143216130Y-85894600D01*
X143552324Y-85558406D01*
X144270000Y-85558406D01*
X144397589Y-85533027D01*
X144505754Y-85460754D01*
X144578027Y-85352589D01*
X144603406Y-85225000D01*
X144603406Y-84475000D01*
X144578027Y-84347411D01*
X144505754Y-84239246D01*
X144397589Y-84166973D01*
X144322000Y-84151937D01*
X144322000Y-83928063D01*
X144397589Y-83913027D01*
X144505754Y-83840754D01*
X144578027Y-83732589D01*
X144603406Y-83605000D01*
X144603406Y-82855000D01*
X144578027Y-82727411D01*
X144505754Y-82619246D01*
X144397589Y-82546973D01*
X144270000Y-82521594D01*
X143470000Y-82521594D01*
X143342411Y-82546973D01*
X143234246Y-82619246D01*
X143161973Y-82727411D01*
X143136594Y-82855000D01*
X143136594Y-83605000D01*
X143161973Y-83732589D01*
X143234246Y-83840754D01*
X143342411Y-83913027D01*
X143418000Y-83928063D01*
X143418000Y-84151937D01*
X143342411Y-84166973D01*
X143234246Y-84239246D01*
X143161973Y-84347411D01*
X143136594Y-84475000D01*
X143136594Y-84695687D01*
X143103406Y-84728875D01*
X143103406Y-84475000D01*
X143078027Y-84347411D01*
X143005754Y-84239246D01*
X142897589Y-84166973D01*
X142770000Y-84141594D01*
X142341053Y-84141594D01*
X142341231Y-83938406D01*
X142770000Y-83938406D01*
X142897589Y-83913027D01*
X143005754Y-83840754D01*
X143078027Y-83732589D01*
X143103406Y-83605000D01*
X143103406Y-82855000D01*
X143078027Y-82727411D01*
X143005754Y-82619246D01*
X142897589Y-82546973D01*
X142826994Y-82532931D01*
X142827109Y-82400829D01*
X142731855Y-82170297D01*
X142555631Y-81993765D01*
X142472398Y-81959204D01*
X142621213Y-81810649D01*
X142716869Y-81580283D01*
X142717087Y-81330847D01*
X142621833Y-81100315D01*
X142521879Y-81000186D01*
X142610231Y-80787410D01*
X142610385Y-80611202D01*
X142815622Y-80526400D01*
X142992154Y-80350176D01*
X143084824Y-80127000D01*
X143677216Y-80127000D01*
X144244267Y-80694051D01*
X144244267Y-80694051D01*
G37*
X144244267Y-80694051D02*
X144390906Y-80792033D01*
X144563879Y-80826439D01*
X145362787Y-80826439D01*
X145495960Y-80959612D01*
X145642599Y-81057594D01*
X145815572Y-81092000D01*
X145841594Y-81092000D01*
X145841594Y-81290000D01*
X145866973Y-81417589D01*
X145939246Y-81525754D01*
X146047411Y-81598027D01*
X146175000Y-81623406D01*
X146373000Y-81623406D01*
X146373000Y-89598000D01*
X139127000Y-89598000D01*
X139127000Y-89433406D01*
X139400000Y-89433406D01*
X139527589Y-89408027D01*
X139635754Y-89335754D01*
X139708027Y-89227589D01*
X139713117Y-89202000D01*
X142786883Y-89202000D01*
X142791973Y-89227589D01*
X142864246Y-89335754D01*
X142972411Y-89408027D01*
X143100000Y-89433406D01*
X144550000Y-89433406D01*
X144677589Y-89408027D01*
X144785754Y-89335754D01*
X144858027Y-89227589D01*
X144883406Y-89100000D01*
X144883406Y-88400000D01*
X144858027Y-88272411D01*
X144785754Y-88164246D01*
X144677589Y-88091973D01*
X144550000Y-88066594D01*
X143100000Y-88066594D01*
X142972411Y-88091973D01*
X142864246Y-88164246D01*
X142791973Y-88272411D01*
X142786883Y-88298000D01*
X139713117Y-88298000D01*
X139708027Y-88272411D01*
X139635754Y-88164246D01*
X139527589Y-88091973D01*
X139400000Y-88066594D01*
X139127000Y-88066594D01*
X139127000Y-87501580D01*
X139572710Y-87947290D01*
X139727460Y-88050691D01*
X139910000Y-88087000D01*
X142590000Y-88087000D01*
X142772540Y-88050691D01*
X142927290Y-87947290D01*
X143441174Y-87433406D01*
X144550000Y-87433406D01*
X144677589Y-87408027D01*
X144785754Y-87335754D01*
X144858027Y-87227589D01*
X144883406Y-87100000D01*
X144883406Y-86400000D01*
X144858027Y-86272411D01*
X144785754Y-86164246D01*
X144677589Y-86091973D01*
X144550000Y-86066594D01*
X143100000Y-86066594D01*
X142972411Y-86091973D01*
X142864246Y-86164246D01*
X142791973Y-86272411D01*
X142766594Y-86400000D01*
X142766594Y-86758826D01*
X142392420Y-87133000D01*
X140107580Y-87133000D01*
X139733406Y-86758826D01*
X139733406Y-86400000D01*
X139708027Y-86272411D01*
X139635754Y-86164246D01*
X139527589Y-86091973D01*
X139400000Y-86066594D01*
X139363447Y-86066594D01*
X139392593Y-86022974D01*
X139426999Y-85850001D01*
X139426999Y-84411999D01*
X140172777Y-84411999D01*
X140930389Y-85169612D01*
X141077028Y-85267594D01*
X141105726Y-85273302D01*
X141250002Y-85302000D01*
X141651910Y-85302000D01*
X141661973Y-85352589D01*
X141669717Y-85364178D01*
X141664505Y-85369381D01*
X141568849Y-85599747D01*
X141568631Y-85849183D01*
X141663885Y-86079715D01*
X141840109Y-86256247D01*
X142070475Y-86351903D01*
X142319911Y-86352121D01*
X142550443Y-86256867D01*
X142726975Y-86080643D01*
X142749254Y-86026988D01*
X142896518Y-86026988D01*
X143069491Y-85992582D01*
X143216130Y-85894600D01*
X143552324Y-85558406D01*
X144270000Y-85558406D01*
X144397589Y-85533027D01*
X144505754Y-85460754D01*
X144578027Y-85352589D01*
X144603406Y-85225000D01*
X144603406Y-84475000D01*
X144578027Y-84347411D01*
X144505754Y-84239246D01*
X144397589Y-84166973D01*
X144322000Y-84151937D01*
X144322000Y-83928063D01*
X144397589Y-83913027D01*
X144505754Y-83840754D01*
X144578027Y-83732589D01*
X144603406Y-83605000D01*
X144603406Y-82855000D01*
X144578027Y-82727411D01*
X144505754Y-82619246D01*
X144397589Y-82546973D01*
X144270000Y-82521594D01*
X143470000Y-82521594D01*
X143342411Y-82546973D01*
X143234246Y-82619246D01*
X143161973Y-82727411D01*
X143136594Y-82855000D01*
X143136594Y-83605000D01*
X143161973Y-83732589D01*
X143234246Y-83840754D01*
X143342411Y-83913027D01*
X143418000Y-83928063D01*
X143418000Y-84151937D01*
X143342411Y-84166973D01*
X143234246Y-84239246D01*
X143161973Y-84347411D01*
X143136594Y-84475000D01*
X143136594Y-84695687D01*
X143103406Y-84728875D01*
X143103406Y-84475000D01*
X143078027Y-84347411D01*
X143005754Y-84239246D01*
X142897589Y-84166973D01*
X142770000Y-84141594D01*
X142341053Y-84141594D01*
X142341231Y-83938406D01*
X142770000Y-83938406D01*
X142897589Y-83913027D01*
X143005754Y-83840754D01*
X143078027Y-83732589D01*
X143103406Y-83605000D01*
X143103406Y-82855000D01*
X143078027Y-82727411D01*
X143005754Y-82619246D01*
X142897589Y-82546973D01*
X142826994Y-82532931D01*
X142827109Y-82400829D01*
X142731855Y-82170297D01*
X142555631Y-81993765D01*
X142472398Y-81959204D01*
X142621213Y-81810649D01*
X142716869Y-81580283D01*
X142717087Y-81330847D01*
X142621833Y-81100315D01*
X142521879Y-81000186D01*
X142610231Y-80787410D01*
X142610385Y-80611202D01*
X142815622Y-80526400D01*
X142992154Y-80350176D01*
X143084824Y-80127000D01*
X143677216Y-80127000D01*
X144244267Y-80694051D01*
G36*
X122966973Y-70436411D02*
X122941594Y-70564000D01*
X122941594Y-70650594D01*
X122855000Y-70650594D01*
X122727411Y-70675973D01*
X122619246Y-70748246D01*
X122546973Y-70856411D01*
X122521594Y-70984000D01*
X122521594Y-71051473D01*
X122481855Y-70955297D01*
X122305631Y-70778765D01*
X122075265Y-70683109D01*
X121825829Y-70682891D01*
X121682651Y-70742051D01*
X121670754Y-70724246D01*
X121562589Y-70651973D01*
X121435000Y-70626594D01*
X120685000Y-70626594D01*
X120557411Y-70651973D01*
X120449246Y-70724246D01*
X120376973Y-70832411D01*
X120351594Y-70960000D01*
X120351594Y-71760000D01*
X120376973Y-71887589D01*
X120449246Y-71995754D01*
X120557411Y-72068027D01*
X120685000Y-72093406D01*
X121217822Y-72093406D01*
X121221916Y-72097500D01*
X121192821Y-72126594D01*
X120685000Y-72126594D01*
X120557411Y-72151973D01*
X120449246Y-72224246D01*
X120376973Y-72332411D01*
X120351594Y-72460000D01*
X120351594Y-73260000D01*
X120376973Y-73387589D01*
X120449246Y-73495754D01*
X120557411Y-73568027D01*
X120685000Y-73593406D01*
X121435000Y-73593406D01*
X121562589Y-73568027D01*
X121670754Y-73495754D01*
X121730140Y-73406876D01*
X121804369Y-73481235D01*
X122034735Y-73576891D01*
X122248000Y-73577077D01*
X122248000Y-73865272D01*
X122168765Y-73944369D01*
X122073109Y-74174735D01*
X122072891Y-74424171D01*
X122168145Y-74654703D01*
X122344369Y-74831235D01*
X122574735Y-74926891D01*
X122824171Y-74927109D01*
X123054703Y-74831855D01*
X123231235Y-74655631D01*
X123326891Y-74425265D01*
X123327109Y-74175829D01*
X123231855Y-73945297D01*
X123152000Y-73865302D01*
X123152000Y-73606224D01*
X123237229Y-73520995D01*
X123332589Y-73502027D01*
X123341594Y-73496010D01*
X123341594Y-73614000D01*
X123366973Y-73741589D01*
X123439246Y-73849754D01*
X123547411Y-73922027D01*
X123675000Y-73947406D01*
X123885000Y-73947406D01*
X123980000Y-73928509D01*
X124075000Y-73947406D01*
X124285000Y-73947406D01*
X124380000Y-73928509D01*
X124475000Y-73947406D01*
X124685000Y-73947406D01*
X124780000Y-73928509D01*
X124784069Y-73929319D01*
X124638765Y-74074369D01*
X124543109Y-74304735D01*
X124542891Y-74554171D01*
X124638145Y-74784703D01*
X124814369Y-74961235D01*
X125032574Y-75051842D01*
X124717418Y-75366998D01*
X124688828Y-75366998D01*
X124672973Y-75356404D01*
X124500000Y-75321998D01*
X122449982Y-75321998D01*
X122277009Y-75356404D01*
X122130370Y-75454386D01*
X120853831Y-76730925D01*
X120755849Y-76877564D01*
X120721443Y-77050537D01*
X120721443Y-80246833D01*
X120642208Y-80325930D01*
X120546552Y-80556296D01*
X120546334Y-80805732D01*
X120641588Y-81036264D01*
X120817812Y-81212796D01*
X121048178Y-81308452D01*
X121297614Y-81308670D01*
X121528146Y-81213416D01*
X121704678Y-81037192D01*
X121800334Y-80806826D01*
X121800552Y-80557390D01*
X121705298Y-80326858D01*
X121625443Y-80246863D01*
X121625443Y-77237761D01*
X122637206Y-76225998D01*
X124048000Y-76225998D01*
X124048000Y-77650000D01*
X124082406Y-77822973D01*
X124180388Y-77969612D01*
X125110388Y-78899613D01*
X125257027Y-78997594D01*
X125430000Y-79032000D01*
X125450252Y-79032000D01*
X125701408Y-79407881D01*
X126087666Y-79665971D01*
X126543289Y-79756600D01*
X126900711Y-79756600D01*
X127356334Y-79665971D01*
X127742592Y-79407881D01*
X128000682Y-79021623D01*
X128091311Y-78566000D01*
X128000682Y-78110377D01*
X127742592Y-77724119D01*
X127356334Y-77466029D01*
X126900711Y-77375400D01*
X126543289Y-77375400D01*
X126087666Y-77466029D01*
X125701408Y-77724119D01*
X125505917Y-78016692D01*
X125320085Y-77830860D01*
X125479723Y-77764899D01*
X125656255Y-77588675D01*
X125667004Y-77562788D01*
X125682168Y-77552656D01*
X126105338Y-77129486D01*
X126543289Y-77216600D01*
X126900711Y-77216600D01*
X127356334Y-77125971D01*
X127742592Y-76867881D01*
X128000682Y-76481623D01*
X128091311Y-76026000D01*
X128000682Y-75570377D01*
X127742592Y-75184119D01*
X127366897Y-74933087D01*
X127492207Y-74807778D01*
X127567411Y-74858027D01*
X127695000Y-74883406D01*
X128062555Y-74883406D01*
X127983109Y-75074735D01*
X127982891Y-75324171D01*
X128078145Y-75554703D01*
X128254369Y-75731235D01*
X128484735Y-75826891D01*
X128514580Y-75826917D01*
X128382617Y-76144718D01*
X128382243Y-76573402D01*
X128545948Y-76969597D01*
X128848809Y-77272987D01*
X129244718Y-77437383D01*
X129673402Y-77437757D01*
X130069597Y-77274052D01*
X130372987Y-76971191D01*
X130537383Y-76575282D01*
X130537757Y-76146598D01*
X130374052Y-75750403D01*
X130071191Y-75447013D01*
X129675282Y-75282617D01*
X129246598Y-75282243D01*
X129236925Y-75286240D01*
X129237109Y-75075829D01*
X129161733Y-74893406D01*
X129535000Y-74893406D01*
X129662589Y-74868027D01*
X129770754Y-74795754D01*
X129843027Y-74687589D01*
X129868406Y-74560000D01*
X129868406Y-74482147D01*
X130118809Y-74732987D01*
X130514718Y-74897383D01*
X130943402Y-74897757D01*
X131102709Y-74831933D01*
X131621313Y-75350537D01*
X131390403Y-75445948D01*
X131087013Y-75748809D01*
X130922617Y-76144718D01*
X130922243Y-76573402D01*
X131085948Y-76969597D01*
X131388809Y-77272987D01*
X131533536Y-77333083D01*
X131507999Y-77461467D01*
X131507999Y-78750001D01*
X131542405Y-78922974D01*
X131640387Y-79069613D01*
X131740396Y-79169623D01*
X131887035Y-79267605D01*
X131901027Y-79270388D01*
X131951594Y-79280446D01*
X131951594Y-79990000D01*
X131976973Y-80117589D01*
X132049246Y-80225754D01*
X132157411Y-80298027D01*
X132285000Y-80323406D01*
X133035000Y-80323406D01*
X133162589Y-80298027D01*
X133270754Y-80225754D01*
X133343027Y-80117589D01*
X133356722Y-80048740D01*
X133484800Y-80101922D01*
X133734236Y-80102140D01*
X133964768Y-80006886D01*
X134141300Y-79830662D01*
X134236956Y-79600296D01*
X134237174Y-79350860D01*
X134216990Y-79302011D01*
X134587397Y-79302011D01*
X134685757Y-79367734D01*
X134858730Y-79402140D01*
X134939222Y-79402140D01*
X134946841Y-79409759D01*
X134939222Y-79417378D01*
X134858730Y-79417378D01*
X134685757Y-79451784D01*
X134539117Y-79549766D01*
X133070377Y-81018507D01*
X132972395Y-81165146D01*
X132937989Y-81338119D01*
X132937989Y-82776400D01*
X132972395Y-82949373D01*
X133070377Y-83096012D01*
X133548000Y-83573635D01*
X133548000Y-83966594D01*
X133450000Y-83966594D01*
X133322411Y-83991973D01*
X133214246Y-84064246D01*
X133141973Y-84172411D01*
X133116594Y-84300000D01*
X133116594Y-84517323D01*
X133110009Y-84510726D01*
X132988363Y-84460214D01*
X132988406Y-84460000D01*
X132988406Y-83660000D01*
X132963027Y-83532411D01*
X132890754Y-83424246D01*
X132782589Y-83351973D01*
X132655000Y-83326594D01*
X131905000Y-83326594D01*
X131777411Y-83351973D01*
X131703406Y-83401421D01*
X131703406Y-82560000D01*
X131678027Y-82432411D01*
X131663053Y-82410000D01*
X131678027Y-82387589D01*
X131703406Y-82260000D01*
X131703406Y-81660000D01*
X131678027Y-81532411D01*
X131605754Y-81424246D01*
X131497589Y-81351973D01*
X131370000Y-81326594D01*
X130970000Y-81326594D01*
X130842411Y-81351973D01*
X130734246Y-81424246D01*
X130661973Y-81532411D01*
X130636594Y-81660000D01*
X130636594Y-82226594D01*
X129703406Y-82226594D01*
X129703406Y-81667003D01*
X129824171Y-81667109D01*
X130054703Y-81571855D01*
X130231235Y-81395631D01*
X130326891Y-81165265D01*
X130327109Y-80915829D01*
X130231855Y-80685297D01*
X130190467Y-80643836D01*
X130218027Y-80602589D01*
X130243406Y-80475000D01*
X130243406Y-79725000D01*
X130218027Y-79597411D01*
X130145754Y-79489246D01*
X130037589Y-79416973D01*
X129910000Y-79391594D01*
X129273034Y-79391594D01*
X129295965Y-79336369D01*
X129295981Y-79318243D01*
X129405818Y-79208406D01*
X129900000Y-79208406D01*
X130027589Y-79183027D01*
X130135754Y-79110754D01*
X130208027Y-79002589D01*
X130233406Y-78875000D01*
X130233406Y-78125000D01*
X130208027Y-77997411D01*
X130135754Y-77889246D01*
X130027589Y-77816973D01*
X129900000Y-77791594D01*
X129100000Y-77791594D01*
X128972411Y-77816973D01*
X128864246Y-77889246D01*
X128791973Y-77997411D01*
X128766594Y-78125000D01*
X128766594Y-78569182D01*
X128751600Y-78584176D01*
X128544903Y-78583995D01*
X128314371Y-78679249D01*
X128137839Y-78855473D01*
X128042183Y-79085839D01*
X128041965Y-79335275D01*
X128137219Y-79565807D01*
X128217074Y-79645802D01*
X128217074Y-81909074D01*
X128251480Y-82082047D01*
X128349462Y-82228686D01*
X128400388Y-82279612D01*
X128547027Y-82377594D01*
X128671890Y-82402430D01*
X128676947Y-82410000D01*
X128661973Y-82432411D01*
X128636594Y-82560000D01*
X128636594Y-84060000D01*
X128661973Y-84187589D01*
X128676947Y-84210000D01*
X128661973Y-84232411D01*
X128636594Y-84360000D01*
X128636594Y-84555719D01*
X128544430Y-84463394D01*
X128314064Y-84367738D01*
X128071406Y-84367526D01*
X128071406Y-82782400D01*
X128046027Y-82654811D01*
X127973754Y-82546646D01*
X127865589Y-82474373D01*
X127738000Y-82448994D01*
X125706000Y-82448994D01*
X125578411Y-82474373D01*
X125470246Y-82546646D01*
X125397973Y-82654811D01*
X125372594Y-82782400D01*
X125372594Y-83410781D01*
X125353027Y-83312411D01*
X125280754Y-83204246D01*
X125172589Y-83131973D01*
X125045000Y-83106594D01*
X124295000Y-83106594D01*
X124167411Y-83131973D01*
X124153406Y-83141331D01*
X124153406Y-82900000D01*
X124128027Y-82772411D01*
X124055754Y-82664246D01*
X123947589Y-82591973D01*
X123820000Y-82566594D01*
X122020000Y-82566594D01*
X121892411Y-82591973D01*
X121784246Y-82664246D01*
X121711973Y-82772411D01*
X121686594Y-82900000D01*
X121686594Y-83700000D01*
X121711973Y-83827589D01*
X121726947Y-83850000D01*
X121711973Y-83872411D01*
X121686594Y-84000000D01*
X121686594Y-84800000D01*
X121711973Y-84927589D01*
X121726947Y-84950000D01*
X121711973Y-84972411D01*
X121696163Y-85051893D01*
X121542763Y-85082406D01*
X121396124Y-85180388D01*
X119840388Y-86736124D01*
X119742406Y-86882763D01*
X119710597Y-87042680D01*
X119628765Y-87124369D01*
X119533109Y-87354735D01*
X119532891Y-87604171D01*
X119628145Y-87834703D01*
X119804369Y-88011235D01*
X120034735Y-88106891D01*
X120284171Y-88107109D01*
X120514703Y-88011855D01*
X120691235Y-87835631D01*
X120786891Y-87605265D01*
X120787109Y-87355829D01*
X120729925Y-87217434D01*
X120898412Y-87386215D01*
X121128778Y-87481871D01*
X121378214Y-87482089D01*
X121608746Y-87386835D01*
X121696740Y-87298995D01*
X121686594Y-87350000D01*
X121686594Y-88050000D01*
X121711973Y-88177589D01*
X121784246Y-88285754D01*
X121892411Y-88358027D01*
X122020000Y-88383406D01*
X123820000Y-88383406D01*
X123947589Y-88358027D01*
X124055754Y-88285754D01*
X124128027Y-88177589D01*
X124135717Y-88138928D01*
X124242973Y-88117594D01*
X124389612Y-88019612D01*
X125089612Y-87319613D01*
X125187594Y-87172974D01*
X125202109Y-87100000D01*
X125222000Y-87000000D01*
X125222000Y-85424728D01*
X125301235Y-85345631D01*
X125396891Y-85115265D01*
X125397109Y-84865829D01*
X125301855Y-84635297D01*
X125197873Y-84531133D01*
X125280754Y-84475754D01*
X125353027Y-84367589D01*
X125372594Y-84269219D01*
X125372594Y-84509600D01*
X125397973Y-84637189D01*
X125470246Y-84745354D01*
X125578411Y-84817627D01*
X125706000Y-84843006D01*
X127572853Y-84843006D01*
X127561908Y-84869364D01*
X127561690Y-85118800D01*
X127656944Y-85349332D01*
X127833168Y-85525864D01*
X128050158Y-85615966D01*
X128071204Y-85721771D01*
X128169186Y-85868410D01*
X128829712Y-86528936D01*
X128703437Y-86581112D01*
X128526905Y-86757336D01*
X128431249Y-86987702D01*
X128431058Y-87206478D01*
X127983406Y-86758826D01*
X127983406Y-86400000D01*
X127958027Y-86272411D01*
X127885754Y-86164246D01*
X127777589Y-86091973D01*
X127650000Y-86066594D01*
X126200000Y-86066594D01*
X126072411Y-86091973D01*
X125964246Y-86164246D01*
X125891973Y-86272411D01*
X125866594Y-86400000D01*
X125866594Y-87100000D01*
X125891973Y-87227589D01*
X125964246Y-87335754D01*
X126072411Y-87408027D01*
X126200000Y-87433406D01*
X127308826Y-87433406D01*
X128130689Y-88255269D01*
X128194640Y-88298000D01*
X127963117Y-88298000D01*
X127958027Y-88272411D01*
X127885754Y-88164246D01*
X127777589Y-88091973D01*
X127650000Y-88066594D01*
X126200000Y-88066594D01*
X126072411Y-88091973D01*
X125964246Y-88164246D01*
X125891973Y-88272411D01*
X125866594Y-88400000D01*
X125866594Y-89100000D01*
X125891973Y-89227589D01*
X125964246Y-89335754D01*
X126072411Y-89408027D01*
X126200000Y-89433406D01*
X127650000Y-89433406D01*
X127777589Y-89408027D01*
X127885754Y-89335754D01*
X127958027Y-89227589D01*
X127963117Y-89202000D01*
X129302376Y-89202000D01*
X129475349Y-89167594D01*
X129621988Y-89069612D01*
X130072396Y-88619204D01*
X130522804Y-89069612D01*
X130669443Y-89167594D01*
X130842416Y-89202000D01*
X131036883Y-89202000D01*
X131041973Y-89227589D01*
X131114246Y-89335754D01*
X131222411Y-89408027D01*
X131350000Y-89433406D01*
X132800000Y-89433406D01*
X132927589Y-89408027D01*
X133035754Y-89335754D01*
X133108027Y-89227589D01*
X133113117Y-89202000D01*
X133293981Y-89202000D01*
X133316973Y-89317589D01*
X133389246Y-89425754D01*
X133497411Y-89498027D01*
X133625000Y-89523406D01*
X134375000Y-89523406D01*
X134502589Y-89498027D01*
X134610754Y-89425754D01*
X134683027Y-89317589D01*
X134698063Y-89242000D01*
X135799948Y-89242000D01*
X135816973Y-89327589D01*
X135889246Y-89435754D01*
X135997411Y-89508027D01*
X136125000Y-89533406D01*
X136875000Y-89533406D01*
X137002589Y-89508027D01*
X137110754Y-89435754D01*
X137183027Y-89327589D01*
X137198063Y-89252000D01*
X137349315Y-89252000D01*
X137475000Y-89277000D01*
X137600685Y-89252000D01*
X137658284Y-89252000D01*
X137714246Y-89335754D01*
X137822411Y-89408027D01*
X137950000Y-89433406D01*
X138673000Y-89433406D01*
X138673000Y-89598000D01*
X117391554Y-89598000D01*
X117644777Y-89344778D01*
X117644779Y-89344775D01*
X117879786Y-89109769D01*
X118059057Y-88841470D01*
X118075262Y-88760001D01*
X118122009Y-88524991D01*
X118122009Y-74355009D01*
X118059057Y-74038530D01*
X117879786Y-73770232D01*
X117344777Y-73235223D01*
X117076479Y-73055952D01*
X116760000Y-72993000D01*
X116443521Y-73055952D01*
X116175223Y-73235223D01*
X115995952Y-73503521D01*
X115933000Y-73820000D01*
X115995952Y-74136479D01*
X116175223Y-74404777D01*
X116468009Y-74697563D01*
X116468009Y-80142381D01*
X116325265Y-80083109D01*
X116075829Y-80082891D01*
X115845297Y-80178145D01*
X115668765Y-80354369D01*
X115573109Y-80584735D01*
X115572915Y-80806267D01*
X115551855Y-80755297D01*
X115375631Y-80578765D01*
X115145265Y-80483109D01*
X114895829Y-80482891D01*
X114774556Y-80533000D01*
X114524412Y-80533000D01*
X114528027Y-80527589D01*
X114553406Y-80400000D01*
X114553406Y-79600000D01*
X114528940Y-79477000D01*
X114804584Y-79477000D01*
X114924735Y-79526891D01*
X115174171Y-79527109D01*
X115404703Y-79431855D01*
X115581235Y-79255631D01*
X115676891Y-79025265D01*
X115677109Y-78775829D01*
X115581855Y-78545297D01*
X115405631Y-78368765D01*
X115175265Y-78273109D01*
X114925829Y-78272891D01*
X114804556Y-78323000D01*
X114495012Y-78323000D01*
X114455754Y-78264246D01*
X114347589Y-78191973D01*
X114220000Y-78166594D01*
X114047000Y-78166594D01*
X114047000Y-72021925D01*
X114084048Y-71966479D01*
X114147000Y-71650000D01*
X114084048Y-71333521D01*
X114027598Y-71249037D01*
X114027757Y-71066598D01*
X113864052Y-70670403D01*
X113596117Y-70402000D01*
X122989966Y-70402000D01*
X122966973Y-70436411D01*
X122966973Y-70436411D01*
G37*
X122966973Y-70436411D02*
X122941594Y-70564000D01*
X122941594Y-70650594D01*
X122855000Y-70650594D01*
X122727411Y-70675973D01*
X122619246Y-70748246D01*
X122546973Y-70856411D01*
X122521594Y-70984000D01*
X122521594Y-71051473D01*
X122481855Y-70955297D01*
X122305631Y-70778765D01*
X122075265Y-70683109D01*
X121825829Y-70682891D01*
X121682651Y-70742051D01*
X121670754Y-70724246D01*
X121562589Y-70651973D01*
X121435000Y-70626594D01*
X120685000Y-70626594D01*
X120557411Y-70651973D01*
X120449246Y-70724246D01*
X120376973Y-70832411D01*
X120351594Y-70960000D01*
X120351594Y-71760000D01*
X120376973Y-71887589D01*
X120449246Y-71995754D01*
X120557411Y-72068027D01*
X120685000Y-72093406D01*
X121217822Y-72093406D01*
X121221916Y-72097500D01*
X121192821Y-72126594D01*
X120685000Y-72126594D01*
X120557411Y-72151973D01*
X120449246Y-72224246D01*
X120376973Y-72332411D01*
X120351594Y-72460000D01*
X120351594Y-73260000D01*
X120376973Y-73387589D01*
X120449246Y-73495754D01*
X120557411Y-73568027D01*
X120685000Y-73593406D01*
X121435000Y-73593406D01*
X121562589Y-73568027D01*
X121670754Y-73495754D01*
X121730140Y-73406876D01*
X121804369Y-73481235D01*
X122034735Y-73576891D01*
X122248000Y-73577077D01*
X122248000Y-73865272D01*
X122168765Y-73944369D01*
X122073109Y-74174735D01*
X122072891Y-74424171D01*
X122168145Y-74654703D01*
X122344369Y-74831235D01*
X122574735Y-74926891D01*
X122824171Y-74927109D01*
X123054703Y-74831855D01*
X123231235Y-74655631D01*
X123326891Y-74425265D01*
X123327109Y-74175829D01*
X123231855Y-73945297D01*
X123152000Y-73865302D01*
X123152000Y-73606224D01*
X123237229Y-73520995D01*
X123332589Y-73502027D01*
X123341594Y-73496010D01*
X123341594Y-73614000D01*
X123366973Y-73741589D01*
X123439246Y-73849754D01*
X123547411Y-73922027D01*
X123675000Y-73947406D01*
X123885000Y-73947406D01*
X123980000Y-73928509D01*
X124075000Y-73947406D01*
X124285000Y-73947406D01*
X124380000Y-73928509D01*
X124475000Y-73947406D01*
X124685000Y-73947406D01*
X124780000Y-73928509D01*
X124784069Y-73929319D01*
X124638765Y-74074369D01*
X124543109Y-74304735D01*
X124542891Y-74554171D01*
X124638145Y-74784703D01*
X124814369Y-74961235D01*
X125032574Y-75051842D01*
X124717418Y-75366998D01*
X124688828Y-75366998D01*
X124672973Y-75356404D01*
X124500000Y-75321998D01*
X122449982Y-75321998D01*
X122277009Y-75356404D01*
X122130370Y-75454386D01*
X120853831Y-76730925D01*
X120755849Y-76877564D01*
X120721443Y-77050537D01*
X120721443Y-80246833D01*
X120642208Y-80325930D01*
X120546552Y-80556296D01*
X120546334Y-80805732D01*
X120641588Y-81036264D01*
X120817812Y-81212796D01*
X121048178Y-81308452D01*
X121297614Y-81308670D01*
X121528146Y-81213416D01*
X121704678Y-81037192D01*
X121800334Y-80806826D01*
X121800552Y-80557390D01*
X121705298Y-80326858D01*
X121625443Y-80246863D01*
X121625443Y-77237761D01*
X122637206Y-76225998D01*
X124048000Y-76225998D01*
X124048000Y-77650000D01*
X124082406Y-77822973D01*
X124180388Y-77969612D01*
X125110388Y-78899613D01*
X125257027Y-78997594D01*
X125430000Y-79032000D01*
X125450252Y-79032000D01*
X125701408Y-79407881D01*
X126087666Y-79665971D01*
X126543289Y-79756600D01*
X126900711Y-79756600D01*
X127356334Y-79665971D01*
X127742592Y-79407881D01*
X128000682Y-79021623D01*
X128091311Y-78566000D01*
X128000682Y-78110377D01*
X127742592Y-77724119D01*
X127356334Y-77466029D01*
X126900711Y-77375400D01*
X126543289Y-77375400D01*
X126087666Y-77466029D01*
X125701408Y-77724119D01*
X125505917Y-78016692D01*
X125320085Y-77830860D01*
X125479723Y-77764899D01*
X125656255Y-77588675D01*
X125667004Y-77562788D01*
X125682168Y-77552656D01*
X126105338Y-77129486D01*
X126543289Y-77216600D01*
X126900711Y-77216600D01*
X127356334Y-77125971D01*
X127742592Y-76867881D01*
X128000682Y-76481623D01*
X128091311Y-76026000D01*
X128000682Y-75570377D01*
X127742592Y-75184119D01*
X127366897Y-74933087D01*
X127492207Y-74807778D01*
X127567411Y-74858027D01*
X127695000Y-74883406D01*
X128062555Y-74883406D01*
X127983109Y-75074735D01*
X127982891Y-75324171D01*
X128078145Y-75554703D01*
X128254369Y-75731235D01*
X128484735Y-75826891D01*
X128514580Y-75826917D01*
X128382617Y-76144718D01*
X128382243Y-76573402D01*
X128545948Y-76969597D01*
X128848809Y-77272987D01*
X129244718Y-77437383D01*
X129673402Y-77437757D01*
X130069597Y-77274052D01*
X130372987Y-76971191D01*
X130537383Y-76575282D01*
X130537757Y-76146598D01*
X130374052Y-75750403D01*
X130071191Y-75447013D01*
X129675282Y-75282617D01*
X129246598Y-75282243D01*
X129236925Y-75286240D01*
X129237109Y-75075829D01*
X129161733Y-74893406D01*
X129535000Y-74893406D01*
X129662589Y-74868027D01*
X129770754Y-74795754D01*
X129843027Y-74687589D01*
X129868406Y-74560000D01*
X129868406Y-74482147D01*
X130118809Y-74732987D01*
X130514718Y-74897383D01*
X130943402Y-74897757D01*
X131102709Y-74831933D01*
X131621313Y-75350537D01*
X131390403Y-75445948D01*
X131087013Y-75748809D01*
X130922617Y-76144718D01*
X130922243Y-76573402D01*
X131085948Y-76969597D01*
X131388809Y-77272987D01*
X131533536Y-77333083D01*
X131507999Y-77461467D01*
X131507999Y-78750001D01*
X131542405Y-78922974D01*
X131640387Y-79069613D01*
X131740396Y-79169623D01*
X131887035Y-79267605D01*
X131901027Y-79270388D01*
X131951594Y-79280446D01*
X131951594Y-79990000D01*
X131976973Y-80117589D01*
X132049246Y-80225754D01*
X132157411Y-80298027D01*
X132285000Y-80323406D01*
X133035000Y-80323406D01*
X133162589Y-80298027D01*
X133270754Y-80225754D01*
X133343027Y-80117589D01*
X133356722Y-80048740D01*
X133484800Y-80101922D01*
X133734236Y-80102140D01*
X133964768Y-80006886D01*
X134141300Y-79830662D01*
X134236956Y-79600296D01*
X134237174Y-79350860D01*
X134216990Y-79302011D01*
X134587397Y-79302011D01*
X134685757Y-79367734D01*
X134858730Y-79402140D01*
X134939222Y-79402140D01*
X134946841Y-79409759D01*
X134939222Y-79417378D01*
X134858730Y-79417378D01*
X134685757Y-79451784D01*
X134539117Y-79549766D01*
X133070377Y-81018507D01*
X132972395Y-81165146D01*
X132937989Y-81338119D01*
X132937989Y-82776400D01*
X132972395Y-82949373D01*
X133070377Y-83096012D01*
X133548000Y-83573635D01*
X133548000Y-83966594D01*
X133450000Y-83966594D01*
X133322411Y-83991973D01*
X133214246Y-84064246D01*
X133141973Y-84172411D01*
X133116594Y-84300000D01*
X133116594Y-84517323D01*
X133110009Y-84510726D01*
X132988363Y-84460214D01*
X132988406Y-84460000D01*
X132988406Y-83660000D01*
X132963027Y-83532411D01*
X132890754Y-83424246D01*
X132782589Y-83351973D01*
X132655000Y-83326594D01*
X131905000Y-83326594D01*
X131777411Y-83351973D01*
X131703406Y-83401421D01*
X131703406Y-82560000D01*
X131678027Y-82432411D01*
X131663053Y-82410000D01*
X131678027Y-82387589D01*
X131703406Y-82260000D01*
X131703406Y-81660000D01*
X131678027Y-81532411D01*
X131605754Y-81424246D01*
X131497589Y-81351973D01*
X131370000Y-81326594D01*
X130970000Y-81326594D01*
X130842411Y-81351973D01*
X130734246Y-81424246D01*
X130661973Y-81532411D01*
X130636594Y-81660000D01*
X130636594Y-82226594D01*
X129703406Y-82226594D01*
X129703406Y-81667003D01*
X129824171Y-81667109D01*
X130054703Y-81571855D01*
X130231235Y-81395631D01*
X130326891Y-81165265D01*
X130327109Y-80915829D01*
X130231855Y-80685297D01*
X130190467Y-80643836D01*
X130218027Y-80602589D01*
X130243406Y-80475000D01*
X130243406Y-79725000D01*
X130218027Y-79597411D01*
X130145754Y-79489246D01*
X130037589Y-79416973D01*
X129910000Y-79391594D01*
X129273034Y-79391594D01*
X129295965Y-79336369D01*
X129295981Y-79318243D01*
X129405818Y-79208406D01*
X129900000Y-79208406D01*
X130027589Y-79183027D01*
X130135754Y-79110754D01*
X130208027Y-79002589D01*
X130233406Y-78875000D01*
X130233406Y-78125000D01*
X130208027Y-77997411D01*
X130135754Y-77889246D01*
X130027589Y-77816973D01*
X129900000Y-77791594D01*
X129100000Y-77791594D01*
X128972411Y-77816973D01*
X128864246Y-77889246D01*
X128791973Y-77997411D01*
X128766594Y-78125000D01*
X128766594Y-78569182D01*
X128751600Y-78584176D01*
X128544903Y-78583995D01*
X128314371Y-78679249D01*
X128137839Y-78855473D01*
X128042183Y-79085839D01*
X128041965Y-79335275D01*
X128137219Y-79565807D01*
X128217074Y-79645802D01*
X128217074Y-81909074D01*
X128251480Y-82082047D01*
X128349462Y-82228686D01*
X128400388Y-82279612D01*
X128547027Y-82377594D01*
X128671890Y-82402430D01*
X128676947Y-82410000D01*
X128661973Y-82432411D01*
X128636594Y-82560000D01*
X128636594Y-84060000D01*
X128661973Y-84187589D01*
X128676947Y-84210000D01*
X128661973Y-84232411D01*
X128636594Y-84360000D01*
X128636594Y-84555719D01*
X128544430Y-84463394D01*
X128314064Y-84367738D01*
X128071406Y-84367526D01*
X128071406Y-82782400D01*
X128046027Y-82654811D01*
X127973754Y-82546646D01*
X127865589Y-82474373D01*
X127738000Y-82448994D01*
X125706000Y-82448994D01*
X125578411Y-82474373D01*
X125470246Y-82546646D01*
X125397973Y-82654811D01*
X125372594Y-82782400D01*
X125372594Y-83410781D01*
X125353027Y-83312411D01*
X125280754Y-83204246D01*
X125172589Y-83131973D01*
X125045000Y-83106594D01*
X124295000Y-83106594D01*
X124167411Y-83131973D01*
X124153406Y-83141331D01*
X124153406Y-82900000D01*
X124128027Y-82772411D01*
X124055754Y-82664246D01*
X123947589Y-82591973D01*
X123820000Y-82566594D01*
X122020000Y-82566594D01*
X121892411Y-82591973D01*
X121784246Y-82664246D01*
X121711973Y-82772411D01*
X121686594Y-82900000D01*
X121686594Y-83700000D01*
X121711973Y-83827589D01*
X121726947Y-83850000D01*
X121711973Y-83872411D01*
X121686594Y-84000000D01*
X121686594Y-84800000D01*
X121711973Y-84927589D01*
X121726947Y-84950000D01*
X121711973Y-84972411D01*
X121696163Y-85051893D01*
X121542763Y-85082406D01*
X121396124Y-85180388D01*
X119840388Y-86736124D01*
X119742406Y-86882763D01*
X119710597Y-87042680D01*
X119628765Y-87124369D01*
X119533109Y-87354735D01*
X119532891Y-87604171D01*
X119628145Y-87834703D01*
X119804369Y-88011235D01*
X120034735Y-88106891D01*
X120284171Y-88107109D01*
X120514703Y-88011855D01*
X120691235Y-87835631D01*
X120786891Y-87605265D01*
X120787109Y-87355829D01*
X120729925Y-87217434D01*
X120898412Y-87386215D01*
X121128778Y-87481871D01*
X121378214Y-87482089D01*
X121608746Y-87386835D01*
X121696740Y-87298995D01*
X121686594Y-87350000D01*
X121686594Y-88050000D01*
X121711973Y-88177589D01*
X121784246Y-88285754D01*
X121892411Y-88358027D01*
X122020000Y-88383406D01*
X123820000Y-88383406D01*
X123947589Y-88358027D01*
X124055754Y-88285754D01*
X124128027Y-88177589D01*
X124135717Y-88138928D01*
X124242973Y-88117594D01*
X124389612Y-88019612D01*
X125089612Y-87319613D01*
X125187594Y-87172974D01*
X125202109Y-87100000D01*
X125222000Y-87000000D01*
X125222000Y-85424728D01*
X125301235Y-85345631D01*
X125396891Y-85115265D01*
X125397109Y-84865829D01*
X125301855Y-84635297D01*
X125197873Y-84531133D01*
X125280754Y-84475754D01*
X125353027Y-84367589D01*
X125372594Y-84269219D01*
X125372594Y-84509600D01*
X125397973Y-84637189D01*
X125470246Y-84745354D01*
X125578411Y-84817627D01*
X125706000Y-84843006D01*
X127572853Y-84843006D01*
X127561908Y-84869364D01*
X127561690Y-85118800D01*
X127656944Y-85349332D01*
X127833168Y-85525864D01*
X128050158Y-85615966D01*
X128071204Y-85721771D01*
X128169186Y-85868410D01*
X128829712Y-86528936D01*
X128703437Y-86581112D01*
X128526905Y-86757336D01*
X128431249Y-86987702D01*
X128431058Y-87206478D01*
X127983406Y-86758826D01*
X127983406Y-86400000D01*
X127958027Y-86272411D01*
X127885754Y-86164246D01*
X127777589Y-86091973D01*
X127650000Y-86066594D01*
X126200000Y-86066594D01*
X126072411Y-86091973D01*
X125964246Y-86164246D01*
X125891973Y-86272411D01*
X125866594Y-86400000D01*
X125866594Y-87100000D01*
X125891973Y-87227589D01*
X125964246Y-87335754D01*
X126072411Y-87408027D01*
X126200000Y-87433406D01*
X127308826Y-87433406D01*
X128130689Y-88255269D01*
X128194640Y-88298000D01*
X127963117Y-88298000D01*
X127958027Y-88272411D01*
X127885754Y-88164246D01*
X127777589Y-88091973D01*
X127650000Y-88066594D01*
X126200000Y-88066594D01*
X126072411Y-88091973D01*
X125964246Y-88164246D01*
X125891973Y-88272411D01*
X125866594Y-88400000D01*
X125866594Y-89100000D01*
X125891973Y-89227589D01*
X125964246Y-89335754D01*
X126072411Y-89408027D01*
X126200000Y-89433406D01*
X127650000Y-89433406D01*
X127777589Y-89408027D01*
X127885754Y-89335754D01*
X127958027Y-89227589D01*
X127963117Y-89202000D01*
X129302376Y-89202000D01*
X129475349Y-89167594D01*
X129621988Y-89069612D01*
X130072396Y-88619204D01*
X130522804Y-89069612D01*
X130669443Y-89167594D01*
X130842416Y-89202000D01*
X131036883Y-89202000D01*
X131041973Y-89227589D01*
X131114246Y-89335754D01*
X131222411Y-89408027D01*
X131350000Y-89433406D01*
X132800000Y-89433406D01*
X132927589Y-89408027D01*
X133035754Y-89335754D01*
X133108027Y-89227589D01*
X133113117Y-89202000D01*
X133293981Y-89202000D01*
X133316973Y-89317589D01*
X133389246Y-89425754D01*
X133497411Y-89498027D01*
X133625000Y-89523406D01*
X134375000Y-89523406D01*
X134502589Y-89498027D01*
X134610754Y-89425754D01*
X134683027Y-89317589D01*
X134698063Y-89242000D01*
X135799948Y-89242000D01*
X135816973Y-89327589D01*
X135889246Y-89435754D01*
X135997411Y-89508027D01*
X136125000Y-89533406D01*
X136875000Y-89533406D01*
X137002589Y-89508027D01*
X137110754Y-89435754D01*
X137183027Y-89327589D01*
X137198063Y-89252000D01*
X137349315Y-89252000D01*
X137475000Y-89277000D01*
X137600685Y-89252000D01*
X137658284Y-89252000D01*
X137714246Y-89335754D01*
X137822411Y-89408027D01*
X137950000Y-89433406D01*
X138673000Y-89433406D01*
X138673000Y-89598000D01*
X117391554Y-89598000D01*
X117644777Y-89344778D01*
X117644779Y-89344775D01*
X117879786Y-89109769D01*
X118059057Y-88841470D01*
X118075262Y-88760001D01*
X118122009Y-88524991D01*
X118122009Y-74355009D01*
X118059057Y-74038530D01*
X117879786Y-73770232D01*
X117344777Y-73235223D01*
X117076479Y-73055952D01*
X116760000Y-72993000D01*
X116443521Y-73055952D01*
X116175223Y-73235223D01*
X115995952Y-73503521D01*
X115933000Y-73820000D01*
X115995952Y-74136479D01*
X116175223Y-74404777D01*
X116468009Y-74697563D01*
X116468009Y-80142381D01*
X116325265Y-80083109D01*
X116075829Y-80082891D01*
X115845297Y-80178145D01*
X115668765Y-80354369D01*
X115573109Y-80584735D01*
X115572915Y-80806267D01*
X115551855Y-80755297D01*
X115375631Y-80578765D01*
X115145265Y-80483109D01*
X114895829Y-80482891D01*
X114774556Y-80533000D01*
X114524412Y-80533000D01*
X114528027Y-80527589D01*
X114553406Y-80400000D01*
X114553406Y-79600000D01*
X114528940Y-79477000D01*
X114804584Y-79477000D01*
X114924735Y-79526891D01*
X115174171Y-79527109D01*
X115404703Y-79431855D01*
X115581235Y-79255631D01*
X115676891Y-79025265D01*
X115677109Y-78775829D01*
X115581855Y-78545297D01*
X115405631Y-78368765D01*
X115175265Y-78273109D01*
X114925829Y-78272891D01*
X114804556Y-78323000D01*
X114495012Y-78323000D01*
X114455754Y-78264246D01*
X114347589Y-78191973D01*
X114220000Y-78166594D01*
X114047000Y-78166594D01*
X114047000Y-72021925D01*
X114084048Y-71966479D01*
X114147000Y-71650000D01*
X114084048Y-71333521D01*
X114027598Y-71249037D01*
X114027757Y-71066598D01*
X113864052Y-70670403D01*
X113596117Y-70402000D01*
X122989966Y-70402000D01*
X122966973Y-70436411D01*
G36*
X146373000Y-77211594D02*
X146310000Y-77211594D01*
X146182411Y-77236973D01*
X146074246Y-77309246D01*
X146001973Y-77417411D01*
X145976594Y-77545000D01*
X145976594Y-78295000D01*
X146001973Y-78422589D01*
X146048000Y-78491474D01*
X146048000Y-79181856D01*
X146047411Y-79181973D01*
X145939246Y-79254246D01*
X145866973Y-79362411D01*
X145841594Y-79490000D01*
X145841594Y-79673000D01*
X145568069Y-79673000D01*
X145598037Y-79628149D01*
X145623416Y-79500560D01*
X145623416Y-78499800D01*
X145598037Y-78372211D01*
X145525764Y-78264046D01*
X145417599Y-78191773D01*
X145290010Y-78166394D01*
X142620559Y-78166394D01*
X142764703Y-78106835D01*
X142941235Y-77930611D01*
X143036891Y-77700245D01*
X143037109Y-77450809D01*
X142993629Y-77345579D01*
X143214718Y-77437383D01*
X143643402Y-77437757D01*
X144039597Y-77274052D01*
X144342987Y-76971191D01*
X144507383Y-76575282D01*
X144507757Y-76146598D01*
X144344052Y-75750403D01*
X144041191Y-75447013D01*
X143645282Y-75282617D01*
X143216598Y-75282243D01*
X143004221Y-75369996D01*
X142328406Y-74694182D01*
X142328406Y-74277001D01*
X142363533Y-74277001D01*
X142388675Y-74272000D01*
X142450830Y-74272000D01*
X142515948Y-74429597D01*
X142818809Y-74732987D01*
X143214718Y-74897383D01*
X143643402Y-74897757D01*
X144039597Y-74734052D01*
X144342987Y-74431191D01*
X144507383Y-74035282D01*
X144507757Y-73606598D01*
X144344052Y-73210403D01*
X144041191Y-72907013D01*
X143645282Y-72742617D01*
X143216598Y-72742243D01*
X142820403Y-72905948D01*
X142517013Y-73208809D01*
X142450911Y-73368000D01*
X142368534Y-73368000D01*
X142343392Y-73373001D01*
X142328406Y-73373001D01*
X142328406Y-72700000D01*
X142303027Y-72572411D01*
X142230754Y-72464246D01*
X142122589Y-72391973D01*
X141995000Y-72366594D01*
X141387842Y-72366594D01*
X141341855Y-72255297D01*
X141165631Y-72078765D01*
X141144312Y-72069912D01*
X141405818Y-71808406D01*
X141900000Y-71808406D01*
X142027589Y-71783027D01*
X142135754Y-71710754D01*
X142208027Y-71602589D01*
X142233406Y-71475000D01*
X142233406Y-70725000D01*
X142208027Y-70597411D01*
X142135754Y-70489246D01*
X142027589Y-70416973D01*
X141952315Y-70402000D01*
X146373000Y-70402000D01*
X146373000Y-77211594D01*
X146373000Y-77211594D01*
G37*
X146373000Y-77211594D02*
X146310000Y-77211594D01*
X146182411Y-77236973D01*
X146074246Y-77309246D01*
X146001973Y-77417411D01*
X145976594Y-77545000D01*
X145976594Y-78295000D01*
X146001973Y-78422589D01*
X146048000Y-78491474D01*
X146048000Y-79181856D01*
X146047411Y-79181973D01*
X145939246Y-79254246D01*
X145866973Y-79362411D01*
X145841594Y-79490000D01*
X145841594Y-79673000D01*
X145568069Y-79673000D01*
X145598037Y-79628149D01*
X145623416Y-79500560D01*
X145623416Y-78499800D01*
X145598037Y-78372211D01*
X145525764Y-78264046D01*
X145417599Y-78191773D01*
X145290010Y-78166394D01*
X142620559Y-78166394D01*
X142764703Y-78106835D01*
X142941235Y-77930611D01*
X143036891Y-77700245D01*
X143037109Y-77450809D01*
X142993629Y-77345579D01*
X143214718Y-77437383D01*
X143643402Y-77437757D01*
X144039597Y-77274052D01*
X144342987Y-76971191D01*
X144507383Y-76575282D01*
X144507757Y-76146598D01*
X144344052Y-75750403D01*
X144041191Y-75447013D01*
X143645282Y-75282617D01*
X143216598Y-75282243D01*
X143004221Y-75369996D01*
X142328406Y-74694182D01*
X142328406Y-74277001D01*
X142363533Y-74277001D01*
X142388675Y-74272000D01*
X142450830Y-74272000D01*
X142515948Y-74429597D01*
X142818809Y-74732987D01*
X143214718Y-74897383D01*
X143643402Y-74897757D01*
X144039597Y-74734052D01*
X144342987Y-74431191D01*
X144507383Y-74035282D01*
X144507757Y-73606598D01*
X144344052Y-73210403D01*
X144041191Y-72907013D01*
X143645282Y-72742617D01*
X143216598Y-72742243D01*
X142820403Y-72905948D01*
X142517013Y-73208809D01*
X142450911Y-73368000D01*
X142368534Y-73368000D01*
X142343392Y-73373001D01*
X142328406Y-73373001D01*
X142328406Y-72700000D01*
X142303027Y-72572411D01*
X142230754Y-72464246D01*
X142122589Y-72391973D01*
X141995000Y-72366594D01*
X141387842Y-72366594D01*
X141341855Y-72255297D01*
X141165631Y-72078765D01*
X141144312Y-72069912D01*
X141405818Y-71808406D01*
X141900000Y-71808406D01*
X142027589Y-71783027D01*
X142135754Y-71710754D01*
X142208027Y-71602589D01*
X142233406Y-71475000D01*
X142233406Y-70725000D01*
X142208027Y-70597411D01*
X142135754Y-70489246D01*
X142027589Y-70416973D01*
X141952315Y-70402000D01*
X146373000Y-70402000D01*
X146373000Y-77211594D01*
G36*
X133653541Y-76434612D02*
X133767298Y-76510622D01*
X133800180Y-76532593D01*
X133973153Y-76566999D01*
X133978656Y-76566999D01*
X133987028Y-76572593D01*
X134076085Y-76590307D01*
X135105390Y-77619612D01*
X135252029Y-77717594D01*
X135418089Y-77750625D01*
X135606292Y-77938828D01*
X135624537Y-77966134D01*
X136113568Y-78455165D01*
X136054746Y-78513987D01*
X135565715Y-78024956D01*
X135538409Y-78006711D01*
X135490475Y-77958777D01*
X135343836Y-77860795D01*
X135170863Y-77826389D01*
X134661577Y-77826389D01*
X134488604Y-77860795D01*
X134358094Y-77948000D01*
X133951999Y-77948000D01*
X133951999Y-77405001D01*
X133917593Y-77232028D01*
X133878153Y-77173002D01*
X133819611Y-77085388D01*
X133626999Y-76892777D01*
X133626999Y-76408070D01*
X133653541Y-76434612D01*
X133653541Y-76434612D01*
G37*
X133653541Y-76434612D02*
X133767298Y-76510622D01*
X133800180Y-76532593D01*
X133973153Y-76566999D01*
X133978656Y-76566999D01*
X133987028Y-76572593D01*
X134076085Y-76590307D01*
X135105390Y-77619612D01*
X135252029Y-77717594D01*
X135418089Y-77750625D01*
X135606292Y-77938828D01*
X135624537Y-77966134D01*
X136113568Y-78455165D01*
X136054746Y-78513987D01*
X135565715Y-78024956D01*
X135538409Y-78006711D01*
X135490475Y-77958777D01*
X135343836Y-77860795D01*
X135170863Y-77826389D01*
X134661577Y-77826389D01*
X134488604Y-77860795D01*
X134358094Y-77948000D01*
X133951999Y-77948000D01*
X133951999Y-77405001D01*
X133917593Y-77232028D01*
X133878153Y-77173002D01*
X133819611Y-77085388D01*
X133626999Y-76892777D01*
X133626999Y-76408070D01*
X133653541Y-76434612D01*
G36*
X140972411Y-70416973D02*
X140864246Y-70489246D01*
X140791973Y-70597411D01*
X140766594Y-70725000D01*
X140766594Y-71169182D01*
X140587775Y-71348001D01*
X139929997Y-71348001D01*
X139757024Y-71382407D01*
X139610385Y-71480389D01*
X138970387Y-72120387D01*
X138917622Y-72199355D01*
X138860754Y-72114246D01*
X138752589Y-72041973D01*
X138702000Y-72031910D01*
X138702000Y-71948063D01*
X138777589Y-71933027D01*
X138885754Y-71860754D01*
X138958027Y-71752589D01*
X138983406Y-71625000D01*
X138983406Y-70875000D01*
X138958027Y-70747411D01*
X138885754Y-70639246D01*
X138777589Y-70566973D01*
X138650000Y-70541594D01*
X137850000Y-70541594D01*
X137722411Y-70566973D01*
X137614246Y-70639246D01*
X137541973Y-70747411D01*
X137516594Y-70875000D01*
X137516594Y-71625000D01*
X137541973Y-71752589D01*
X137614246Y-71860754D01*
X137722411Y-71933027D01*
X137798000Y-71948063D01*
X137798000Y-72031910D01*
X137747411Y-72041973D01*
X137639246Y-72114246D01*
X137566973Y-72222411D01*
X137541594Y-72350000D01*
X137541594Y-73150000D01*
X137566973Y-73277589D01*
X137639246Y-73385754D01*
X137747411Y-73458027D01*
X137875000Y-73483406D01*
X138625000Y-73483406D01*
X138752589Y-73458027D01*
X138837999Y-73400958D01*
X138837999Y-73599042D01*
X138752589Y-73541973D01*
X138625000Y-73516594D01*
X137875000Y-73516594D01*
X137747411Y-73541973D01*
X137639246Y-73614246D01*
X137566973Y-73722411D01*
X137541594Y-73850000D01*
X137541594Y-74142772D01*
X137458406Y-74225960D01*
X137458406Y-73850000D01*
X137433027Y-73722411D01*
X137360754Y-73614246D01*
X137252589Y-73541973D01*
X137125000Y-73516594D01*
X136375000Y-73516594D01*
X136247411Y-73541973D01*
X136139246Y-73614246D01*
X136134930Y-73620706D01*
X135876465Y-73362241D01*
X135933027Y-73277589D01*
X135948063Y-73202000D01*
X136051937Y-73202000D01*
X136066973Y-73277589D01*
X136139246Y-73385754D01*
X136247411Y-73458027D01*
X136375000Y-73483406D01*
X137125000Y-73483406D01*
X137252589Y-73458027D01*
X137360754Y-73385754D01*
X137433027Y-73277589D01*
X137458406Y-73150000D01*
X137458406Y-72350000D01*
X137433027Y-72222411D01*
X137360754Y-72114246D01*
X137252589Y-72041973D01*
X137125000Y-72016594D01*
X136375000Y-72016594D01*
X136247411Y-72041973D01*
X136139246Y-72114246D01*
X136066973Y-72222411D01*
X136051937Y-72298000D01*
X135948063Y-72298000D01*
X135933027Y-72222411D01*
X135860754Y-72114246D01*
X135752589Y-72041973D01*
X135625000Y-72016594D01*
X134875000Y-72016594D01*
X134747411Y-72041973D01*
X134639246Y-72114246D01*
X134566973Y-72222411D01*
X134551937Y-72298000D01*
X134324728Y-72298000D01*
X134245631Y-72218765D01*
X134015265Y-72123109D01*
X133765829Y-72122891D01*
X133535297Y-72218145D01*
X133358765Y-72394369D01*
X133263109Y-72624735D01*
X133262891Y-72874171D01*
X133358145Y-73104703D01*
X133534369Y-73281235D01*
X133587485Y-73303291D01*
X132955390Y-73935386D01*
X132857408Y-74082025D01*
X132823002Y-74254998D01*
X132823002Y-74962035D01*
X132746357Y-74885390D01*
X132599718Y-74787408D01*
X132426745Y-74753002D01*
X132302226Y-74753002D01*
X131741990Y-74192766D01*
X131807383Y-74035282D01*
X131807757Y-73606598D01*
X131644052Y-73210403D01*
X131341191Y-72907013D01*
X131182000Y-72840911D01*
X131182000Y-71985817D01*
X131388809Y-72192987D01*
X131784718Y-72357383D01*
X132213402Y-72357757D01*
X132609597Y-72194052D01*
X132912987Y-71891191D01*
X133077383Y-71495282D01*
X133077757Y-71066598D01*
X132914052Y-70670403D01*
X132646117Y-70402000D01*
X141047685Y-70402000D01*
X140972411Y-70416973D01*
X140972411Y-70416973D01*
G37*
X140972411Y-70416973D02*
X140864246Y-70489246D01*
X140791973Y-70597411D01*
X140766594Y-70725000D01*
X140766594Y-71169182D01*
X140587775Y-71348001D01*
X139929997Y-71348001D01*
X139757024Y-71382407D01*
X139610385Y-71480389D01*
X138970387Y-72120387D01*
X138917622Y-72199355D01*
X138860754Y-72114246D01*
X138752589Y-72041973D01*
X138702000Y-72031910D01*
X138702000Y-71948063D01*
X138777589Y-71933027D01*
X138885754Y-71860754D01*
X138958027Y-71752589D01*
X138983406Y-71625000D01*
X138983406Y-70875000D01*
X138958027Y-70747411D01*
X138885754Y-70639246D01*
X138777589Y-70566973D01*
X138650000Y-70541594D01*
X137850000Y-70541594D01*
X137722411Y-70566973D01*
X137614246Y-70639246D01*
X137541973Y-70747411D01*
X137516594Y-70875000D01*
X137516594Y-71625000D01*
X137541973Y-71752589D01*
X137614246Y-71860754D01*
X137722411Y-71933027D01*
X137798000Y-71948063D01*
X137798000Y-72031910D01*
X137747411Y-72041973D01*
X137639246Y-72114246D01*
X137566973Y-72222411D01*
X137541594Y-72350000D01*
X137541594Y-73150000D01*
X137566973Y-73277589D01*
X137639246Y-73385754D01*
X137747411Y-73458027D01*
X137875000Y-73483406D01*
X138625000Y-73483406D01*
X138752589Y-73458027D01*
X138837999Y-73400958D01*
X138837999Y-73599042D01*
X138752589Y-73541973D01*
X138625000Y-73516594D01*
X137875000Y-73516594D01*
X137747411Y-73541973D01*
X137639246Y-73614246D01*
X137566973Y-73722411D01*
X137541594Y-73850000D01*
X137541594Y-74142772D01*
X137458406Y-74225960D01*
X137458406Y-73850000D01*
X137433027Y-73722411D01*
X137360754Y-73614246D01*
X137252589Y-73541973D01*
X137125000Y-73516594D01*
X136375000Y-73516594D01*
X136247411Y-73541973D01*
X136139246Y-73614246D01*
X136134930Y-73620706D01*
X135876465Y-73362241D01*
X135933027Y-73277589D01*
X135948063Y-73202000D01*
X136051937Y-73202000D01*
X136066973Y-73277589D01*
X136139246Y-73385754D01*
X136247411Y-73458027D01*
X136375000Y-73483406D01*
X137125000Y-73483406D01*
X137252589Y-73458027D01*
X137360754Y-73385754D01*
X137433027Y-73277589D01*
X137458406Y-73150000D01*
X137458406Y-72350000D01*
X137433027Y-72222411D01*
X137360754Y-72114246D01*
X137252589Y-72041973D01*
X137125000Y-72016594D01*
X136375000Y-72016594D01*
X136247411Y-72041973D01*
X136139246Y-72114246D01*
X136066973Y-72222411D01*
X136051937Y-72298000D01*
X135948063Y-72298000D01*
X135933027Y-72222411D01*
X135860754Y-72114246D01*
X135752589Y-72041973D01*
X135625000Y-72016594D01*
X134875000Y-72016594D01*
X134747411Y-72041973D01*
X134639246Y-72114246D01*
X134566973Y-72222411D01*
X134551937Y-72298000D01*
X134324728Y-72298000D01*
X134245631Y-72218765D01*
X134015265Y-72123109D01*
X133765829Y-72122891D01*
X133535297Y-72218145D01*
X133358765Y-72394369D01*
X133263109Y-72624735D01*
X133262891Y-72874171D01*
X133358145Y-73104703D01*
X133534369Y-73281235D01*
X133587485Y-73303291D01*
X132955390Y-73935386D01*
X132857408Y-74082025D01*
X132823002Y-74254998D01*
X132823002Y-74962035D01*
X132746357Y-74885390D01*
X132599718Y-74787408D01*
X132426745Y-74753002D01*
X132302226Y-74753002D01*
X131741990Y-74192766D01*
X131807383Y-74035282D01*
X131807757Y-73606598D01*
X131644052Y-73210403D01*
X131341191Y-72907013D01*
X131182000Y-72840911D01*
X131182000Y-71985817D01*
X131388809Y-72192987D01*
X131784718Y-72357383D01*
X132213402Y-72357757D01*
X132609597Y-72194052D01*
X132912987Y-71891191D01*
X133077383Y-71495282D01*
X133077757Y-71066598D01*
X132914052Y-70670403D01*
X132646117Y-70402000D01*
X141047685Y-70402000D01*
X140972411Y-70416973D01*
G36*
X129204246Y-70419246D02*
X129131973Y-70527411D01*
X129106594Y-70655000D01*
X129106594Y-71405000D01*
X129131973Y-71532589D01*
X129204246Y-71640754D01*
X129312411Y-71713027D01*
X129440000Y-71738406D01*
X129934182Y-71738406D01*
X130278000Y-72082224D01*
X130278000Y-72840830D01*
X130120403Y-72905948D01*
X129817013Y-73208809D01*
X129704433Y-73479932D01*
X129662589Y-73451973D01*
X129535000Y-73426594D01*
X128785000Y-73426594D01*
X128657411Y-73451973D01*
X128622483Y-73475311D01*
X128572589Y-73441973D01*
X128445000Y-73416594D01*
X127807013Y-73416594D01*
X127807013Y-71642477D01*
X127776032Y-71486725D01*
X127762018Y-71465752D01*
X127687806Y-71354685D01*
X127134328Y-70801208D01*
X127002288Y-70712981D01*
X126989252Y-70710388D01*
X126846536Y-70682000D01*
X126041609Y-70682000D01*
X126032589Y-70675973D01*
X125905000Y-70650594D01*
X125555000Y-70650594D01*
X125427411Y-70675973D01*
X125418406Y-70681990D01*
X125418406Y-70564000D01*
X125393027Y-70436411D01*
X125370034Y-70402000D01*
X129230057Y-70402000D01*
X129204246Y-70419246D01*
X129204246Y-70419246D01*
G37*
X129204246Y-70419246D02*
X129131973Y-70527411D01*
X129106594Y-70655000D01*
X129106594Y-71405000D01*
X129131973Y-71532589D01*
X129204246Y-71640754D01*
X129312411Y-71713027D01*
X129440000Y-71738406D01*
X129934182Y-71738406D01*
X130278000Y-72082224D01*
X130278000Y-72840830D01*
X130120403Y-72905948D01*
X129817013Y-73208809D01*
X129704433Y-73479932D01*
X129662589Y-73451973D01*
X129535000Y-73426594D01*
X128785000Y-73426594D01*
X128657411Y-73451973D01*
X128622483Y-73475311D01*
X128572589Y-73441973D01*
X128445000Y-73416594D01*
X127807013Y-73416594D01*
X127807013Y-71642477D01*
X127776032Y-71486725D01*
X127762018Y-71465752D01*
X127687806Y-71354685D01*
X127134328Y-70801208D01*
X127002288Y-70712981D01*
X126989252Y-70710388D01*
X126846536Y-70682000D01*
X126041609Y-70682000D01*
X126032589Y-70675973D01*
X125905000Y-70650594D01*
X125555000Y-70650594D01*
X125427411Y-70675973D01*
X125418406Y-70681990D01*
X125418406Y-70564000D01*
X125393027Y-70436411D01*
X125370034Y-70402000D01*
X129230057Y-70402000D01*
X129204246Y-70419246D01*
G36*
X126633002Y-71960183D02*
X126633002Y-72708839D01*
X126577781Y-72626196D01*
X126352792Y-72401208D01*
X126238406Y-72324777D01*
X126238406Y-72184000D01*
X126213027Y-72056411D01*
X126140754Y-71948246D01*
X126062562Y-71896000D01*
X126568820Y-71896000D01*
X126633002Y-71960183D01*
X126633002Y-71960183D01*
G37*
X126633002Y-71960183D02*
X126633002Y-72708839D01*
X126577781Y-72626196D01*
X126352792Y-72401208D01*
X126238406Y-72324777D01*
X126238406Y-72184000D01*
X126213027Y-72056411D01*
X126140754Y-71948246D01*
X126062562Y-71896000D01*
X126568820Y-71896000D01*
X126633002Y-71960183D01*
M02*
