G04 #@! TF.FileFunction,Legend,Top*
%FSLAX46Y46*%
G04 Gerber Fmt 4.6, Leading zero omitted, Abs format (unit mm)*
G04 Created by KiCad (PCBNEW (2016-02-18 BZR 6566)-product) date Monday, 28 March 2016 10:54:37*
%MOMM*%
G01*
G04 APERTURE LIST*
%ADD10C,0.100000*%
%ADD11C,0.050000*%
%ADD12C,0.010000*%
%ADD13C,0.150000*%
%ADD14C,0.300000*%
G04 APERTURE END LIST*
D10*
D11*
X120140000Y-81239000D02*
X120140000Y-82939000D01*
X120140000Y-82939000D02*
X118620000Y-82939000D01*
X118620000Y-82939000D02*
X118620000Y-81239000D01*
X118620000Y-81239000D02*
X120140000Y-81239000D01*
D10*
X120580000Y-81089000D02*
G75*
G03X120580000Y-81089000I-200000J0D01*
G01*
D12*
X120880000Y-80589000D02*
X120880000Y-83589000D01*
X120880000Y-83589000D02*
X117880000Y-83589000D01*
X117880000Y-80589000D02*
X117880000Y-83589000D01*
X120880000Y-80589000D02*
X117880000Y-80589000D01*
D13*
X133070000Y-85697448D02*
X133441231Y-86068679D01*
X133070000Y-93122070D02*
X132698769Y-92750839D01*
X136782311Y-89409759D02*
X136411080Y-89038528D01*
X129357689Y-89409759D02*
X129728920Y-89038528D01*
X133070000Y-93122070D02*
X133441231Y-92750839D01*
X136782311Y-89409759D02*
X136411080Y-89780990D01*
X133070000Y-85697448D02*
X132698769Y-86068679D01*
X127880000Y-92960000D02*
X127880000Y-93660000D01*
X126680000Y-93660000D02*
X126680000Y-92960000D01*
X124760000Y-83060000D02*
X124760000Y-83760000D01*
X123560000Y-83760000D02*
X123560000Y-83060000D01*
X123670000Y-83050000D02*
X123670000Y-83750000D01*
X122470000Y-83750000D02*
X122470000Y-83050000D01*
X115460000Y-82460000D02*
X115460000Y-81760000D01*
X116660000Y-81760000D02*
X116660000Y-82460000D01*
X132650000Y-83850000D02*
X132650000Y-83150000D01*
X133850000Y-83150000D02*
X133850000Y-83850000D01*
X135400000Y-80500000D02*
X136100000Y-80500000D01*
X136100000Y-81700000D02*
X135400000Y-81700000D01*
X134300000Y-95260000D02*
X133600000Y-95260000D01*
X133600000Y-94060000D02*
X134300000Y-94060000D01*
X128260000Y-88490000D02*
X128260000Y-89190000D01*
X127060000Y-89190000D02*
X127060000Y-88490000D01*
X132150000Y-80650000D02*
X132850000Y-80650000D01*
X132850000Y-81850000D02*
X132150000Y-81850000D01*
X125610000Y-90700000D02*
X124910000Y-90700000D01*
X124910000Y-89500000D02*
X125610000Y-89500000D01*
X125600000Y-89100000D02*
X124900000Y-89100000D01*
X124900000Y-87900000D02*
X125600000Y-87900000D01*
X145400000Y-93850000D02*
X145400000Y-93150000D01*
X146600000Y-93150000D02*
X146600000Y-93850000D01*
X145770000Y-85410000D02*
X145070000Y-85410000D01*
X145070000Y-84210000D02*
X145770000Y-84210000D01*
X106170000Y-94790000D02*
X106170000Y-94090000D01*
X107370000Y-94090000D02*
X107370000Y-94790000D01*
X136020000Y-84200000D02*
X136020000Y-83500000D01*
X137220000Y-83500000D02*
X137220000Y-84200000D01*
X134390000Y-84200000D02*
X134390000Y-83500000D01*
X135590000Y-83500000D02*
X135590000Y-84200000D01*
X132350000Y-96550000D02*
X128150000Y-96550000D01*
X132350000Y-93950000D02*
X128150000Y-93950000D01*
X138470000Y-93830000D02*
X137770000Y-93830000D01*
X137770000Y-92630000D02*
X138470000Y-92630000D01*
X130850000Y-81650000D02*
X130850000Y-82350000D01*
X129650000Y-82350000D02*
X129650000Y-81650000D01*
X129358579Y-86742893D02*
X129853553Y-86247919D01*
X130702081Y-87096447D02*
X130207107Y-87591421D01*
X131150000Y-83850000D02*
X131150000Y-83150000D01*
X132350000Y-83150000D02*
X132350000Y-83850000D01*
X129600000Y-97690000D02*
X129600000Y-98390000D01*
X128400000Y-98390000D02*
X128400000Y-97690000D01*
X130900000Y-98400000D02*
X130900000Y-97700000D01*
X132100000Y-97700000D02*
X132100000Y-98400000D01*
D11*
X123690711Y-94860000D02*
G75*
G03X123690711Y-94860000I-70711J0D01*
G01*
X123720000Y-91860000D02*
X126620000Y-91860000D01*
X126620000Y-91860000D02*
X126620000Y-94760000D01*
X126620000Y-94760000D02*
X123720000Y-94760000D01*
X123720000Y-94760000D02*
X123720000Y-91860000D01*
D14*
X147470711Y-81900000D02*
G75*
G03X147470711Y-81900000I-70711J0D01*
G01*
D13*
X148000000Y-82000000D02*
X164000000Y-82000000D01*
X148000000Y-98000000D02*
X164000000Y-98000000D01*
X118020000Y-98050000D02*
X118020000Y-98300000D01*
X118020000Y-98300000D02*
X108220000Y-98300000D01*
X108220000Y-98300000D02*
X108220000Y-88250000D01*
X108220000Y-88250000D02*
X118020000Y-88250000D01*
X118020000Y-88250000D02*
X118020000Y-98050000D01*
X142600000Y-81050000D02*
X141600000Y-81050000D01*
X141600000Y-82750000D02*
X142600000Y-82750000D01*
X166875000Y-91650000D02*
X166875000Y-92350000D01*
X165675000Y-92350000D02*
X165675000Y-91650000D01*
X142600000Y-92750000D02*
X141600000Y-92750000D01*
X141600000Y-94450000D02*
X142600000Y-94450000D01*
X146600000Y-90140000D02*
X146600000Y-90840000D01*
X145400000Y-90840000D02*
X145400000Y-90140000D01*
X142110000Y-87320000D02*
X142810000Y-87320000D01*
X142810000Y-88520000D02*
X142110000Y-88520000D01*
X142600000Y-85250000D02*
X141600000Y-85250000D01*
X141600000Y-86950000D02*
X142600000Y-86950000D01*
X142600000Y-83150000D02*
X141600000Y-83150000D01*
X141600000Y-84850000D02*
X142600000Y-84850000D01*
X120270000Y-92740000D02*
X120270000Y-93440000D01*
X119070000Y-93440000D02*
X119070000Y-92740000D01*
X106220000Y-95610000D02*
X106220000Y-96310000D01*
X105020000Y-96310000D02*
X105020000Y-95610000D01*
X137770000Y-94250000D02*
X138470000Y-94250000D01*
X138470000Y-95450000D02*
X137770000Y-95450000D01*
X122992000Y-92376000D02*
X122992000Y-84756000D01*
X120452000Y-92376000D02*
X120452000Y-84756000D01*
X120172000Y-95196000D02*
X120172000Y-93646000D01*
X122992000Y-84756000D02*
X120452000Y-84756000D01*
X120452000Y-92376000D02*
X122992000Y-92376000D01*
X123272000Y-93646000D02*
X123272000Y-95196000D01*
X123272000Y-95196000D02*
X120172000Y-95196000D01*
X138600000Y-96000000D02*
X138600000Y-96100000D01*
X138600000Y-99500000D02*
X138600000Y-99400000D01*
X133900000Y-99400000D02*
X133900000Y-99500000D01*
X133900000Y-96000000D02*
X133900000Y-96100000D01*
X133900000Y-97400000D02*
X133900000Y-98100000D01*
X138600000Y-97400000D02*
X138600000Y-98100000D01*
X138600000Y-96000000D02*
X133900000Y-96000000D01*
X133900000Y-99500000D02*
X138600000Y-99500000D01*
X137150000Y-97750000D02*
G75*
G03X137150000Y-97750000I-900000J0D01*
G01*
X126850000Y-96000000D02*
X126850000Y-96100000D01*
X126850000Y-99500000D02*
X126850000Y-99400000D01*
X122150000Y-99400000D02*
X122150000Y-99500000D01*
X122150000Y-96000000D02*
X122150000Y-96100000D01*
X122150000Y-97400000D02*
X122150000Y-98100000D01*
X126850000Y-97400000D02*
X126850000Y-98100000D01*
X126850000Y-96000000D02*
X122150000Y-96000000D01*
X122150000Y-99500000D02*
X126850000Y-99500000D01*
X125400000Y-97750000D02*
G75*
G03X125400000Y-97750000I-900000J0D01*
G01*
X141825000Y-92290000D02*
X144275000Y-92290000D01*
X141100000Y-88990000D02*
X144275000Y-88990000D01*
X145770000Y-88500000D02*
X145070000Y-88500000D01*
X145070000Y-87300000D02*
X145770000Y-87300000D01*
X145770000Y-86940000D02*
X145070000Y-86940000D01*
X145070000Y-85740000D02*
X145770000Y-85740000D01*
X140740860Y-88598860D02*
X140740860Y-91601140D01*
X137139140Y-88598860D02*
X137139140Y-91601140D01*
X105170000Y-91028000D02*
X105170000Y-90328000D01*
X106370000Y-90328000D02*
X106370000Y-91028000D01*
X124440000Y-81630000D02*
X123740000Y-81630000D01*
X123740000Y-80430000D02*
X124440000Y-80430000D01*
X121251429Y-82546143D02*
X121737143Y-82546143D01*
X121794286Y-82517571D01*
X121822857Y-82489000D01*
X121851429Y-82431857D01*
X121851429Y-82317571D01*
X121822857Y-82260429D01*
X121794286Y-82231857D01*
X121737143Y-82203286D01*
X121251429Y-82203286D01*
X121308571Y-81946143D02*
X121280000Y-81917572D01*
X121251429Y-81860429D01*
X121251429Y-81717572D01*
X121280000Y-81660429D01*
X121308571Y-81631858D01*
X121365714Y-81603286D01*
X121422857Y-81603286D01*
X121508571Y-81631858D01*
X121851429Y-81974715D01*
X121851429Y-81603286D01*
X128574416Y-90380914D02*
X128917868Y-90724366D01*
X128978478Y-90744569D01*
X129018883Y-90744569D01*
X129079493Y-90724366D01*
X129160305Y-90643553D01*
X129180507Y-90582944D01*
X129180508Y-90542538D01*
X129160304Y-90481929D01*
X128816853Y-90138478D01*
X129342132Y-89896041D02*
X129624975Y-90178884D01*
X129079492Y-89835431D02*
X129281523Y-90239493D01*
X129544162Y-89976854D01*
X128634286Y-92710000D02*
X128662857Y-92738571D01*
X128691429Y-92824285D01*
X128691429Y-92881428D01*
X128662857Y-92967143D01*
X128605714Y-93024285D01*
X128548571Y-93052857D01*
X128434286Y-93081428D01*
X128348571Y-93081428D01*
X128234286Y-93052857D01*
X128177143Y-93024285D01*
X128120000Y-92967143D01*
X128091429Y-92881428D01*
X128091429Y-92824285D01*
X128120000Y-92738571D01*
X128148571Y-92710000D01*
X128691429Y-92138571D02*
X128691429Y-92481428D01*
X128691429Y-92310000D02*
X128091429Y-92310000D01*
X128177143Y-92367143D01*
X128234286Y-92424285D01*
X128262857Y-92481428D01*
X124330000Y-81584286D02*
X124301429Y-81612857D01*
X124215715Y-81641429D01*
X124158572Y-81641429D01*
X124072857Y-81612857D01*
X124015715Y-81555714D01*
X123987143Y-81498571D01*
X123958572Y-81384286D01*
X123958572Y-81298571D01*
X123987143Y-81184286D01*
X124015715Y-81127143D01*
X124072857Y-81070000D01*
X124158572Y-81041429D01*
X124215715Y-81041429D01*
X124301429Y-81070000D01*
X124330000Y-81098571D01*
X124558572Y-81098571D02*
X124587143Y-81070000D01*
X124644286Y-81041429D01*
X124787143Y-81041429D01*
X124844286Y-81070000D01*
X124872857Y-81098571D01*
X124901429Y-81155714D01*
X124901429Y-81212857D01*
X124872857Y-81298571D01*
X124530000Y-81641429D01*
X124901429Y-81641429D01*
X122890000Y-81544286D02*
X122861429Y-81572857D01*
X122775715Y-81601429D01*
X122718572Y-81601429D01*
X122632857Y-81572857D01*
X122575715Y-81515714D01*
X122547143Y-81458571D01*
X122518572Y-81344286D01*
X122518572Y-81258571D01*
X122547143Y-81144286D01*
X122575715Y-81087143D01*
X122632857Y-81030000D01*
X122718572Y-81001429D01*
X122775715Y-81001429D01*
X122861429Y-81030000D01*
X122890000Y-81058571D01*
X123090000Y-81001429D02*
X123461429Y-81001429D01*
X123261429Y-81230000D01*
X123347143Y-81230000D01*
X123404286Y-81258571D01*
X123432857Y-81287143D01*
X123461429Y-81344286D01*
X123461429Y-81487143D01*
X123432857Y-81544286D01*
X123404286Y-81572857D01*
X123347143Y-81601429D01*
X123175715Y-81601429D01*
X123118572Y-81572857D01*
X123090000Y-81544286D01*
X113920000Y-82404286D02*
X113891429Y-82432857D01*
X113805715Y-82461429D01*
X113748572Y-82461429D01*
X113662857Y-82432857D01*
X113605715Y-82375714D01*
X113577143Y-82318571D01*
X113548572Y-82204286D01*
X113548572Y-82118571D01*
X113577143Y-82004286D01*
X113605715Y-81947143D01*
X113662857Y-81890000D01*
X113748572Y-81861429D01*
X113805715Y-81861429D01*
X113891429Y-81890000D01*
X113920000Y-81918571D01*
X114434286Y-82061429D02*
X114434286Y-82461429D01*
X114291429Y-81832857D02*
X114148572Y-82261429D01*
X114520000Y-82261429D01*
X132807143Y-85521429D02*
X132807143Y-84921429D01*
X132950000Y-84921429D01*
X133035715Y-84950000D01*
X133092857Y-85007143D01*
X133121429Y-85064286D01*
X133150000Y-85178571D01*
X133150000Y-85264286D01*
X133121429Y-85378571D01*
X133092857Y-85435714D01*
X133035715Y-85492857D01*
X132950000Y-85521429D01*
X132807143Y-85521429D01*
X133721429Y-85521429D02*
X133378572Y-85521429D01*
X133550000Y-85521429D02*
X133550000Y-84921429D01*
X133492857Y-85007143D01*
X133435715Y-85064286D01*
X133378572Y-85092857D01*
X123347143Y-85391429D02*
X123347143Y-84791429D01*
X123575715Y-84791429D01*
X123632857Y-84820000D01*
X123661429Y-84848571D01*
X123690000Y-84905714D01*
X123690000Y-84991429D01*
X123661429Y-85048571D01*
X123632857Y-85077143D01*
X123575715Y-85105714D01*
X123347143Y-85105714D01*
X124261429Y-85391429D02*
X123918572Y-85391429D01*
X124090000Y-85391429D02*
X124090000Y-84791429D01*
X124032857Y-84877143D01*
X123975715Y-84934286D01*
X123918572Y-84962857D01*
X126587143Y-85341429D02*
X126587143Y-84741429D01*
X126815715Y-84741429D01*
X126872857Y-84770000D01*
X126901429Y-84798571D01*
X126930000Y-84855714D01*
X126930000Y-84941429D01*
X126901429Y-84998571D01*
X126872857Y-85027143D01*
X126815715Y-85055714D01*
X126587143Y-85055714D01*
X127158572Y-84798571D02*
X127187143Y-84770000D01*
X127244286Y-84741429D01*
X127387143Y-84741429D01*
X127444286Y-84770000D01*
X127472857Y-84798571D01*
X127501429Y-84855714D01*
X127501429Y-84912857D01*
X127472857Y-84998571D01*
X127130000Y-85341429D01*
X127501429Y-85341429D01*
X126667143Y-84151429D02*
X126667143Y-83551429D01*
X126895715Y-83551429D01*
X126952857Y-83580000D01*
X126981429Y-83608571D01*
X127010000Y-83665714D01*
X127010000Y-83751429D01*
X126981429Y-83808571D01*
X126952857Y-83837143D01*
X126895715Y-83865714D01*
X126667143Y-83865714D01*
X127210000Y-83551429D02*
X127581429Y-83551429D01*
X127381429Y-83780000D01*
X127467143Y-83780000D01*
X127524286Y-83808571D01*
X127552857Y-83837143D01*
X127581429Y-83894286D01*
X127581429Y-84037143D01*
X127552857Y-84094286D01*
X127524286Y-84122857D01*
X127467143Y-84151429D01*
X127295715Y-84151429D01*
X127238572Y-84122857D01*
X127210000Y-84094286D01*
X146477143Y-82831429D02*
X146477143Y-82231429D01*
X146705715Y-82231429D01*
X146762857Y-82260000D01*
X146791429Y-82288571D01*
X146820000Y-82345714D01*
X146820000Y-82431429D01*
X146791429Y-82488571D01*
X146762857Y-82517143D01*
X146705715Y-82545714D01*
X146477143Y-82545714D01*
X147334286Y-82431429D02*
X147334286Y-82831429D01*
X147191429Y-82202857D02*
X147048572Y-82631429D01*
X147420000Y-82631429D01*
X128097143Y-81301429D02*
X128097143Y-80701429D01*
X128325715Y-80701429D01*
X128382857Y-80730000D01*
X128411429Y-80758571D01*
X128440000Y-80815714D01*
X128440000Y-80901429D01*
X128411429Y-80958571D01*
X128382857Y-80987143D01*
X128325715Y-81015714D01*
X128097143Y-81015714D01*
X128982857Y-80701429D02*
X128697143Y-80701429D01*
X128668572Y-80987143D01*
X128697143Y-80958571D01*
X128754286Y-80930000D01*
X128897143Y-80930000D01*
X128954286Y-80958571D01*
X128982857Y-80987143D01*
X129011429Y-81044286D01*
X129011429Y-81187143D01*
X128982857Y-81244286D01*
X128954286Y-81272857D01*
X128897143Y-81301429D01*
X128754286Y-81301429D01*
X128697143Y-81272857D01*
X128668572Y-81244286D01*
X128417143Y-84321429D02*
X128417143Y-83721429D01*
X128645715Y-83721429D01*
X128702857Y-83750000D01*
X128731429Y-83778571D01*
X128760000Y-83835714D01*
X128760000Y-83921429D01*
X128731429Y-83978571D01*
X128702857Y-84007143D01*
X128645715Y-84035714D01*
X128417143Y-84035714D01*
X129274286Y-83721429D02*
X129160000Y-83721429D01*
X129102857Y-83750000D01*
X129074286Y-83778571D01*
X129017143Y-83864286D01*
X128988572Y-83978571D01*
X128988572Y-84207143D01*
X129017143Y-84264286D01*
X129045715Y-84292857D01*
X129102857Y-84321429D01*
X129217143Y-84321429D01*
X129274286Y-84292857D01*
X129302857Y-84264286D01*
X129331429Y-84207143D01*
X129331429Y-84064286D01*
X129302857Y-84007143D01*
X129274286Y-83978571D01*
X129217143Y-83950000D01*
X129102857Y-83950000D01*
X129045715Y-83978571D01*
X129017143Y-84007143D01*
X128988572Y-84064286D01*
X137977143Y-87921429D02*
X137977143Y-87321429D01*
X138205715Y-87321429D01*
X138262857Y-87350000D01*
X138291429Y-87378571D01*
X138320000Y-87435714D01*
X138320000Y-87521429D01*
X138291429Y-87578571D01*
X138262857Y-87607143D01*
X138205715Y-87635714D01*
X137977143Y-87635714D01*
X138662857Y-87578571D02*
X138605715Y-87550000D01*
X138577143Y-87521429D01*
X138548572Y-87464286D01*
X138548572Y-87435714D01*
X138577143Y-87378571D01*
X138605715Y-87350000D01*
X138662857Y-87321429D01*
X138777143Y-87321429D01*
X138834286Y-87350000D01*
X138862857Y-87378571D01*
X138891429Y-87435714D01*
X138891429Y-87464286D01*
X138862857Y-87521429D01*
X138834286Y-87550000D01*
X138777143Y-87578571D01*
X138662857Y-87578571D01*
X138605715Y-87607143D01*
X138577143Y-87635714D01*
X138548572Y-87692857D01*
X138548572Y-87807143D01*
X138577143Y-87864286D01*
X138605715Y-87892857D01*
X138662857Y-87921429D01*
X138777143Y-87921429D01*
X138834286Y-87892857D01*
X138862857Y-87864286D01*
X138891429Y-87807143D01*
X138891429Y-87692857D01*
X138862857Y-87635714D01*
X138834286Y-87607143D01*
X138777143Y-87578571D01*
X137987143Y-81551429D02*
X137987143Y-80951429D01*
X138215715Y-80951429D01*
X138272857Y-80980000D01*
X138301429Y-81008571D01*
X138330000Y-81065714D01*
X138330000Y-81151429D01*
X138301429Y-81208571D01*
X138272857Y-81237143D01*
X138215715Y-81265714D01*
X137987143Y-81265714D01*
X138615715Y-81551429D02*
X138730000Y-81551429D01*
X138787143Y-81522857D01*
X138815715Y-81494286D01*
X138872857Y-81408571D01*
X138901429Y-81294286D01*
X138901429Y-81065714D01*
X138872857Y-81008571D01*
X138844286Y-80980000D01*
X138787143Y-80951429D01*
X138672857Y-80951429D01*
X138615715Y-80980000D01*
X138587143Y-81008571D01*
X138558572Y-81065714D01*
X138558572Y-81208571D01*
X138587143Y-81265714D01*
X138615715Y-81294286D01*
X138672857Y-81322857D01*
X138787143Y-81322857D01*
X138844286Y-81294286D01*
X138872857Y-81265714D01*
X138901429Y-81208571D01*
X107321428Y-82901429D02*
X107321428Y-82301429D01*
X107550000Y-82301429D01*
X107607142Y-82330000D01*
X107635714Y-82358571D01*
X107664285Y-82415714D01*
X107664285Y-82501429D01*
X107635714Y-82558571D01*
X107607142Y-82587143D01*
X107550000Y-82615714D01*
X107321428Y-82615714D01*
X108235714Y-82901429D02*
X107892857Y-82901429D01*
X108064285Y-82901429D02*
X108064285Y-82301429D01*
X108007142Y-82387143D01*
X107950000Y-82444286D01*
X107892857Y-82472857D01*
X108607143Y-82301429D02*
X108664286Y-82301429D01*
X108721429Y-82330000D01*
X108750000Y-82358571D01*
X108778571Y-82415714D01*
X108807143Y-82530000D01*
X108807143Y-82672857D01*
X108778571Y-82787143D01*
X108750000Y-82844286D01*
X108721429Y-82872857D01*
X108664286Y-82901429D01*
X108607143Y-82901429D01*
X108550000Y-82872857D01*
X108521429Y-82844286D01*
X108492857Y-82787143D01*
X108464286Y-82672857D01*
X108464286Y-82530000D01*
X108492857Y-82415714D01*
X108521429Y-82358571D01*
X108550000Y-82330000D01*
X108607143Y-82301429D01*
X135650000Y-82491429D02*
X135450000Y-82205714D01*
X135307143Y-82491429D02*
X135307143Y-81891429D01*
X135535715Y-81891429D01*
X135592857Y-81920000D01*
X135621429Y-81948571D01*
X135650000Y-82005714D01*
X135650000Y-82091429D01*
X135621429Y-82148571D01*
X135592857Y-82177143D01*
X135535715Y-82205714D01*
X135307143Y-82205714D01*
X136221429Y-82491429D02*
X135878572Y-82491429D01*
X136050000Y-82491429D02*
X136050000Y-81891429D01*
X135992857Y-81977143D01*
X135935715Y-82034286D01*
X135878572Y-82062857D01*
X134350000Y-93781429D02*
X134150000Y-93495714D01*
X134007143Y-93781429D02*
X134007143Y-93181429D01*
X134235715Y-93181429D01*
X134292857Y-93210000D01*
X134321429Y-93238571D01*
X134350000Y-93295714D01*
X134350000Y-93381429D01*
X134321429Y-93438571D01*
X134292857Y-93467143D01*
X134235715Y-93495714D01*
X134007143Y-93495714D01*
X134578572Y-93238571D02*
X134607143Y-93210000D01*
X134664286Y-93181429D01*
X134807143Y-93181429D01*
X134864286Y-93210000D01*
X134892857Y-93238571D01*
X134921429Y-93295714D01*
X134921429Y-93352857D01*
X134892857Y-93438571D01*
X134550000Y-93781429D01*
X134921429Y-93781429D01*
X127961429Y-90930000D02*
X127675714Y-91130000D01*
X127961429Y-91272857D02*
X127361429Y-91272857D01*
X127361429Y-91044285D01*
X127390000Y-90987143D01*
X127418571Y-90958571D01*
X127475714Y-90930000D01*
X127561429Y-90930000D01*
X127618571Y-90958571D01*
X127647143Y-90987143D01*
X127675714Y-91044285D01*
X127675714Y-91272857D01*
X127361429Y-90730000D02*
X127361429Y-90358571D01*
X127590000Y-90558571D01*
X127590000Y-90472857D01*
X127618571Y-90415714D01*
X127647143Y-90387143D01*
X127704286Y-90358571D01*
X127847143Y-90358571D01*
X127904286Y-90387143D01*
X127932857Y-90415714D01*
X127961429Y-90472857D01*
X127961429Y-90644285D01*
X127932857Y-90701428D01*
X127904286Y-90730000D01*
X133990000Y-82241429D02*
X133790000Y-81955714D01*
X133647143Y-82241429D02*
X133647143Y-81641429D01*
X133875715Y-81641429D01*
X133932857Y-81670000D01*
X133961429Y-81698571D01*
X133990000Y-81755714D01*
X133990000Y-81841429D01*
X133961429Y-81898571D01*
X133932857Y-81927143D01*
X133875715Y-81955714D01*
X133647143Y-81955714D01*
X134504286Y-81841429D02*
X134504286Y-82241429D01*
X134361429Y-81612857D02*
X134218572Y-82041429D01*
X134590000Y-82041429D01*
X125150000Y-91461429D02*
X124950000Y-91175714D01*
X124807143Y-91461429D02*
X124807143Y-90861429D01*
X125035715Y-90861429D01*
X125092857Y-90890000D01*
X125121429Y-90918571D01*
X125150000Y-90975714D01*
X125150000Y-91061429D01*
X125121429Y-91118571D01*
X125092857Y-91147143D01*
X125035715Y-91175714D01*
X124807143Y-91175714D01*
X125692857Y-90861429D02*
X125407143Y-90861429D01*
X125378572Y-91147143D01*
X125407143Y-91118571D01*
X125464286Y-91090000D01*
X125607143Y-91090000D01*
X125664286Y-91118571D01*
X125692857Y-91147143D01*
X125721429Y-91204286D01*
X125721429Y-91347143D01*
X125692857Y-91404286D01*
X125664286Y-91432857D01*
X125607143Y-91461429D01*
X125464286Y-91461429D01*
X125407143Y-91432857D01*
X125378572Y-91404286D01*
X125660000Y-87681429D02*
X125460000Y-87395714D01*
X125317143Y-87681429D02*
X125317143Y-87081429D01*
X125545715Y-87081429D01*
X125602857Y-87110000D01*
X125631429Y-87138571D01*
X125660000Y-87195714D01*
X125660000Y-87281429D01*
X125631429Y-87338571D01*
X125602857Y-87367143D01*
X125545715Y-87395714D01*
X125317143Y-87395714D01*
X126174286Y-87081429D02*
X126060000Y-87081429D01*
X126002857Y-87110000D01*
X125974286Y-87138571D01*
X125917143Y-87224286D01*
X125888572Y-87338571D01*
X125888572Y-87567143D01*
X125917143Y-87624286D01*
X125945715Y-87652857D01*
X126002857Y-87681429D01*
X126117143Y-87681429D01*
X126174286Y-87652857D01*
X126202857Y-87624286D01*
X126231429Y-87567143D01*
X126231429Y-87424286D01*
X126202857Y-87367143D01*
X126174286Y-87338571D01*
X126117143Y-87310000D01*
X126002857Y-87310000D01*
X125945715Y-87338571D01*
X125917143Y-87367143D01*
X125888572Y-87424286D01*
X147471429Y-93580000D02*
X147185714Y-93780000D01*
X147471429Y-93922857D02*
X146871429Y-93922857D01*
X146871429Y-93694285D01*
X146900000Y-93637143D01*
X146928571Y-93608571D01*
X146985714Y-93580000D01*
X147071429Y-93580000D01*
X147128571Y-93608571D01*
X147157143Y-93637143D01*
X147185714Y-93694285D01*
X147185714Y-93922857D01*
X146871429Y-93380000D02*
X146871429Y-92980000D01*
X147471429Y-93237143D01*
X143950000Y-86086429D02*
X143750000Y-85800714D01*
X143607143Y-86086429D02*
X143607143Y-85486429D01*
X143835715Y-85486429D01*
X143892857Y-85515000D01*
X143921429Y-85543571D01*
X143950000Y-85600714D01*
X143950000Y-85686429D01*
X143921429Y-85743571D01*
X143892857Y-85772143D01*
X143835715Y-85800714D01*
X143607143Y-85800714D01*
X144292857Y-85743571D02*
X144235715Y-85715000D01*
X144207143Y-85686429D01*
X144178572Y-85629286D01*
X144178572Y-85600714D01*
X144207143Y-85543571D01*
X144235715Y-85515000D01*
X144292857Y-85486429D01*
X144407143Y-85486429D01*
X144464286Y-85515000D01*
X144492857Y-85543571D01*
X144521429Y-85600714D01*
X144521429Y-85629286D01*
X144492857Y-85686429D01*
X144464286Y-85715000D01*
X144407143Y-85743571D01*
X144292857Y-85743571D01*
X144235715Y-85772143D01*
X144207143Y-85800714D01*
X144178572Y-85857857D01*
X144178572Y-85972143D01*
X144207143Y-86029286D01*
X144235715Y-86057857D01*
X144292857Y-86086429D01*
X144407143Y-86086429D01*
X144464286Y-86057857D01*
X144492857Y-86029286D01*
X144521429Y-85972143D01*
X144521429Y-85857857D01*
X144492857Y-85800714D01*
X144464286Y-85772143D01*
X144407143Y-85743571D01*
X105981429Y-93520000D02*
X105695714Y-93720000D01*
X105981429Y-93862857D02*
X105381429Y-93862857D01*
X105381429Y-93634285D01*
X105410000Y-93577143D01*
X105438571Y-93548571D01*
X105495714Y-93520000D01*
X105581429Y-93520000D01*
X105638571Y-93548571D01*
X105667143Y-93577143D01*
X105695714Y-93634285D01*
X105695714Y-93862857D01*
X105981429Y-93234285D02*
X105981429Y-93120000D01*
X105952857Y-93062857D01*
X105924286Y-93034285D01*
X105838571Y-92977143D01*
X105724286Y-92948571D01*
X105495714Y-92948571D01*
X105438571Y-92977143D01*
X105410000Y-93005714D01*
X105381429Y-93062857D01*
X105381429Y-93177143D01*
X105410000Y-93234285D01*
X105438571Y-93262857D01*
X105495714Y-93291428D01*
X105638571Y-93291428D01*
X105695714Y-93262857D01*
X105724286Y-93234285D01*
X105752857Y-93177143D01*
X105752857Y-93062857D01*
X105724286Y-93005714D01*
X105695714Y-92977143D01*
X105638571Y-92948571D01*
X136074286Y-85311429D02*
X136274286Y-85911429D01*
X136474286Y-85311429D01*
X137017143Y-85911429D02*
X136817143Y-85625714D01*
X136674286Y-85911429D02*
X136674286Y-85311429D01*
X136902858Y-85311429D01*
X136960000Y-85340000D01*
X136988572Y-85368571D01*
X137017143Y-85425714D01*
X137017143Y-85511429D01*
X136988572Y-85568571D01*
X136960000Y-85597143D01*
X136902858Y-85625714D01*
X136674286Y-85625714D01*
X137588572Y-85911429D02*
X137245715Y-85911429D01*
X137417143Y-85911429D02*
X137417143Y-85311429D01*
X137360000Y-85397143D01*
X137302858Y-85454286D01*
X137245715Y-85482857D01*
X134214286Y-85281429D02*
X134414286Y-85881429D01*
X134614286Y-85281429D01*
X135157143Y-85881429D02*
X134957143Y-85595714D01*
X134814286Y-85881429D02*
X134814286Y-85281429D01*
X135042858Y-85281429D01*
X135100000Y-85310000D01*
X135128572Y-85338571D01*
X135157143Y-85395714D01*
X135157143Y-85481429D01*
X135128572Y-85538571D01*
X135100000Y-85567143D01*
X135042858Y-85595714D01*
X134814286Y-85595714D01*
X135385715Y-85338571D02*
X135414286Y-85310000D01*
X135471429Y-85281429D01*
X135614286Y-85281429D01*
X135671429Y-85310000D01*
X135700000Y-85338571D01*
X135728572Y-85395714D01*
X135728572Y-85452857D01*
X135700000Y-85538571D01*
X135357143Y-85881429D01*
X135728572Y-85881429D01*
X129874286Y-93365714D02*
X129874286Y-93651429D01*
X129674286Y-93051429D02*
X129874286Y-93365714D01*
X130074286Y-93051429D01*
X130588572Y-93651429D02*
X130245715Y-93651429D01*
X130417143Y-93651429D02*
X130417143Y-93051429D01*
X130360000Y-93137143D01*
X130302858Y-93194286D01*
X130245715Y-93222857D01*
X136820000Y-92404286D02*
X136791429Y-92432857D01*
X136705715Y-92461429D01*
X136648572Y-92461429D01*
X136562857Y-92432857D01*
X136505715Y-92375714D01*
X136477143Y-92318571D01*
X136448572Y-92204286D01*
X136448572Y-92118571D01*
X136477143Y-92004286D01*
X136505715Y-91947143D01*
X136562857Y-91890000D01*
X136648572Y-91861429D01*
X136705715Y-91861429D01*
X136791429Y-91890000D01*
X136820000Y-91918571D01*
X137162857Y-92118571D02*
X137105715Y-92090000D01*
X137077143Y-92061429D01*
X137048572Y-92004286D01*
X137048572Y-91975714D01*
X137077143Y-91918571D01*
X137105715Y-91890000D01*
X137162857Y-91861429D01*
X137277143Y-91861429D01*
X137334286Y-91890000D01*
X137362857Y-91918571D01*
X137391429Y-91975714D01*
X137391429Y-92004286D01*
X137362857Y-92061429D01*
X137334286Y-92090000D01*
X137277143Y-92118571D01*
X137162857Y-92118571D01*
X137105715Y-92147143D01*
X137077143Y-92175714D01*
X137048572Y-92232857D01*
X137048572Y-92347143D01*
X137077143Y-92404286D01*
X137105715Y-92432857D01*
X137162857Y-92461429D01*
X137277143Y-92461429D01*
X137334286Y-92432857D01*
X137362857Y-92404286D01*
X137391429Y-92347143D01*
X137391429Y-92232857D01*
X137362857Y-92175714D01*
X137334286Y-92147143D01*
X137277143Y-92118571D01*
X130100000Y-83904286D02*
X130071429Y-83932857D01*
X129985715Y-83961429D01*
X129928572Y-83961429D01*
X129842857Y-83932857D01*
X129785715Y-83875714D01*
X129757143Y-83818571D01*
X129728572Y-83704286D01*
X129728572Y-83618571D01*
X129757143Y-83504286D01*
X129785715Y-83447143D01*
X129842857Y-83390000D01*
X129928572Y-83361429D01*
X129985715Y-83361429D01*
X130071429Y-83390000D01*
X130100000Y-83418571D01*
X130385715Y-83961429D02*
X130500000Y-83961429D01*
X130557143Y-83932857D01*
X130585715Y-83904286D01*
X130642857Y-83818571D01*
X130671429Y-83704286D01*
X130671429Y-83475714D01*
X130642857Y-83418571D01*
X130614286Y-83390000D01*
X130557143Y-83361429D01*
X130442857Y-83361429D01*
X130385715Y-83390000D01*
X130357143Y-83418571D01*
X130328572Y-83475714D01*
X130328572Y-83618571D01*
X130357143Y-83675714D01*
X130385715Y-83704286D01*
X130442857Y-83732857D01*
X130557143Y-83732857D01*
X130614286Y-83704286D01*
X130642857Y-83675714D01*
X130671429Y-83618571D01*
X128478781Y-87134265D02*
X128478781Y-87174670D01*
X128438376Y-87255483D01*
X128397970Y-87295889D01*
X128317157Y-87336295D01*
X128236345Y-87336294D01*
X128175735Y-87316092D01*
X128074721Y-87255483D01*
X128014111Y-87194873D01*
X127953502Y-87093859D01*
X127933299Y-87033249D01*
X127933299Y-86952437D01*
X127973706Y-86871625D01*
X128014112Y-86831219D01*
X128094924Y-86790812D01*
X128135329Y-86790812D01*
X128923249Y-86770610D02*
X128680812Y-87013046D01*
X128802030Y-86891828D02*
X128377766Y-86467564D01*
X128397969Y-86568579D01*
X128397970Y-86649391D01*
X128377766Y-86710000D01*
X128761625Y-86083706D02*
X128802031Y-86043299D01*
X128862640Y-86023096D01*
X128903045Y-86023096D01*
X128963654Y-86043299D01*
X129064670Y-86103908D01*
X129165685Y-86204924D01*
X129226294Y-86305939D01*
X129246498Y-86366548D01*
X129246498Y-86406954D01*
X129226295Y-86467563D01*
X129185889Y-86507970D01*
X129125279Y-86528172D01*
X129084874Y-86528172D01*
X129024264Y-86507970D01*
X128923249Y-86447360D01*
X128822234Y-86346345D01*
X128761624Y-86245330D01*
X128741421Y-86184720D01*
X128741421Y-86144315D01*
X128761625Y-86083706D01*
X131344285Y-85514286D02*
X131315714Y-85542857D01*
X131230000Y-85571429D01*
X131172857Y-85571429D01*
X131087142Y-85542857D01*
X131030000Y-85485714D01*
X131001428Y-85428571D01*
X130972857Y-85314286D01*
X130972857Y-85228571D01*
X131001428Y-85114286D01*
X131030000Y-85057143D01*
X131087142Y-85000000D01*
X131172857Y-84971429D01*
X131230000Y-84971429D01*
X131315714Y-85000000D01*
X131344285Y-85028571D01*
X131915714Y-85571429D02*
X131572857Y-85571429D01*
X131744285Y-85571429D02*
X131744285Y-84971429D01*
X131687142Y-85057143D01*
X131630000Y-85114286D01*
X131572857Y-85142857D01*
X132487143Y-85571429D02*
X132144286Y-85571429D01*
X132315714Y-85571429D02*
X132315714Y-84971429D01*
X132258571Y-85057143D01*
X132201429Y-85114286D01*
X132144286Y-85142857D01*
X130484286Y-98475715D02*
X130512857Y-98504286D01*
X130541429Y-98590000D01*
X130541429Y-98647143D01*
X130512857Y-98732858D01*
X130455714Y-98790000D01*
X130398571Y-98818572D01*
X130284286Y-98847143D01*
X130198571Y-98847143D01*
X130084286Y-98818572D01*
X130027143Y-98790000D01*
X129970000Y-98732858D01*
X129941429Y-98647143D01*
X129941429Y-98590000D01*
X129970000Y-98504286D01*
X129998571Y-98475715D01*
X130541429Y-97904286D02*
X130541429Y-98247143D01*
X130541429Y-98075715D02*
X129941429Y-98075715D01*
X130027143Y-98132858D01*
X130084286Y-98190000D01*
X130112857Y-98247143D01*
X129998571Y-97675714D02*
X129970000Y-97647143D01*
X129941429Y-97590000D01*
X129941429Y-97447143D01*
X129970000Y-97390000D01*
X129998571Y-97361429D01*
X130055714Y-97332857D01*
X130112857Y-97332857D01*
X130198571Y-97361429D01*
X130541429Y-97704286D01*
X130541429Y-97332857D01*
X132794286Y-98475715D02*
X132822857Y-98504286D01*
X132851429Y-98590000D01*
X132851429Y-98647143D01*
X132822857Y-98732858D01*
X132765714Y-98790000D01*
X132708571Y-98818572D01*
X132594286Y-98847143D01*
X132508571Y-98847143D01*
X132394286Y-98818572D01*
X132337143Y-98790000D01*
X132280000Y-98732858D01*
X132251429Y-98647143D01*
X132251429Y-98590000D01*
X132280000Y-98504286D01*
X132308571Y-98475715D01*
X132851429Y-97904286D02*
X132851429Y-98247143D01*
X132851429Y-98075715D02*
X132251429Y-98075715D01*
X132337143Y-98132858D01*
X132394286Y-98190000D01*
X132422857Y-98247143D01*
X132251429Y-97704286D02*
X132251429Y-97332857D01*
X132480000Y-97532857D01*
X132480000Y-97447143D01*
X132508571Y-97390000D01*
X132537143Y-97361429D01*
X132594286Y-97332857D01*
X132737143Y-97332857D01*
X132794286Y-97361429D01*
X132822857Y-97390000D01*
X132851429Y-97447143D01*
X132851429Y-97618571D01*
X132822857Y-97675714D01*
X132794286Y-97704286D01*
X126602857Y-94991429D02*
X126602857Y-95477143D01*
X126631429Y-95534286D01*
X126660000Y-95562857D01*
X126717143Y-95591429D01*
X126831429Y-95591429D01*
X126888571Y-95562857D01*
X126917143Y-95534286D01*
X126945714Y-95477143D01*
X126945714Y-94991429D01*
X127545714Y-95591429D02*
X127202857Y-95591429D01*
X127374285Y-95591429D02*
X127374285Y-94991429D01*
X127317142Y-95077143D01*
X127260000Y-95134286D01*
X127202857Y-95162857D01*
X112922857Y-87331429D02*
X112922857Y-87817143D01*
X112951429Y-87874286D01*
X112980000Y-87902857D01*
X113037143Y-87931429D01*
X113151429Y-87931429D01*
X113208571Y-87902857D01*
X113237143Y-87874286D01*
X113265714Y-87817143D01*
X113265714Y-87331429D01*
X113837142Y-87331429D02*
X113551428Y-87331429D01*
X113522857Y-87617143D01*
X113551428Y-87588571D01*
X113608571Y-87560000D01*
X113751428Y-87560000D01*
X113808571Y-87588571D01*
X113837142Y-87617143D01*
X113865714Y-87674286D01*
X113865714Y-87817143D01*
X113837142Y-87874286D01*
X113808571Y-87902857D01*
X113751428Y-87931429D01*
X113608571Y-87931429D01*
X113551428Y-87902857D01*
X113522857Y-87874286D01*
X142064000Y-80719286D02*
X142035429Y-80747857D01*
X141949715Y-80776429D01*
X141892572Y-80776429D01*
X141806857Y-80747857D01*
X141749715Y-80690714D01*
X141721143Y-80633571D01*
X141692572Y-80519286D01*
X141692572Y-80433571D01*
X141721143Y-80319286D01*
X141749715Y-80262143D01*
X141806857Y-80205000D01*
X141892572Y-80176429D01*
X141949715Y-80176429D01*
X142035429Y-80205000D01*
X142064000Y-80233571D01*
X142578286Y-80176429D02*
X142464000Y-80176429D01*
X142406857Y-80205000D01*
X142378286Y-80233571D01*
X142321143Y-80319286D01*
X142292572Y-80433571D01*
X142292572Y-80662143D01*
X142321143Y-80719286D01*
X142349715Y-80747857D01*
X142406857Y-80776429D01*
X142521143Y-80776429D01*
X142578286Y-80747857D01*
X142606857Y-80719286D01*
X142635429Y-80662143D01*
X142635429Y-80519286D01*
X142606857Y-80462143D01*
X142578286Y-80433571D01*
X142521143Y-80405000D01*
X142406857Y-80405000D01*
X142349715Y-80433571D01*
X142321143Y-80462143D01*
X142292572Y-80519286D01*
X168389286Y-92100000D02*
X168417857Y-92128571D01*
X168446429Y-92214285D01*
X168446429Y-92271428D01*
X168417857Y-92357143D01*
X168360714Y-92414285D01*
X168303571Y-92442857D01*
X168189286Y-92471428D01*
X168103571Y-92471428D01*
X167989286Y-92442857D01*
X167932143Y-92414285D01*
X167875000Y-92357143D01*
X167846429Y-92271428D01*
X167846429Y-92214285D01*
X167875000Y-92128571D01*
X167903571Y-92100000D01*
X167846429Y-91900000D02*
X167846429Y-91500000D01*
X168446429Y-91757143D01*
X141680285Y-95351286D02*
X141651714Y-95379857D01*
X141566000Y-95408429D01*
X141508857Y-95408429D01*
X141423142Y-95379857D01*
X141366000Y-95322714D01*
X141337428Y-95265571D01*
X141308857Y-95151286D01*
X141308857Y-95065571D01*
X141337428Y-94951286D01*
X141366000Y-94894143D01*
X141423142Y-94837000D01*
X141508857Y-94808429D01*
X141566000Y-94808429D01*
X141651714Y-94837000D01*
X141680285Y-94865571D01*
X142251714Y-95408429D02*
X141908857Y-95408429D01*
X142080285Y-95408429D02*
X142080285Y-94808429D01*
X142023142Y-94894143D01*
X141966000Y-94951286D01*
X141908857Y-94979857D01*
X142766000Y-95008429D02*
X142766000Y-95408429D01*
X142623143Y-94779857D02*
X142480286Y-95208429D01*
X142851714Y-95208429D01*
X147535286Y-90870715D02*
X147563857Y-90899286D01*
X147592429Y-90985000D01*
X147592429Y-91042143D01*
X147563857Y-91127858D01*
X147506714Y-91185000D01*
X147449571Y-91213572D01*
X147335286Y-91242143D01*
X147249571Y-91242143D01*
X147135286Y-91213572D01*
X147078143Y-91185000D01*
X147021000Y-91127858D01*
X146992429Y-91042143D01*
X146992429Y-90985000D01*
X147021000Y-90899286D01*
X147049571Y-90870715D01*
X147592429Y-90299286D02*
X147592429Y-90642143D01*
X147592429Y-90470715D02*
X146992429Y-90470715D01*
X147078143Y-90527858D01*
X147135286Y-90585000D01*
X147163857Y-90642143D01*
X146992429Y-89756429D02*
X146992429Y-90042143D01*
X147278143Y-90070714D01*
X147249571Y-90042143D01*
X147221000Y-89985000D01*
X147221000Y-89842143D01*
X147249571Y-89785000D01*
X147278143Y-89756429D01*
X147335286Y-89727857D01*
X147478143Y-89727857D01*
X147535286Y-89756429D01*
X147563857Y-89785000D01*
X147592429Y-89842143D01*
X147592429Y-89985000D01*
X147563857Y-90042143D01*
X147535286Y-90070714D01*
X139744285Y-88154286D02*
X139715714Y-88182857D01*
X139630000Y-88211429D01*
X139572857Y-88211429D01*
X139487142Y-88182857D01*
X139430000Y-88125714D01*
X139401428Y-88068571D01*
X139372857Y-87954286D01*
X139372857Y-87868571D01*
X139401428Y-87754286D01*
X139430000Y-87697143D01*
X139487142Y-87640000D01*
X139572857Y-87611429D01*
X139630000Y-87611429D01*
X139715714Y-87640000D01*
X139744285Y-87668571D01*
X140315714Y-88211429D02*
X139972857Y-88211429D01*
X140144285Y-88211429D02*
X140144285Y-87611429D01*
X140087142Y-87697143D01*
X140030000Y-87754286D01*
X139972857Y-87782857D01*
X140830000Y-87611429D02*
X140715714Y-87611429D01*
X140658571Y-87640000D01*
X140630000Y-87668571D01*
X140572857Y-87754286D01*
X140544286Y-87868571D01*
X140544286Y-88097143D01*
X140572857Y-88154286D01*
X140601429Y-88182857D01*
X140658571Y-88211429D01*
X140772857Y-88211429D01*
X140830000Y-88182857D01*
X140858571Y-88154286D01*
X140887143Y-88097143D01*
X140887143Y-87954286D01*
X140858571Y-87897143D01*
X140830000Y-87868571D01*
X140772857Y-87840000D01*
X140658571Y-87840000D01*
X140601429Y-87868571D01*
X140572857Y-87897143D01*
X140544286Y-87954286D01*
X139304285Y-85318286D02*
X139275714Y-85346857D01*
X139190000Y-85375429D01*
X139132857Y-85375429D01*
X139047142Y-85346857D01*
X138990000Y-85289714D01*
X138961428Y-85232571D01*
X138932857Y-85118286D01*
X138932857Y-85032571D01*
X138961428Y-84918286D01*
X138990000Y-84861143D01*
X139047142Y-84804000D01*
X139132857Y-84775429D01*
X139190000Y-84775429D01*
X139275714Y-84804000D01*
X139304285Y-84832571D01*
X139875714Y-85375429D02*
X139532857Y-85375429D01*
X139704285Y-85375429D02*
X139704285Y-84775429D01*
X139647142Y-84861143D01*
X139590000Y-84918286D01*
X139532857Y-84946857D01*
X140075714Y-84775429D02*
X140475714Y-84775429D01*
X140218571Y-85375429D01*
X139266285Y-82927286D02*
X139237714Y-82955857D01*
X139152000Y-82984429D01*
X139094857Y-82984429D01*
X139009142Y-82955857D01*
X138952000Y-82898714D01*
X138923428Y-82841571D01*
X138894857Y-82727286D01*
X138894857Y-82641571D01*
X138923428Y-82527286D01*
X138952000Y-82470143D01*
X139009142Y-82413000D01*
X139094857Y-82384429D01*
X139152000Y-82384429D01*
X139237714Y-82413000D01*
X139266285Y-82441571D01*
X139837714Y-82984429D02*
X139494857Y-82984429D01*
X139666285Y-82984429D02*
X139666285Y-82384429D01*
X139609142Y-82470143D01*
X139552000Y-82527286D01*
X139494857Y-82555857D01*
X140180571Y-82641571D02*
X140123429Y-82613000D01*
X140094857Y-82584429D01*
X140066286Y-82527286D01*
X140066286Y-82498714D01*
X140094857Y-82441571D01*
X140123429Y-82413000D01*
X140180571Y-82384429D01*
X140294857Y-82384429D01*
X140352000Y-82413000D01*
X140380571Y-82441571D01*
X140409143Y-82498714D01*
X140409143Y-82527286D01*
X140380571Y-82584429D01*
X140352000Y-82613000D01*
X140294857Y-82641571D01*
X140180571Y-82641571D01*
X140123429Y-82670143D01*
X140094857Y-82698714D01*
X140066286Y-82755857D01*
X140066286Y-82870143D01*
X140094857Y-82927286D01*
X140123429Y-82955857D01*
X140180571Y-82984429D01*
X140294857Y-82984429D01*
X140352000Y-82955857D01*
X140380571Y-82927286D01*
X140409143Y-82870143D01*
X140409143Y-82755857D01*
X140380571Y-82698714D01*
X140352000Y-82670143D01*
X140294857Y-82641571D01*
X119924286Y-91285715D02*
X119952857Y-91314286D01*
X119981429Y-91400000D01*
X119981429Y-91457143D01*
X119952857Y-91542858D01*
X119895714Y-91600000D01*
X119838571Y-91628572D01*
X119724286Y-91657143D01*
X119638571Y-91657143D01*
X119524286Y-91628572D01*
X119467143Y-91600000D01*
X119410000Y-91542858D01*
X119381429Y-91457143D01*
X119381429Y-91400000D01*
X119410000Y-91314286D01*
X119438571Y-91285715D01*
X119981429Y-90714286D02*
X119981429Y-91057143D01*
X119981429Y-90885715D02*
X119381429Y-90885715D01*
X119467143Y-90942858D01*
X119524286Y-91000000D01*
X119552857Y-91057143D01*
X119981429Y-90428571D02*
X119981429Y-90314286D01*
X119952857Y-90257143D01*
X119924286Y-90228571D01*
X119838571Y-90171429D01*
X119724286Y-90142857D01*
X119495714Y-90142857D01*
X119438571Y-90171429D01*
X119410000Y-90200000D01*
X119381429Y-90257143D01*
X119381429Y-90371429D01*
X119410000Y-90428571D01*
X119438571Y-90457143D01*
X119495714Y-90485714D01*
X119638571Y-90485714D01*
X119695714Y-90457143D01*
X119724286Y-90428571D01*
X119752857Y-90371429D01*
X119752857Y-90257143D01*
X119724286Y-90200000D01*
X119695714Y-90171429D01*
X119638571Y-90142857D01*
X105764286Y-98765715D02*
X105792857Y-98794286D01*
X105821429Y-98880000D01*
X105821429Y-98937143D01*
X105792857Y-99022858D01*
X105735714Y-99080000D01*
X105678571Y-99108572D01*
X105564286Y-99137143D01*
X105478571Y-99137143D01*
X105364286Y-99108572D01*
X105307143Y-99080000D01*
X105250000Y-99022858D01*
X105221429Y-98937143D01*
X105221429Y-98880000D01*
X105250000Y-98794286D01*
X105278571Y-98765715D01*
X105278571Y-98537143D02*
X105250000Y-98508572D01*
X105221429Y-98451429D01*
X105221429Y-98308572D01*
X105250000Y-98251429D01*
X105278571Y-98222858D01*
X105335714Y-98194286D01*
X105392857Y-98194286D01*
X105478571Y-98222858D01*
X105821429Y-98565715D01*
X105821429Y-98194286D01*
X105221429Y-97822857D02*
X105221429Y-97765714D01*
X105250000Y-97708571D01*
X105278571Y-97680000D01*
X105335714Y-97651429D01*
X105450000Y-97622857D01*
X105592857Y-97622857D01*
X105707143Y-97651429D01*
X105764286Y-97680000D01*
X105792857Y-97708571D01*
X105821429Y-97765714D01*
X105821429Y-97822857D01*
X105792857Y-97880000D01*
X105764286Y-97908571D01*
X105707143Y-97937143D01*
X105592857Y-97965714D01*
X105450000Y-97965714D01*
X105335714Y-97937143D01*
X105278571Y-97908571D01*
X105250000Y-97880000D01*
X105221429Y-97822857D01*
X136230000Y-95111429D02*
X135944286Y-95111429D01*
X135944286Y-94511429D01*
X136744286Y-95111429D02*
X136401429Y-95111429D01*
X136572857Y-95111429D02*
X136572857Y-94511429D01*
X136515714Y-94597143D01*
X136458572Y-94654286D01*
X136401429Y-94682857D01*
X119741428Y-95931429D02*
X119741428Y-95331429D01*
X119970000Y-95331429D01*
X120027142Y-95360000D01*
X120055714Y-95388571D01*
X120084285Y-95445714D01*
X120084285Y-95531429D01*
X120055714Y-95588571D01*
X120027142Y-95617143D01*
X119970000Y-95645714D01*
X119741428Y-95645714D01*
X120655714Y-95931429D02*
X120312857Y-95931429D01*
X120484285Y-95931429D02*
X120484285Y-95331429D01*
X120427142Y-95417143D01*
X120370000Y-95474286D01*
X120312857Y-95502857D01*
X121227143Y-95931429D02*
X120884286Y-95931429D01*
X121055714Y-95931429D02*
X121055714Y-95331429D01*
X120998571Y-95417143D01*
X120941429Y-95474286D01*
X120884286Y-95502857D01*
X139840000Y-99482857D02*
X139925714Y-99511429D01*
X140068571Y-99511429D01*
X140125714Y-99482857D01*
X140154285Y-99454286D01*
X140182857Y-99397143D01*
X140182857Y-99340000D01*
X140154285Y-99282857D01*
X140125714Y-99254286D01*
X140068571Y-99225714D01*
X139954285Y-99197143D01*
X139897143Y-99168571D01*
X139868571Y-99140000D01*
X139840000Y-99082857D01*
X139840000Y-99025714D01*
X139868571Y-98968571D01*
X139897143Y-98940000D01*
X139954285Y-98911429D01*
X140097143Y-98911429D01*
X140182857Y-98940000D01*
X140382857Y-98911429D02*
X140525714Y-99511429D01*
X140640000Y-99082857D01*
X140754286Y-99511429D01*
X140897143Y-98911429D01*
X141440000Y-99511429D02*
X141097143Y-99511429D01*
X141268571Y-99511429D02*
X141268571Y-98911429D01*
X141211428Y-98997143D01*
X141154286Y-99054286D01*
X141097143Y-99082857D01*
X118770000Y-99432857D02*
X118855714Y-99461429D01*
X118998571Y-99461429D01*
X119055714Y-99432857D01*
X119084285Y-99404286D01*
X119112857Y-99347143D01*
X119112857Y-99290000D01*
X119084285Y-99232857D01*
X119055714Y-99204286D01*
X118998571Y-99175714D01*
X118884285Y-99147143D01*
X118827143Y-99118571D01*
X118798571Y-99090000D01*
X118770000Y-99032857D01*
X118770000Y-98975714D01*
X118798571Y-98918571D01*
X118827143Y-98890000D01*
X118884285Y-98861429D01*
X119027143Y-98861429D01*
X119112857Y-98890000D01*
X119312857Y-98861429D02*
X119455714Y-99461429D01*
X119570000Y-99032857D01*
X119684286Y-99461429D01*
X119827143Y-98861429D01*
X120027143Y-98918571D02*
X120055714Y-98890000D01*
X120112857Y-98861429D01*
X120255714Y-98861429D01*
X120312857Y-98890000D01*
X120341428Y-98918571D01*
X120370000Y-98975714D01*
X120370000Y-99032857D01*
X120341428Y-99118571D01*
X119998571Y-99461429D01*
X120370000Y-99461429D01*
X143906286Y-88718929D02*
X143906286Y-88118929D01*
X144534857Y-88661786D02*
X144506286Y-88690357D01*
X144420572Y-88718929D01*
X144363429Y-88718929D01*
X144277714Y-88690357D01*
X144220572Y-88633214D01*
X144192000Y-88576071D01*
X144163429Y-88461786D01*
X144163429Y-88376071D01*
X144192000Y-88261786D01*
X144220572Y-88204643D01*
X144277714Y-88147500D01*
X144363429Y-88118929D01*
X144420572Y-88118929D01*
X144506286Y-88147500D01*
X144534857Y-88176071D01*
X145106286Y-88718929D02*
X144763429Y-88718929D01*
X144934857Y-88718929D02*
X144934857Y-88118929D01*
X144877714Y-88204643D01*
X144820572Y-88261786D01*
X144763429Y-88290357D01*
X146564285Y-87344429D02*
X146364285Y-87058714D01*
X146221428Y-87344429D02*
X146221428Y-86744429D01*
X146450000Y-86744429D01*
X146507142Y-86773000D01*
X146535714Y-86801571D01*
X146564285Y-86858714D01*
X146564285Y-86944429D01*
X146535714Y-87001571D01*
X146507142Y-87030143D01*
X146450000Y-87058714D01*
X146221428Y-87058714D01*
X147135714Y-87344429D02*
X146792857Y-87344429D01*
X146964285Y-87344429D02*
X146964285Y-86744429D01*
X146907142Y-86830143D01*
X146850000Y-86887286D01*
X146792857Y-86915857D01*
X147507143Y-86744429D02*
X147564286Y-86744429D01*
X147621429Y-86773000D01*
X147650000Y-86801571D01*
X147678571Y-86858714D01*
X147707143Y-86973000D01*
X147707143Y-87115857D01*
X147678571Y-87230143D01*
X147650000Y-87287286D01*
X147621429Y-87315857D01*
X147564286Y-87344429D01*
X147507143Y-87344429D01*
X147450000Y-87315857D01*
X147421429Y-87287286D01*
X147392857Y-87230143D01*
X147364286Y-87115857D01*
X147364286Y-86973000D01*
X147392857Y-86858714D01*
X147421429Y-86801571D01*
X147450000Y-86773000D01*
X147507143Y-86744429D01*
X143504285Y-87417429D02*
X143304285Y-87131714D01*
X143161428Y-87417429D02*
X143161428Y-86817429D01*
X143390000Y-86817429D01*
X143447142Y-86846000D01*
X143475714Y-86874571D01*
X143504285Y-86931714D01*
X143504285Y-87017429D01*
X143475714Y-87074571D01*
X143447142Y-87103143D01*
X143390000Y-87131714D01*
X143161428Y-87131714D01*
X144075714Y-87417429D02*
X143732857Y-87417429D01*
X143904285Y-87417429D02*
X143904285Y-86817429D01*
X143847142Y-86903143D01*
X143790000Y-86960286D01*
X143732857Y-86988857D01*
X144647143Y-87417429D02*
X144304286Y-87417429D01*
X144475714Y-87417429D02*
X144475714Y-86817429D01*
X144418571Y-86903143D01*
X144361429Y-86960286D01*
X144304286Y-86988857D01*
X168817143Y-99007143D02*
X168902857Y-99035714D01*
X168931429Y-99064286D01*
X168960000Y-99121429D01*
X168960000Y-99207143D01*
X168931429Y-99264286D01*
X168902857Y-99292857D01*
X168845715Y-99321429D01*
X168617143Y-99321429D01*
X168617143Y-98721429D01*
X168817143Y-98721429D01*
X168874286Y-98750000D01*
X168902857Y-98778571D01*
X168931429Y-98835714D01*
X168931429Y-98892857D01*
X168902857Y-98950000D01*
X168874286Y-98978571D01*
X168817143Y-99007143D01*
X168617143Y-99007143D01*
X169188572Y-99150000D02*
X169474286Y-99150000D01*
X169131429Y-99321429D02*
X169331429Y-98721429D01*
X169531429Y-99321429D01*
X169645715Y-98721429D02*
X169988572Y-98721429D01*
X169817143Y-99321429D02*
X169817143Y-98721429D01*
X170045715Y-99378571D02*
X170502858Y-99378571D01*
X170645715Y-99321429D02*
X170645715Y-98721429D01*
X170988572Y-99321429D01*
X170988572Y-98721429D01*
X171274286Y-99007143D02*
X171474286Y-99007143D01*
X171560000Y-99321429D02*
X171274286Y-99321429D01*
X171274286Y-98721429D01*
X171560000Y-98721429D01*
X172131429Y-98750000D02*
X172074286Y-98721429D01*
X171988572Y-98721429D01*
X171902857Y-98750000D01*
X171845715Y-98807143D01*
X171817143Y-98864286D01*
X171788572Y-98978571D01*
X171788572Y-99064286D01*
X171817143Y-99178571D01*
X171845715Y-99235714D01*
X171902857Y-99292857D01*
X171988572Y-99321429D01*
X172045715Y-99321429D01*
X172131429Y-99292857D01*
X172160000Y-99264286D01*
X172160000Y-99064286D01*
X172045715Y-99064286D01*
X172731429Y-99321429D02*
X172388572Y-99321429D01*
X172560000Y-99321429D02*
X172560000Y-98721429D01*
X172502857Y-98807143D01*
X172445715Y-98864286D01*
X172388572Y-98892857D01*
X102322857Y-83177143D02*
X102408571Y-83205714D01*
X102437143Y-83234286D01*
X102465714Y-83291429D01*
X102465714Y-83377143D01*
X102437143Y-83434286D01*
X102408571Y-83462857D01*
X102351429Y-83491429D01*
X102122857Y-83491429D01*
X102122857Y-82891429D01*
X102322857Y-82891429D01*
X102380000Y-82920000D01*
X102408571Y-82948571D01*
X102437143Y-83005714D01*
X102437143Y-83062857D01*
X102408571Y-83120000D01*
X102380000Y-83148571D01*
X102322857Y-83177143D01*
X102122857Y-83177143D01*
X102694286Y-83320000D02*
X102980000Y-83320000D01*
X102637143Y-83491429D02*
X102837143Y-82891429D01*
X103037143Y-83491429D01*
X103151429Y-82891429D02*
X103494286Y-82891429D01*
X103322857Y-83491429D02*
X103322857Y-82891429D01*
X103551429Y-83548571D02*
X104008572Y-83548571D01*
X104151429Y-83491429D02*
X104151429Y-82891429D01*
X104380001Y-82891429D01*
X104437143Y-82920000D01*
X104465715Y-82948571D01*
X104494286Y-83005714D01*
X104494286Y-83091429D01*
X104465715Y-83148571D01*
X104437143Y-83177143D01*
X104380001Y-83205714D01*
X104151429Y-83205714D01*
X104865715Y-82891429D02*
X104980001Y-82891429D01*
X105037143Y-82920000D01*
X105094286Y-82977143D01*
X105122858Y-83091429D01*
X105122858Y-83291429D01*
X105094286Y-83405714D01*
X105037143Y-83462857D01*
X104980001Y-83491429D01*
X104865715Y-83491429D01*
X104808572Y-83462857D01*
X104751429Y-83405714D01*
X104722858Y-83291429D01*
X104722858Y-83091429D01*
X104751429Y-82977143D01*
X104808572Y-82920000D01*
X104865715Y-82891429D01*
X105351429Y-83462857D02*
X105437143Y-83491429D01*
X105580000Y-83491429D01*
X105637143Y-83462857D01*
X105665714Y-83434286D01*
X105694286Y-83377143D01*
X105694286Y-83320000D01*
X105665714Y-83262857D01*
X105637143Y-83234286D01*
X105580000Y-83205714D01*
X105465714Y-83177143D01*
X105408572Y-83148571D01*
X105380000Y-83120000D01*
X105351429Y-83062857D01*
X105351429Y-83005714D01*
X105380000Y-82948571D01*
X105408572Y-82920000D01*
X105465714Y-82891429D01*
X105608572Y-82891429D01*
X105694286Y-82920000D01*
X106265715Y-83491429D02*
X105922858Y-83491429D01*
X106094286Y-83491429D02*
X106094286Y-82891429D01*
X106037143Y-82977143D01*
X105980001Y-83034286D01*
X105922858Y-83062857D01*
X136191981Y-90066006D02*
X136191981Y-90542197D01*
X135191981Y-90542197D01*
X135287219Y-89780292D02*
X135239600Y-89732673D01*
X135191981Y-89637435D01*
X135191981Y-89399339D01*
X135239600Y-89304101D01*
X135287219Y-89256482D01*
X135382457Y-89208863D01*
X135477695Y-89208863D01*
X135620552Y-89256482D01*
X136191981Y-89827911D01*
X136191981Y-89208863D01*
X104322381Y-90844666D02*
X104322381Y-91320857D01*
X103322381Y-91320857D01*
X103322381Y-90606571D02*
X103322381Y-89987523D01*
X103703333Y-90320857D01*
X103703333Y-90177999D01*
X103750952Y-90082761D01*
X103798571Y-90035142D01*
X103893810Y-89987523D01*
X104131905Y-89987523D01*
X104227143Y-90035142D01*
X104274762Y-90082761D01*
X104322381Y-90177999D01*
X104322381Y-90463714D01*
X104274762Y-90558952D01*
X104227143Y-90606571D01*
X123447143Y-83382381D02*
X123113809Y-82906190D01*
X122875714Y-83382381D02*
X122875714Y-82382381D01*
X123256667Y-82382381D01*
X123351905Y-82430000D01*
X123399524Y-82477619D01*
X123447143Y-82572857D01*
X123447143Y-82715714D01*
X123399524Y-82810952D01*
X123351905Y-82858571D01*
X123256667Y-82906190D01*
X122875714Y-82906190D01*
X124399524Y-83382381D02*
X123828095Y-83382381D01*
X124113809Y-83382381D02*
X124113809Y-82382381D01*
X124018571Y-82525238D01*
X123923333Y-82620476D01*
X123828095Y-82668095D01*
X124780476Y-82477619D02*
X124828095Y-82430000D01*
X124923333Y-82382381D01*
X125161429Y-82382381D01*
X125256667Y-82430000D01*
X125304286Y-82477619D01*
X125351905Y-82572857D01*
X125351905Y-82668095D01*
X125304286Y-82810952D01*
X124732857Y-83382381D01*
X125351905Y-83382381D01*
M02*
