G04 #@! TF.FileFunction,Soldermask,Top*
%FSLAX46Y46*%
G04 Gerber Fmt 4.6, Leading zero omitted, Abs format (unit mm)*
G04 Created by KiCad (PCBNEW (2016-02-18 BZR 6566)-product) date Monday, 28 March 2016 11:35:06*
%MOMM*%
G01*
G04 APERTURE LIST*
%ADD10C,0.100000*%
%ADD11R,4.572000X1.524000*%
%ADD12R,4.071620X1.998980*%
%ADD13R,0.210000X0.350000*%
%ADD14R,0.350000X0.210000*%
%ADD15R,0.200000X0.350000*%
%ADD16R,1.540000X1.700000*%
%ADD17R,0.750000X0.800000*%
%ADD18C,1.501140*%
%ADD19R,0.800000X0.750000*%
%ADD20R,1.100000X1.900000*%
%ADD21R,2.400000X1.500000*%
%ADD22R,0.400000X0.600000*%
%ADD23R,2.000000X1.300000*%
%ADD24R,1.800000X0.700000*%
%ADD25R,1.800000X0.800000*%
%ADD26R,1.000000X1.250000*%
%ADD27R,2.032000X1.727200*%
%ADD28O,2.032000X1.727200*%
%ADD29R,1.450000X0.700000*%
%ADD30R,0.650000X0.300000*%
%ADD31R,0.825000X1.200000*%
%ADD32R,0.280000X0.700000*%
%ADD33R,2.700020X1.000760*%
G04 APERTURE END LIST*
D10*
D11*
X177766700Y-76840240D03*
D10*
G36*
X179535810Y-81004570D02*
X179535810Y-79005590D01*
X180036190Y-79605030D01*
X180036190Y-80405130D01*
X179535810Y-81004570D01*
X179535810Y-81004570D01*
G37*
D11*
X177766700Y-83164840D03*
D12*
X177500000Y-80005080D03*
D11*
X107519300Y-83164840D03*
D10*
G36*
X105750190Y-79000510D02*
X105750190Y-80999490D01*
X105249810Y-80400050D01*
X105249810Y-79599950D01*
X105750190Y-79000510D01*
X105750190Y-79000510D01*
G37*
D11*
X107519300Y-76840240D03*
D12*
X107786000Y-80000000D03*
D13*
X125380000Y-70739000D03*
X124980000Y-70739000D03*
X124580000Y-70739000D03*
X124180000Y-70739000D03*
X123780000Y-70739000D03*
X123380000Y-70739000D03*
D14*
X123030000Y-71089000D03*
X123030000Y-71489000D03*
X123030000Y-71889000D03*
X123030000Y-72289000D03*
X123030000Y-72689000D03*
X123030000Y-73089000D03*
D15*
X123380000Y-73439000D03*
D13*
X123780000Y-73439000D03*
X124180000Y-73439000D03*
X124580000Y-73439000D03*
X124980000Y-73439000D03*
X125380000Y-73439000D03*
D14*
X125730000Y-73089000D03*
X125730000Y-72689000D03*
X125730000Y-72289000D03*
X125730000Y-71889000D03*
X125730000Y-71489000D03*
X125730000Y-71089000D03*
D16*
X124380000Y-72089000D03*
D10*
G36*
X134976408Y-80205254D02*
X134799631Y-80028477D01*
X135294606Y-79533502D01*
X135471383Y-79710279D01*
X134976408Y-80205254D01*
X134976408Y-80205254D01*
G37*
G36*
X135329961Y-80558808D02*
X135153184Y-80382031D01*
X135648159Y-79887056D01*
X135824936Y-80063833D01*
X135329961Y-80558808D01*
X135329961Y-80558808D01*
G37*
G36*
X135683515Y-80912361D02*
X135506738Y-80735584D01*
X136001713Y-80240609D01*
X136178490Y-80417386D01*
X135683515Y-80912361D01*
X135683515Y-80912361D01*
G37*
G36*
X136037068Y-81265915D02*
X135860291Y-81089138D01*
X136355266Y-80594163D01*
X136532043Y-80770940D01*
X136037068Y-81265915D01*
X136037068Y-81265915D01*
G37*
G36*
X136390621Y-81619468D02*
X136213844Y-81442691D01*
X136708819Y-80947716D01*
X136885596Y-81124493D01*
X136390621Y-81619468D01*
X136390621Y-81619468D01*
G37*
G36*
X136744175Y-81973021D02*
X136567398Y-81796244D01*
X137062373Y-81301269D01*
X137239150Y-81478046D01*
X136744175Y-81973021D01*
X136744175Y-81973021D01*
G37*
G36*
X137097728Y-82326575D02*
X136920951Y-82149798D01*
X137415926Y-81654823D01*
X137592703Y-81831600D01*
X137097728Y-82326575D01*
X137097728Y-82326575D01*
G37*
G36*
X137451282Y-82680128D02*
X137274505Y-82503351D01*
X137769480Y-82008376D01*
X137946257Y-82185153D01*
X137451282Y-82680128D01*
X137451282Y-82680128D01*
G37*
G36*
X138865495Y-82503351D02*
X138688718Y-82680128D01*
X138193743Y-82185153D01*
X138370520Y-82008376D01*
X138865495Y-82503351D01*
X138865495Y-82503351D01*
G37*
G36*
X139219049Y-82149798D02*
X139042272Y-82326575D01*
X138547297Y-81831600D01*
X138724074Y-81654823D01*
X139219049Y-82149798D01*
X139219049Y-82149798D01*
G37*
G36*
X139572602Y-81796244D02*
X139395825Y-81973021D01*
X138900850Y-81478046D01*
X139077627Y-81301269D01*
X139572602Y-81796244D01*
X139572602Y-81796244D01*
G37*
G36*
X139926156Y-81442691D02*
X139749379Y-81619468D01*
X139254404Y-81124493D01*
X139431181Y-80947716D01*
X139926156Y-81442691D01*
X139926156Y-81442691D01*
G37*
G36*
X140279709Y-81089138D02*
X140102932Y-81265915D01*
X139607957Y-80770940D01*
X139784734Y-80594163D01*
X140279709Y-81089138D01*
X140279709Y-81089138D01*
G37*
G36*
X140633262Y-80735584D02*
X140456485Y-80912361D01*
X139961510Y-80417386D01*
X140138287Y-80240609D01*
X140633262Y-80735584D01*
X140633262Y-80735584D01*
G37*
G36*
X140986816Y-80382031D02*
X140810039Y-80558808D01*
X140315064Y-80063833D01*
X140491841Y-79887056D01*
X140986816Y-80382031D01*
X140986816Y-80382031D01*
G37*
G36*
X141340369Y-80028477D02*
X141163592Y-80205254D01*
X140668617Y-79710279D01*
X140845394Y-79533502D01*
X141340369Y-80028477D01*
X141340369Y-80028477D01*
G37*
G36*
X140845394Y-79286016D02*
X140668617Y-79109239D01*
X141163592Y-78614264D01*
X141340369Y-78791041D01*
X140845394Y-79286016D01*
X140845394Y-79286016D01*
G37*
G36*
X140491841Y-78932462D02*
X140315064Y-78755685D01*
X140810039Y-78260710D01*
X140986816Y-78437487D01*
X140491841Y-78932462D01*
X140491841Y-78932462D01*
G37*
G36*
X140138287Y-78578909D02*
X139961510Y-78402132D01*
X140456485Y-77907157D01*
X140633262Y-78083934D01*
X140138287Y-78578909D01*
X140138287Y-78578909D01*
G37*
G36*
X139784734Y-78225355D02*
X139607957Y-78048578D01*
X140102932Y-77553603D01*
X140279709Y-77730380D01*
X139784734Y-78225355D01*
X139784734Y-78225355D01*
G37*
G36*
X139431181Y-77871802D02*
X139254404Y-77695025D01*
X139749379Y-77200050D01*
X139926156Y-77376827D01*
X139431181Y-77871802D01*
X139431181Y-77871802D01*
G37*
G36*
X139077627Y-77518249D02*
X138900850Y-77341472D01*
X139395825Y-76846497D01*
X139572602Y-77023274D01*
X139077627Y-77518249D01*
X139077627Y-77518249D01*
G37*
G36*
X138724074Y-77164695D02*
X138547297Y-76987918D01*
X139042272Y-76492943D01*
X139219049Y-76669720D01*
X138724074Y-77164695D01*
X138724074Y-77164695D01*
G37*
G36*
X138370520Y-76811142D02*
X138193743Y-76634365D01*
X138688718Y-76139390D01*
X138865495Y-76316167D01*
X138370520Y-76811142D01*
X138370520Y-76811142D01*
G37*
G36*
X137946257Y-76634365D02*
X137769480Y-76811142D01*
X137274505Y-76316167D01*
X137451282Y-76139390D01*
X137946257Y-76634365D01*
X137946257Y-76634365D01*
G37*
G36*
X137592703Y-76987918D02*
X137415926Y-77164695D01*
X136920951Y-76669720D01*
X137097728Y-76492943D01*
X137592703Y-76987918D01*
X137592703Y-76987918D01*
G37*
G36*
X137239150Y-77341472D02*
X137062373Y-77518249D01*
X136567398Y-77023274D01*
X136744175Y-76846497D01*
X137239150Y-77341472D01*
X137239150Y-77341472D01*
G37*
G36*
X136885596Y-77695025D02*
X136708819Y-77871802D01*
X136213844Y-77376827D01*
X136390621Y-77200050D01*
X136885596Y-77695025D01*
X136885596Y-77695025D01*
G37*
G36*
X136532043Y-78048578D02*
X136355266Y-78225355D01*
X135860291Y-77730380D01*
X136037068Y-77553603D01*
X136532043Y-78048578D01*
X136532043Y-78048578D01*
G37*
G36*
X136178490Y-78402132D02*
X136001713Y-78578909D01*
X135506738Y-78083934D01*
X135683515Y-77907157D01*
X136178490Y-78402132D01*
X136178490Y-78402132D01*
G37*
G36*
X135824936Y-78755685D02*
X135648159Y-78932462D01*
X135153184Y-78437487D01*
X135329961Y-78260710D01*
X135824936Y-78755685D01*
X135824936Y-78755685D01*
G37*
G36*
X135471383Y-79109239D02*
X135294606Y-79286016D01*
X134799631Y-78791041D01*
X134976408Y-78614264D01*
X135471383Y-79109239D01*
X135471383Y-79109239D01*
G37*
G36*
X139289759Y-80629518D02*
X138070000Y-79409759D01*
X139289759Y-78190000D01*
X140509518Y-79409759D01*
X139289759Y-80629518D01*
X139289759Y-80629518D01*
G37*
G36*
X138070000Y-79409759D02*
X136850241Y-78190000D01*
X138070000Y-76970241D01*
X139289759Y-78190000D01*
X138070000Y-79409759D01*
X138070000Y-79409759D01*
G37*
G36*
X138070000Y-81849277D02*
X136850241Y-80629518D01*
X138070000Y-79409759D01*
X139289759Y-80629518D01*
X138070000Y-81849277D01*
X138070000Y-81849277D01*
G37*
G36*
X136850241Y-80629518D02*
X135630482Y-79409759D01*
X136850241Y-78190000D01*
X138070000Y-79409759D01*
X136850241Y-80629518D01*
X136850241Y-80629518D01*
G37*
D17*
X132280000Y-82560000D03*
X132280000Y-84060000D03*
X129160000Y-72660000D03*
X129160000Y-74160000D03*
X128070000Y-72650000D03*
X128070000Y-74150000D03*
X121060000Y-72860000D03*
X121060000Y-71360000D03*
X138250000Y-74250000D03*
X138250000Y-72750000D03*
D18*
X129460000Y-76360000D03*
X132000000Y-76360000D03*
X130730000Y-73820000D03*
X152320000Y-71280000D03*
X132000000Y-71280000D03*
X134540000Y-75090000D03*
X143430000Y-76360000D03*
X143430000Y-73820000D03*
X112950000Y-71280000D03*
D19*
X140000000Y-71100000D03*
X141500000Y-71100000D03*
X139700000Y-84660000D03*
X138200000Y-84660000D03*
D17*
X132660000Y-78090000D03*
X132660000Y-79590000D03*
D19*
X136750000Y-71250000D03*
X138250000Y-71250000D03*
X131010000Y-80100000D03*
X129510000Y-80100000D03*
X131000000Y-78500000D03*
X129500000Y-78500000D03*
D17*
X151000000Y-84250000D03*
X151000000Y-82750000D03*
D19*
X151170000Y-74810000D03*
X149670000Y-74810000D03*
D17*
X111770000Y-85190000D03*
X111770000Y-83690000D03*
X141620000Y-74600000D03*
X141620000Y-73100000D03*
X139990000Y-74600000D03*
X139990000Y-73100000D03*
D20*
X134000000Y-85250000D03*
X136500000Y-85250000D03*
D19*
X143870000Y-83230000D03*
X142370000Y-83230000D03*
D17*
X135250000Y-71250000D03*
X135250000Y-72750000D03*
D10*
G36*
X134482322Y-77998008D02*
X133951992Y-77467678D01*
X134517678Y-76901992D01*
X135048008Y-77432322D01*
X134482322Y-77998008D01*
X134482322Y-77998008D01*
G37*
G36*
X135542982Y-76937348D02*
X135012652Y-76407018D01*
X135578338Y-75841332D01*
X136108668Y-76371662D01*
X135542982Y-76937348D01*
X135542982Y-76937348D01*
G37*
D17*
X136750000Y-74250000D03*
X136750000Y-72750000D03*
X134000000Y-87290000D03*
X134000000Y-88790000D03*
X136500000Y-88800000D03*
X136500000Y-87300000D03*
D21*
X130170000Y-83310000D03*
D22*
X129170000Y-84660000D03*
X130170000Y-84660000D03*
X131170000Y-84660000D03*
X131170000Y-81960000D03*
X130170000Y-81960000D03*
X129170000Y-81960000D03*
D23*
X153000000Y-73000000D03*
X153000000Y-75000000D03*
X153000000Y-77000000D03*
X153000000Y-79000000D03*
X153000000Y-81000000D03*
X153000000Y-83000000D03*
X153000000Y-85000000D03*
X153000000Y-87000000D03*
X169000000Y-87000000D03*
X169000000Y-85000000D03*
X169000000Y-83000000D03*
X169000000Y-81000000D03*
X169000000Y-79000000D03*
X169000000Y-77000000D03*
X169000000Y-75000000D03*
X169000000Y-73000000D03*
D24*
X122920000Y-87700000D03*
D25*
X122920000Y-86600000D03*
X122920000Y-85500000D03*
X122920000Y-84400000D03*
X122920000Y-83300000D03*
X122920000Y-82200000D03*
X122920000Y-81100000D03*
X122920000Y-80000000D03*
X122920000Y-78900000D03*
X113320000Y-78900000D03*
X113320000Y-80000000D03*
X113320000Y-81100000D03*
X113320000Y-82200000D03*
X113320000Y-83300000D03*
X113320000Y-84400000D03*
X113320000Y-85500000D03*
X113320000Y-86600000D03*
D24*
X113320000Y-87700000D03*
D26*
X146100000Y-71900000D03*
X148100000Y-71900000D03*
D17*
X171275000Y-81250000D03*
X171275000Y-82750000D03*
D26*
X146100000Y-83600000D03*
X148100000Y-83600000D03*
D17*
X151000000Y-79740000D03*
X151000000Y-81240000D03*
D19*
X146710000Y-77920000D03*
X148210000Y-77920000D03*
D26*
X146100000Y-76100000D03*
X148100000Y-76100000D03*
X146100000Y-74000000D03*
X148100000Y-74000000D03*
D17*
X124670000Y-82340000D03*
X124670000Y-83840000D03*
X110620000Y-85210000D03*
X110620000Y-86710000D03*
D19*
X142370000Y-84850000D03*
X143870000Y-84850000D03*
D27*
X126722000Y-83646000D03*
D28*
X126722000Y-81106000D03*
X126722000Y-78566000D03*
X126722000Y-76026000D03*
D29*
X143825000Y-86750000D03*
X138675000Y-86750000D03*
X138675000Y-88750000D03*
X143825000Y-88750000D03*
X132075000Y-86750000D03*
X126925000Y-86750000D03*
X126925000Y-88750000D03*
X132075000Y-88750000D03*
D30*
X146500000Y-79640000D03*
X146500000Y-80140000D03*
X146500000Y-80640000D03*
X146500000Y-81140000D03*
X146500000Y-81640000D03*
X149600000Y-81640000D03*
X149600000Y-81140000D03*
X149600000Y-80640000D03*
X149600000Y-80140000D03*
X149600000Y-79640000D03*
D31*
X148462500Y-81240000D03*
X148462500Y-80040000D03*
X147637500Y-81240000D03*
X147637500Y-80040000D03*
D32*
X148300000Y-79140000D03*
X147800000Y-79140000D03*
X147796000Y-82140000D03*
X148300000Y-82140000D03*
D19*
X151170000Y-77900000D03*
X149670000Y-77900000D03*
X151170000Y-76340000D03*
X149670000Y-76340000D03*
D18*
X178990000Y-89060000D03*
X106600000Y-71280000D03*
D33*
X143940000Y-81199820D03*
X143940000Y-79000180D03*
D17*
X110770000Y-81428000D03*
X110770000Y-79928000D03*
D19*
X129840000Y-71030000D03*
X128340000Y-71030000D03*
M02*
