G04 #@! TF.FileFunction,Legend,Top*
%FSLAX46Y46*%
G04 Gerber Fmt 4.6, Leading zero omitted, Abs format (unit mm)*
G04 Created by KiCad (PCBNEW (2016-02-18 BZR 6566)-product) date Monday, 28 March 2016 11:35:06*
%MOMM*%
G01*
G04 APERTURE LIST*
%ADD10C,0.100000*%
%ADD11C,0.381000*%
%ADD12C,0.050000*%
%ADD13C,0.010000*%
%ADD14C,0.150000*%
%ADD15C,0.300000*%
G04 APERTURE END LIST*
D10*
D11*
X180294000Y-76169680D02*
X180294000Y-83789680D01*
X180294000Y-83789680D02*
X192994000Y-83789680D01*
X192994000Y-83789680D02*
X192994000Y-76169680D01*
X192994000Y-76169680D02*
X180294000Y-76169680D01*
X104992000Y-83835400D02*
X104992000Y-76215400D01*
X104992000Y-76215400D02*
X92292000Y-76215400D01*
X92292000Y-76215400D02*
X92292000Y-83835400D01*
X92292000Y-83835400D02*
X104992000Y-83835400D01*
D12*
X125140000Y-71239000D02*
X125140000Y-72939000D01*
X125140000Y-72939000D02*
X123620000Y-72939000D01*
X123620000Y-72939000D02*
X123620000Y-71239000D01*
X123620000Y-71239000D02*
X125140000Y-71239000D01*
D10*
X125580000Y-71089000D02*
G75*
G03X125580000Y-71089000I-200000J0D01*
G01*
D13*
X125880000Y-70589000D02*
X125880000Y-73589000D01*
X125880000Y-73589000D02*
X122880000Y-73589000D01*
X122880000Y-70589000D02*
X122880000Y-73589000D01*
X125880000Y-70589000D02*
X122880000Y-70589000D01*
D14*
X138070000Y-75697448D02*
X138441231Y-76068679D01*
X138070000Y-83122070D02*
X137698769Y-82750839D01*
X141782311Y-79409759D02*
X141411080Y-79038528D01*
X134357689Y-79409759D02*
X134728920Y-79038528D01*
X138070000Y-83122070D02*
X138441231Y-82750839D01*
X141782311Y-79409759D02*
X141411080Y-79780990D01*
X138070000Y-75697448D02*
X137698769Y-76068679D01*
X132880000Y-82960000D02*
X132880000Y-83660000D01*
X131680000Y-83660000D02*
X131680000Y-82960000D01*
X129760000Y-73060000D02*
X129760000Y-73760000D01*
X128560000Y-73760000D02*
X128560000Y-73060000D01*
X128670000Y-73050000D02*
X128670000Y-73750000D01*
X127470000Y-73750000D02*
X127470000Y-73050000D01*
X120460000Y-72460000D02*
X120460000Y-71760000D01*
X121660000Y-71760000D02*
X121660000Y-72460000D01*
X137650000Y-73850000D02*
X137650000Y-73150000D01*
X138850000Y-73150000D02*
X138850000Y-73850000D01*
X140400000Y-70500000D02*
X141100000Y-70500000D01*
X141100000Y-71700000D02*
X140400000Y-71700000D01*
X139300000Y-85260000D02*
X138600000Y-85260000D01*
X138600000Y-84060000D02*
X139300000Y-84060000D01*
X133260000Y-78490000D02*
X133260000Y-79190000D01*
X132060000Y-79190000D02*
X132060000Y-78490000D01*
X137150000Y-70650000D02*
X137850000Y-70650000D01*
X137850000Y-71850000D02*
X137150000Y-71850000D01*
X130610000Y-80700000D02*
X129910000Y-80700000D01*
X129910000Y-79500000D02*
X130610000Y-79500000D01*
X130600000Y-79100000D02*
X129900000Y-79100000D01*
X129900000Y-77900000D02*
X130600000Y-77900000D01*
X150400000Y-83850000D02*
X150400000Y-83150000D01*
X151600000Y-83150000D02*
X151600000Y-83850000D01*
X150770000Y-75410000D02*
X150070000Y-75410000D01*
X150070000Y-74210000D02*
X150770000Y-74210000D01*
X111170000Y-84790000D02*
X111170000Y-84090000D01*
X112370000Y-84090000D02*
X112370000Y-84790000D01*
X141020000Y-74200000D02*
X141020000Y-73500000D01*
X142220000Y-73500000D02*
X142220000Y-74200000D01*
X139390000Y-74200000D02*
X139390000Y-73500000D01*
X140590000Y-73500000D02*
X140590000Y-74200000D01*
X137350000Y-86550000D02*
X133150000Y-86550000D01*
X137350000Y-83950000D02*
X133150000Y-83950000D01*
X143470000Y-83830000D02*
X142770000Y-83830000D01*
X142770000Y-82630000D02*
X143470000Y-82630000D01*
X135850000Y-71650000D02*
X135850000Y-72350000D01*
X134650000Y-72350000D02*
X134650000Y-71650000D01*
X134358579Y-76742893D02*
X134853553Y-76247919D01*
X135702081Y-77096447D02*
X135207107Y-77591421D01*
X136150000Y-73850000D02*
X136150000Y-73150000D01*
X137350000Y-73150000D02*
X137350000Y-73850000D01*
X134600000Y-87690000D02*
X134600000Y-88390000D01*
X133400000Y-88390000D02*
X133400000Y-87690000D01*
X135900000Y-88400000D02*
X135900000Y-87700000D01*
X137100000Y-87700000D02*
X137100000Y-88400000D01*
D12*
X128690711Y-84860000D02*
G75*
G03X128690711Y-84860000I-70711J0D01*
G01*
X128720000Y-81860000D02*
X131620000Y-81860000D01*
X131620000Y-81860000D02*
X131620000Y-84760000D01*
X131620000Y-84760000D02*
X128720000Y-84760000D01*
X128720000Y-84760000D02*
X128720000Y-81860000D01*
D15*
X152470711Y-71900000D02*
G75*
G03X152470711Y-71900000I-70711J0D01*
G01*
D14*
X153000000Y-72000000D02*
X169000000Y-72000000D01*
X153000000Y-88000000D02*
X169000000Y-88000000D01*
X123020000Y-88050000D02*
X123020000Y-88300000D01*
X123020000Y-88300000D02*
X113220000Y-88300000D01*
X113220000Y-88300000D02*
X113220000Y-78250000D01*
X113220000Y-78250000D02*
X123020000Y-78250000D01*
X123020000Y-78250000D02*
X123020000Y-88050000D01*
X147600000Y-71050000D02*
X146600000Y-71050000D01*
X146600000Y-72750000D02*
X147600000Y-72750000D01*
X171875000Y-81650000D02*
X171875000Y-82350000D01*
X170675000Y-82350000D02*
X170675000Y-81650000D01*
X147600000Y-82750000D02*
X146600000Y-82750000D01*
X146600000Y-84450000D02*
X147600000Y-84450000D01*
X151600000Y-80140000D02*
X151600000Y-80840000D01*
X150400000Y-80840000D02*
X150400000Y-80140000D01*
X147110000Y-77320000D02*
X147810000Y-77320000D01*
X147810000Y-78520000D02*
X147110000Y-78520000D01*
X147600000Y-75250000D02*
X146600000Y-75250000D01*
X146600000Y-76950000D02*
X147600000Y-76950000D01*
X147600000Y-73150000D02*
X146600000Y-73150000D01*
X146600000Y-74850000D02*
X147600000Y-74850000D01*
X125270000Y-82740000D02*
X125270000Y-83440000D01*
X124070000Y-83440000D02*
X124070000Y-82740000D01*
X111220000Y-85610000D02*
X111220000Y-86310000D01*
X110020000Y-86310000D02*
X110020000Y-85610000D01*
X142770000Y-84250000D02*
X143470000Y-84250000D01*
X143470000Y-85450000D02*
X142770000Y-85450000D01*
X127992000Y-82376000D02*
X127992000Y-74756000D01*
X125452000Y-82376000D02*
X125452000Y-74756000D01*
X125172000Y-85196000D02*
X125172000Y-83646000D01*
X127992000Y-74756000D02*
X125452000Y-74756000D01*
X125452000Y-82376000D02*
X127992000Y-82376000D01*
X128272000Y-83646000D02*
X128272000Y-85196000D01*
X128272000Y-85196000D02*
X125172000Y-85196000D01*
X143600000Y-86000000D02*
X143600000Y-86100000D01*
X143600000Y-89500000D02*
X143600000Y-89400000D01*
X138900000Y-89400000D02*
X138900000Y-89500000D01*
X138900000Y-86000000D02*
X138900000Y-86100000D01*
X138900000Y-87400000D02*
X138900000Y-88100000D01*
X143600000Y-87400000D02*
X143600000Y-88100000D01*
X143600000Y-86000000D02*
X138900000Y-86000000D01*
X138900000Y-89500000D02*
X143600000Y-89500000D01*
X142150000Y-87750000D02*
G75*
G03X142150000Y-87750000I-900000J0D01*
G01*
X131850000Y-86000000D02*
X131850000Y-86100000D01*
X131850000Y-89500000D02*
X131850000Y-89400000D01*
X127150000Y-89400000D02*
X127150000Y-89500000D01*
X127150000Y-86000000D02*
X127150000Y-86100000D01*
X127150000Y-87400000D02*
X127150000Y-88100000D01*
X131850000Y-87400000D02*
X131850000Y-88100000D01*
X131850000Y-86000000D02*
X127150000Y-86000000D01*
X127150000Y-89500000D02*
X131850000Y-89500000D01*
X130400000Y-87750000D02*
G75*
G03X130400000Y-87750000I-900000J0D01*
G01*
X146825000Y-82290000D02*
X149275000Y-82290000D01*
X146100000Y-78990000D02*
X149275000Y-78990000D01*
X150770000Y-78500000D02*
X150070000Y-78500000D01*
X150070000Y-77300000D02*
X150770000Y-77300000D01*
X150770000Y-76940000D02*
X150070000Y-76940000D01*
X150070000Y-75740000D02*
X150770000Y-75740000D01*
X145740860Y-78598860D02*
X145740860Y-81601140D01*
X142139140Y-78598860D02*
X142139140Y-81601140D01*
X110170000Y-81028000D02*
X110170000Y-80328000D01*
X111370000Y-80328000D02*
X111370000Y-81028000D01*
X129440000Y-71630000D02*
X128740000Y-71630000D01*
X128740000Y-70430000D02*
X129440000Y-70430000D01*
X185086857Y-78977937D02*
X185172571Y-79006509D01*
X185315428Y-79006509D01*
X185372571Y-78977937D01*
X185401142Y-78949366D01*
X185429714Y-78892223D01*
X185429714Y-78835080D01*
X185401142Y-78777937D01*
X185372571Y-78749366D01*
X185315428Y-78720794D01*
X185201142Y-78692223D01*
X185144000Y-78663651D01*
X185115428Y-78635080D01*
X185086857Y-78577937D01*
X185086857Y-78520794D01*
X185115428Y-78463651D01*
X185144000Y-78435080D01*
X185201142Y-78406509D01*
X185344000Y-78406509D01*
X185429714Y-78435080D01*
X185686857Y-79006509D02*
X185686857Y-78406509D01*
X185886857Y-78835080D01*
X186086857Y-78406509D01*
X186086857Y-79006509D01*
X186344000Y-78835080D02*
X186629714Y-78835080D01*
X186286857Y-79006509D02*
X186486857Y-78406509D01*
X186686857Y-79006509D01*
X186744000Y-79063651D02*
X187201143Y-79063651D01*
X187344000Y-78692223D02*
X187544000Y-78692223D01*
X187629714Y-79006509D02*
X187344000Y-79006509D01*
X187344000Y-78406509D01*
X187629714Y-78406509D01*
X187858286Y-78463651D02*
X187886857Y-78435080D01*
X187944000Y-78406509D01*
X188086857Y-78406509D01*
X188144000Y-78435080D01*
X188172571Y-78463651D01*
X188201143Y-78520794D01*
X188201143Y-78577937D01*
X188172571Y-78663651D01*
X187829714Y-79006509D01*
X188201143Y-79006509D01*
X97084857Y-81512857D02*
X97170571Y-81541429D01*
X97313428Y-81541429D01*
X97370571Y-81512857D01*
X97399142Y-81484286D01*
X97427714Y-81427143D01*
X97427714Y-81370000D01*
X97399142Y-81312857D01*
X97370571Y-81284286D01*
X97313428Y-81255714D01*
X97199142Y-81227143D01*
X97142000Y-81198571D01*
X97113428Y-81170000D01*
X97084857Y-81112857D01*
X97084857Y-81055714D01*
X97113428Y-80998571D01*
X97142000Y-80970000D01*
X97199142Y-80941429D01*
X97342000Y-80941429D01*
X97427714Y-80970000D01*
X97684857Y-81541429D02*
X97684857Y-80941429D01*
X97884857Y-81370000D01*
X98084857Y-80941429D01*
X98084857Y-81541429D01*
X98342000Y-81370000D02*
X98627714Y-81370000D01*
X98284857Y-81541429D02*
X98484857Y-80941429D01*
X98684857Y-81541429D01*
X98742000Y-81598571D02*
X99199143Y-81598571D01*
X99342000Y-81227143D02*
X99542000Y-81227143D01*
X99627714Y-81541429D02*
X99342000Y-81541429D01*
X99342000Y-80941429D01*
X99627714Y-80941429D01*
X100199143Y-81541429D02*
X99856286Y-81541429D01*
X100027714Y-81541429D02*
X100027714Y-80941429D01*
X99970571Y-81027143D01*
X99913429Y-81084286D01*
X99856286Y-81112857D01*
X126251429Y-72546143D02*
X126737143Y-72546143D01*
X126794286Y-72517571D01*
X126822857Y-72489000D01*
X126851429Y-72431857D01*
X126851429Y-72317571D01*
X126822857Y-72260429D01*
X126794286Y-72231857D01*
X126737143Y-72203286D01*
X126251429Y-72203286D01*
X126308571Y-71946143D02*
X126280000Y-71917572D01*
X126251429Y-71860429D01*
X126251429Y-71717572D01*
X126280000Y-71660429D01*
X126308571Y-71631858D01*
X126365714Y-71603286D01*
X126422857Y-71603286D01*
X126508571Y-71631858D01*
X126851429Y-71974715D01*
X126851429Y-71603286D01*
X133574416Y-80380914D02*
X133917868Y-80724366D01*
X133978478Y-80744569D01*
X134018883Y-80744569D01*
X134079493Y-80724366D01*
X134160305Y-80643553D01*
X134180507Y-80582944D01*
X134180508Y-80542538D01*
X134160304Y-80481929D01*
X133816853Y-80138478D01*
X134342132Y-79896041D02*
X134624975Y-80178884D01*
X134079492Y-79835431D02*
X134281523Y-80239493D01*
X134544162Y-79976854D01*
X133634286Y-82710000D02*
X133662857Y-82738571D01*
X133691429Y-82824285D01*
X133691429Y-82881428D01*
X133662857Y-82967143D01*
X133605714Y-83024285D01*
X133548571Y-83052857D01*
X133434286Y-83081428D01*
X133348571Y-83081428D01*
X133234286Y-83052857D01*
X133177143Y-83024285D01*
X133120000Y-82967143D01*
X133091429Y-82881428D01*
X133091429Y-82824285D01*
X133120000Y-82738571D01*
X133148571Y-82710000D01*
X133691429Y-82138571D02*
X133691429Y-82481428D01*
X133691429Y-82310000D02*
X133091429Y-82310000D01*
X133177143Y-82367143D01*
X133234286Y-82424285D01*
X133262857Y-82481428D01*
X129330000Y-71584286D02*
X129301429Y-71612857D01*
X129215715Y-71641429D01*
X129158572Y-71641429D01*
X129072857Y-71612857D01*
X129015715Y-71555714D01*
X128987143Y-71498571D01*
X128958572Y-71384286D01*
X128958572Y-71298571D01*
X128987143Y-71184286D01*
X129015715Y-71127143D01*
X129072857Y-71070000D01*
X129158572Y-71041429D01*
X129215715Y-71041429D01*
X129301429Y-71070000D01*
X129330000Y-71098571D01*
X129558572Y-71098571D02*
X129587143Y-71070000D01*
X129644286Y-71041429D01*
X129787143Y-71041429D01*
X129844286Y-71070000D01*
X129872857Y-71098571D01*
X129901429Y-71155714D01*
X129901429Y-71212857D01*
X129872857Y-71298571D01*
X129530000Y-71641429D01*
X129901429Y-71641429D01*
X127890000Y-71544286D02*
X127861429Y-71572857D01*
X127775715Y-71601429D01*
X127718572Y-71601429D01*
X127632857Y-71572857D01*
X127575715Y-71515714D01*
X127547143Y-71458571D01*
X127518572Y-71344286D01*
X127518572Y-71258571D01*
X127547143Y-71144286D01*
X127575715Y-71087143D01*
X127632857Y-71030000D01*
X127718572Y-71001429D01*
X127775715Y-71001429D01*
X127861429Y-71030000D01*
X127890000Y-71058571D01*
X128090000Y-71001429D02*
X128461429Y-71001429D01*
X128261429Y-71230000D01*
X128347143Y-71230000D01*
X128404286Y-71258571D01*
X128432857Y-71287143D01*
X128461429Y-71344286D01*
X128461429Y-71487143D01*
X128432857Y-71544286D01*
X128404286Y-71572857D01*
X128347143Y-71601429D01*
X128175715Y-71601429D01*
X128118572Y-71572857D01*
X128090000Y-71544286D01*
X118920000Y-72404286D02*
X118891429Y-72432857D01*
X118805715Y-72461429D01*
X118748572Y-72461429D01*
X118662857Y-72432857D01*
X118605715Y-72375714D01*
X118577143Y-72318571D01*
X118548572Y-72204286D01*
X118548572Y-72118571D01*
X118577143Y-72004286D01*
X118605715Y-71947143D01*
X118662857Y-71890000D01*
X118748572Y-71861429D01*
X118805715Y-71861429D01*
X118891429Y-71890000D01*
X118920000Y-71918571D01*
X119434286Y-72061429D02*
X119434286Y-72461429D01*
X119291429Y-71832857D02*
X119148572Y-72261429D01*
X119520000Y-72261429D01*
X137807143Y-75521429D02*
X137807143Y-74921429D01*
X137950000Y-74921429D01*
X138035715Y-74950000D01*
X138092857Y-75007143D01*
X138121429Y-75064286D01*
X138150000Y-75178571D01*
X138150000Y-75264286D01*
X138121429Y-75378571D01*
X138092857Y-75435714D01*
X138035715Y-75492857D01*
X137950000Y-75521429D01*
X137807143Y-75521429D01*
X138721429Y-75521429D02*
X138378572Y-75521429D01*
X138550000Y-75521429D02*
X138550000Y-74921429D01*
X138492857Y-75007143D01*
X138435715Y-75064286D01*
X138378572Y-75092857D01*
X128347143Y-75391429D02*
X128347143Y-74791429D01*
X128575715Y-74791429D01*
X128632857Y-74820000D01*
X128661429Y-74848571D01*
X128690000Y-74905714D01*
X128690000Y-74991429D01*
X128661429Y-75048571D01*
X128632857Y-75077143D01*
X128575715Y-75105714D01*
X128347143Y-75105714D01*
X129261429Y-75391429D02*
X128918572Y-75391429D01*
X129090000Y-75391429D02*
X129090000Y-74791429D01*
X129032857Y-74877143D01*
X128975715Y-74934286D01*
X128918572Y-74962857D01*
X131587143Y-75341429D02*
X131587143Y-74741429D01*
X131815715Y-74741429D01*
X131872857Y-74770000D01*
X131901429Y-74798571D01*
X131930000Y-74855714D01*
X131930000Y-74941429D01*
X131901429Y-74998571D01*
X131872857Y-75027143D01*
X131815715Y-75055714D01*
X131587143Y-75055714D01*
X132158572Y-74798571D02*
X132187143Y-74770000D01*
X132244286Y-74741429D01*
X132387143Y-74741429D01*
X132444286Y-74770000D01*
X132472857Y-74798571D01*
X132501429Y-74855714D01*
X132501429Y-74912857D01*
X132472857Y-74998571D01*
X132130000Y-75341429D01*
X132501429Y-75341429D01*
X131667143Y-74151429D02*
X131667143Y-73551429D01*
X131895715Y-73551429D01*
X131952857Y-73580000D01*
X131981429Y-73608571D01*
X132010000Y-73665714D01*
X132010000Y-73751429D01*
X131981429Y-73808571D01*
X131952857Y-73837143D01*
X131895715Y-73865714D01*
X131667143Y-73865714D01*
X132210000Y-73551429D02*
X132581429Y-73551429D01*
X132381429Y-73780000D01*
X132467143Y-73780000D01*
X132524286Y-73808571D01*
X132552857Y-73837143D01*
X132581429Y-73894286D01*
X132581429Y-74037143D01*
X132552857Y-74094286D01*
X132524286Y-74122857D01*
X132467143Y-74151429D01*
X132295715Y-74151429D01*
X132238572Y-74122857D01*
X132210000Y-74094286D01*
X151477143Y-72831429D02*
X151477143Y-72231429D01*
X151705715Y-72231429D01*
X151762857Y-72260000D01*
X151791429Y-72288571D01*
X151820000Y-72345714D01*
X151820000Y-72431429D01*
X151791429Y-72488571D01*
X151762857Y-72517143D01*
X151705715Y-72545714D01*
X151477143Y-72545714D01*
X152334286Y-72431429D02*
X152334286Y-72831429D01*
X152191429Y-72202857D02*
X152048572Y-72631429D01*
X152420000Y-72631429D01*
X133097143Y-71301429D02*
X133097143Y-70701429D01*
X133325715Y-70701429D01*
X133382857Y-70730000D01*
X133411429Y-70758571D01*
X133440000Y-70815714D01*
X133440000Y-70901429D01*
X133411429Y-70958571D01*
X133382857Y-70987143D01*
X133325715Y-71015714D01*
X133097143Y-71015714D01*
X133982857Y-70701429D02*
X133697143Y-70701429D01*
X133668572Y-70987143D01*
X133697143Y-70958571D01*
X133754286Y-70930000D01*
X133897143Y-70930000D01*
X133954286Y-70958571D01*
X133982857Y-70987143D01*
X134011429Y-71044286D01*
X134011429Y-71187143D01*
X133982857Y-71244286D01*
X133954286Y-71272857D01*
X133897143Y-71301429D01*
X133754286Y-71301429D01*
X133697143Y-71272857D01*
X133668572Y-71244286D01*
X133417143Y-74321429D02*
X133417143Y-73721429D01*
X133645715Y-73721429D01*
X133702857Y-73750000D01*
X133731429Y-73778571D01*
X133760000Y-73835714D01*
X133760000Y-73921429D01*
X133731429Y-73978571D01*
X133702857Y-74007143D01*
X133645715Y-74035714D01*
X133417143Y-74035714D01*
X134274286Y-73721429D02*
X134160000Y-73721429D01*
X134102857Y-73750000D01*
X134074286Y-73778571D01*
X134017143Y-73864286D01*
X133988572Y-73978571D01*
X133988572Y-74207143D01*
X134017143Y-74264286D01*
X134045715Y-74292857D01*
X134102857Y-74321429D01*
X134217143Y-74321429D01*
X134274286Y-74292857D01*
X134302857Y-74264286D01*
X134331429Y-74207143D01*
X134331429Y-74064286D01*
X134302857Y-74007143D01*
X134274286Y-73978571D01*
X134217143Y-73950000D01*
X134102857Y-73950000D01*
X134045715Y-73978571D01*
X134017143Y-74007143D01*
X133988572Y-74064286D01*
X142977143Y-77921429D02*
X142977143Y-77321429D01*
X143205715Y-77321429D01*
X143262857Y-77350000D01*
X143291429Y-77378571D01*
X143320000Y-77435714D01*
X143320000Y-77521429D01*
X143291429Y-77578571D01*
X143262857Y-77607143D01*
X143205715Y-77635714D01*
X142977143Y-77635714D01*
X143662857Y-77578571D02*
X143605715Y-77550000D01*
X143577143Y-77521429D01*
X143548572Y-77464286D01*
X143548572Y-77435714D01*
X143577143Y-77378571D01*
X143605715Y-77350000D01*
X143662857Y-77321429D01*
X143777143Y-77321429D01*
X143834286Y-77350000D01*
X143862857Y-77378571D01*
X143891429Y-77435714D01*
X143891429Y-77464286D01*
X143862857Y-77521429D01*
X143834286Y-77550000D01*
X143777143Y-77578571D01*
X143662857Y-77578571D01*
X143605715Y-77607143D01*
X143577143Y-77635714D01*
X143548572Y-77692857D01*
X143548572Y-77807143D01*
X143577143Y-77864286D01*
X143605715Y-77892857D01*
X143662857Y-77921429D01*
X143777143Y-77921429D01*
X143834286Y-77892857D01*
X143862857Y-77864286D01*
X143891429Y-77807143D01*
X143891429Y-77692857D01*
X143862857Y-77635714D01*
X143834286Y-77607143D01*
X143777143Y-77578571D01*
X142987143Y-71551429D02*
X142987143Y-70951429D01*
X143215715Y-70951429D01*
X143272857Y-70980000D01*
X143301429Y-71008571D01*
X143330000Y-71065714D01*
X143330000Y-71151429D01*
X143301429Y-71208571D01*
X143272857Y-71237143D01*
X143215715Y-71265714D01*
X142987143Y-71265714D01*
X143615715Y-71551429D02*
X143730000Y-71551429D01*
X143787143Y-71522857D01*
X143815715Y-71494286D01*
X143872857Y-71408571D01*
X143901429Y-71294286D01*
X143901429Y-71065714D01*
X143872857Y-71008571D01*
X143844286Y-70980000D01*
X143787143Y-70951429D01*
X143672857Y-70951429D01*
X143615715Y-70980000D01*
X143587143Y-71008571D01*
X143558572Y-71065714D01*
X143558572Y-71208571D01*
X143587143Y-71265714D01*
X143615715Y-71294286D01*
X143672857Y-71322857D01*
X143787143Y-71322857D01*
X143844286Y-71294286D01*
X143872857Y-71265714D01*
X143901429Y-71208571D01*
X112321428Y-72901429D02*
X112321428Y-72301429D01*
X112550000Y-72301429D01*
X112607142Y-72330000D01*
X112635714Y-72358571D01*
X112664285Y-72415714D01*
X112664285Y-72501429D01*
X112635714Y-72558571D01*
X112607142Y-72587143D01*
X112550000Y-72615714D01*
X112321428Y-72615714D01*
X113235714Y-72901429D02*
X112892857Y-72901429D01*
X113064285Y-72901429D02*
X113064285Y-72301429D01*
X113007142Y-72387143D01*
X112950000Y-72444286D01*
X112892857Y-72472857D01*
X113607143Y-72301429D02*
X113664286Y-72301429D01*
X113721429Y-72330000D01*
X113750000Y-72358571D01*
X113778571Y-72415714D01*
X113807143Y-72530000D01*
X113807143Y-72672857D01*
X113778571Y-72787143D01*
X113750000Y-72844286D01*
X113721429Y-72872857D01*
X113664286Y-72901429D01*
X113607143Y-72901429D01*
X113550000Y-72872857D01*
X113521429Y-72844286D01*
X113492857Y-72787143D01*
X113464286Y-72672857D01*
X113464286Y-72530000D01*
X113492857Y-72415714D01*
X113521429Y-72358571D01*
X113550000Y-72330000D01*
X113607143Y-72301429D01*
X140650000Y-72491429D02*
X140450000Y-72205714D01*
X140307143Y-72491429D02*
X140307143Y-71891429D01*
X140535715Y-71891429D01*
X140592857Y-71920000D01*
X140621429Y-71948571D01*
X140650000Y-72005714D01*
X140650000Y-72091429D01*
X140621429Y-72148571D01*
X140592857Y-72177143D01*
X140535715Y-72205714D01*
X140307143Y-72205714D01*
X141221429Y-72491429D02*
X140878572Y-72491429D01*
X141050000Y-72491429D02*
X141050000Y-71891429D01*
X140992857Y-71977143D01*
X140935715Y-72034286D01*
X140878572Y-72062857D01*
X139350000Y-83781429D02*
X139150000Y-83495714D01*
X139007143Y-83781429D02*
X139007143Y-83181429D01*
X139235715Y-83181429D01*
X139292857Y-83210000D01*
X139321429Y-83238571D01*
X139350000Y-83295714D01*
X139350000Y-83381429D01*
X139321429Y-83438571D01*
X139292857Y-83467143D01*
X139235715Y-83495714D01*
X139007143Y-83495714D01*
X139578572Y-83238571D02*
X139607143Y-83210000D01*
X139664286Y-83181429D01*
X139807143Y-83181429D01*
X139864286Y-83210000D01*
X139892857Y-83238571D01*
X139921429Y-83295714D01*
X139921429Y-83352857D01*
X139892857Y-83438571D01*
X139550000Y-83781429D01*
X139921429Y-83781429D01*
X132961429Y-80930000D02*
X132675714Y-81130000D01*
X132961429Y-81272857D02*
X132361429Y-81272857D01*
X132361429Y-81044285D01*
X132390000Y-80987143D01*
X132418571Y-80958571D01*
X132475714Y-80930000D01*
X132561429Y-80930000D01*
X132618571Y-80958571D01*
X132647143Y-80987143D01*
X132675714Y-81044285D01*
X132675714Y-81272857D01*
X132361429Y-80730000D02*
X132361429Y-80358571D01*
X132590000Y-80558571D01*
X132590000Y-80472857D01*
X132618571Y-80415714D01*
X132647143Y-80387143D01*
X132704286Y-80358571D01*
X132847143Y-80358571D01*
X132904286Y-80387143D01*
X132932857Y-80415714D01*
X132961429Y-80472857D01*
X132961429Y-80644285D01*
X132932857Y-80701428D01*
X132904286Y-80730000D01*
X138990000Y-72241429D02*
X138790000Y-71955714D01*
X138647143Y-72241429D02*
X138647143Y-71641429D01*
X138875715Y-71641429D01*
X138932857Y-71670000D01*
X138961429Y-71698571D01*
X138990000Y-71755714D01*
X138990000Y-71841429D01*
X138961429Y-71898571D01*
X138932857Y-71927143D01*
X138875715Y-71955714D01*
X138647143Y-71955714D01*
X139504286Y-71841429D02*
X139504286Y-72241429D01*
X139361429Y-71612857D02*
X139218572Y-72041429D01*
X139590000Y-72041429D01*
X130150000Y-81461429D02*
X129950000Y-81175714D01*
X129807143Y-81461429D02*
X129807143Y-80861429D01*
X130035715Y-80861429D01*
X130092857Y-80890000D01*
X130121429Y-80918571D01*
X130150000Y-80975714D01*
X130150000Y-81061429D01*
X130121429Y-81118571D01*
X130092857Y-81147143D01*
X130035715Y-81175714D01*
X129807143Y-81175714D01*
X130692857Y-80861429D02*
X130407143Y-80861429D01*
X130378572Y-81147143D01*
X130407143Y-81118571D01*
X130464286Y-81090000D01*
X130607143Y-81090000D01*
X130664286Y-81118571D01*
X130692857Y-81147143D01*
X130721429Y-81204286D01*
X130721429Y-81347143D01*
X130692857Y-81404286D01*
X130664286Y-81432857D01*
X130607143Y-81461429D01*
X130464286Y-81461429D01*
X130407143Y-81432857D01*
X130378572Y-81404286D01*
X130660000Y-77681429D02*
X130460000Y-77395714D01*
X130317143Y-77681429D02*
X130317143Y-77081429D01*
X130545715Y-77081429D01*
X130602857Y-77110000D01*
X130631429Y-77138571D01*
X130660000Y-77195714D01*
X130660000Y-77281429D01*
X130631429Y-77338571D01*
X130602857Y-77367143D01*
X130545715Y-77395714D01*
X130317143Y-77395714D01*
X131174286Y-77081429D02*
X131060000Y-77081429D01*
X131002857Y-77110000D01*
X130974286Y-77138571D01*
X130917143Y-77224286D01*
X130888572Y-77338571D01*
X130888572Y-77567143D01*
X130917143Y-77624286D01*
X130945715Y-77652857D01*
X131002857Y-77681429D01*
X131117143Y-77681429D01*
X131174286Y-77652857D01*
X131202857Y-77624286D01*
X131231429Y-77567143D01*
X131231429Y-77424286D01*
X131202857Y-77367143D01*
X131174286Y-77338571D01*
X131117143Y-77310000D01*
X131002857Y-77310000D01*
X130945715Y-77338571D01*
X130917143Y-77367143D01*
X130888572Y-77424286D01*
X152471429Y-83580000D02*
X152185714Y-83780000D01*
X152471429Y-83922857D02*
X151871429Y-83922857D01*
X151871429Y-83694285D01*
X151900000Y-83637143D01*
X151928571Y-83608571D01*
X151985714Y-83580000D01*
X152071429Y-83580000D01*
X152128571Y-83608571D01*
X152157143Y-83637143D01*
X152185714Y-83694285D01*
X152185714Y-83922857D01*
X151871429Y-83380000D02*
X151871429Y-82980000D01*
X152471429Y-83237143D01*
X148950000Y-76086429D02*
X148750000Y-75800714D01*
X148607143Y-76086429D02*
X148607143Y-75486429D01*
X148835715Y-75486429D01*
X148892857Y-75515000D01*
X148921429Y-75543571D01*
X148950000Y-75600714D01*
X148950000Y-75686429D01*
X148921429Y-75743571D01*
X148892857Y-75772143D01*
X148835715Y-75800714D01*
X148607143Y-75800714D01*
X149292857Y-75743571D02*
X149235715Y-75715000D01*
X149207143Y-75686429D01*
X149178572Y-75629286D01*
X149178572Y-75600714D01*
X149207143Y-75543571D01*
X149235715Y-75515000D01*
X149292857Y-75486429D01*
X149407143Y-75486429D01*
X149464286Y-75515000D01*
X149492857Y-75543571D01*
X149521429Y-75600714D01*
X149521429Y-75629286D01*
X149492857Y-75686429D01*
X149464286Y-75715000D01*
X149407143Y-75743571D01*
X149292857Y-75743571D01*
X149235715Y-75772143D01*
X149207143Y-75800714D01*
X149178572Y-75857857D01*
X149178572Y-75972143D01*
X149207143Y-76029286D01*
X149235715Y-76057857D01*
X149292857Y-76086429D01*
X149407143Y-76086429D01*
X149464286Y-76057857D01*
X149492857Y-76029286D01*
X149521429Y-75972143D01*
X149521429Y-75857857D01*
X149492857Y-75800714D01*
X149464286Y-75772143D01*
X149407143Y-75743571D01*
X110981429Y-83520000D02*
X110695714Y-83720000D01*
X110981429Y-83862857D02*
X110381429Y-83862857D01*
X110381429Y-83634285D01*
X110410000Y-83577143D01*
X110438571Y-83548571D01*
X110495714Y-83520000D01*
X110581429Y-83520000D01*
X110638571Y-83548571D01*
X110667143Y-83577143D01*
X110695714Y-83634285D01*
X110695714Y-83862857D01*
X110981429Y-83234285D02*
X110981429Y-83120000D01*
X110952857Y-83062857D01*
X110924286Y-83034285D01*
X110838571Y-82977143D01*
X110724286Y-82948571D01*
X110495714Y-82948571D01*
X110438571Y-82977143D01*
X110410000Y-83005714D01*
X110381429Y-83062857D01*
X110381429Y-83177143D01*
X110410000Y-83234285D01*
X110438571Y-83262857D01*
X110495714Y-83291428D01*
X110638571Y-83291428D01*
X110695714Y-83262857D01*
X110724286Y-83234285D01*
X110752857Y-83177143D01*
X110752857Y-83062857D01*
X110724286Y-83005714D01*
X110695714Y-82977143D01*
X110638571Y-82948571D01*
X141074286Y-75311429D02*
X141274286Y-75911429D01*
X141474286Y-75311429D01*
X142017143Y-75911429D02*
X141817143Y-75625714D01*
X141674286Y-75911429D02*
X141674286Y-75311429D01*
X141902858Y-75311429D01*
X141960000Y-75340000D01*
X141988572Y-75368571D01*
X142017143Y-75425714D01*
X142017143Y-75511429D01*
X141988572Y-75568571D01*
X141960000Y-75597143D01*
X141902858Y-75625714D01*
X141674286Y-75625714D01*
X142588572Y-75911429D02*
X142245715Y-75911429D01*
X142417143Y-75911429D02*
X142417143Y-75311429D01*
X142360000Y-75397143D01*
X142302858Y-75454286D01*
X142245715Y-75482857D01*
X139214286Y-75281429D02*
X139414286Y-75881429D01*
X139614286Y-75281429D01*
X140157143Y-75881429D02*
X139957143Y-75595714D01*
X139814286Y-75881429D02*
X139814286Y-75281429D01*
X140042858Y-75281429D01*
X140100000Y-75310000D01*
X140128572Y-75338571D01*
X140157143Y-75395714D01*
X140157143Y-75481429D01*
X140128572Y-75538571D01*
X140100000Y-75567143D01*
X140042858Y-75595714D01*
X139814286Y-75595714D01*
X140385715Y-75338571D02*
X140414286Y-75310000D01*
X140471429Y-75281429D01*
X140614286Y-75281429D01*
X140671429Y-75310000D01*
X140700000Y-75338571D01*
X140728572Y-75395714D01*
X140728572Y-75452857D01*
X140700000Y-75538571D01*
X140357143Y-75881429D01*
X140728572Y-75881429D01*
X134874286Y-83365714D02*
X134874286Y-83651429D01*
X134674286Y-83051429D02*
X134874286Y-83365714D01*
X135074286Y-83051429D01*
X135588572Y-83651429D02*
X135245715Y-83651429D01*
X135417143Y-83651429D02*
X135417143Y-83051429D01*
X135360000Y-83137143D01*
X135302858Y-83194286D01*
X135245715Y-83222857D01*
X141820000Y-82404286D02*
X141791429Y-82432857D01*
X141705715Y-82461429D01*
X141648572Y-82461429D01*
X141562857Y-82432857D01*
X141505715Y-82375714D01*
X141477143Y-82318571D01*
X141448572Y-82204286D01*
X141448572Y-82118571D01*
X141477143Y-82004286D01*
X141505715Y-81947143D01*
X141562857Y-81890000D01*
X141648572Y-81861429D01*
X141705715Y-81861429D01*
X141791429Y-81890000D01*
X141820000Y-81918571D01*
X142162857Y-82118571D02*
X142105715Y-82090000D01*
X142077143Y-82061429D01*
X142048572Y-82004286D01*
X142048572Y-81975714D01*
X142077143Y-81918571D01*
X142105715Y-81890000D01*
X142162857Y-81861429D01*
X142277143Y-81861429D01*
X142334286Y-81890000D01*
X142362857Y-81918571D01*
X142391429Y-81975714D01*
X142391429Y-82004286D01*
X142362857Y-82061429D01*
X142334286Y-82090000D01*
X142277143Y-82118571D01*
X142162857Y-82118571D01*
X142105715Y-82147143D01*
X142077143Y-82175714D01*
X142048572Y-82232857D01*
X142048572Y-82347143D01*
X142077143Y-82404286D01*
X142105715Y-82432857D01*
X142162857Y-82461429D01*
X142277143Y-82461429D01*
X142334286Y-82432857D01*
X142362857Y-82404286D01*
X142391429Y-82347143D01*
X142391429Y-82232857D01*
X142362857Y-82175714D01*
X142334286Y-82147143D01*
X142277143Y-82118571D01*
X135100000Y-73904286D02*
X135071429Y-73932857D01*
X134985715Y-73961429D01*
X134928572Y-73961429D01*
X134842857Y-73932857D01*
X134785715Y-73875714D01*
X134757143Y-73818571D01*
X134728572Y-73704286D01*
X134728572Y-73618571D01*
X134757143Y-73504286D01*
X134785715Y-73447143D01*
X134842857Y-73390000D01*
X134928572Y-73361429D01*
X134985715Y-73361429D01*
X135071429Y-73390000D01*
X135100000Y-73418571D01*
X135385715Y-73961429D02*
X135500000Y-73961429D01*
X135557143Y-73932857D01*
X135585715Y-73904286D01*
X135642857Y-73818571D01*
X135671429Y-73704286D01*
X135671429Y-73475714D01*
X135642857Y-73418571D01*
X135614286Y-73390000D01*
X135557143Y-73361429D01*
X135442857Y-73361429D01*
X135385715Y-73390000D01*
X135357143Y-73418571D01*
X135328572Y-73475714D01*
X135328572Y-73618571D01*
X135357143Y-73675714D01*
X135385715Y-73704286D01*
X135442857Y-73732857D01*
X135557143Y-73732857D01*
X135614286Y-73704286D01*
X135642857Y-73675714D01*
X135671429Y-73618571D01*
X133478781Y-77134265D02*
X133478781Y-77174670D01*
X133438376Y-77255483D01*
X133397970Y-77295889D01*
X133317157Y-77336295D01*
X133236345Y-77336294D01*
X133175735Y-77316092D01*
X133074721Y-77255483D01*
X133014111Y-77194873D01*
X132953502Y-77093859D01*
X132933299Y-77033249D01*
X132933299Y-76952437D01*
X132973706Y-76871625D01*
X133014112Y-76831219D01*
X133094924Y-76790812D01*
X133135329Y-76790812D01*
X133923249Y-76770610D02*
X133680812Y-77013046D01*
X133802030Y-76891828D02*
X133377766Y-76467564D01*
X133397969Y-76568579D01*
X133397970Y-76649391D01*
X133377766Y-76710000D01*
X133761625Y-76083706D02*
X133802031Y-76043299D01*
X133862640Y-76023096D01*
X133903045Y-76023096D01*
X133963654Y-76043299D01*
X134064670Y-76103908D01*
X134165685Y-76204924D01*
X134226294Y-76305939D01*
X134246498Y-76366548D01*
X134246498Y-76406954D01*
X134226295Y-76467563D01*
X134185889Y-76507970D01*
X134125279Y-76528172D01*
X134084874Y-76528172D01*
X134024264Y-76507970D01*
X133923249Y-76447360D01*
X133822234Y-76346345D01*
X133761624Y-76245330D01*
X133741421Y-76184720D01*
X133741421Y-76144315D01*
X133761625Y-76083706D01*
X136344285Y-75514286D02*
X136315714Y-75542857D01*
X136230000Y-75571429D01*
X136172857Y-75571429D01*
X136087142Y-75542857D01*
X136030000Y-75485714D01*
X136001428Y-75428571D01*
X135972857Y-75314286D01*
X135972857Y-75228571D01*
X136001428Y-75114286D01*
X136030000Y-75057143D01*
X136087142Y-75000000D01*
X136172857Y-74971429D01*
X136230000Y-74971429D01*
X136315714Y-75000000D01*
X136344285Y-75028571D01*
X136915714Y-75571429D02*
X136572857Y-75571429D01*
X136744285Y-75571429D02*
X136744285Y-74971429D01*
X136687142Y-75057143D01*
X136630000Y-75114286D01*
X136572857Y-75142857D01*
X137487143Y-75571429D02*
X137144286Y-75571429D01*
X137315714Y-75571429D02*
X137315714Y-74971429D01*
X137258571Y-75057143D01*
X137201429Y-75114286D01*
X137144286Y-75142857D01*
X135484286Y-88475715D02*
X135512857Y-88504286D01*
X135541429Y-88590000D01*
X135541429Y-88647143D01*
X135512857Y-88732858D01*
X135455714Y-88790000D01*
X135398571Y-88818572D01*
X135284286Y-88847143D01*
X135198571Y-88847143D01*
X135084286Y-88818572D01*
X135027143Y-88790000D01*
X134970000Y-88732858D01*
X134941429Y-88647143D01*
X134941429Y-88590000D01*
X134970000Y-88504286D01*
X134998571Y-88475715D01*
X135541429Y-87904286D02*
X135541429Y-88247143D01*
X135541429Y-88075715D02*
X134941429Y-88075715D01*
X135027143Y-88132858D01*
X135084286Y-88190000D01*
X135112857Y-88247143D01*
X134998571Y-87675714D02*
X134970000Y-87647143D01*
X134941429Y-87590000D01*
X134941429Y-87447143D01*
X134970000Y-87390000D01*
X134998571Y-87361429D01*
X135055714Y-87332857D01*
X135112857Y-87332857D01*
X135198571Y-87361429D01*
X135541429Y-87704286D01*
X135541429Y-87332857D01*
X137794286Y-88475715D02*
X137822857Y-88504286D01*
X137851429Y-88590000D01*
X137851429Y-88647143D01*
X137822857Y-88732858D01*
X137765714Y-88790000D01*
X137708571Y-88818572D01*
X137594286Y-88847143D01*
X137508571Y-88847143D01*
X137394286Y-88818572D01*
X137337143Y-88790000D01*
X137280000Y-88732858D01*
X137251429Y-88647143D01*
X137251429Y-88590000D01*
X137280000Y-88504286D01*
X137308571Y-88475715D01*
X137851429Y-87904286D02*
X137851429Y-88247143D01*
X137851429Y-88075715D02*
X137251429Y-88075715D01*
X137337143Y-88132858D01*
X137394286Y-88190000D01*
X137422857Y-88247143D01*
X137251429Y-87704286D02*
X137251429Y-87332857D01*
X137480000Y-87532857D01*
X137480000Y-87447143D01*
X137508571Y-87390000D01*
X137537143Y-87361429D01*
X137594286Y-87332857D01*
X137737143Y-87332857D01*
X137794286Y-87361429D01*
X137822857Y-87390000D01*
X137851429Y-87447143D01*
X137851429Y-87618571D01*
X137822857Y-87675714D01*
X137794286Y-87704286D01*
X131602857Y-84991429D02*
X131602857Y-85477143D01*
X131631429Y-85534286D01*
X131660000Y-85562857D01*
X131717143Y-85591429D01*
X131831429Y-85591429D01*
X131888571Y-85562857D01*
X131917143Y-85534286D01*
X131945714Y-85477143D01*
X131945714Y-84991429D01*
X132545714Y-85591429D02*
X132202857Y-85591429D01*
X132374285Y-85591429D02*
X132374285Y-84991429D01*
X132317142Y-85077143D01*
X132260000Y-85134286D01*
X132202857Y-85162857D01*
X117922857Y-77331429D02*
X117922857Y-77817143D01*
X117951429Y-77874286D01*
X117980000Y-77902857D01*
X118037143Y-77931429D01*
X118151429Y-77931429D01*
X118208571Y-77902857D01*
X118237143Y-77874286D01*
X118265714Y-77817143D01*
X118265714Y-77331429D01*
X118837142Y-77331429D02*
X118551428Y-77331429D01*
X118522857Y-77617143D01*
X118551428Y-77588571D01*
X118608571Y-77560000D01*
X118751428Y-77560000D01*
X118808571Y-77588571D01*
X118837142Y-77617143D01*
X118865714Y-77674286D01*
X118865714Y-77817143D01*
X118837142Y-77874286D01*
X118808571Y-77902857D01*
X118751428Y-77931429D01*
X118608571Y-77931429D01*
X118551428Y-77902857D01*
X118522857Y-77874286D01*
X147064000Y-70719286D02*
X147035429Y-70747857D01*
X146949715Y-70776429D01*
X146892572Y-70776429D01*
X146806857Y-70747857D01*
X146749715Y-70690714D01*
X146721143Y-70633571D01*
X146692572Y-70519286D01*
X146692572Y-70433571D01*
X146721143Y-70319286D01*
X146749715Y-70262143D01*
X146806857Y-70205000D01*
X146892572Y-70176429D01*
X146949715Y-70176429D01*
X147035429Y-70205000D01*
X147064000Y-70233571D01*
X147578286Y-70176429D02*
X147464000Y-70176429D01*
X147406857Y-70205000D01*
X147378286Y-70233571D01*
X147321143Y-70319286D01*
X147292572Y-70433571D01*
X147292572Y-70662143D01*
X147321143Y-70719286D01*
X147349715Y-70747857D01*
X147406857Y-70776429D01*
X147521143Y-70776429D01*
X147578286Y-70747857D01*
X147606857Y-70719286D01*
X147635429Y-70662143D01*
X147635429Y-70519286D01*
X147606857Y-70462143D01*
X147578286Y-70433571D01*
X147521143Y-70405000D01*
X147406857Y-70405000D01*
X147349715Y-70433571D01*
X147321143Y-70462143D01*
X147292572Y-70519286D01*
X173389286Y-82100000D02*
X173417857Y-82128571D01*
X173446429Y-82214285D01*
X173446429Y-82271428D01*
X173417857Y-82357143D01*
X173360714Y-82414285D01*
X173303571Y-82442857D01*
X173189286Y-82471428D01*
X173103571Y-82471428D01*
X172989286Y-82442857D01*
X172932143Y-82414285D01*
X172875000Y-82357143D01*
X172846429Y-82271428D01*
X172846429Y-82214285D01*
X172875000Y-82128571D01*
X172903571Y-82100000D01*
X172846429Y-81900000D02*
X172846429Y-81500000D01*
X173446429Y-81757143D01*
X146680285Y-85351286D02*
X146651714Y-85379857D01*
X146566000Y-85408429D01*
X146508857Y-85408429D01*
X146423142Y-85379857D01*
X146366000Y-85322714D01*
X146337428Y-85265571D01*
X146308857Y-85151286D01*
X146308857Y-85065571D01*
X146337428Y-84951286D01*
X146366000Y-84894143D01*
X146423142Y-84837000D01*
X146508857Y-84808429D01*
X146566000Y-84808429D01*
X146651714Y-84837000D01*
X146680285Y-84865571D01*
X147251714Y-85408429D02*
X146908857Y-85408429D01*
X147080285Y-85408429D02*
X147080285Y-84808429D01*
X147023142Y-84894143D01*
X146966000Y-84951286D01*
X146908857Y-84979857D01*
X147766000Y-85008429D02*
X147766000Y-85408429D01*
X147623143Y-84779857D02*
X147480286Y-85208429D01*
X147851714Y-85208429D01*
X152535286Y-80870715D02*
X152563857Y-80899286D01*
X152592429Y-80985000D01*
X152592429Y-81042143D01*
X152563857Y-81127858D01*
X152506714Y-81185000D01*
X152449571Y-81213572D01*
X152335286Y-81242143D01*
X152249571Y-81242143D01*
X152135286Y-81213572D01*
X152078143Y-81185000D01*
X152021000Y-81127858D01*
X151992429Y-81042143D01*
X151992429Y-80985000D01*
X152021000Y-80899286D01*
X152049571Y-80870715D01*
X152592429Y-80299286D02*
X152592429Y-80642143D01*
X152592429Y-80470715D02*
X151992429Y-80470715D01*
X152078143Y-80527858D01*
X152135286Y-80585000D01*
X152163857Y-80642143D01*
X151992429Y-79756429D02*
X151992429Y-80042143D01*
X152278143Y-80070714D01*
X152249571Y-80042143D01*
X152221000Y-79985000D01*
X152221000Y-79842143D01*
X152249571Y-79785000D01*
X152278143Y-79756429D01*
X152335286Y-79727857D01*
X152478143Y-79727857D01*
X152535286Y-79756429D01*
X152563857Y-79785000D01*
X152592429Y-79842143D01*
X152592429Y-79985000D01*
X152563857Y-80042143D01*
X152535286Y-80070714D01*
X144744285Y-78154286D02*
X144715714Y-78182857D01*
X144630000Y-78211429D01*
X144572857Y-78211429D01*
X144487142Y-78182857D01*
X144430000Y-78125714D01*
X144401428Y-78068571D01*
X144372857Y-77954286D01*
X144372857Y-77868571D01*
X144401428Y-77754286D01*
X144430000Y-77697143D01*
X144487142Y-77640000D01*
X144572857Y-77611429D01*
X144630000Y-77611429D01*
X144715714Y-77640000D01*
X144744285Y-77668571D01*
X145315714Y-78211429D02*
X144972857Y-78211429D01*
X145144285Y-78211429D02*
X145144285Y-77611429D01*
X145087142Y-77697143D01*
X145030000Y-77754286D01*
X144972857Y-77782857D01*
X145830000Y-77611429D02*
X145715714Y-77611429D01*
X145658571Y-77640000D01*
X145630000Y-77668571D01*
X145572857Y-77754286D01*
X145544286Y-77868571D01*
X145544286Y-78097143D01*
X145572857Y-78154286D01*
X145601429Y-78182857D01*
X145658571Y-78211429D01*
X145772857Y-78211429D01*
X145830000Y-78182857D01*
X145858571Y-78154286D01*
X145887143Y-78097143D01*
X145887143Y-77954286D01*
X145858571Y-77897143D01*
X145830000Y-77868571D01*
X145772857Y-77840000D01*
X145658571Y-77840000D01*
X145601429Y-77868571D01*
X145572857Y-77897143D01*
X145544286Y-77954286D01*
X144304285Y-75318286D02*
X144275714Y-75346857D01*
X144190000Y-75375429D01*
X144132857Y-75375429D01*
X144047142Y-75346857D01*
X143990000Y-75289714D01*
X143961428Y-75232571D01*
X143932857Y-75118286D01*
X143932857Y-75032571D01*
X143961428Y-74918286D01*
X143990000Y-74861143D01*
X144047142Y-74804000D01*
X144132857Y-74775429D01*
X144190000Y-74775429D01*
X144275714Y-74804000D01*
X144304285Y-74832571D01*
X144875714Y-75375429D02*
X144532857Y-75375429D01*
X144704285Y-75375429D02*
X144704285Y-74775429D01*
X144647142Y-74861143D01*
X144590000Y-74918286D01*
X144532857Y-74946857D01*
X145075714Y-74775429D02*
X145475714Y-74775429D01*
X145218571Y-75375429D01*
X144266285Y-72927286D02*
X144237714Y-72955857D01*
X144152000Y-72984429D01*
X144094857Y-72984429D01*
X144009142Y-72955857D01*
X143952000Y-72898714D01*
X143923428Y-72841571D01*
X143894857Y-72727286D01*
X143894857Y-72641571D01*
X143923428Y-72527286D01*
X143952000Y-72470143D01*
X144009142Y-72413000D01*
X144094857Y-72384429D01*
X144152000Y-72384429D01*
X144237714Y-72413000D01*
X144266285Y-72441571D01*
X144837714Y-72984429D02*
X144494857Y-72984429D01*
X144666285Y-72984429D02*
X144666285Y-72384429D01*
X144609142Y-72470143D01*
X144552000Y-72527286D01*
X144494857Y-72555857D01*
X145180571Y-72641571D02*
X145123429Y-72613000D01*
X145094857Y-72584429D01*
X145066286Y-72527286D01*
X145066286Y-72498714D01*
X145094857Y-72441571D01*
X145123429Y-72413000D01*
X145180571Y-72384429D01*
X145294857Y-72384429D01*
X145352000Y-72413000D01*
X145380571Y-72441571D01*
X145409143Y-72498714D01*
X145409143Y-72527286D01*
X145380571Y-72584429D01*
X145352000Y-72613000D01*
X145294857Y-72641571D01*
X145180571Y-72641571D01*
X145123429Y-72670143D01*
X145094857Y-72698714D01*
X145066286Y-72755857D01*
X145066286Y-72870143D01*
X145094857Y-72927286D01*
X145123429Y-72955857D01*
X145180571Y-72984429D01*
X145294857Y-72984429D01*
X145352000Y-72955857D01*
X145380571Y-72927286D01*
X145409143Y-72870143D01*
X145409143Y-72755857D01*
X145380571Y-72698714D01*
X145352000Y-72670143D01*
X145294857Y-72641571D01*
X124924286Y-81285715D02*
X124952857Y-81314286D01*
X124981429Y-81400000D01*
X124981429Y-81457143D01*
X124952857Y-81542858D01*
X124895714Y-81600000D01*
X124838571Y-81628572D01*
X124724286Y-81657143D01*
X124638571Y-81657143D01*
X124524286Y-81628572D01*
X124467143Y-81600000D01*
X124410000Y-81542858D01*
X124381429Y-81457143D01*
X124381429Y-81400000D01*
X124410000Y-81314286D01*
X124438571Y-81285715D01*
X124981429Y-80714286D02*
X124981429Y-81057143D01*
X124981429Y-80885715D02*
X124381429Y-80885715D01*
X124467143Y-80942858D01*
X124524286Y-81000000D01*
X124552857Y-81057143D01*
X124981429Y-80428571D02*
X124981429Y-80314286D01*
X124952857Y-80257143D01*
X124924286Y-80228571D01*
X124838571Y-80171429D01*
X124724286Y-80142857D01*
X124495714Y-80142857D01*
X124438571Y-80171429D01*
X124410000Y-80200000D01*
X124381429Y-80257143D01*
X124381429Y-80371429D01*
X124410000Y-80428571D01*
X124438571Y-80457143D01*
X124495714Y-80485714D01*
X124638571Y-80485714D01*
X124695714Y-80457143D01*
X124724286Y-80428571D01*
X124752857Y-80371429D01*
X124752857Y-80257143D01*
X124724286Y-80200000D01*
X124695714Y-80171429D01*
X124638571Y-80142857D01*
X110764286Y-88765715D02*
X110792857Y-88794286D01*
X110821429Y-88880000D01*
X110821429Y-88937143D01*
X110792857Y-89022858D01*
X110735714Y-89080000D01*
X110678571Y-89108572D01*
X110564286Y-89137143D01*
X110478571Y-89137143D01*
X110364286Y-89108572D01*
X110307143Y-89080000D01*
X110250000Y-89022858D01*
X110221429Y-88937143D01*
X110221429Y-88880000D01*
X110250000Y-88794286D01*
X110278571Y-88765715D01*
X110278571Y-88537143D02*
X110250000Y-88508572D01*
X110221429Y-88451429D01*
X110221429Y-88308572D01*
X110250000Y-88251429D01*
X110278571Y-88222858D01*
X110335714Y-88194286D01*
X110392857Y-88194286D01*
X110478571Y-88222858D01*
X110821429Y-88565715D01*
X110821429Y-88194286D01*
X110221429Y-87822857D02*
X110221429Y-87765714D01*
X110250000Y-87708571D01*
X110278571Y-87680000D01*
X110335714Y-87651429D01*
X110450000Y-87622857D01*
X110592857Y-87622857D01*
X110707143Y-87651429D01*
X110764286Y-87680000D01*
X110792857Y-87708571D01*
X110821429Y-87765714D01*
X110821429Y-87822857D01*
X110792857Y-87880000D01*
X110764286Y-87908571D01*
X110707143Y-87937143D01*
X110592857Y-87965714D01*
X110450000Y-87965714D01*
X110335714Y-87937143D01*
X110278571Y-87908571D01*
X110250000Y-87880000D01*
X110221429Y-87822857D01*
X141230000Y-85111429D02*
X140944286Y-85111429D01*
X140944286Y-84511429D01*
X141744286Y-85111429D02*
X141401429Y-85111429D01*
X141572857Y-85111429D02*
X141572857Y-84511429D01*
X141515714Y-84597143D01*
X141458572Y-84654286D01*
X141401429Y-84682857D01*
X124741428Y-85931429D02*
X124741428Y-85331429D01*
X124970000Y-85331429D01*
X125027142Y-85360000D01*
X125055714Y-85388571D01*
X125084285Y-85445714D01*
X125084285Y-85531429D01*
X125055714Y-85588571D01*
X125027142Y-85617143D01*
X124970000Y-85645714D01*
X124741428Y-85645714D01*
X125655714Y-85931429D02*
X125312857Y-85931429D01*
X125484285Y-85931429D02*
X125484285Y-85331429D01*
X125427142Y-85417143D01*
X125370000Y-85474286D01*
X125312857Y-85502857D01*
X126227143Y-85931429D02*
X125884286Y-85931429D01*
X126055714Y-85931429D02*
X126055714Y-85331429D01*
X125998571Y-85417143D01*
X125941429Y-85474286D01*
X125884286Y-85502857D01*
X144840000Y-89482857D02*
X144925714Y-89511429D01*
X145068571Y-89511429D01*
X145125714Y-89482857D01*
X145154285Y-89454286D01*
X145182857Y-89397143D01*
X145182857Y-89340000D01*
X145154285Y-89282857D01*
X145125714Y-89254286D01*
X145068571Y-89225714D01*
X144954285Y-89197143D01*
X144897143Y-89168571D01*
X144868571Y-89140000D01*
X144840000Y-89082857D01*
X144840000Y-89025714D01*
X144868571Y-88968571D01*
X144897143Y-88940000D01*
X144954285Y-88911429D01*
X145097143Y-88911429D01*
X145182857Y-88940000D01*
X145382857Y-88911429D02*
X145525714Y-89511429D01*
X145640000Y-89082857D01*
X145754286Y-89511429D01*
X145897143Y-88911429D01*
X146440000Y-89511429D02*
X146097143Y-89511429D01*
X146268571Y-89511429D02*
X146268571Y-88911429D01*
X146211428Y-88997143D01*
X146154286Y-89054286D01*
X146097143Y-89082857D01*
X123770000Y-89432857D02*
X123855714Y-89461429D01*
X123998571Y-89461429D01*
X124055714Y-89432857D01*
X124084285Y-89404286D01*
X124112857Y-89347143D01*
X124112857Y-89290000D01*
X124084285Y-89232857D01*
X124055714Y-89204286D01*
X123998571Y-89175714D01*
X123884285Y-89147143D01*
X123827143Y-89118571D01*
X123798571Y-89090000D01*
X123770000Y-89032857D01*
X123770000Y-88975714D01*
X123798571Y-88918571D01*
X123827143Y-88890000D01*
X123884285Y-88861429D01*
X124027143Y-88861429D01*
X124112857Y-88890000D01*
X124312857Y-88861429D02*
X124455714Y-89461429D01*
X124570000Y-89032857D01*
X124684286Y-89461429D01*
X124827143Y-88861429D01*
X125027143Y-88918571D02*
X125055714Y-88890000D01*
X125112857Y-88861429D01*
X125255714Y-88861429D01*
X125312857Y-88890000D01*
X125341428Y-88918571D01*
X125370000Y-88975714D01*
X125370000Y-89032857D01*
X125341428Y-89118571D01*
X124998571Y-89461429D01*
X125370000Y-89461429D01*
X148906286Y-78718929D02*
X148906286Y-78118929D01*
X149534857Y-78661786D02*
X149506286Y-78690357D01*
X149420572Y-78718929D01*
X149363429Y-78718929D01*
X149277714Y-78690357D01*
X149220572Y-78633214D01*
X149192000Y-78576071D01*
X149163429Y-78461786D01*
X149163429Y-78376071D01*
X149192000Y-78261786D01*
X149220572Y-78204643D01*
X149277714Y-78147500D01*
X149363429Y-78118929D01*
X149420572Y-78118929D01*
X149506286Y-78147500D01*
X149534857Y-78176071D01*
X150106286Y-78718929D02*
X149763429Y-78718929D01*
X149934857Y-78718929D02*
X149934857Y-78118929D01*
X149877714Y-78204643D01*
X149820572Y-78261786D01*
X149763429Y-78290357D01*
X151564285Y-77344429D02*
X151364285Y-77058714D01*
X151221428Y-77344429D02*
X151221428Y-76744429D01*
X151450000Y-76744429D01*
X151507142Y-76773000D01*
X151535714Y-76801571D01*
X151564285Y-76858714D01*
X151564285Y-76944429D01*
X151535714Y-77001571D01*
X151507142Y-77030143D01*
X151450000Y-77058714D01*
X151221428Y-77058714D01*
X152135714Y-77344429D02*
X151792857Y-77344429D01*
X151964285Y-77344429D02*
X151964285Y-76744429D01*
X151907142Y-76830143D01*
X151850000Y-76887286D01*
X151792857Y-76915857D01*
X152507143Y-76744429D02*
X152564286Y-76744429D01*
X152621429Y-76773000D01*
X152650000Y-76801571D01*
X152678571Y-76858714D01*
X152707143Y-76973000D01*
X152707143Y-77115857D01*
X152678571Y-77230143D01*
X152650000Y-77287286D01*
X152621429Y-77315857D01*
X152564286Y-77344429D01*
X152507143Y-77344429D01*
X152450000Y-77315857D01*
X152421429Y-77287286D01*
X152392857Y-77230143D01*
X152364286Y-77115857D01*
X152364286Y-76973000D01*
X152392857Y-76858714D01*
X152421429Y-76801571D01*
X152450000Y-76773000D01*
X152507143Y-76744429D01*
X148504285Y-77417429D02*
X148304285Y-77131714D01*
X148161428Y-77417429D02*
X148161428Y-76817429D01*
X148390000Y-76817429D01*
X148447142Y-76846000D01*
X148475714Y-76874571D01*
X148504285Y-76931714D01*
X148504285Y-77017429D01*
X148475714Y-77074571D01*
X148447142Y-77103143D01*
X148390000Y-77131714D01*
X148161428Y-77131714D01*
X149075714Y-77417429D02*
X148732857Y-77417429D01*
X148904285Y-77417429D02*
X148904285Y-76817429D01*
X148847142Y-76903143D01*
X148790000Y-76960286D01*
X148732857Y-76988857D01*
X149647143Y-77417429D02*
X149304286Y-77417429D01*
X149475714Y-77417429D02*
X149475714Y-76817429D01*
X149418571Y-76903143D01*
X149361429Y-76960286D01*
X149304286Y-76988857D01*
X173817143Y-89007143D02*
X173902857Y-89035714D01*
X173931429Y-89064286D01*
X173960000Y-89121429D01*
X173960000Y-89207143D01*
X173931429Y-89264286D01*
X173902857Y-89292857D01*
X173845715Y-89321429D01*
X173617143Y-89321429D01*
X173617143Y-88721429D01*
X173817143Y-88721429D01*
X173874286Y-88750000D01*
X173902857Y-88778571D01*
X173931429Y-88835714D01*
X173931429Y-88892857D01*
X173902857Y-88950000D01*
X173874286Y-88978571D01*
X173817143Y-89007143D01*
X173617143Y-89007143D01*
X174188572Y-89150000D02*
X174474286Y-89150000D01*
X174131429Y-89321429D02*
X174331429Y-88721429D01*
X174531429Y-89321429D01*
X174645715Y-88721429D02*
X174988572Y-88721429D01*
X174817143Y-89321429D02*
X174817143Y-88721429D01*
X175045715Y-89378571D02*
X175502858Y-89378571D01*
X175645715Y-89321429D02*
X175645715Y-88721429D01*
X175988572Y-89321429D01*
X175988572Y-88721429D01*
X176274286Y-89007143D02*
X176474286Y-89007143D01*
X176560000Y-89321429D02*
X176274286Y-89321429D01*
X176274286Y-88721429D01*
X176560000Y-88721429D01*
X177131429Y-88750000D02*
X177074286Y-88721429D01*
X176988572Y-88721429D01*
X176902857Y-88750000D01*
X176845715Y-88807143D01*
X176817143Y-88864286D01*
X176788572Y-88978571D01*
X176788572Y-89064286D01*
X176817143Y-89178571D01*
X176845715Y-89235714D01*
X176902857Y-89292857D01*
X176988572Y-89321429D01*
X177045715Y-89321429D01*
X177131429Y-89292857D01*
X177160000Y-89264286D01*
X177160000Y-89064286D01*
X177045715Y-89064286D01*
X177731429Y-89321429D02*
X177388572Y-89321429D01*
X177560000Y-89321429D02*
X177560000Y-88721429D01*
X177502857Y-88807143D01*
X177445715Y-88864286D01*
X177388572Y-88892857D01*
X107322857Y-73177143D02*
X107408571Y-73205714D01*
X107437143Y-73234286D01*
X107465714Y-73291429D01*
X107465714Y-73377143D01*
X107437143Y-73434286D01*
X107408571Y-73462857D01*
X107351429Y-73491429D01*
X107122857Y-73491429D01*
X107122857Y-72891429D01*
X107322857Y-72891429D01*
X107380000Y-72920000D01*
X107408571Y-72948571D01*
X107437143Y-73005714D01*
X107437143Y-73062857D01*
X107408571Y-73120000D01*
X107380000Y-73148571D01*
X107322857Y-73177143D01*
X107122857Y-73177143D01*
X107694286Y-73320000D02*
X107980000Y-73320000D01*
X107637143Y-73491429D02*
X107837143Y-72891429D01*
X108037143Y-73491429D01*
X108151429Y-72891429D02*
X108494286Y-72891429D01*
X108322857Y-73491429D02*
X108322857Y-72891429D01*
X108551429Y-73548571D02*
X109008572Y-73548571D01*
X109151429Y-73491429D02*
X109151429Y-72891429D01*
X109380001Y-72891429D01*
X109437143Y-72920000D01*
X109465715Y-72948571D01*
X109494286Y-73005714D01*
X109494286Y-73091429D01*
X109465715Y-73148571D01*
X109437143Y-73177143D01*
X109380001Y-73205714D01*
X109151429Y-73205714D01*
X109865715Y-72891429D02*
X109980001Y-72891429D01*
X110037143Y-72920000D01*
X110094286Y-72977143D01*
X110122858Y-73091429D01*
X110122858Y-73291429D01*
X110094286Y-73405714D01*
X110037143Y-73462857D01*
X109980001Y-73491429D01*
X109865715Y-73491429D01*
X109808572Y-73462857D01*
X109751429Y-73405714D01*
X109722858Y-73291429D01*
X109722858Y-73091429D01*
X109751429Y-72977143D01*
X109808572Y-72920000D01*
X109865715Y-72891429D01*
X110351429Y-73462857D02*
X110437143Y-73491429D01*
X110580000Y-73491429D01*
X110637143Y-73462857D01*
X110665714Y-73434286D01*
X110694286Y-73377143D01*
X110694286Y-73320000D01*
X110665714Y-73262857D01*
X110637143Y-73234286D01*
X110580000Y-73205714D01*
X110465714Y-73177143D01*
X110408572Y-73148571D01*
X110380000Y-73120000D01*
X110351429Y-73062857D01*
X110351429Y-73005714D01*
X110380000Y-72948571D01*
X110408572Y-72920000D01*
X110465714Y-72891429D01*
X110608572Y-72891429D01*
X110694286Y-72920000D01*
X111265715Y-73491429D02*
X110922858Y-73491429D01*
X111094286Y-73491429D02*
X111094286Y-72891429D01*
X111037143Y-72977143D01*
X110980001Y-73034286D01*
X110922858Y-73062857D01*
X141191981Y-80066006D02*
X141191981Y-80542197D01*
X140191981Y-80542197D01*
X140287219Y-79780292D02*
X140239600Y-79732673D01*
X140191981Y-79637435D01*
X140191981Y-79399339D01*
X140239600Y-79304101D01*
X140287219Y-79256482D01*
X140382457Y-79208863D01*
X140477695Y-79208863D01*
X140620552Y-79256482D01*
X141191981Y-79827911D01*
X141191981Y-79208863D01*
X109322381Y-80844666D02*
X109322381Y-81320857D01*
X108322381Y-81320857D01*
X108322381Y-80606571D02*
X108322381Y-79987523D01*
X108703333Y-80320857D01*
X108703333Y-80177999D01*
X108750952Y-80082761D01*
X108798571Y-80035142D01*
X108893810Y-79987523D01*
X109131905Y-79987523D01*
X109227143Y-80035142D01*
X109274762Y-80082761D01*
X109322381Y-80177999D01*
X109322381Y-80463714D01*
X109274762Y-80558952D01*
X109227143Y-80606571D01*
X128447143Y-73382381D02*
X128113809Y-72906190D01*
X127875714Y-73382381D02*
X127875714Y-72382381D01*
X128256667Y-72382381D01*
X128351905Y-72430000D01*
X128399524Y-72477619D01*
X128447143Y-72572857D01*
X128447143Y-72715714D01*
X128399524Y-72810952D01*
X128351905Y-72858571D01*
X128256667Y-72906190D01*
X127875714Y-72906190D01*
X129399524Y-73382381D02*
X128828095Y-73382381D01*
X129113809Y-73382381D02*
X129113809Y-72382381D01*
X129018571Y-72525238D01*
X128923333Y-72620476D01*
X128828095Y-72668095D01*
X129780476Y-72477619D02*
X129828095Y-72430000D01*
X129923333Y-72382381D01*
X130161429Y-72382381D01*
X130256667Y-72430000D01*
X130304286Y-72477619D01*
X130351905Y-72572857D01*
X130351905Y-72668095D01*
X130304286Y-72810952D01*
X129732857Y-73382381D01*
X130351905Y-73382381D01*
M02*
