G04 #@! TF.FileFunction,Copper,L2,Bot,Signal*
%FSLAX46Y46*%
G04 Gerber Fmt 4.6, Leading zero omitted, Abs format (unit mm)*
G04 Created by KiCad (PCBNEW (2016-02-18 BZR 6566)-product) date Thursday, 12 May 2016 22:35:57*
%MOMM*%
G01*
G04 APERTURE LIST*
%ADD10C,0.100000*%
%ADD11R,4.572000X1.524000*%
%ADD12C,1.501140*%
%ADD13R,2.032000X1.727200*%
%ADD14O,2.032000X1.727200*%
%ADD15C,1.200000*%
%ADD16O,1.300000X1.700000*%
%ADD17C,0.600000*%
%ADD18C,0.300000*%
%ADD19C,0.250000*%
%ADD20C,0.160000*%
%ADD21C,0.340000*%
%ADD22C,0.500000*%
%ADD23C,0.200000*%
G04 APERTURE END LIST*
D10*
D11*
X177766700Y-76840240D03*
X177766700Y-83164840D03*
X177766700Y-76840240D03*
X177766700Y-83164840D03*
D12*
X136635002Y-74639998D03*
X130400000Y-76030000D03*
X131670000Y-74760000D03*
X152320000Y-71280000D03*
X132940000Y-70950000D03*
X143100000Y-74760000D03*
D13*
X126722000Y-83646000D03*
D14*
X126722000Y-81106000D03*
X126722000Y-78566000D03*
X126722000Y-76026000D03*
D12*
X178990000Y-89060000D03*
X106600000Y-71280000D03*
D11*
X107519300Y-83164840D03*
X107519300Y-76840240D03*
X107519300Y-83164840D03*
X107519300Y-76840240D03*
D15*
X117975000Y-75025000D03*
X113125000Y-75025000D03*
D16*
X119175000Y-72375000D03*
X111925000Y-72375000D03*
D17*
X173770000Y-71700000D03*
X175770000Y-71700000D03*
X177770000Y-71700000D03*
X159340000Y-74980000D03*
X161340000Y-74980000D03*
X163340000Y-74980000D03*
X159780000Y-71390000D03*
X161780000Y-71390000D03*
X163780000Y-71390000D03*
X165780000Y-71390000D03*
X173770000Y-73700000D03*
X175770000Y-73700000D03*
X177770000Y-73700000D03*
X159340000Y-76980000D03*
X161340000Y-76980000D03*
X163340000Y-76980000D03*
X171160000Y-88330000D03*
X175560000Y-86830000D03*
X177560000Y-86830000D03*
X173560000Y-88830000D03*
X175560000Y-88830000D03*
X177560000Y-88830000D03*
X151950000Y-88860000D03*
X153950000Y-88860000D03*
X115860000Y-79500000D03*
X110100000Y-89140000D03*
X115860000Y-81500000D03*
X112100000Y-89140000D03*
X115860000Y-83500000D03*
X114100000Y-89140000D03*
X158940000Y-85830000D03*
X160940000Y-85830000D03*
X162940000Y-85830000D03*
X164940000Y-85830000D03*
X166940000Y-85830000D03*
X158940000Y-87830000D03*
X160940000Y-87830000D03*
X162940000Y-87830000D03*
X164940000Y-87830000D03*
X166940000Y-87830000D03*
X173610000Y-87320000D03*
X174620000Y-85600000D03*
X174740000Y-83450000D03*
X174650000Y-84470000D03*
X170910000Y-85350000D03*
X171830000Y-84460000D03*
X172220000Y-82110000D03*
X172490000Y-80450000D03*
X173230000Y-79420000D03*
X174290000Y-78770000D03*
X174890000Y-82240000D03*
X174290000Y-86590000D03*
X174020000Y-76300000D03*
X170590000Y-71350000D03*
X172620000Y-88140000D03*
X149950000Y-88860000D03*
X125230000Y-74390000D03*
X123060000Y-77170000D03*
X123130000Y-75850000D03*
X129100093Y-77404173D03*
X132186297Y-76619999D03*
X134090270Y-76733456D03*
X130274989Y-77819565D03*
X133271436Y-74013045D03*
X156425020Y-76997884D03*
X151349244Y-78839998D03*
X156879654Y-85774980D03*
X142195740Y-85725012D03*
X109215315Y-75200020D03*
X134960000Y-75540000D03*
X130444536Y-72737450D03*
X123979739Y-74109980D03*
X122430000Y-72030000D03*
X115020000Y-81110000D03*
X107800000Y-86200000D03*
X155830000Y-83770000D03*
X142810000Y-82320000D03*
X137550002Y-85650000D03*
X125268345Y-84984433D03*
X176663540Y-85330000D03*
X178340000Y-75040000D03*
X176420000Y-75040000D03*
X107533575Y-81644665D03*
X106123393Y-75097391D03*
X107533575Y-78169574D03*
X106200000Y-84510000D03*
X108890000Y-84400000D03*
X115020000Y-81110000D03*
X115050000Y-78900000D03*
X158075000Y-83300000D03*
X133610065Y-79475031D03*
X139250328Y-82927140D03*
X137957095Y-75546608D03*
X133254792Y-78628496D03*
X136261814Y-83230739D03*
X129367227Y-85129979D03*
X128501696Y-70643379D03*
X125267538Y-77232987D03*
X128260000Y-74080000D03*
X129700000Y-81040000D03*
X115910020Y-85470000D03*
X142460919Y-79994545D03*
X128553379Y-71433930D03*
X129018889Y-74038695D03*
X115300000Y-86600000D03*
X120400000Y-80000000D03*
X141989254Y-78289254D03*
X128669074Y-79211104D03*
X154590000Y-75030000D03*
X141543791Y-76201188D03*
X155174980Y-77143811D03*
X142410000Y-77574980D03*
X141520824Y-77020824D03*
X155406955Y-79006955D03*
X140672548Y-76060185D03*
X155400000Y-80900000D03*
X142089978Y-81455018D03*
X155308465Y-82964980D03*
X141714137Y-84045412D03*
X171710000Y-76920000D03*
X141983340Y-80662145D03*
X171700000Y-75000000D03*
X136349292Y-82475778D03*
X171675000Y-72975000D03*
X125170815Y-75866941D03*
X135680000Y-83719727D03*
X120153143Y-87492152D03*
X141305671Y-83223417D03*
X120763163Y-86832352D03*
X141400472Y-82272186D03*
X132754378Y-85041961D03*
X140017956Y-83334997D03*
X125150000Y-87940000D03*
X141869998Y-87000000D03*
X117640020Y-88152062D03*
X142620000Y-86780000D03*
X146100000Y-85230031D03*
X150991957Y-85141957D03*
X149733590Y-82229958D03*
X150330000Y-78960000D03*
X117370019Y-75939980D03*
X121935066Y-76928031D03*
X123787505Y-77453967D03*
X117630000Y-78810000D03*
X139330000Y-74970000D03*
X117630000Y-79610000D03*
X138531905Y-74971799D03*
X135400020Y-81369949D03*
X133900000Y-80800000D03*
D18*
X123130000Y-76420000D02*
X123060000Y-76490000D01*
X123060000Y-76490000D02*
X123060000Y-77170000D01*
X123130000Y-75850000D02*
X123130000Y-76420000D01*
X125230000Y-74390000D02*
X124590000Y-74390000D01*
X124590000Y-74390000D02*
X123130000Y-75850000D01*
D19*
X142495739Y-86025011D02*
X142195740Y-85725012D01*
X156879654Y-85774980D02*
X156579655Y-86074979D01*
X142545707Y-86074979D02*
X142495739Y-86025011D01*
X156579655Y-86074979D02*
X142545707Y-86074979D01*
D20*
X132299754Y-76733456D02*
X132186297Y-76619999D01*
X134090270Y-76733456D02*
X132299754Y-76733456D01*
D19*
X133790271Y-76433457D02*
X134090270Y-76733456D01*
X133271436Y-75914622D02*
X133790271Y-76433457D01*
X133271436Y-74013045D02*
X133271436Y-75914622D01*
D21*
X130274989Y-78909011D02*
X130274989Y-78243829D01*
X130274989Y-78243829D02*
X130274989Y-77819565D01*
X126722000Y-81106000D02*
X128078000Y-81106000D01*
X128078000Y-81106000D02*
X130274989Y-78909011D01*
D19*
X156117083Y-77305821D02*
X156125021Y-77297883D01*
X156125021Y-77297883D02*
X156425020Y-76997884D01*
X151349244Y-78839998D02*
X154549257Y-78839998D01*
X156083434Y-77318432D02*
X156083434Y-77305821D01*
X156120000Y-77354998D02*
X156083434Y-77318432D01*
X154549257Y-78839998D02*
X156083434Y-77305821D01*
X156083434Y-77305821D02*
X156117083Y-77305821D01*
X151349244Y-78839998D02*
X151349244Y-78906965D01*
D22*
X109515314Y-75500019D02*
X109215315Y-75200020D01*
X112915295Y-78900000D02*
X109515314Y-75500019D01*
X115050000Y-78900000D02*
X112915295Y-78900000D01*
D20*
X122430000Y-72030000D02*
X122430000Y-72560241D01*
X123679740Y-73809981D02*
X123979739Y-74109980D01*
X122430000Y-72560241D02*
X123679740Y-73809981D01*
D22*
X106200000Y-84510000D02*
X108000000Y-84510000D01*
D18*
X107800000Y-84710000D02*
X108000000Y-84510000D01*
D22*
X108000000Y-84510000D02*
X108780000Y-84510000D01*
D18*
X107800000Y-86200000D02*
X107800000Y-84710000D01*
D20*
X142810000Y-82320000D02*
X144260000Y-83770000D01*
X144260000Y-83770000D02*
X155830000Y-83770000D01*
X137550002Y-85650000D02*
X137850001Y-85350001D01*
X137850001Y-85350001D02*
X137850001Y-85338945D01*
X137850001Y-85338945D02*
X139250328Y-83938618D01*
D22*
X126722000Y-83646000D02*
X126606778Y-83646000D01*
X125568344Y-84684434D02*
X125268345Y-84984433D01*
X126606778Y-83646000D02*
X125568344Y-84684434D01*
D19*
X157775001Y-83599999D02*
X158075000Y-83300000D01*
X150342800Y-84025024D02*
X157349976Y-84025024D01*
X147357176Y-82525000D02*
X148927199Y-84095023D01*
X150272801Y-84095023D02*
X150342800Y-84025024D01*
X148927199Y-84095023D02*
X150272801Y-84095023D01*
X142200000Y-82525000D02*
X147357176Y-82525000D01*
X157349976Y-84025024D02*
X157775001Y-83599999D01*
D18*
X176420000Y-75040000D02*
X178340000Y-75040000D01*
D22*
X107683238Y-81495002D02*
X107533575Y-81644665D01*
X106547657Y-75097391D02*
X106123393Y-75097391D01*
X111247391Y-75097391D02*
X106547657Y-75097391D01*
X115050000Y-78900000D02*
X111247391Y-75097391D01*
X107833574Y-78469573D02*
X107533575Y-78169574D01*
X108264001Y-78900000D02*
X107833574Y-78469573D01*
X115050000Y-78900000D02*
X108264001Y-78900000D01*
X108780000Y-84510000D02*
X108890000Y-84400000D01*
X108890000Y-84400000D02*
X109035002Y-84400000D01*
X115050000Y-78900000D02*
X115050000Y-81080000D01*
X115050000Y-81080000D02*
X115020000Y-81110000D01*
D19*
X142050000Y-82375000D02*
X142050000Y-82100000D01*
X142200000Y-82525000D02*
X142050000Y-82375000D01*
D18*
X139250328Y-82927140D02*
X139250328Y-83938618D01*
X139250328Y-82927140D02*
X139550327Y-82627141D01*
X139550327Y-82627141D02*
X139822859Y-82627141D01*
D20*
X137541612Y-75546608D02*
X137957095Y-75546608D01*
X136635002Y-74639998D02*
X137541612Y-75546608D01*
X132660000Y-79223288D02*
X132954793Y-78928495D01*
X132954793Y-78928495D02*
X133254792Y-78628496D01*
X132660000Y-81155002D02*
X132660000Y-79223288D01*
D19*
X132660000Y-81155002D02*
X134583696Y-83078698D01*
X136109773Y-83078698D02*
X136261814Y-83230739D01*
X134583696Y-83078698D02*
X136109773Y-83078698D01*
X128942963Y-85129979D02*
X129367227Y-85129979D01*
X128861926Y-85129979D02*
X128942963Y-85129979D01*
X127991905Y-86000000D02*
X128861926Y-85129979D01*
X124760000Y-86000000D02*
X127991905Y-86000000D01*
X142460919Y-79994545D02*
X141319569Y-79994545D01*
X141319569Y-79994545D02*
X137587169Y-83726945D01*
X137587169Y-83726945D02*
X137587169Y-83902370D01*
X137587169Y-83902370D02*
X136674800Y-84814739D01*
X135329367Y-84814739D02*
X134968164Y-84453536D01*
X136674800Y-84814739D02*
X135329367Y-84814739D01*
X134968164Y-84453536D02*
X130043670Y-84453536D01*
X130043670Y-84453536D02*
X129667226Y-84829980D01*
X129667226Y-84829980D02*
X129367227Y-85129979D01*
X129367227Y-84705715D02*
X129367227Y-85129979D01*
X129367227Y-81372773D02*
X129367227Y-84705715D01*
X129700000Y-81040000D02*
X129367227Y-81372773D01*
D20*
X128201697Y-70943378D02*
X128501696Y-70643379D01*
X127960001Y-71185074D02*
X128201697Y-70943378D01*
X127960001Y-73780001D02*
X127960001Y-71185074D01*
X128260000Y-74080000D02*
X127960001Y-73780001D01*
D19*
X125362610Y-79917390D02*
X125267538Y-79822318D01*
X125267538Y-79822318D02*
X125267538Y-77657251D01*
X125267538Y-77657251D02*
X125267538Y-77232987D01*
D21*
X125362610Y-79917390D02*
X125362610Y-81587029D01*
X125362610Y-81587029D02*
X126075191Y-82299610D01*
X126075191Y-82299610D02*
X128440390Y-82299610D01*
X128440390Y-82299610D02*
X129400001Y-81339999D01*
X129400001Y-81339999D02*
X129700000Y-81040000D01*
D19*
X116210019Y-85769999D02*
X115910020Y-85470000D01*
X116440020Y-86000000D02*
X116210019Y-85769999D01*
X124760000Y-86000000D02*
X116440020Y-86000000D01*
X124760000Y-86000000D02*
X124620000Y-86000000D01*
X129934187Y-77275011D02*
X129953741Y-77275011D01*
X129953741Y-77275011D02*
X130013753Y-77214999D01*
X130013753Y-77214999D02*
X130555801Y-77214999D01*
D20*
X129018889Y-71899440D02*
X128853378Y-71733929D01*
X128853378Y-71733929D02*
X128553379Y-71433930D01*
X129018889Y-74038695D02*
X129018889Y-71899440D01*
D19*
X136504968Y-84404728D02*
X135499199Y-84404728D01*
X135499199Y-84404728D02*
X135137996Y-84043525D01*
X130860001Y-80627825D02*
X130860001Y-77519199D01*
X130860001Y-77519199D02*
X130555801Y-77214999D01*
X129934187Y-77275011D02*
X129689999Y-77519199D01*
X137177158Y-83732538D02*
X136504968Y-84404728D01*
X137177158Y-83101350D02*
X137177158Y-83732538D01*
X135137996Y-84043525D02*
X134275701Y-84043525D01*
X134275701Y-84043525D02*
X130860001Y-80627825D01*
X141989254Y-78289254D02*
X137177158Y-83101350D01*
X129689988Y-77519210D02*
X129689988Y-78614454D01*
X129689999Y-77519199D02*
X129689988Y-77519210D01*
X129093338Y-79211104D02*
X128669074Y-79211104D01*
X129689988Y-78614454D02*
X129093338Y-79211104D01*
X129689998Y-77519198D02*
X129689999Y-77519199D01*
D18*
X115300000Y-85100000D02*
X120400000Y-80000000D01*
X115300000Y-86600000D02*
X115300000Y-85100000D01*
D19*
X128023970Y-78566000D02*
X128669074Y-79211104D01*
X126722000Y-78566000D02*
X128023970Y-78566000D01*
D18*
X145199296Y-75030000D02*
X144408725Y-75820571D01*
X144408725Y-75820571D02*
X141924408Y-75820571D01*
X141924408Y-75820571D02*
X141843790Y-75901189D01*
X141843790Y-75901189D02*
X141543791Y-76201188D01*
D20*
X145199296Y-75030000D02*
X146290000Y-75030000D01*
X146290000Y-75030000D02*
X154590000Y-75030000D01*
D19*
X142410000Y-77574980D02*
X154743811Y-77574980D01*
X154743811Y-77574980D02*
X154874981Y-77443810D01*
X154874981Y-77443810D02*
X155174980Y-77143811D01*
X141945088Y-77020824D02*
X141520824Y-77020824D01*
X142593029Y-76372883D02*
X141945088Y-77020824D01*
X156725021Y-76372883D02*
X142593029Y-76372883D01*
X157050021Y-76697883D02*
X156725021Y-76372883D01*
X157050021Y-77363889D02*
X157050021Y-76697883D01*
X155406955Y-79006955D02*
X157050021Y-77363889D01*
X141425011Y-75307722D02*
X140972547Y-75760186D01*
X142727325Y-72294418D02*
X141425011Y-73596732D01*
X141425011Y-73596732D02*
X141425011Y-75307722D01*
X144132675Y-72294418D02*
X142727325Y-72294418D01*
X145263268Y-73425011D02*
X144132675Y-72294418D01*
X157800000Y-75800000D02*
X155425011Y-73425011D01*
X157800000Y-78500000D02*
X157800000Y-75800000D01*
X155400000Y-80900000D02*
X157800000Y-78500000D01*
X140972547Y-75760186D02*
X140672548Y-76060185D01*
X155425011Y-73425011D02*
X145263268Y-73425011D01*
X149062169Y-83304989D02*
X147212198Y-81455018D01*
X155308465Y-82964980D02*
X154968456Y-83304989D01*
X154968456Y-83304989D02*
X149062169Y-83304989D01*
X147212198Y-81455018D02*
X142514242Y-81455018D01*
X142514242Y-81455018D02*
X142089978Y-81455018D01*
X150739705Y-84510297D02*
X150644991Y-84605011D01*
X171710000Y-76920000D02*
X164097749Y-84532251D01*
X154106792Y-84510297D02*
X150739705Y-84510297D01*
X150644991Y-84605011D02*
X142273736Y-84605011D01*
X154128746Y-84532251D02*
X154106792Y-84510297D01*
X164097749Y-84532251D02*
X154128746Y-84532251D01*
X142014136Y-84345411D02*
X141714137Y-84045412D01*
X142273736Y-84605011D02*
X142014136Y-84345411D01*
X150240024Y-82854978D02*
X149248569Y-82854978D01*
X149248569Y-82854978D02*
X147055736Y-80662145D01*
X164505359Y-82194641D02*
X150900361Y-82194641D01*
X150900361Y-82194641D02*
X150240024Y-82854978D01*
X142407604Y-80662145D02*
X141983340Y-80662145D01*
X147055736Y-80662145D02*
X142407604Y-80662145D01*
X171700000Y-75000000D02*
X164505359Y-82194641D01*
D20*
X142530569Y-71819410D02*
X141020000Y-73329979D01*
X139990011Y-76861547D02*
X136649291Y-80202267D01*
X141020000Y-73329979D02*
X141020000Y-74840000D01*
X141020000Y-74840000D02*
X139990011Y-75869989D01*
X139990011Y-75869989D02*
X139990011Y-76861547D01*
X136649291Y-80202267D02*
X136649291Y-82175779D01*
X136649291Y-82175779D02*
X136349292Y-82475778D01*
D19*
X142530569Y-71819410D02*
X144309410Y-71819410D01*
X145465000Y-72975000D02*
X171675000Y-72975000D01*
X144309410Y-71819410D02*
X145465000Y-72975000D01*
D20*
X126009220Y-77129610D02*
X125170815Y-76291205D01*
X127871955Y-77129610D02*
X126009220Y-77129610D01*
X131232136Y-73769429D02*
X127871955Y-77129610D01*
X132660571Y-74284525D02*
X132145475Y-73769429D01*
X125170815Y-76291205D02*
X125170815Y-75866941D01*
X131995013Y-78074366D02*
X131500000Y-77579353D01*
X132145475Y-73769429D02*
X131232136Y-73769429D01*
X131500000Y-77579353D02*
X131500000Y-76490000D01*
X131500000Y-76490000D02*
X132660571Y-75329429D01*
X132660571Y-75329429D02*
X132660571Y-74284525D01*
D19*
X134502101Y-83633514D02*
X135593787Y-83633514D01*
X131995013Y-81126426D02*
X134502101Y-83633514D01*
X131995013Y-78074366D02*
X131995013Y-81126426D01*
X120153143Y-87492152D02*
X124672846Y-87492152D01*
X124672846Y-87492152D02*
X124849999Y-87314999D01*
X130594973Y-87314999D02*
X130746004Y-87163968D01*
X124849999Y-87314999D02*
X130594973Y-87314999D01*
X130746004Y-87163968D02*
X138233858Y-87163968D01*
X138233858Y-87163968D02*
X140625361Y-84772465D01*
X140625361Y-84772465D02*
X140625361Y-84326680D01*
X140625361Y-84326680D02*
X141130661Y-83821380D01*
X141130661Y-83821380D02*
X141130661Y-83398427D01*
X141130661Y-83398427D02*
X141305671Y-83223417D01*
X130932404Y-86622404D02*
X130024999Y-85714999D01*
X130024999Y-85714999D02*
X128856748Y-85714999D01*
X128856748Y-85714999D02*
X127716767Y-86854980D01*
X130932404Y-86713957D02*
X130932404Y-86622404D01*
D18*
X121254043Y-86854980D02*
X121231415Y-86832352D01*
X121231415Y-86832352D02*
X121187427Y-86832352D01*
X121187427Y-86832352D02*
X120763163Y-86832352D01*
D19*
X137052546Y-86713957D02*
X130932404Y-86713957D01*
X138036403Y-86725012D02*
X137063601Y-86725012D01*
X140680650Y-83634980D02*
X140175350Y-84140280D01*
X140175350Y-84586065D02*
X138036403Y-86725012D01*
X127716767Y-86854980D02*
X121678307Y-86854980D01*
X140680650Y-82567744D02*
X140680650Y-83634980D01*
X141400472Y-82272186D02*
X140976208Y-82272186D01*
X121678307Y-86854980D02*
X121254043Y-86854980D01*
X137063601Y-86725012D02*
X137052546Y-86713957D01*
X140175350Y-84140280D02*
X140175350Y-84586065D01*
X140976208Y-82272186D02*
X140680650Y-82567744D01*
X133987418Y-86275001D02*
X133054377Y-85341960D01*
X133054377Y-85341960D02*
X132754378Y-85041961D01*
X140017956Y-83334997D02*
X139717957Y-83634996D01*
X139717957Y-83634996D02*
X139717957Y-84407047D01*
X139717957Y-84407047D02*
X137850003Y-86275001D01*
X137850003Y-86275001D02*
X133987418Y-86275001D01*
D21*
X141569999Y-87299999D02*
X141869998Y-87000000D01*
X140967577Y-87902421D02*
X141569999Y-87299999D01*
X125150000Y-87940000D02*
X125574264Y-87940000D01*
X125574264Y-87940000D02*
X125611843Y-87902421D01*
X125611843Y-87902421D02*
X140967577Y-87902421D01*
X128621598Y-88960000D02*
X118447958Y-88960000D01*
X142620000Y-87204264D02*
X141404265Y-88419999D01*
X118447958Y-88960000D02*
X117940019Y-88452061D01*
X117940019Y-88452061D02*
X117640020Y-88152062D01*
X142620000Y-86780000D02*
X142620000Y-87204264D01*
X129161599Y-88419999D02*
X128621598Y-88960000D01*
X141404265Y-88419999D02*
X129161599Y-88419999D01*
D19*
X150330000Y-78960000D02*
X150330000Y-81633548D01*
X150691958Y-85441956D02*
X146311925Y-85441956D01*
X146311925Y-85441956D02*
X146100000Y-85230031D01*
X150991957Y-85141957D02*
X150691958Y-85441956D01*
X150033589Y-81929959D02*
X149733590Y-82229958D01*
X150330000Y-81633548D02*
X150033589Y-81929959D01*
D18*
X123487506Y-77753966D02*
X123787505Y-77453967D01*
X123461470Y-77780002D02*
X123487506Y-77753966D01*
X122787037Y-77780002D02*
X123461470Y-77780002D01*
X121935066Y-76928031D02*
X122787037Y-77780002D01*
D19*
X121510802Y-76928031D02*
X121935066Y-76928031D01*
X117370019Y-75939980D02*
X118358070Y-76928031D01*
X118358070Y-76928031D02*
X121510802Y-76928031D01*
D20*
X124347507Y-76497507D02*
X124347507Y-76800000D01*
X124347507Y-76800000D02*
X124347507Y-77722769D01*
X124310804Y-76393366D02*
X124347507Y-76430069D01*
X124347507Y-76430069D02*
X124347507Y-76800000D01*
X125489201Y-74930001D02*
X124855989Y-74930003D01*
X124855989Y-74930003D02*
X124310804Y-75475188D01*
X124310804Y-75475188D02*
X124310804Y-76393366D01*
D23*
X127914196Y-74854503D02*
X127522072Y-74462379D01*
X129119471Y-74854503D02*
X127914196Y-74854503D01*
X130904567Y-73069407D02*
X129119471Y-74854503D01*
X137429407Y-73069407D02*
X130904567Y-73069407D01*
X139330000Y-74970000D02*
X137429407Y-73069407D01*
D20*
X127522072Y-74462379D02*
X125956823Y-74462379D01*
X125956823Y-74462379D02*
X125489201Y-74930001D01*
D23*
X124347507Y-77722769D02*
X123260276Y-78810000D01*
X123260276Y-78810000D02*
X118054264Y-78810000D01*
X118054264Y-78810000D02*
X117630000Y-78810000D01*
D20*
X127356383Y-74862390D02*
X126009375Y-74862390D01*
X126009375Y-74862390D02*
X125621753Y-75250012D01*
X125621753Y-75250012D02*
X124988542Y-75250012D01*
X124988542Y-75250012D02*
X124630814Y-75607740D01*
X124630814Y-75607740D02*
X124630814Y-76260814D01*
X124630814Y-76260814D02*
X124707518Y-76337518D01*
X124707518Y-76337518D02*
X124707518Y-77871890D01*
D23*
X138231906Y-74671800D02*
X138531905Y-74971799D01*
X136989524Y-73429418D02*
X138231906Y-74671800D01*
X127708507Y-75214514D02*
X129268592Y-75214514D01*
X127356383Y-74862390D02*
X127708507Y-75214514D01*
X129268592Y-75214514D02*
X131053688Y-73429418D01*
X131053688Y-73429418D02*
X136989524Y-73429418D01*
X117630000Y-79610000D02*
X117929999Y-79310001D01*
X117929999Y-79310001D02*
X123269407Y-79310001D01*
X123269407Y-79310001D02*
X124707518Y-77871890D01*
D20*
X134975756Y-81369949D02*
X135400020Y-81369949D01*
X133900000Y-80800000D02*
X134469949Y-81369949D01*
X134469949Y-81369949D02*
X134975756Y-81369949D01*
G36*
X151759620Y-70439746D02*
X151480726Y-70718155D01*
X151329603Y-71082099D01*
X151329259Y-71476172D01*
X151479746Y-71840380D01*
X151758155Y-72119274D01*
X152122099Y-72270397D01*
X152516172Y-72270741D01*
X152880380Y-72120254D01*
X153159274Y-71841845D01*
X153310397Y-71477901D01*
X153310741Y-71083828D01*
X153160254Y-70719620D01*
X152881845Y-70440726D01*
X152579064Y-70315000D01*
X179420000Y-70315000D01*
X179420000Y-89685000D01*
X141505164Y-89685000D01*
X141597915Y-89646676D01*
X141771068Y-89473825D01*
X141864893Y-89247868D01*
X141865107Y-89003206D01*
X141771676Y-88777085D01*
X141699405Y-88704687D01*
X142909914Y-87494178D01*
X142998791Y-87361165D01*
X143030000Y-87204264D01*
X143030000Y-87133725D01*
X143077523Y-87086285D01*
X143159906Y-86887884D01*
X143160093Y-86673059D01*
X143078056Y-86474514D01*
X143043581Y-86439979D01*
X156579655Y-86439979D01*
X156719335Y-86412195D01*
X156837749Y-86333073D01*
X156855863Y-86314959D01*
X156986595Y-86315073D01*
X157185140Y-86233036D01*
X157337177Y-86081265D01*
X157419560Y-85882864D01*
X157419747Y-85668039D01*
X157337710Y-85469494D01*
X157185939Y-85317457D01*
X156987538Y-85235074D01*
X156772713Y-85234887D01*
X156574168Y-85316924D01*
X156422131Y-85468695D01*
X156339748Y-85667096D01*
X156339711Y-85709979D01*
X150935192Y-85709979D01*
X150950052Y-85700050D01*
X150968166Y-85681936D01*
X151098898Y-85682050D01*
X151297443Y-85600013D01*
X151449480Y-85448242D01*
X151531863Y-85249841D01*
X151532050Y-85035016D01*
X151466056Y-84875297D01*
X154018375Y-84875297D01*
X154128746Y-84897251D01*
X164097749Y-84897251D01*
X164237429Y-84869467D01*
X164355843Y-84790345D01*
X171686209Y-77459979D01*
X171816941Y-77460093D01*
X172015486Y-77378056D01*
X172167523Y-77226285D01*
X172249906Y-77027884D01*
X172250093Y-76813059D01*
X172168056Y-76614514D01*
X172016285Y-76462477D01*
X171817884Y-76380094D01*
X171603059Y-76379907D01*
X171404514Y-76461944D01*
X171252477Y-76613715D01*
X171170094Y-76812116D01*
X171169979Y-76943833D01*
X163946561Y-84167251D01*
X154217163Y-84167251D01*
X154106792Y-84145297D01*
X150739705Y-84145297D01*
X150600025Y-84173081D01*
X150499858Y-84240011D01*
X142424924Y-84240011D01*
X142254116Y-84069203D01*
X142254230Y-83938471D01*
X142172193Y-83739926D01*
X142020422Y-83587889D01*
X141822021Y-83505506D01*
X141773259Y-83505464D01*
X141845577Y-83331301D01*
X141845764Y-83116476D01*
X141763727Y-82917931D01*
X141614210Y-82768152D01*
X141705958Y-82730242D01*
X141857995Y-82578471D01*
X141940378Y-82380070D01*
X141940565Y-82165245D01*
X141858528Y-81966700D01*
X141819169Y-81927272D01*
X141982094Y-81994924D01*
X142196919Y-81995111D01*
X142395464Y-81913074D01*
X142488683Y-81820018D01*
X147061010Y-81820018D01*
X148804075Y-83563083D01*
X148922489Y-83642205D01*
X149062169Y-83669989D01*
X154968456Y-83669989D01*
X155108136Y-83642205D01*
X155226550Y-83563083D01*
X155284674Y-83504959D01*
X155415406Y-83505073D01*
X155613951Y-83423036D01*
X155765988Y-83271265D01*
X155848371Y-83072864D01*
X155848558Y-82858039D01*
X155766521Y-82659494D01*
X155666843Y-82559641D01*
X164505359Y-82559641D01*
X164645039Y-82531857D01*
X164763453Y-82452735D01*
X171676209Y-75539979D01*
X171806941Y-75540093D01*
X172005486Y-75458056D01*
X172157523Y-75306285D01*
X172239906Y-75107884D01*
X172240093Y-74893059D01*
X172158056Y-74694514D01*
X172006285Y-74542477D01*
X171807884Y-74460094D01*
X171593059Y-74459907D01*
X171394514Y-74541944D01*
X171242477Y-74693715D01*
X171160094Y-74892116D01*
X171159979Y-75023833D01*
X164354171Y-81829641D01*
X150900361Y-81829641D01*
X150760682Y-81857425D01*
X150642267Y-81936547D01*
X150273524Y-82305290D01*
X150273611Y-82206125D01*
X150588094Y-81891642D01*
X150595781Y-81880137D01*
X150667216Y-81773227D01*
X150695000Y-81633548D01*
X150695000Y-79358646D01*
X150787523Y-79266285D01*
X150864502Y-79080899D01*
X150891188Y-79145484D01*
X151042959Y-79297521D01*
X151241360Y-79379904D01*
X151456185Y-79380091D01*
X151654730Y-79298054D01*
X151747949Y-79204998D01*
X154549257Y-79204998D01*
X154688937Y-79177214D01*
X154807351Y-79098092D01*
X154866928Y-79038515D01*
X154866862Y-79113896D01*
X154948899Y-79312441D01*
X155100670Y-79464478D01*
X155299071Y-79546861D01*
X155513896Y-79547048D01*
X155712441Y-79465011D01*
X155864478Y-79313240D01*
X155946861Y-79114839D01*
X155946976Y-78983122D01*
X157308115Y-77621983D01*
X157387237Y-77503569D01*
X157415021Y-77363889D01*
X157415021Y-76697883D01*
X157387237Y-76558204D01*
X157308115Y-76439789D01*
X156983115Y-76114789D01*
X156864701Y-76035667D01*
X156725021Y-76007883D01*
X144772957Y-76007883D01*
X145430839Y-75350000D01*
X154146433Y-75350000D01*
X154283715Y-75487523D01*
X154482116Y-75569906D01*
X154696941Y-75570093D01*
X154895486Y-75488056D01*
X155047523Y-75336285D01*
X155129906Y-75137884D01*
X155130093Y-74923059D01*
X155048056Y-74724514D01*
X154896285Y-74572477D01*
X154697884Y-74490094D01*
X154483059Y-74489907D01*
X154284514Y-74571944D01*
X154146216Y-74710000D01*
X145408874Y-74710000D01*
X145348542Y-74669687D01*
X145199296Y-74640000D01*
X145050050Y-74669687D01*
X144923524Y-74754229D01*
X144247181Y-75430571D01*
X143830359Y-75430571D01*
X143939274Y-75321845D01*
X144090397Y-74957901D01*
X144090741Y-74563828D01*
X143940254Y-74199620D01*
X143661845Y-73920726D01*
X143297901Y-73769603D01*
X142903828Y-73769259D01*
X142539620Y-73919746D01*
X142260726Y-74198155D01*
X142109603Y-74562099D01*
X142109259Y-74956172D01*
X142259746Y-75320380D01*
X142369745Y-75430571D01*
X141924408Y-75430571D01*
X141775161Y-75460258D01*
X141736276Y-75486240D01*
X141762227Y-75447402D01*
X141790011Y-75307722D01*
X141790011Y-73747920D01*
X142878513Y-72659418D01*
X143981487Y-72659418D01*
X145005174Y-73683105D01*
X145123588Y-73762227D01*
X145263268Y-73790011D01*
X155273823Y-73790011D01*
X157435000Y-75951188D01*
X157435000Y-78348812D01*
X155423791Y-80360021D01*
X155293059Y-80359907D01*
X155094514Y-80441944D01*
X154942477Y-80593715D01*
X154860094Y-80792116D01*
X154859907Y-81006941D01*
X154941944Y-81205486D01*
X155093715Y-81357523D01*
X155292116Y-81439906D01*
X155506941Y-81440093D01*
X155705486Y-81358056D01*
X155857523Y-81206285D01*
X155939906Y-81007884D01*
X155940021Y-80876167D01*
X158058094Y-78758094D01*
X158137216Y-78639679D01*
X158165000Y-78500000D01*
X158165000Y-75800000D01*
X158159198Y-75770829D01*
X158137216Y-75660320D01*
X158058094Y-75541906D01*
X155856188Y-73340000D01*
X171276354Y-73340000D01*
X171368715Y-73432523D01*
X171567116Y-73514906D01*
X171781941Y-73515093D01*
X171980486Y-73433056D01*
X172132523Y-73281285D01*
X172214906Y-73082884D01*
X172215093Y-72868059D01*
X172133056Y-72669514D01*
X171981285Y-72517477D01*
X171782884Y-72435094D01*
X171568059Y-72434907D01*
X171369514Y-72516944D01*
X171276295Y-72610000D01*
X145616188Y-72610000D01*
X144567504Y-71561316D01*
X144449090Y-71482194D01*
X144309410Y-71454410D01*
X142530569Y-71454410D01*
X142390890Y-71482194D01*
X142272475Y-71561316D01*
X142193353Y-71679731D01*
X142187308Y-71710123D01*
X140793726Y-73103705D01*
X140724359Y-73207520D01*
X140700000Y-73329979D01*
X140700000Y-74707452D01*
X139763737Y-75643715D01*
X139694370Y-75747530D01*
X139670011Y-75869989D01*
X139670011Y-76728998D01*
X136423017Y-79975993D01*
X136353650Y-80079808D01*
X136329291Y-80202267D01*
X136329291Y-81935761D01*
X136242351Y-81935685D01*
X136043806Y-82017722D01*
X135891769Y-82169493D01*
X135809386Y-82367894D01*
X135809199Y-82582719D01*
X135863318Y-82713698D01*
X134734884Y-82713698D01*
X132980000Y-80958814D01*
X132980000Y-80906941D01*
X133359907Y-80906941D01*
X133441944Y-81105486D01*
X133593715Y-81257523D01*
X133792116Y-81339906D01*
X133987528Y-81340076D01*
X134243675Y-81596223D01*
X134347491Y-81665591D01*
X134469949Y-81689949D01*
X134956453Y-81689949D01*
X135093735Y-81827472D01*
X135292136Y-81909855D01*
X135506961Y-81910042D01*
X135705506Y-81828005D01*
X135857543Y-81676234D01*
X135939926Y-81477833D01*
X135940113Y-81263008D01*
X135858076Y-81064463D01*
X135706305Y-80912426D01*
X135507904Y-80830043D01*
X135293079Y-80829856D01*
X135094534Y-80911893D01*
X134956236Y-81049949D01*
X134602497Y-81049949D01*
X134439924Y-80887376D01*
X134440093Y-80693059D01*
X134358056Y-80494514D01*
X134206285Y-80342477D01*
X134007884Y-80260094D01*
X133793059Y-80259907D01*
X133594514Y-80341944D01*
X133442477Y-80493715D01*
X133360094Y-80692116D01*
X133359907Y-80906941D01*
X132980000Y-80906941D01*
X132980000Y-79355836D01*
X133167416Y-79168420D01*
X133361733Y-79168589D01*
X133560278Y-79086552D01*
X133712315Y-78934781D01*
X133794698Y-78736380D01*
X133794885Y-78521555D01*
X133712848Y-78323010D01*
X133561077Y-78170973D01*
X133362676Y-78088590D01*
X133147851Y-78088403D01*
X132949306Y-78170440D01*
X132797269Y-78322211D01*
X132714886Y-78520612D01*
X132714716Y-78716024D01*
X132433726Y-78997014D01*
X132364359Y-79100829D01*
X132360013Y-79122677D01*
X132360013Y-78074366D01*
X132332229Y-77934687D01*
X132253107Y-77816272D01*
X132134692Y-77737150D01*
X132104300Y-77731105D01*
X131820000Y-77446805D01*
X131820000Y-77017405D01*
X131880012Y-77077522D01*
X132078413Y-77159905D01*
X132293238Y-77160092D01*
X132491783Y-77078055D01*
X132516425Y-77053456D01*
X133646703Y-77053456D01*
X133783985Y-77190979D01*
X133982386Y-77273362D01*
X134197211Y-77273549D01*
X134395756Y-77191512D01*
X134547793Y-77039741D01*
X134630176Y-76841340D01*
X134630363Y-76626515D01*
X134548326Y-76427970D01*
X134396555Y-76275933D01*
X134198154Y-76193550D01*
X134066437Y-76193435D01*
X133636436Y-75763434D01*
X133636436Y-74411691D01*
X133728959Y-74319330D01*
X133811342Y-74120929D01*
X133811529Y-73906104D01*
X133755052Y-73769418D01*
X136148017Y-73769418D01*
X136074622Y-73799744D01*
X135795728Y-74078153D01*
X135644605Y-74442097D01*
X135644261Y-74836170D01*
X135794748Y-75200378D01*
X136073157Y-75479272D01*
X136437101Y-75630395D01*
X136831174Y-75630739D01*
X137073195Y-75530739D01*
X137315338Y-75772882D01*
X137419153Y-75842249D01*
X137506569Y-75859637D01*
X137650810Y-76004131D01*
X137849211Y-76086514D01*
X138064036Y-76086701D01*
X138262581Y-76004664D01*
X138414618Y-75852893D01*
X138497001Y-75654492D01*
X138497125Y-75511769D01*
X138638846Y-75511892D01*
X138837391Y-75429855D01*
X138931882Y-75335529D01*
X139023715Y-75427523D01*
X139222116Y-75509906D01*
X139436941Y-75510093D01*
X139635486Y-75428056D01*
X139787523Y-75276285D01*
X139869906Y-75077884D01*
X139870093Y-74863059D01*
X139788056Y-74664514D01*
X139636285Y-74512477D01*
X139437884Y-74430094D01*
X139270781Y-74429949D01*
X137669823Y-72828991D01*
X137559520Y-72755288D01*
X137429407Y-72729407D01*
X130904567Y-72729407D01*
X130774454Y-72755288D01*
X130664151Y-72828991D01*
X129558980Y-73934162D01*
X129558982Y-73931754D01*
X129476945Y-73733209D01*
X129338889Y-73594911D01*
X129338889Y-71899440D01*
X129314530Y-71776981D01*
X129245163Y-71673166D01*
X129093303Y-71521306D01*
X129093472Y-71326989D01*
X129011435Y-71128444D01*
X128895983Y-71012790D01*
X128959219Y-70949664D01*
X129041602Y-70751263D01*
X129041789Y-70536438D01*
X128959752Y-70337893D01*
X128936899Y-70315000D01*
X152061530Y-70315000D01*
X151759620Y-70439746D01*
X151759620Y-70439746D01*
G37*
X151759620Y-70439746D02*
X151480726Y-70718155D01*
X151329603Y-71082099D01*
X151329259Y-71476172D01*
X151479746Y-71840380D01*
X151758155Y-72119274D01*
X152122099Y-72270397D01*
X152516172Y-72270741D01*
X152880380Y-72120254D01*
X153159274Y-71841845D01*
X153310397Y-71477901D01*
X153310741Y-71083828D01*
X153160254Y-70719620D01*
X152881845Y-70440726D01*
X152579064Y-70315000D01*
X179420000Y-70315000D01*
X179420000Y-89685000D01*
X141505164Y-89685000D01*
X141597915Y-89646676D01*
X141771068Y-89473825D01*
X141864893Y-89247868D01*
X141865107Y-89003206D01*
X141771676Y-88777085D01*
X141699405Y-88704687D01*
X142909914Y-87494178D01*
X142998791Y-87361165D01*
X143030000Y-87204264D01*
X143030000Y-87133725D01*
X143077523Y-87086285D01*
X143159906Y-86887884D01*
X143160093Y-86673059D01*
X143078056Y-86474514D01*
X143043581Y-86439979D01*
X156579655Y-86439979D01*
X156719335Y-86412195D01*
X156837749Y-86333073D01*
X156855863Y-86314959D01*
X156986595Y-86315073D01*
X157185140Y-86233036D01*
X157337177Y-86081265D01*
X157419560Y-85882864D01*
X157419747Y-85668039D01*
X157337710Y-85469494D01*
X157185939Y-85317457D01*
X156987538Y-85235074D01*
X156772713Y-85234887D01*
X156574168Y-85316924D01*
X156422131Y-85468695D01*
X156339748Y-85667096D01*
X156339711Y-85709979D01*
X150935192Y-85709979D01*
X150950052Y-85700050D01*
X150968166Y-85681936D01*
X151098898Y-85682050D01*
X151297443Y-85600013D01*
X151449480Y-85448242D01*
X151531863Y-85249841D01*
X151532050Y-85035016D01*
X151466056Y-84875297D01*
X154018375Y-84875297D01*
X154128746Y-84897251D01*
X164097749Y-84897251D01*
X164237429Y-84869467D01*
X164355843Y-84790345D01*
X171686209Y-77459979D01*
X171816941Y-77460093D01*
X172015486Y-77378056D01*
X172167523Y-77226285D01*
X172249906Y-77027884D01*
X172250093Y-76813059D01*
X172168056Y-76614514D01*
X172016285Y-76462477D01*
X171817884Y-76380094D01*
X171603059Y-76379907D01*
X171404514Y-76461944D01*
X171252477Y-76613715D01*
X171170094Y-76812116D01*
X171169979Y-76943833D01*
X163946561Y-84167251D01*
X154217163Y-84167251D01*
X154106792Y-84145297D01*
X150739705Y-84145297D01*
X150600025Y-84173081D01*
X150499858Y-84240011D01*
X142424924Y-84240011D01*
X142254116Y-84069203D01*
X142254230Y-83938471D01*
X142172193Y-83739926D01*
X142020422Y-83587889D01*
X141822021Y-83505506D01*
X141773259Y-83505464D01*
X141845577Y-83331301D01*
X141845764Y-83116476D01*
X141763727Y-82917931D01*
X141614210Y-82768152D01*
X141705958Y-82730242D01*
X141857995Y-82578471D01*
X141940378Y-82380070D01*
X141940565Y-82165245D01*
X141858528Y-81966700D01*
X141819169Y-81927272D01*
X141982094Y-81994924D01*
X142196919Y-81995111D01*
X142395464Y-81913074D01*
X142488683Y-81820018D01*
X147061010Y-81820018D01*
X148804075Y-83563083D01*
X148922489Y-83642205D01*
X149062169Y-83669989D01*
X154968456Y-83669989D01*
X155108136Y-83642205D01*
X155226550Y-83563083D01*
X155284674Y-83504959D01*
X155415406Y-83505073D01*
X155613951Y-83423036D01*
X155765988Y-83271265D01*
X155848371Y-83072864D01*
X155848558Y-82858039D01*
X155766521Y-82659494D01*
X155666843Y-82559641D01*
X164505359Y-82559641D01*
X164645039Y-82531857D01*
X164763453Y-82452735D01*
X171676209Y-75539979D01*
X171806941Y-75540093D01*
X172005486Y-75458056D01*
X172157523Y-75306285D01*
X172239906Y-75107884D01*
X172240093Y-74893059D01*
X172158056Y-74694514D01*
X172006285Y-74542477D01*
X171807884Y-74460094D01*
X171593059Y-74459907D01*
X171394514Y-74541944D01*
X171242477Y-74693715D01*
X171160094Y-74892116D01*
X171159979Y-75023833D01*
X164354171Y-81829641D01*
X150900361Y-81829641D01*
X150760682Y-81857425D01*
X150642267Y-81936547D01*
X150273524Y-82305290D01*
X150273611Y-82206125D01*
X150588094Y-81891642D01*
X150595781Y-81880137D01*
X150667216Y-81773227D01*
X150695000Y-81633548D01*
X150695000Y-79358646D01*
X150787523Y-79266285D01*
X150864502Y-79080899D01*
X150891188Y-79145484D01*
X151042959Y-79297521D01*
X151241360Y-79379904D01*
X151456185Y-79380091D01*
X151654730Y-79298054D01*
X151747949Y-79204998D01*
X154549257Y-79204998D01*
X154688937Y-79177214D01*
X154807351Y-79098092D01*
X154866928Y-79038515D01*
X154866862Y-79113896D01*
X154948899Y-79312441D01*
X155100670Y-79464478D01*
X155299071Y-79546861D01*
X155513896Y-79547048D01*
X155712441Y-79465011D01*
X155864478Y-79313240D01*
X155946861Y-79114839D01*
X155946976Y-78983122D01*
X157308115Y-77621983D01*
X157387237Y-77503569D01*
X157415021Y-77363889D01*
X157415021Y-76697883D01*
X157387237Y-76558204D01*
X157308115Y-76439789D01*
X156983115Y-76114789D01*
X156864701Y-76035667D01*
X156725021Y-76007883D01*
X144772957Y-76007883D01*
X145430839Y-75350000D01*
X154146433Y-75350000D01*
X154283715Y-75487523D01*
X154482116Y-75569906D01*
X154696941Y-75570093D01*
X154895486Y-75488056D01*
X155047523Y-75336285D01*
X155129906Y-75137884D01*
X155130093Y-74923059D01*
X155048056Y-74724514D01*
X154896285Y-74572477D01*
X154697884Y-74490094D01*
X154483059Y-74489907D01*
X154284514Y-74571944D01*
X154146216Y-74710000D01*
X145408874Y-74710000D01*
X145348542Y-74669687D01*
X145199296Y-74640000D01*
X145050050Y-74669687D01*
X144923524Y-74754229D01*
X144247181Y-75430571D01*
X143830359Y-75430571D01*
X143939274Y-75321845D01*
X144090397Y-74957901D01*
X144090741Y-74563828D01*
X143940254Y-74199620D01*
X143661845Y-73920726D01*
X143297901Y-73769603D01*
X142903828Y-73769259D01*
X142539620Y-73919746D01*
X142260726Y-74198155D01*
X142109603Y-74562099D01*
X142109259Y-74956172D01*
X142259746Y-75320380D01*
X142369745Y-75430571D01*
X141924408Y-75430571D01*
X141775161Y-75460258D01*
X141736276Y-75486240D01*
X141762227Y-75447402D01*
X141790011Y-75307722D01*
X141790011Y-73747920D01*
X142878513Y-72659418D01*
X143981487Y-72659418D01*
X145005174Y-73683105D01*
X145123588Y-73762227D01*
X145263268Y-73790011D01*
X155273823Y-73790011D01*
X157435000Y-75951188D01*
X157435000Y-78348812D01*
X155423791Y-80360021D01*
X155293059Y-80359907D01*
X155094514Y-80441944D01*
X154942477Y-80593715D01*
X154860094Y-80792116D01*
X154859907Y-81006941D01*
X154941944Y-81205486D01*
X155093715Y-81357523D01*
X155292116Y-81439906D01*
X155506941Y-81440093D01*
X155705486Y-81358056D01*
X155857523Y-81206285D01*
X155939906Y-81007884D01*
X155940021Y-80876167D01*
X158058094Y-78758094D01*
X158137216Y-78639679D01*
X158165000Y-78500000D01*
X158165000Y-75800000D01*
X158159198Y-75770829D01*
X158137216Y-75660320D01*
X158058094Y-75541906D01*
X155856188Y-73340000D01*
X171276354Y-73340000D01*
X171368715Y-73432523D01*
X171567116Y-73514906D01*
X171781941Y-73515093D01*
X171980486Y-73433056D01*
X172132523Y-73281285D01*
X172214906Y-73082884D01*
X172215093Y-72868059D01*
X172133056Y-72669514D01*
X171981285Y-72517477D01*
X171782884Y-72435094D01*
X171568059Y-72434907D01*
X171369514Y-72516944D01*
X171276295Y-72610000D01*
X145616188Y-72610000D01*
X144567504Y-71561316D01*
X144449090Y-71482194D01*
X144309410Y-71454410D01*
X142530569Y-71454410D01*
X142390890Y-71482194D01*
X142272475Y-71561316D01*
X142193353Y-71679731D01*
X142187308Y-71710123D01*
X140793726Y-73103705D01*
X140724359Y-73207520D01*
X140700000Y-73329979D01*
X140700000Y-74707452D01*
X139763737Y-75643715D01*
X139694370Y-75747530D01*
X139670011Y-75869989D01*
X139670011Y-76728998D01*
X136423017Y-79975993D01*
X136353650Y-80079808D01*
X136329291Y-80202267D01*
X136329291Y-81935761D01*
X136242351Y-81935685D01*
X136043806Y-82017722D01*
X135891769Y-82169493D01*
X135809386Y-82367894D01*
X135809199Y-82582719D01*
X135863318Y-82713698D01*
X134734884Y-82713698D01*
X132980000Y-80958814D01*
X132980000Y-80906941D01*
X133359907Y-80906941D01*
X133441944Y-81105486D01*
X133593715Y-81257523D01*
X133792116Y-81339906D01*
X133987528Y-81340076D01*
X134243675Y-81596223D01*
X134347491Y-81665591D01*
X134469949Y-81689949D01*
X134956453Y-81689949D01*
X135093735Y-81827472D01*
X135292136Y-81909855D01*
X135506961Y-81910042D01*
X135705506Y-81828005D01*
X135857543Y-81676234D01*
X135939926Y-81477833D01*
X135940113Y-81263008D01*
X135858076Y-81064463D01*
X135706305Y-80912426D01*
X135507904Y-80830043D01*
X135293079Y-80829856D01*
X135094534Y-80911893D01*
X134956236Y-81049949D01*
X134602497Y-81049949D01*
X134439924Y-80887376D01*
X134440093Y-80693059D01*
X134358056Y-80494514D01*
X134206285Y-80342477D01*
X134007884Y-80260094D01*
X133793059Y-80259907D01*
X133594514Y-80341944D01*
X133442477Y-80493715D01*
X133360094Y-80692116D01*
X133359907Y-80906941D01*
X132980000Y-80906941D01*
X132980000Y-79355836D01*
X133167416Y-79168420D01*
X133361733Y-79168589D01*
X133560278Y-79086552D01*
X133712315Y-78934781D01*
X133794698Y-78736380D01*
X133794885Y-78521555D01*
X133712848Y-78323010D01*
X133561077Y-78170973D01*
X133362676Y-78088590D01*
X133147851Y-78088403D01*
X132949306Y-78170440D01*
X132797269Y-78322211D01*
X132714886Y-78520612D01*
X132714716Y-78716024D01*
X132433726Y-78997014D01*
X132364359Y-79100829D01*
X132360013Y-79122677D01*
X132360013Y-78074366D01*
X132332229Y-77934687D01*
X132253107Y-77816272D01*
X132134692Y-77737150D01*
X132104300Y-77731105D01*
X131820000Y-77446805D01*
X131820000Y-77017405D01*
X131880012Y-77077522D01*
X132078413Y-77159905D01*
X132293238Y-77160092D01*
X132491783Y-77078055D01*
X132516425Y-77053456D01*
X133646703Y-77053456D01*
X133783985Y-77190979D01*
X133982386Y-77273362D01*
X134197211Y-77273549D01*
X134395756Y-77191512D01*
X134547793Y-77039741D01*
X134630176Y-76841340D01*
X134630363Y-76626515D01*
X134548326Y-76427970D01*
X134396555Y-76275933D01*
X134198154Y-76193550D01*
X134066437Y-76193435D01*
X133636436Y-75763434D01*
X133636436Y-74411691D01*
X133728959Y-74319330D01*
X133811342Y-74120929D01*
X133811529Y-73906104D01*
X133755052Y-73769418D01*
X136148017Y-73769418D01*
X136074622Y-73799744D01*
X135795728Y-74078153D01*
X135644605Y-74442097D01*
X135644261Y-74836170D01*
X135794748Y-75200378D01*
X136073157Y-75479272D01*
X136437101Y-75630395D01*
X136831174Y-75630739D01*
X137073195Y-75530739D01*
X137315338Y-75772882D01*
X137419153Y-75842249D01*
X137506569Y-75859637D01*
X137650810Y-76004131D01*
X137849211Y-76086514D01*
X138064036Y-76086701D01*
X138262581Y-76004664D01*
X138414618Y-75852893D01*
X138497001Y-75654492D01*
X138497125Y-75511769D01*
X138638846Y-75511892D01*
X138837391Y-75429855D01*
X138931882Y-75335529D01*
X139023715Y-75427523D01*
X139222116Y-75509906D01*
X139436941Y-75510093D01*
X139635486Y-75428056D01*
X139787523Y-75276285D01*
X139869906Y-75077884D01*
X139870093Y-74863059D01*
X139788056Y-74664514D01*
X139636285Y-74512477D01*
X139437884Y-74430094D01*
X139270781Y-74429949D01*
X137669823Y-72828991D01*
X137559520Y-72755288D01*
X137429407Y-72729407D01*
X130904567Y-72729407D01*
X130774454Y-72755288D01*
X130664151Y-72828991D01*
X129558980Y-73934162D01*
X129558982Y-73931754D01*
X129476945Y-73733209D01*
X129338889Y-73594911D01*
X129338889Y-71899440D01*
X129314530Y-71776981D01*
X129245163Y-71673166D01*
X129093303Y-71521306D01*
X129093472Y-71326989D01*
X129011435Y-71128444D01*
X128895983Y-71012790D01*
X128959219Y-70949664D01*
X129041602Y-70751263D01*
X129041789Y-70536438D01*
X128959752Y-70337893D01*
X128936899Y-70315000D01*
X152061530Y-70315000D01*
X151759620Y-70439746D01*
G36*
X128044173Y-70337094D02*
X127961790Y-70535495D01*
X127961620Y-70730907D01*
X127733727Y-70958800D01*
X127664360Y-71062615D01*
X127640001Y-71185074D01*
X127640001Y-73780001D01*
X127664360Y-73902460D01*
X127705831Y-73964525D01*
X127720082Y-73985854D01*
X127719907Y-74186941D01*
X127723657Y-74196017D01*
X127652185Y-74148260D01*
X127522072Y-74122379D01*
X127421525Y-74142379D01*
X125956823Y-74142379D01*
X125834364Y-74166738D01*
X125751714Y-74221963D01*
X125746334Y-74225558D01*
X125688056Y-74084514D01*
X125536285Y-73932477D01*
X125337884Y-73850094D01*
X125123059Y-73849907D01*
X124924514Y-73931944D01*
X124856339Y-74000000D01*
X124590005Y-74000000D01*
X124590000Y-73999999D01*
X124465515Y-74024761D01*
X124440753Y-74029687D01*
X124335520Y-74100001D01*
X124314228Y-74114228D01*
X123118466Y-75309990D01*
X123023059Y-75309907D01*
X122824514Y-75391944D01*
X122672477Y-75543715D01*
X122590094Y-75742116D01*
X122589907Y-75956941D01*
X122671944Y-76155486D01*
X122740000Y-76223661D01*
X122740000Y-76280420D01*
X122699687Y-76340753D01*
X122699687Y-76340754D01*
X122669999Y-76490000D01*
X122670000Y-76490005D01*
X122670000Y-76796310D01*
X122602477Y-76863715D01*
X122549611Y-76991032D01*
X122475076Y-76916497D01*
X122475159Y-76821090D01*
X122393122Y-76622545D01*
X122241351Y-76470508D01*
X122042950Y-76388125D01*
X121828125Y-76387938D01*
X121629580Y-76469975D01*
X121536361Y-76563031D01*
X118509258Y-76563031D01*
X117909998Y-75963771D01*
X117910084Y-75864944D01*
X118141353Y-75865146D01*
X118450200Y-75737533D01*
X118686702Y-75501443D01*
X118814854Y-75192819D01*
X118815146Y-74858647D01*
X118687533Y-74549800D01*
X118451443Y-74313298D01*
X118142819Y-74185146D01*
X117808647Y-74184854D01*
X117499800Y-74312467D01*
X117263298Y-74548557D01*
X117135146Y-74857181D01*
X117134854Y-75191353D01*
X117227152Y-75414731D01*
X117064533Y-75481924D01*
X116912496Y-75633695D01*
X116830113Y-75832096D01*
X116829926Y-76046921D01*
X116911963Y-76245466D01*
X117063734Y-76397503D01*
X117262135Y-76479886D01*
X117393852Y-76480001D01*
X118099976Y-77186125D01*
X118218390Y-77265247D01*
X118358070Y-77293031D01*
X121536420Y-77293031D01*
X121628781Y-77385554D01*
X121827182Y-77467937D01*
X121923512Y-77468021D01*
X122511265Y-78055774D01*
X122637790Y-78140315D01*
X122654662Y-78143671D01*
X122787037Y-78170003D01*
X122787042Y-78170002D01*
X123419442Y-78170002D01*
X123119444Y-78470000D01*
X118053602Y-78470000D01*
X117936285Y-78352477D01*
X117737884Y-78270094D01*
X117523059Y-78269907D01*
X117324514Y-78351944D01*
X117172477Y-78503715D01*
X117090094Y-78702116D01*
X117089907Y-78916941D01*
X117171944Y-79115486D01*
X117266324Y-79210032D01*
X117172477Y-79303715D01*
X117090094Y-79502116D01*
X117089907Y-79716941D01*
X117171944Y-79915486D01*
X117323715Y-80067523D01*
X117522116Y-80149906D01*
X117736941Y-80150093D01*
X117935486Y-80068056D01*
X118087523Y-79916285D01*
X118169906Y-79717884D01*
X118169965Y-79650001D01*
X119986268Y-79650001D01*
X119942477Y-79693715D01*
X119860094Y-79892116D01*
X119860010Y-79988446D01*
X115024228Y-84824228D01*
X114939687Y-84950753D01*
X114939687Y-84950754D01*
X114909999Y-85100000D01*
X114910000Y-85100005D01*
X114910000Y-86226310D01*
X114842477Y-86293715D01*
X114760094Y-86492116D01*
X114759907Y-86706941D01*
X114841944Y-86905486D01*
X114993715Y-87057523D01*
X115192116Y-87139906D01*
X115406941Y-87140093D01*
X115605486Y-87058056D01*
X115757523Y-86906285D01*
X115839906Y-86707884D01*
X115840093Y-86493059D01*
X115758056Y-86294514D01*
X115690000Y-86226339D01*
X115690000Y-85963343D01*
X115802136Y-86009906D01*
X115933853Y-86010021D01*
X116181926Y-86258094D01*
X116300341Y-86337216D01*
X116440020Y-86365000D01*
X120480175Y-86365000D01*
X120457677Y-86374296D01*
X120305640Y-86526067D01*
X120223257Y-86724468D01*
X120223070Y-86939293D01*
X120228410Y-86952218D01*
X120046202Y-86952059D01*
X119847657Y-87034096D01*
X119695620Y-87185867D01*
X119613237Y-87384268D01*
X119613050Y-87599093D01*
X119695087Y-87797638D01*
X119846858Y-87949675D01*
X120045259Y-88032058D01*
X120260084Y-88032245D01*
X120458629Y-87950208D01*
X120551848Y-87857152D01*
X124610072Y-87857152D01*
X124609907Y-88046941D01*
X124691944Y-88245486D01*
X124843715Y-88397523D01*
X125042116Y-88479906D01*
X125256941Y-88480093D01*
X125455486Y-88398056D01*
X125503626Y-88350000D01*
X125574264Y-88350000D01*
X125731165Y-88318791D01*
X125740698Y-88312421D01*
X128689349Y-88312421D01*
X128451770Y-88550000D01*
X118617786Y-88550000D01*
X118180055Y-88112269D01*
X118180113Y-88045121D01*
X118098076Y-87846576D01*
X117946305Y-87694539D01*
X117747904Y-87612156D01*
X117533079Y-87611969D01*
X117334534Y-87694006D01*
X117182497Y-87845777D01*
X117100114Y-88044178D01*
X117099927Y-88259003D01*
X117181964Y-88457548D01*
X117333735Y-88609585D01*
X117532136Y-88691968D01*
X117600157Y-88692027D01*
X118158044Y-89249914D01*
X118291057Y-89338791D01*
X118447958Y-89370000D01*
X128621598Y-89370000D01*
X128778499Y-89338791D01*
X128891662Y-89263177D01*
X128978324Y-89472915D01*
X129151175Y-89646068D01*
X129244934Y-89685000D01*
X106080000Y-89685000D01*
X106080000Y-75191353D01*
X112284854Y-75191353D01*
X112412467Y-75500200D01*
X112648557Y-75736702D01*
X112957181Y-75864854D01*
X113291353Y-75865146D01*
X113600200Y-75737533D01*
X113836702Y-75501443D01*
X113964854Y-75192819D01*
X113965146Y-74858647D01*
X113837533Y-74549800D01*
X113601443Y-74313298D01*
X113292819Y-74185146D01*
X112958647Y-74184854D01*
X112649800Y-74312467D01*
X112413298Y-74548557D01*
X112285146Y-74857181D01*
X112284854Y-75191353D01*
X106080000Y-75191353D01*
X106080000Y-72136650D01*
X106402099Y-72270397D01*
X106796172Y-72270741D01*
X107079564Y-72153646D01*
X111035000Y-72153646D01*
X111035000Y-72596354D01*
X111102747Y-72936942D01*
X111295675Y-73225679D01*
X111584412Y-73418607D01*
X111925000Y-73486354D01*
X112265588Y-73418607D01*
X112554325Y-73225679D01*
X112747253Y-72936942D01*
X112815000Y-72596354D01*
X112815000Y-72153646D01*
X118285000Y-72153646D01*
X118285000Y-72596354D01*
X118352747Y-72936942D01*
X118545675Y-73225679D01*
X118834412Y-73418607D01*
X119175000Y-73486354D01*
X119515588Y-73418607D01*
X119804325Y-73225679D01*
X119997253Y-72936942D01*
X120065000Y-72596354D01*
X120065000Y-72153646D01*
X119997253Y-71813058D01*
X119804325Y-71524321D01*
X119515588Y-71331393D01*
X119175000Y-71263646D01*
X118834412Y-71331393D01*
X118545675Y-71524321D01*
X118352747Y-71813058D01*
X118285000Y-72153646D01*
X112815000Y-72153646D01*
X112747253Y-71813058D01*
X112554325Y-71524321D01*
X112265588Y-71331393D01*
X111925000Y-71263646D01*
X111584412Y-71331393D01*
X111295675Y-71524321D01*
X111102747Y-71813058D01*
X111035000Y-72153646D01*
X107079564Y-72153646D01*
X107160380Y-72120254D01*
X107439274Y-71841845D01*
X107590397Y-71477901D01*
X107590741Y-71083828D01*
X107440254Y-70719620D01*
X107161845Y-70440726D01*
X106859064Y-70315000D01*
X128066306Y-70315000D01*
X128044173Y-70337094D01*
X128044173Y-70337094D01*
G37*
X128044173Y-70337094D02*
X127961790Y-70535495D01*
X127961620Y-70730907D01*
X127733727Y-70958800D01*
X127664360Y-71062615D01*
X127640001Y-71185074D01*
X127640001Y-73780001D01*
X127664360Y-73902460D01*
X127705831Y-73964525D01*
X127720082Y-73985854D01*
X127719907Y-74186941D01*
X127723657Y-74196017D01*
X127652185Y-74148260D01*
X127522072Y-74122379D01*
X127421525Y-74142379D01*
X125956823Y-74142379D01*
X125834364Y-74166738D01*
X125751714Y-74221963D01*
X125746334Y-74225558D01*
X125688056Y-74084514D01*
X125536285Y-73932477D01*
X125337884Y-73850094D01*
X125123059Y-73849907D01*
X124924514Y-73931944D01*
X124856339Y-74000000D01*
X124590005Y-74000000D01*
X124590000Y-73999999D01*
X124465515Y-74024761D01*
X124440753Y-74029687D01*
X124335520Y-74100001D01*
X124314228Y-74114228D01*
X123118466Y-75309990D01*
X123023059Y-75309907D01*
X122824514Y-75391944D01*
X122672477Y-75543715D01*
X122590094Y-75742116D01*
X122589907Y-75956941D01*
X122671944Y-76155486D01*
X122740000Y-76223661D01*
X122740000Y-76280420D01*
X122699687Y-76340753D01*
X122699687Y-76340754D01*
X122669999Y-76490000D01*
X122670000Y-76490005D01*
X122670000Y-76796310D01*
X122602477Y-76863715D01*
X122549611Y-76991032D01*
X122475076Y-76916497D01*
X122475159Y-76821090D01*
X122393122Y-76622545D01*
X122241351Y-76470508D01*
X122042950Y-76388125D01*
X121828125Y-76387938D01*
X121629580Y-76469975D01*
X121536361Y-76563031D01*
X118509258Y-76563031D01*
X117909998Y-75963771D01*
X117910084Y-75864944D01*
X118141353Y-75865146D01*
X118450200Y-75737533D01*
X118686702Y-75501443D01*
X118814854Y-75192819D01*
X118815146Y-74858647D01*
X118687533Y-74549800D01*
X118451443Y-74313298D01*
X118142819Y-74185146D01*
X117808647Y-74184854D01*
X117499800Y-74312467D01*
X117263298Y-74548557D01*
X117135146Y-74857181D01*
X117134854Y-75191353D01*
X117227152Y-75414731D01*
X117064533Y-75481924D01*
X116912496Y-75633695D01*
X116830113Y-75832096D01*
X116829926Y-76046921D01*
X116911963Y-76245466D01*
X117063734Y-76397503D01*
X117262135Y-76479886D01*
X117393852Y-76480001D01*
X118099976Y-77186125D01*
X118218390Y-77265247D01*
X118358070Y-77293031D01*
X121536420Y-77293031D01*
X121628781Y-77385554D01*
X121827182Y-77467937D01*
X121923512Y-77468021D01*
X122511265Y-78055774D01*
X122637790Y-78140315D01*
X122654662Y-78143671D01*
X122787037Y-78170003D01*
X122787042Y-78170002D01*
X123419442Y-78170002D01*
X123119444Y-78470000D01*
X118053602Y-78470000D01*
X117936285Y-78352477D01*
X117737884Y-78270094D01*
X117523059Y-78269907D01*
X117324514Y-78351944D01*
X117172477Y-78503715D01*
X117090094Y-78702116D01*
X117089907Y-78916941D01*
X117171944Y-79115486D01*
X117266324Y-79210032D01*
X117172477Y-79303715D01*
X117090094Y-79502116D01*
X117089907Y-79716941D01*
X117171944Y-79915486D01*
X117323715Y-80067523D01*
X117522116Y-80149906D01*
X117736941Y-80150093D01*
X117935486Y-80068056D01*
X118087523Y-79916285D01*
X118169906Y-79717884D01*
X118169965Y-79650001D01*
X119986268Y-79650001D01*
X119942477Y-79693715D01*
X119860094Y-79892116D01*
X119860010Y-79988446D01*
X115024228Y-84824228D01*
X114939687Y-84950753D01*
X114939687Y-84950754D01*
X114909999Y-85100000D01*
X114910000Y-85100005D01*
X114910000Y-86226310D01*
X114842477Y-86293715D01*
X114760094Y-86492116D01*
X114759907Y-86706941D01*
X114841944Y-86905486D01*
X114993715Y-87057523D01*
X115192116Y-87139906D01*
X115406941Y-87140093D01*
X115605486Y-87058056D01*
X115757523Y-86906285D01*
X115839906Y-86707884D01*
X115840093Y-86493059D01*
X115758056Y-86294514D01*
X115690000Y-86226339D01*
X115690000Y-85963343D01*
X115802136Y-86009906D01*
X115933853Y-86010021D01*
X116181926Y-86258094D01*
X116300341Y-86337216D01*
X116440020Y-86365000D01*
X120480175Y-86365000D01*
X120457677Y-86374296D01*
X120305640Y-86526067D01*
X120223257Y-86724468D01*
X120223070Y-86939293D01*
X120228410Y-86952218D01*
X120046202Y-86952059D01*
X119847657Y-87034096D01*
X119695620Y-87185867D01*
X119613237Y-87384268D01*
X119613050Y-87599093D01*
X119695087Y-87797638D01*
X119846858Y-87949675D01*
X120045259Y-88032058D01*
X120260084Y-88032245D01*
X120458629Y-87950208D01*
X120551848Y-87857152D01*
X124610072Y-87857152D01*
X124609907Y-88046941D01*
X124691944Y-88245486D01*
X124843715Y-88397523D01*
X125042116Y-88479906D01*
X125256941Y-88480093D01*
X125455486Y-88398056D01*
X125503626Y-88350000D01*
X125574264Y-88350000D01*
X125731165Y-88318791D01*
X125740698Y-88312421D01*
X128689349Y-88312421D01*
X128451770Y-88550000D01*
X118617786Y-88550000D01*
X118180055Y-88112269D01*
X118180113Y-88045121D01*
X118098076Y-87846576D01*
X117946305Y-87694539D01*
X117747904Y-87612156D01*
X117533079Y-87611969D01*
X117334534Y-87694006D01*
X117182497Y-87845777D01*
X117100114Y-88044178D01*
X117099927Y-88259003D01*
X117181964Y-88457548D01*
X117333735Y-88609585D01*
X117532136Y-88691968D01*
X117600157Y-88692027D01*
X118158044Y-89249914D01*
X118291057Y-89338791D01*
X118447958Y-89370000D01*
X128621598Y-89370000D01*
X128778499Y-89338791D01*
X128891662Y-89263177D01*
X128978324Y-89472915D01*
X129151175Y-89646068D01*
X129244934Y-89685000D01*
X106080000Y-89685000D01*
X106080000Y-75191353D01*
X112284854Y-75191353D01*
X112412467Y-75500200D01*
X112648557Y-75736702D01*
X112957181Y-75864854D01*
X113291353Y-75865146D01*
X113600200Y-75737533D01*
X113836702Y-75501443D01*
X113964854Y-75192819D01*
X113965146Y-74858647D01*
X113837533Y-74549800D01*
X113601443Y-74313298D01*
X113292819Y-74185146D01*
X112958647Y-74184854D01*
X112649800Y-74312467D01*
X112413298Y-74548557D01*
X112285146Y-74857181D01*
X112284854Y-75191353D01*
X106080000Y-75191353D01*
X106080000Y-72136650D01*
X106402099Y-72270397D01*
X106796172Y-72270741D01*
X107079564Y-72153646D01*
X111035000Y-72153646D01*
X111035000Y-72596354D01*
X111102747Y-72936942D01*
X111295675Y-73225679D01*
X111584412Y-73418607D01*
X111925000Y-73486354D01*
X112265588Y-73418607D01*
X112554325Y-73225679D01*
X112747253Y-72936942D01*
X112815000Y-72596354D01*
X112815000Y-72153646D01*
X118285000Y-72153646D01*
X118285000Y-72596354D01*
X118352747Y-72936942D01*
X118545675Y-73225679D01*
X118834412Y-73418607D01*
X119175000Y-73486354D01*
X119515588Y-73418607D01*
X119804325Y-73225679D01*
X119997253Y-72936942D01*
X120065000Y-72596354D01*
X120065000Y-72153646D01*
X119997253Y-71813058D01*
X119804325Y-71524321D01*
X119515588Y-71331393D01*
X119175000Y-71263646D01*
X118834412Y-71331393D01*
X118545675Y-71524321D01*
X118352747Y-71813058D01*
X118285000Y-72153646D01*
X112815000Y-72153646D01*
X112747253Y-71813058D01*
X112554325Y-71524321D01*
X112265588Y-71331393D01*
X111925000Y-71263646D01*
X111584412Y-71331393D01*
X111295675Y-71524321D01*
X111102747Y-71813058D01*
X111035000Y-72153646D01*
X107079564Y-72153646D01*
X107160380Y-72120254D01*
X107439274Y-71841845D01*
X107590397Y-71477901D01*
X107590741Y-71083828D01*
X107440254Y-70719620D01*
X107161845Y-70440726D01*
X106859064Y-70315000D01*
X128066306Y-70315000D01*
X128044173Y-70337094D01*
G36*
X141443434Y-80554261D02*
X141443247Y-80769086D01*
X141525284Y-80967631D01*
X141669327Y-81111926D01*
X141632455Y-81148733D01*
X141550072Y-81347134D01*
X141549885Y-81561959D01*
X141631922Y-81760504D01*
X141671281Y-81799932D01*
X141508356Y-81732280D01*
X141293531Y-81732093D01*
X141094986Y-81814130D01*
X141001767Y-81907186D01*
X140976208Y-81907186D01*
X140836528Y-81934970D01*
X140718114Y-82014092D01*
X140422556Y-82309650D01*
X140343434Y-82428064D01*
X140343434Y-82428065D01*
X140315650Y-82567744D01*
X140315650Y-82873907D01*
X140125840Y-82795091D01*
X139911015Y-82794904D01*
X139712470Y-82876941D01*
X139560433Y-83028712D01*
X139478050Y-83227113D01*
X139477935Y-83358830D01*
X139459863Y-83376902D01*
X139380741Y-83495316D01*
X139362451Y-83587265D01*
X139352957Y-83634996D01*
X139352957Y-84255859D01*
X137698815Y-85910001D01*
X134138606Y-85910001D01*
X133294357Y-85065752D01*
X133294471Y-84935020D01*
X133246341Y-84818536D01*
X134816976Y-84818536D01*
X135071273Y-85072833D01*
X135189687Y-85151955D01*
X135329367Y-85179739D01*
X136674800Y-85179739D01*
X136814480Y-85151955D01*
X136932894Y-85072833D01*
X137845263Y-84160464D01*
X137924385Y-84042049D01*
X137952169Y-83902370D01*
X137952169Y-83878133D01*
X141470757Y-80359545D01*
X141524287Y-80359545D01*
X141443434Y-80554261D01*
X141443434Y-80554261D01*
G37*
X141443434Y-80554261D02*
X141443247Y-80769086D01*
X141525284Y-80967631D01*
X141669327Y-81111926D01*
X141632455Y-81148733D01*
X141550072Y-81347134D01*
X141549885Y-81561959D01*
X141631922Y-81760504D01*
X141671281Y-81799932D01*
X141508356Y-81732280D01*
X141293531Y-81732093D01*
X141094986Y-81814130D01*
X141001767Y-81907186D01*
X140976208Y-81907186D01*
X140836528Y-81934970D01*
X140718114Y-82014092D01*
X140422556Y-82309650D01*
X140343434Y-82428064D01*
X140343434Y-82428065D01*
X140315650Y-82567744D01*
X140315650Y-82873907D01*
X140125840Y-82795091D01*
X139911015Y-82794904D01*
X139712470Y-82876941D01*
X139560433Y-83028712D01*
X139478050Y-83227113D01*
X139477935Y-83358830D01*
X139459863Y-83376902D01*
X139380741Y-83495316D01*
X139362451Y-83587265D01*
X139352957Y-83634996D01*
X139352957Y-84255859D01*
X137698815Y-85910001D01*
X134138606Y-85910001D01*
X133294357Y-85065752D01*
X133294471Y-84935020D01*
X133246341Y-84818536D01*
X134816976Y-84818536D01*
X135071273Y-85072833D01*
X135189687Y-85151955D01*
X135329367Y-85179739D01*
X136674800Y-85179739D01*
X136814480Y-85151955D01*
X136932894Y-85072833D01*
X137845263Y-84160464D01*
X137924385Y-84042049D01*
X137952169Y-83902370D01*
X137952169Y-83878133D01*
X141470757Y-80359545D01*
X141524287Y-80359545D01*
X141443434Y-80554261D01*
G36*
X124902538Y-79822318D02*
X124930322Y-79961998D01*
X124952610Y-79995354D01*
X124952610Y-81587029D01*
X124983819Y-81743930D01*
X125072696Y-81876943D01*
X125785277Y-82589524D01*
X125918291Y-82678401D01*
X126075191Y-82709611D01*
X126075196Y-82709610D01*
X128440390Y-82709610D01*
X128597291Y-82678401D01*
X128730304Y-82589524D01*
X129002227Y-82317601D01*
X129002227Y-84731333D01*
X128968522Y-84764979D01*
X128861926Y-84764979D01*
X128722247Y-84792763D01*
X128616972Y-84863105D01*
X128603832Y-84871885D01*
X127840717Y-85635000D01*
X116591208Y-85635000D01*
X116449999Y-85493791D01*
X116450113Y-85363059D01*
X116368076Y-85164514D01*
X116216305Y-85012477D01*
X116020410Y-84931134D01*
X120411534Y-80540010D01*
X120506941Y-80540093D01*
X120705486Y-80458056D01*
X120857523Y-80306285D01*
X120939906Y-80107884D01*
X120940093Y-79893059D01*
X120858056Y-79694514D01*
X120813621Y-79650001D01*
X123269407Y-79650001D01*
X123399520Y-79624120D01*
X123509823Y-79550417D01*
X124902538Y-78157702D01*
X124902538Y-79822318D01*
X124902538Y-79822318D01*
G37*
X124902538Y-79822318D02*
X124930322Y-79961998D01*
X124952610Y-79995354D01*
X124952610Y-81587029D01*
X124983819Y-81743930D01*
X125072696Y-81876943D01*
X125785277Y-82589524D01*
X125918291Y-82678401D01*
X126075191Y-82709611D01*
X126075196Y-82709610D01*
X128440390Y-82709610D01*
X128597291Y-82678401D01*
X128730304Y-82589524D01*
X129002227Y-82317601D01*
X129002227Y-84731333D01*
X128968522Y-84764979D01*
X128861926Y-84764979D01*
X128722247Y-84792763D01*
X128616972Y-84863105D01*
X128603832Y-84871885D01*
X127840717Y-85635000D01*
X116591208Y-85635000D01*
X116449999Y-85493791D01*
X116450113Y-85363059D01*
X116368076Y-85164514D01*
X116216305Y-85012477D01*
X116020410Y-84931134D01*
X120411534Y-80540010D01*
X120506941Y-80540093D01*
X120705486Y-80458056D01*
X120857523Y-80306285D01*
X120939906Y-80107884D01*
X120940093Y-79893059D01*
X120858056Y-79694514D01*
X120813621Y-79650001D01*
X123269407Y-79650001D01*
X123399520Y-79624120D01*
X123509823Y-79550417D01*
X124902538Y-78157702D01*
X124902538Y-79822318D01*
M02*
